<svg width="95" height="99" viewBox="0 0 95 99" fill="none" xmlns="http://www.w3.org/2000/svg">
<g clip-path="url(#clip0_104_4256)">
<path d="M0.346667 69.95C0.346667 69.95 -0.67278 64.8101 0.789658 62.0954C2.2521 59.3807 6.63657 62.3027 6.21914 58.543C5.80171 54.7832 2.87683 37.6542 11.8588 33.477C20.8407 29.2999 34.2099 34.522 38.1798 23.0327C42.1497 11.5433 41.7436 3.18894 55.0902 2.9788C68.4367 2.76866 93.3265 35.1468 94.789 45.1737C96.2514 55.2006 81.7832 63.9668 81.3913 69.1946C80.9995 74.4225 89.7769 86.5337 87.0707 90.9211C84.3645 95.3084 83.7284 96.3534 83.7284 96.3534L0.346667 69.95Z" fill="white"/>
<path d="M0.346667 69.95C0.346667 69.95 -0.67278 64.8101 0.789658 62.0954C2.2521 59.3807 6.63657 62.3027 6.21914 58.543C5.80171 54.7832 2.87683 37.6542 11.8588 33.477C20.8407 29.2999 34.2099 34.522 38.1798 23.0327C42.1497 11.5433 41.7436 3.18894 55.0902 2.9788C68.4367 2.76866 93.3265 35.1468 94.789 45.1737C96.2514 55.2006 81.7832 63.9668 81.3913 69.1946C80.9995 74.4225 89.7769 86.5337 87.0707 90.9211C84.3645 95.3084 83.7284 96.3534 83.7284 96.3534L0.346667 69.95Z" fill="#F3F4F9"/>
<path d="M81.9478 95.8593L85.8864 97.0974" stroke="#0600CC" stroke-linecap="round" stroke-linejoin="round"/>
<path d="M6.02881 72.0201L79.0996 94.9648" stroke="#0600CC" stroke-linecap="round" stroke-linejoin="round"/>
<path d="M42.4706 98.858L51.3389 89.0412L23.3311 79.5765L15.3516 89.3962L42.4706 98.858Z" fill="#FEFF2D" stroke="#0600CC" stroke-linecap="round" stroke-linejoin="round"/>
<path d="M41.627 96.2483L47.579 89.825L26.2728 82.3055L20.3208 89.1974L41.627 96.2483Z" fill="#0600CC" stroke="#0600CC" stroke-linecap="round" stroke-linejoin="round"/>
<path d="M38.4975 52.5796C38.4975 52.5796 34.1017 53.7467 32.2502 55.4931C30.3987 57.2395 29.5468 60.4853 29.5468 60.4853C29.5468 60.4853 27.0564 62.6037 25.8922 63.2398C24.9422 63.7168 24.0968 64.3783 23.4055 65.1857C22.7141 65.9931 22.1906 66.9302 21.8655 67.9423C20.9113 70.8019 19.7471 77.265 19.7471 77.265L22.7174 78.6422C22.7174 78.6422 22.7685 76.9384 25.4179 74.3515C28.0674 71.7645 29.7087 67.3602 29.9217 67.2523C30.1346 67.1444 34.7946 64.0746 34.7946 64.0746C34.7946 64.0746 38.3953 66.5651 42.4759 67.2523C46.5566 67.9395 51.0546 67.2011 51.0546 67.2011L49.7853 71.1199C49.7853 71.1199 46.8718 72.3921 46.1306 73.9284C45.3894 75.4646 41.8909 81.2917 41.8909 81.2917L44.3814 83.3022C46.3503 81.8389 48.4403 80.5459 50.6287 79.4374C54.2833 77.583 55.1722 76.2569 56.2456 74.0874C57.2177 71.9237 58.032 69.6925 58.682 67.4113C58.7331 67.0421 59.7923 66.088 59.9514 63.8106L60.1104 61.5388L65.6733 56.558C68.7249 55.2071 71.4654 53.2419 73.7238 50.7849C77.3785 46.7582 77.9635 44.7989 78.3326 41.1981C78.7018 37.5974 80.187 23.345 80.2409 23.1349C80.2949 22.9248 80.7691 21.8627 81.4052 21.7576C82.0413 21.6526 85.5369 24.7052 86.014 25.0346C86.4911 25.364 87.4338 25.5117 87.5503 24.5065C87.6667 23.5012 86.8091 21.0136 84.1057 18.3074C81.4023 15.6012 79.4458 15.1838 78.8097 15.871C78.1736 16.5582 78.5967 18.0433 78.1736 20.2157C77.7505 22.3881 75.1011 30.2256 73.7778 33.9342C72.4545 37.6428 72.8776 42.6748 72.8776 42.6748C71.7899 43.0706 70.7573 43.6041 69.8051 44.2622C68.5329 45.2163 66.5735 46.5339 66.5735 46.5339L66.0425 46.267C66.0425 46.267 69.01 43.3023 69.9101 41.607C70.8103 39.9118 71.0772 39.8067 70.6002 38.7986C70.1231 37.7905 66.2555 32.9204 64.5602 30.7481C62.8649 28.5757 60.8004 24.9211 60.3773 23.8618C59.9924 22.955 59.9731 21.9344 60.3234 21.0136C60.6414 20.2725 63.606 18.7902 63.66 16.5127C63.7139 14.2353 62.2401 14.8714 60.8515 15.3456C59.4629 15.8199 55.7685 19.4263 54.9194 21.7037C54.0704 23.9811 54.8058 24.7052 56.2967 26.0938C57.7875 27.4824 59.5822 30.2795 60.5335 32.929C61.4848 35.5784 62.7059 38.1199 64.6652 38.8071C64.6652 38.8071 61.5416 40.2894 59.4743 41.7746C57.407 43.2597 56.4017 43.9469 56.4017 43.9469C56.4017 43.9469 53.5961 44.7392 52.5369 46.1165C51.9701 46.8243 51.4728 47.5851 51.0518 48.3882C51.0518 48.3882 41.4593 50.0381 38.4975 52.5796Z" fill="white"/>
<mask id="mask0_104_4256" style="mask-type:luminance" maskUnits="userSpaceOnUse" x="19" y="14" width="69" height="70">
<path d="M38.4975 52.5796C38.4975 52.5796 34.1017 53.7467 32.2502 55.4931C30.3987 57.2395 29.5468 60.4853 29.5468 60.4853C29.5468 60.4853 27.0564 62.6037 25.8922 63.2398C24.9422 63.7168 24.0968 64.3783 23.4055 65.1857C22.7141 65.9931 22.1906 66.9302 21.8655 67.9423C20.9113 70.8019 19.7471 77.265 19.7471 77.265L22.7174 78.6422C22.7174 78.6422 22.7685 76.9384 25.4179 74.3515C28.0674 71.7645 29.7087 67.3602 29.9217 67.2523C30.1346 67.1444 34.7946 64.0746 34.7946 64.0746C34.7946 64.0746 38.3953 66.5651 42.4759 67.2523C46.5566 67.9395 51.0546 67.2011 51.0546 67.2011L49.7853 71.1199C49.7853 71.1199 46.8718 72.3921 46.1306 73.9284C45.3894 75.4646 41.8909 81.2917 41.8909 81.2917L44.3814 83.3022C46.3503 81.8389 48.4403 80.5459 50.6287 79.4374C54.2833 77.583 55.1722 76.2569 56.2456 74.0874C57.2177 71.9237 58.032 69.6925 58.682 67.4113C58.7331 67.0421 59.7923 66.088 59.9514 63.8106L60.1104 61.5388L65.6733 56.558C68.7249 55.2071 71.4654 53.2419 73.7238 50.7849C77.3785 46.7582 77.9635 44.7989 78.3326 41.1981C78.7018 37.5974 80.187 23.345 80.2409 23.1349C80.2949 22.9248 80.7691 21.8627 81.4052 21.7576C82.0413 21.6526 85.5369 24.7052 86.014 25.0346C86.4911 25.364 87.4338 25.5117 87.5503 24.5065C87.6667 23.5012 86.8091 21.0136 84.1057 18.3074C81.4023 15.6012 79.4458 15.1838 78.8097 15.871C78.1736 16.5582 78.5967 18.0433 78.1736 20.2157C77.7505 22.3881 75.1011 30.2256 73.7778 33.9342C72.4545 37.6428 72.8776 42.6748 72.8776 42.6748C71.7899 43.0706 70.7573 43.6041 69.8051 44.2622C68.5329 45.2163 66.5735 46.5339 66.5735 46.5339L66.0425 46.267C66.0425 46.267 69.01 43.3023 69.9101 41.607C70.8103 39.9118 71.0772 39.8067 70.6002 38.7986C70.1231 37.7905 66.2555 32.9204 64.5602 30.7481C62.8649 28.5757 60.8004 24.9211 60.3773 23.8618C59.9924 22.955 59.9731 21.9344 60.3234 21.0136C60.6414 20.2725 63.606 18.7902 63.66 16.5127C63.7139 14.2353 62.2401 14.8714 60.8515 15.3456C59.4629 15.8199 55.7685 19.4263 54.9194 21.7037C54.0704 23.9811 54.8058 24.7052 56.2967 26.0938C57.7875 27.4824 59.5822 30.2795 60.5335 32.929C61.4848 35.5784 62.7059 38.1199 64.6652 38.8071C64.6652 38.8071 61.5416 40.2894 59.4743 41.7746C57.407 43.2597 56.4017 43.9469 56.4017 43.9469C56.4017 43.9469 53.5961 44.7392 52.5369 46.1165C51.9701 46.8243 51.4728 47.5851 51.0518 48.3882C51.0518 48.3882 41.4593 50.0381 38.4975 52.5796Z" fill="white"/>
</mask>
<g mask="url(#mask0_104_4256)">
<path opacity="0.2" d="M63.8447 57.6058L59.3182 59.7015C59.3182 59.7015 59.5397 63.1091 58.3243 64.8896C57.1089 66.6701 56.6688 67.2068 56.6688 67.2068C56.6688 67.2068 56.558 69.8562 55.7856 71.5118C55.0132 73.1673 53.7979 73.7211 53.7979 73.7211C53.7983 74.342 53.6709 74.9564 53.4237 75.526C53.1765 76.0956 52.8148 76.6083 52.361 77.0321C50.8162 78.4662 46.9656 80.7834 44.5234 82.3282C44.2707 82.49 44.0322 82.6632 43.7993 82.8365L44.3673 83.3022C46.3362 81.8389 48.4262 80.5459 50.6146 79.4373C54.2692 77.583 55.1581 76.2569 56.2315 74.0874C57.2036 71.9237 58.0179 69.6925 58.6679 67.4113C58.719 67.0421 59.7782 66.088 59.9373 63.8106L60.0963 61.5388L64.1769 57.8898L63.8447 57.6058Z" fill="black"/>
<path opacity="0.2" d="M42.4733 67.2523C46.1649 67.877 50.2143 67.3261 50.9384 67.2182C51.1713 66.6105 51.3218 65.9233 50.9384 65.662C50.2768 65.2219 50.4954 64.0065 50.4954 64.0065C50.4954 64.0065 49.9445 65.2219 45.5288 65.2219C41.1131 65.2219 35.1554 61.4678 35.1554 61.4678C35.1554 61.4678 34.7124 62.794 33.4999 63.2341C32.2874 63.6743 28.9649 65.5513 28.9649 65.5513C28.9649 65.5513 28.8542 68.6437 26.6477 70.5179C24.4413 72.3921 21.8969 76.7652 21.8969 76.7652L21.5107 78.0914L22.7148 78.6593C22.7148 78.6593 22.7659 76.9555 25.4153 74.3685C28.0647 71.7816 29.7061 67.3772 29.9191 67.2693C30.132 67.1614 34.792 64.0917 34.792 64.0917C34.792 64.0917 38.3927 66.5651 42.4733 67.2523Z" fill="black"/>
</g>
<path d="M38.4975 52.5796C38.4975 52.5796 34.1017 53.7467 32.2502 55.4931C30.3987 57.2395 29.5468 60.4853 29.5468 60.4853C29.5468 60.4853 27.0564 62.6037 25.8922 63.2398C24.9422 63.7168 24.0968 64.3783 23.4055 65.1857C22.7141 65.9931 22.1906 66.9302 21.8655 67.9423C20.9113 70.8019 19.7471 77.265 19.7471 77.265L22.7174 78.6422C22.7174 78.6422 22.7685 76.9384 25.4179 74.3515C28.0674 71.7645 29.7087 67.3602 29.9217 67.2523C30.1346 67.1444 34.7946 64.0747 34.7946 64.0747C34.7946 64.0747 38.3953 66.5651 42.4759 67.2523C46.5566 67.9395 51.0546 67.2011 51.0546 67.2011L49.7853 71.1199C49.7853 71.1199 46.8718 72.3921 46.1306 73.9284C45.3894 75.4646 41.8909 81.2917 41.8909 81.2917L44.3814 83.3022C46.3503 81.8389 48.4403 80.5459 50.6287 79.4374C54.2833 77.583 55.1722 76.2569 56.2456 74.0874C57.2177 71.9237 58.032 69.6925 58.682 67.4113C58.7331 67.0421 59.7923 66.088 59.9514 63.8106L60.1104 61.5388L65.6733 56.558C68.7249 55.2071 71.4654 53.2419 73.7238 50.7849C77.3785 46.7582 77.9635 44.7989 78.3326 41.1981C78.7018 37.5974 80.187 23.345 80.2409 23.1349C80.2949 22.9248 80.7691 21.8627 81.4052 21.7576C82.0413 21.6526 85.5369 24.7052 86.014 25.0346C86.4911 25.364 87.4338 25.5117 87.5503 24.5065C87.6667 23.5012 86.8091 21.0136 84.1057 18.3074C81.4023 15.6012 79.4458 15.1838 78.8097 15.871C78.1736 16.5582 78.5967 18.0433 78.1736 20.2157C77.7505 22.3881 75.1011 30.2256 73.7778 33.9342C72.4545 37.6428 72.8776 42.6748 72.8776 42.6748C71.7899 43.0706 70.7573 43.6041 69.8051 44.2622C68.5329 45.2163 66.5735 46.5339 66.5735 46.5339L66.0425 46.267C66.0425 46.267 69.01 43.3023 69.9101 41.6071C70.8103 39.9118 71.0772 39.8067 70.6002 38.7986C70.1231 37.7905 66.2555 32.9204 64.5602 30.7481C62.8649 28.5757 60.8004 24.9211 60.3773 23.8618C59.9924 22.955 59.9731 21.9344 60.3234 21.0136C60.6414 20.2725 63.606 18.7902 63.66 16.5127C63.7139 14.2353 62.2401 14.8714 60.8515 15.3456C59.4629 15.8199 55.7685 19.4263 54.9194 21.7037C54.0704 23.9811 54.8058 24.7052 56.2967 26.0938C57.7875 27.4824 59.5822 30.2795 60.5335 32.929C61.4848 35.5784 62.7059 38.1199 64.6652 38.8071C64.6652 38.8071 61.5416 40.2894 59.4743 41.7746C57.407 43.2597 56.4017 43.9469 56.4017 43.9469C56.4017 43.9469 53.5961 44.7392 52.5369 46.1165C51.9701 46.8243 51.4728 47.5851 51.0518 48.3882C51.0518 48.3882 41.4593 50.0381 38.4975 52.5796Z" stroke="#0600CC" stroke-linecap="round" stroke-linejoin="round"/>
<path d="M54.3916 46.5424C53.7214 46.5424 52.895 46.6021 52.1198 46.6844C51.7211 47.2238 51.3651 47.7935 51.0549 48.3882C51.0549 48.3882 41.4681 50.0324 38.5007 52.5739C38.5007 52.5739 34.1048 53.741 32.2534 55.4874C30.4019 57.2338 29.5471 60.4853 29.5471 60.4853C29.5471 60.4853 28.2267 61.607 27.0596 62.4731C27.9796 62.4078 29.5216 62.4447 30.3422 63.3022C31.1629 64.1598 31.1175 65.6989 30.9982 66.5849C32.4351 65.6507 34.792 64.0974 34.792 64.0974C34.792 64.0974 38.3928 66.5878 42.4734 67.275C46.554 67.9622 51.0521 67.2239 51.0521 67.2239L50.8476 67.8543C51.6115 67.2863 53.2642 66.4344 55.6609 67.3829C56.2021 67.5749 56.691 67.8904 57.0888 68.3045C57.4866 68.7186 57.7824 69.2198 57.9525 69.7682C58.3643 68.567 58.6568 67.6044 58.6823 67.434C58.7334 67.0648 59.7926 66.1107 59.9517 63.8333L60.1107 61.5615L64.799 57.3645C64.8984 56.3479 64.7678 54.7775 63.8193 52.608C61.965 48.3428 56.0329 46.5424 54.3916 46.5424Z" fill="#FEFF2D"/>
<mask id="mask1_104_4256" style="mask-type:luminance" maskUnits="userSpaceOnUse" x="27" y="46" width="38" height="24">
<path d="M54.3916 46.5424C53.7214 46.5424 52.895 46.6021 52.1198 46.6844C51.7211 47.2238 51.3651 47.7935 51.0549 48.3882C51.0549 48.3882 41.4681 50.0324 38.5007 52.5739C38.5007 52.5739 34.1048 53.741 32.2534 55.4874C30.4019 57.2338 29.5471 60.4853 29.5471 60.4853C29.5471 60.4853 28.2267 61.607 27.0596 62.4731C27.9796 62.4078 29.5216 62.4447 30.3422 63.3022C31.1629 64.1598 31.1175 65.6989 30.9982 66.5849C32.4351 65.6507 34.792 64.0974 34.792 64.0974C34.792 64.0974 38.3928 66.5878 42.4734 67.275C46.554 67.9622 51.0521 67.2239 51.0521 67.2239L50.8476 67.8543C51.6115 67.2863 53.2642 66.4344 55.6609 67.3829C56.2021 67.5749 56.691 67.8904 57.0888 68.3045C57.4866 68.7186 57.7824 69.2198 57.9525 69.7682C58.3643 68.567 58.6568 67.6044 58.6823 67.434C58.7334 67.0648 59.7926 66.1107 59.9517 63.8333L60.1107 61.5615L64.799 57.3645C64.8984 56.3479 64.7678 54.7775 63.8193 52.608C61.965 48.3428 56.0329 46.5424 54.3916 46.5424Z" fill="white"/>
</mask>
<g mask="url(#mask1_104_4256)">
<path opacity="0.2" d="M42.4733 67.2523C46.1649 67.877 50.2143 67.3261 50.9384 67.2182C51.1713 66.6105 51.3218 65.9233 50.9384 65.662C50.2768 65.2219 50.4954 64.0065 50.4954 64.0065C50.4954 64.0065 49.9445 65.2219 45.5288 65.2219C41.1131 65.2219 35.1554 61.4678 35.1554 61.4678C35.1554 61.4678 34.7124 62.794 33.4999 63.2341C32.2874 63.6743 28.9649 65.5513 28.9649 65.5513C28.9649 65.5513 28.8542 68.6437 26.6477 70.5179C24.4413 72.3921 21.8969 76.7652 21.8969 76.7652L21.5107 78.0914L22.7148 78.6593C22.7148 78.6593 22.7659 76.9555 25.4153 74.3685C28.0647 71.7816 29.7061 67.3772 29.9191 67.2693C30.132 67.1614 34.792 64.0917 34.792 64.0917C34.792 64.0917 38.3927 66.5651 42.4733 67.2523Z" fill="black"/>
<path opacity="0.2" d="M63.8447 57.6058L59.3182 59.7015C59.3182 59.7015 59.5397 63.1091 58.3243 64.8896C57.1089 66.6701 56.6688 67.2068 56.6688 67.2068C56.6688 67.2068 56.558 69.8562 55.7856 71.5118C55.0132 73.1673 53.7979 73.7211 53.7979 73.7211C53.7983 74.342 53.6709 74.9564 53.4237 75.526C53.1765 76.0956 52.8148 76.6083 52.361 77.0321C50.8162 78.4662 46.9656 80.7834 44.5234 82.3282C44.2707 82.49 44.0322 82.6632 43.7993 82.8365L44.3673 83.3022C46.3362 81.8389 48.4262 80.5459 50.6146 79.4373C54.2692 77.583 55.1581 76.2569 56.2315 74.0874C57.2036 71.9237 58.0179 69.6925 58.6679 67.4113C58.719 67.0421 59.7782 66.088 59.9373 63.8106L60.0963 61.5388L64.1769 57.8898L63.8447 57.6058Z" fill="black"/>
</g>
<path d="M54.3916 46.5424C53.7214 46.5424 52.895 46.6021 52.1198 46.6844C51.7211 47.2238 51.3651 47.7935 51.0549 48.3882C51.0549 48.3882 41.4681 50.0324 38.5007 52.5739C38.5007 52.5739 34.1048 53.741 32.2534 55.4874C30.4019 57.2338 29.5471 60.4853 29.5471 60.4853C29.5471 60.4853 28.2267 61.607 27.0596 62.4731C27.9796 62.4078 29.5216 62.4447 30.3422 63.3023C31.1629 64.1598 31.1175 65.6989 30.9982 66.5849C32.4351 65.6507 34.792 64.0974 34.792 64.0974C34.792 64.0974 38.3928 66.5878 42.4734 67.275C46.554 67.9622 51.0521 67.2239 51.0521 67.2239L50.8476 67.8543C51.6115 67.2863 53.2642 66.4344 55.6609 67.3829C56.2021 67.5749 56.691 67.8904 57.0888 68.3045C57.4866 68.7186 57.7824 69.2198 57.9525 69.7682C58.3643 68.567 58.6568 67.6044 58.6823 67.434C58.7334 67.0648 59.7926 66.1107 59.9517 63.8333L60.1107 61.5615L64.799 57.3645C64.8984 56.3479 64.7678 54.7775 63.8193 52.608C61.965 48.3428 56.0329 46.5424 54.3916 46.5424Z" stroke="#0600CC" stroke-linecap="round" stroke-linejoin="round"/>
<path d="M52.855 60.3149C51.8062 61.0272 51.0531 62.0974 50.7366 63.325C50.2056 65.3895 50.7877 66.6077 50.7877 66.6077" stroke="#0600CC" stroke-linecap="round" stroke-linejoin="round"/>
<path d="M36.4335 51.7732C36.4335 51.7732 34.0538 52.8437 33.2218 52.3667C32.3897 51.8896 32.509 49.8706 33.5199 48.7404C34.5309 47.6102 36.4931 47.4938 35.8371 47.3205C35.1812 47.1473 33.9345 46.7867 35.3033 45.7161C36.672 44.6456 40.6532 43.6943 43.9217 44.6456C47.1902 45.5968 48.38 47.3802 48.6186 48.2122C48.7407 48.5805 48.8198 48.9616 48.8543 49.3481C48.8543 49.3481 50.2741 48.7517 50.5212 49.2288C50.591 49.3522 50.6173 49.4956 50.5957 49.6357C50.574 49.7759 50.5057 49.9046 50.4019 50.0012C50.4019 50.0012 50.9357 50.5351 51.055 51.7845C51.1743 53.034 50.3423 54.1613 49.8652 54.6384C49.3881 55.1155 48.6782 55.2319 47.8462 54.5191C47.0141 53.8064 46.5371 51.3671 46.0032 51.3671C45.4693 51.3671 43.209 51.4864 43.1493 51.0831L43.0897 50.6657L37.027 52.2105L36.4335 51.7732Z" fill="#0600CC" stroke="#0600CC" stroke-linecap="round" stroke-linejoin="round"/>
<path d="M48.8425 56.9755C48.8425 56.9755 49.2656 62.0613 47.8373 64.6057C46.4089 67.1501 43.8106 65.3469 43.2285 64.7647C42.6463 64.1826 45.929 61.7433 46.6702 59.8379C47.4113 57.9324 48.5586 55.9163 48.8425 56.9755Z" fill="white"/>
<mask id="mask2_104_4256" style="mask-type:luminance" maskUnits="userSpaceOnUse" x="43" y="56" width="6" height="10">
<path d="M48.8425 56.9755C48.8425 56.9755 49.2656 62.0613 47.8373 64.6057C46.4089 67.1501 43.8106 65.3469 43.2285 64.7647C42.6463 64.1826 45.929 61.7433 46.6702 59.8379C47.4113 57.9324 48.5586 55.9163 48.8425 56.9755Z" fill="white"/>
</mask>
<g mask="url(#mask2_104_4256)">
<path opacity="0.2" d="M48.8425 56.9755C48.8425 56.9755 49.2656 62.0613 47.8373 64.6057C46.4089 67.1501 43.8106 65.3469 43.2285 64.7647C42.6463 64.1826 45.929 61.7433 46.6702 59.8379C47.4113 57.9324 48.5586 55.9163 48.8425 56.9755Z" fill="black"/>
</g>
<path d="M48.8425 56.9755C48.8425 56.9755 49.2656 62.0613 47.8373 64.6057C46.4089 67.1501 43.8106 65.3469 43.2285 64.7647C42.6463 64.1826 45.929 61.7433 46.6702 59.8379C47.4113 57.9324 48.5586 55.9163 48.8425 56.9755Z" stroke="#0600CC" stroke-linecap="round" stroke-linejoin="round"/>
<path d="M36.4331 51.7731C36.5881 54.5933 37.1485 57.3763 38.0972 60.0366C39.642 64.2564 42.2573 65.6819 43.3875 65.7415C44.5177 65.8012 46.656 63.6601 47.6073 61.641C48.2444 60.2346 48.7806 58.7846 49.2117 57.302C49.2117 57.302 50.5804 56.8249 50.9354 55.5783C51.2903 54.3317 51.2194 53.1987 50.2823 53.0794C49.3452 52.9601 48.9135 54.3289 48.9135 54.3289C48.1245 53.7551 47.541 52.9427 47.2495 52.0117C46.7752 50.464 47.7265 49.277 47.2495 49.5724C46.7724 49.8677 45.8296 50.8218 45.3469 50.6429C44.8641 50.464 45.6451 49.0981 45.6451 49.0981C45.6451 49.0981 37.9183 51.1143 36.4331 51.7731Z" fill="white" stroke="#0600CC" stroke-linecap="round" stroke-linejoin="round"/>
<path d="M46.5371 54.9224L49.1525 53.9114" stroke="#0600CC" stroke-linecap="round" stroke-linejoin="round"/>
<path d="M40.3547 55.2205L35.124 54.2692C35.124 54.2692 35.1837 55.9333 36.0157 56.8846C36.8477 57.8359 38.5714 57.9551 39.2245 57.7166C39.8777 57.4781 39.7612 55.638 40.474 55.814C41.1868 55.9901 41.0675 56.7653 41.3657 57.4781C41.6638 58.1908 41.9591 58.134 43.2682 58.3101C44.5773 58.4862 45.824 58.3697 46.2982 57.7166C46.7724 57.0635 47.0138 55.0416 46.5367 54.9224C46.0597 54.8031 44.4552 55.0416 42.7315 55.1013C41.0079 55.1609 40.3547 55.2205 40.3547 55.2205Z" fill="white"/>
<mask id="mask3_104_4256" style="mask-type:luminance" maskUnits="userSpaceOnUse" x="35" y="54" width="12" height="5">
<path d="M40.3547 55.2205L35.124 54.2692C35.124 54.2692 35.1837 55.9333 36.0157 56.8846C36.8477 57.8359 38.5714 57.9551 39.2245 57.7166C39.8777 57.4781 39.7612 55.638 40.474 55.814C41.1868 55.9901 41.0675 56.7653 41.3657 57.4781C41.6638 58.1908 41.9591 58.134 43.2682 58.3101C44.5773 58.4862 45.824 58.3697 46.2982 57.7166C46.7724 57.0635 47.0138 55.0416 46.5367 54.9224C46.0597 54.8031 44.4552 55.0416 42.7315 55.1013C41.0079 55.1609 40.3547 55.2205 40.3547 55.2205Z" fill="white"/>
</mask>
<g mask="url(#mask3_104_4256)">
<path d="M43.2685 58.3101C44.5747 58.489 45.8242 58.3697 46.2984 57.7166C46.6449 57.2423 46.8664 56.0554 46.7755 55.3909L41.6641 57.9324C41.9253 58.1766 42.3427 58.1851 43.2685 58.3101Z" fill="#FEFF2D"/>
<path d="M39.2246 57.7166C39.8806 57.4781 39.7613 55.6379 40.4741 55.814C40.9 55.9219 41.0278 56.2399 41.1272 56.6318L42.9304 55.0927H42.7316C42.2205 55.1098 41.8059 55.1296 41.4708 55.1438L36.2969 57.1316C37.1999 57.8529 38.6396 57.9296 39.2246 57.7166Z" fill="#FEFF2D"/>
</g>
<path d="M40.3547 55.2205L35.124 54.2692C35.124 54.2692 35.1837 55.9333 36.0157 56.8846C36.8477 57.8359 38.5714 57.9551 39.2245 57.7166C39.8777 57.4781 39.7612 55.638 40.474 55.814C41.1868 55.9901 41.0675 56.7653 41.3657 57.4781C41.6638 58.1908 41.9591 58.134 43.2682 58.3101C44.5773 58.4862 45.824 58.3697 46.2982 57.7166C46.7724 57.0635 47.0138 55.0416 46.5367 54.9224C46.0597 54.8031 44.4552 55.0416 42.7315 55.1013C41.0079 55.1609 40.3547 55.2205 40.3547 55.2205Z" stroke="#0600CC" stroke-linecap="round" stroke-linejoin="round"/>
<path d="M40.0001 57.1231C40.0001 57.1231 39.9404 58.6679 39.9404 59.6192C39.9404 60.5705 40.2954 60.5705 40.9485 60.5109C41.3125 60.4893 41.6629 60.3652 41.9594 60.1531" stroke="#0600CC" stroke-linecap="round" stroke-linejoin="round"/>
<path d="M42.0785 62.1891C42.0785 62.1891 43.3279 60.525 44.5745 60.7039C45.8212 60.8828 45.824 62.0102 45.1709 62.4276C44.5178 62.8451 42.8509 63.0808 42.4363 62.9615C42.0217 62.8422 41.8399 62.4134 42.0785 62.1891Z" stroke="#0600CC" stroke-linecap="round" stroke-linejoin="round"/>
<path d="M45.2306 61.1044C45.2306 61.1044 43.683 62.4135 42.1382 62.4731" stroke="#0600CC" stroke-linecap="round" stroke-linejoin="round"/>
<path d="M40.6528 53.8546C40.6528 53.8546 41.4252 54.6867 41.7234 54.4481C42.0216 54.2096 43.0893 53.139 44.3387 53.0283C45.5882 52.9175 45.7586 53.1447 45.5854 52.909C45.4121 52.6733 44.5744 52.2531 43.5635 52.3723C42.5526 52.4916 41.8398 53.5082 41.4849 53.6814C41.2217 53.7936 40.9389 53.8525 40.6528 53.8546Z" fill="#0600CC" stroke="#0600CC" stroke-linecap="round" stroke-linejoin="round"/>
<path d="M39.2843 53.6161C39.2843 53.6161 39.1678 54.0903 39.0003 54.15C38.8328 54.2096 38.7618 54.2096 37.7508 53.9114C36.7399 53.6133 36.4446 53.5565 36.4446 53.5565C36.4446 53.5565 36.385 53.0794 37.0977 53.0226C37.8105 52.9658 38.7021 53.4968 38.7021 53.4968C38.7021 53.4968 39.1082 53.795 39.2843 53.6161Z" fill="#0600CC" stroke="#0600CC" stroke-linecap="round" stroke-linejoin="round"/>
<path d="M46.2388 45.5911C46.2388 45.5911 48.9138 46.727 49.1523 51.1796L49.6947 51.1143C49.6877 49.7446 49.3976 48.3911 48.8428 47.1388C47.9625 45.2333 46.2388 45.5911 46.2388 45.5911Z" fill="white" stroke="#0600CC" stroke-linecap="round" stroke-linejoin="round"/>
<path d="M48.5729 53.0454C48.3771 53.0389 48.1894 52.9651 48.0416 52.8364C47.8937 52.7077 47.7948 52.532 47.7615 52.3389C47.7281 52.1458 47.7624 51.947 47.8584 51.7762C47.9545 51.6054 48.1066 51.4729 48.289 51.4012L50.7907 50.5038C50.8984 50.4519 51.0159 50.4232 51.1354 50.4196C51.255 50.416 51.3739 50.4376 51.4846 50.4831C51.5952 50.5285 51.695 50.5967 51.7775 50.6833C51.8601 50.7698 51.9234 50.8728 51.9635 50.9855C52.0036 51.0982 52.0196 51.218 52.0103 51.3372C52.001 51.4565 51.9667 51.5724 51.9096 51.6775C51.8526 51.7826 51.774 51.8745 51.6791 51.9473C51.5842 52.02 51.475 52.072 51.3587 52.0997L48.8597 52.9971C48.7676 53.0295 48.6706 53.0458 48.5729 53.0454Z" fill="white" stroke="#0600CC" stroke-miterlimit="10"/>
<path d="M48.8429 52.0912C48.982 52.4603 48.8713 52.8408 48.5987 52.9431C48.3261 53.0453 47.9967 52.8295 47.8575 52.4632C47.7184 52.0969 47.8291 51.7135 48.1017 51.6113C48.3744 51.509 48.6924 51.7249 48.8429 52.0912Z" fill="white" stroke="#0600CC" stroke-linecap="round" stroke-linejoin="round"/>
<path d="M48.5304 56.8221C48.5304 56.9727 48.4706 57.1172 48.3641 57.2237C48.2576 57.3302 48.1131 57.3901 47.9625 57.3901C47.8118 57.3901 47.6674 57.3302 47.5609 57.2237C47.4544 57.1172 47.3945 56.9727 47.3945 56.8221C47.3945 56.5098 47.9625 55.2518 47.9625 55.2518C47.9625 55.2518 48.5304 56.5098 48.5304 56.8221Z" stroke="#0600CC" stroke-linecap="round" stroke-linejoin="round"/>
<path d="M78.81 15.871C78.1739 16.561 78.597 18.0433 78.1739 20.2157C77.7508 22.3881 75.1013 30.2256 73.778 33.9342C72.4548 37.6428 72.8779 42.6748 72.8779 42.6748C71.7901 43.0706 70.7576 43.6041 69.8053 44.2622C68.5331 45.2163 66.5738 46.5339 66.5738 46.5339L66.0427 46.267C66.0427 46.267 69.0102 43.3023 69.9104 41.6071C70.8106 39.9118 71.0775 39.8067 70.6004 38.7986C70.1234 37.7905 66.2557 32.9205 64.5604 30.7481C62.8651 28.5757 60.8007 24.9211 60.3776 23.8618C59.9926 22.955 59.9733 21.9344 60.3236 21.0136C60.6417 20.2725 63.6063 18.7902 63.6602 16.5127C63.7142 14.2353 62.2404 14.8714 60.8518 15.3456C59.4632 15.8199 55.7687 19.4263 54.9197 21.7037C54.0706 23.9811 54.8061 24.7052 56.2969 26.0938C57.7878 27.4825 59.5824 30.2795 60.5337 32.929C61.485 35.5784 62.7061 38.1199 64.6655 38.8071C64.6655 38.8071 61.5418 40.2894 59.4745 41.7746C57.4072 43.2598 56.402 43.947 56.402 43.947C56.402 43.947 53.5964 44.7392 52.5372 46.1165C52.0749 46.7089 51.6536 47.3323 51.2764 47.9822C52.4861 47.5392 55.4166 46.8463 58.8413 48.871C63.0838 51.3671 63.9868 55.5102 63.9868 58.063L65.6736 56.5523C68.7252 55.2014 71.4657 53.2362 73.7241 50.7792C77.3788 46.7526 77.9637 44.7932 78.3329 41.1925C78.7021 37.5917 80.1872 23.3393 80.2412 23.1292C80.2951 22.9191 80.7694 21.857 81.4054 21.752C82.0415 21.6469 85.5372 24.7052 86.0143 25.0346C86.4913 25.364 87.4341 25.5117 87.5505 24.5065C87.667 23.5012 86.8094 21.0136 84.106 18.3074C81.4026 15.6012 79.4461 15.1838 78.81 15.871Z" fill="#0600CC" stroke="#0600CC" stroke-linecap="round" stroke-linejoin="round"/>
<path d="M60.4854 44.3701C60.4854 44.3701 66.0994 45.1113 69.0669 49.6661" stroke="#0600CC" stroke-linecap="round" stroke-linejoin="round"/>
<path d="M87.5503 24.5065C87.6553 23.4984 86.8091 21.008 84.1057 18.3074C81.4023 15.6069 79.4458 15.1838 78.8097 15.871C78.1736 16.5582 78.5967 18.0433 78.1736 20.2157C78.1168 20.4997 78.0203 20.9001 77.8896 21.3715C78.5118 21.2864 79.1431 21.4407 79.6559 21.8031C79.978 22.0095 80.2655 22.2654 80.5078 22.5613C80.718 22.2035 81.0332 21.8144 81.408 21.752C82.0441 21.6441 85.5398 24.7166 86.0168 25.0346C86.4939 25.3527 87.4452 25.5117 87.5503 24.5065Z" fill="#0600CC" stroke="#0600CC" stroke-linecap="round" stroke-linejoin="round"/>
<path d="M56.2969 26.0938C56.6212 26.3989 56.9248 26.7252 57.2056 27.0707C57.9558 27.0743 58.6931 26.8752 59.3394 26.4943C59.9857 26.1134 60.5171 25.5649 60.8773 24.9069C60.6933 24.57 60.5265 24.2241 60.3776 23.8704C59.9904 22.961 59.971 21.9369 60.3236 21.0136C60.6416 20.2725 63.6063 18.7902 63.6602 16.5127C63.7142 14.2353 62.2404 14.8714 60.8518 15.3456C59.4632 15.8199 55.7687 19.4263 54.9197 21.7037C54.0706 23.9811 54.8061 24.7052 56.2969 26.0938Z" fill="#0600CC" stroke="#0600CC" stroke-linecap="round" stroke-linejoin="round"/>
<path d="M60.8517 15.3343C59.4744 15.8113 55.7686 19.4149 54.9196 21.6923C54.2551 23.4785 54.5703 24.3219 55.4534 25.2675C55.8567 25.1538 56.2332 24.9607 56.5609 24.6996C57.8331 23.7454 58.3641 22.053 59.1564 21.468C59.6107 21.1386 60.4229 20.6161 61.2436 20.0652C62.2261 19.2332 63.6232 18.0462 63.6601 16.49C63.7141 14.2296 62.2289 14.8657 60.8517 15.3343Z" fill="white" stroke="#0600CC" stroke-linecap="round" stroke-linejoin="round"/>
<path d="M60.8519 15.3343C59.4746 15.8114 55.7688 19.4149 54.9198 21.6923C54.4484 22.9645 54.4711 23.7568 54.8403 24.4468C55.1242 24.4978 55.4157 24.4863 55.6948 24.4132C55.9738 24.3402 56.2335 24.2073 56.456 24.0237C58.2053 22.7515 57.5692 21.4283 59.1055 20.6871C60.6895 19.9094 62.136 18.8783 63.3877 17.6344C63.5593 17.2793 63.656 16.8927 63.6717 16.4986C63.7143 14.2296 62.2291 14.8657 60.8519 15.3343Z" fill="white" stroke="#0600CC" stroke-linecap="round" stroke-linejoin="round"/>
<path d="M87.5504 24.5065C87.6555 23.4984 86.8093 21.008 84.1059 18.3074C81.4025 15.6069 79.446 15.1838 78.8099 15.871C78.6222 16.0966 78.5073 16.3738 78.4805 16.6661C78.8822 16.5383 79.3053 16.4911 79.7253 16.5271C80.1454 16.5632 80.5542 16.6818 80.9283 16.8762C82.7826 17.7281 86.1732 21.9621 86.7014 23.1235C87.0109 23.8022 86.9257 24.6428 86.8519 25.2675C87.1926 25.2476 87.4936 25.046 87.5504 24.5065Z" fill="white" stroke="#0600CC" stroke-linecap="round" stroke-linejoin="round"/>
<path d="M66.3779 54.2039L63.8931 56.2258C63.8685 56.2461 63.8488 56.2717 63.8355 56.3007C63.8222 56.3297 63.8157 56.3614 63.8165 56.3933L63.9045 58.5856C63.9062 58.6233 63.9182 58.6599 63.9394 58.6912C63.9606 58.7225 63.99 58.7473 64.0244 58.7629C64.0588 58.7785 64.0969 58.7842 64.1344 58.7795C64.1718 58.7748 64.2073 58.7597 64.2367 58.7361L66.7925 56.6773C66.8189 56.6567 66.8397 56.6297 66.8531 56.599C66.8665 56.5683 66.872 56.5347 66.8691 56.5012L66.6959 54.3488C66.6918 54.3139 66.6787 54.2807 66.658 54.2523C66.6373 54.224 66.6096 54.2015 66.5776 54.1869C66.5457 54.1724 66.5105 54.1663 66.4755 54.1693C66.4405 54.1722 66.4069 54.1842 66.3779 54.2039Z" fill="#0600CC" stroke="#0600CC" stroke-linecap="round" stroke-linejoin="round"/>
<path d="M65.2506 31.6994C65.173 21.0506 65.173 10.5314 65.2506 0.141968" stroke="#0600CC" stroke-linecap="round" stroke-linejoin="round"/>
<path d="M65.2505 55.07V31.6994" stroke="#0600CC" stroke-linecap="round" stroke-linejoin="round"/>
<path d="M49.7827 48.6069C49.8395 32.4207 49.8395 16.2345 49.7827 0.15332" stroke="#0600CC" stroke-linecap="round" stroke-linejoin="round"/>
<path d="M47.2384 76.8305C46.0088 76.1746 45.3301 76.0354 44.9667 76.0297C44.5066 76.8362 43.9841 77.7335 43.4985 78.5571C44.3732 78.7019 45.6794 79.0256 46.4859 79.7469C46.9337 80.1413 47.3288 80.5918 47.6615 81.0872C48.3345 80.6783 49.0814 80.2353 49.9105 79.8037C49.4647 78.9205 48.5873 77.549 47.2384 76.8305Z" fill="#0600CC" stroke="#0600CC" stroke-linecap="round" stroke-linejoin="round"/>
<path d="M47.5338 75.1154L43.3765 80.1217L45.918 81.7375L50.8448 76.8106L47.5338 75.1154Z" fill="#0600CC" stroke="#0600CC" stroke-linecap="round" stroke-linejoin="round"/>
<path d="M47.7665 75.99L44.6343 79.6844L45.8667 80.4029L49.4589 76.7595L47.7665 75.99Z" fill="white" stroke="#0600CC" stroke-linecap="round" stroke-linejoin="round"/>
<path d="M20.162 81.215C20.1933 79.9087 19.5941 77.9948 19.4521 77.5802C19.117 76.5579 18.3787 76.1348 17.7966 76.6658C17.328 77.0918 17.612 78.0573 17.7199 78.5741C17.877 79.5005 18.0971 80.4151 18.3787 81.3115C18.5093 81.6665 18.6627 82.348 19.1057 82.4474C19.8923 82.6008 20.162 82.0243 20.162 81.215Z" fill="white" stroke="#0600CC" stroke-linecap="round" stroke-linejoin="round"/>
<path d="M18.5459 82.2998C18.5686 81.3201 18.1142 79.8832 18.012 79.5709C17.7621 78.8041 17.2055 78.4861 16.7682 78.8837C16.4189 79.2045 16.6291 79.9287 16.7114 80.3035C16.83 80.9993 16.996 81.6863 17.2084 82.3594C17.3049 82.6264 17.4185 83.1375 17.7507 83.2113C18.3357 83.3448 18.5317 82.9189 18.5459 82.2998Z" fill="white" stroke="#0600CC" stroke-linecap="round" stroke-linejoin="round"/>
<path d="M23.3906 77.9863C23.3906 77.9863 24.5946 79.4686 25.614 79.6078C25.992 79.6418 26.3566 79.7644 26.6783 79.9657C27 80.167 27.2697 80.4413 27.4655 80.7664C27.7892 81.2747 26.7244 82.987 26.6789 83.589C26.6335 84.191 26.2161 84.2848 25.6595 83.961C25.1029 83.6373 24.9183 82.757 25.0915 82.1096C25.2648 81.4621 25.3755 81.2747 25.2278 81.2292C24.6614 81.0732 24.1048 80.8836 23.5609 80.6613C23.2514 80.4881 23.3906 77.9863 23.3906 77.9863Z" fill="white" stroke="#0600CC" stroke-linecap="round" stroke-linejoin="round"/>
<path d="M22.0419 80.8033C22.0732 79.497 21.474 77.583 21.332 77.1685C20.9969 76.1462 20.2586 75.7231 19.6765 76.2541C19.2079 76.68 19.4919 77.6455 19.5998 78.1623C19.7555 79.089 19.9756 80.0037 20.2586 80.8998C20.3892 81.2548 20.5426 81.9363 20.9827 82.0357C21.7608 82.1919 22.0249 81.6154 22.0419 80.8033Z" fill="white" stroke="#0600CC" stroke-linecap="round" stroke-linejoin="round"/>
<path d="M24.2625 81.3229C24.2938 80.0167 23.6946 78.1056 23.5526 77.691C23.2175 76.6659 22.4792 76.2427 21.8971 76.7766C21.4285 77.2026 21.7096 78.168 21.8204 78.6849C21.9761 79.6116 22.1962 80.5263 22.4792 81.4223C22.607 81.7773 22.7632 82.456 23.2033 82.5582C23.9814 82.7144 24.2455 82.1351 24.2625 81.3229Z" fill="white" stroke="#0600CC" stroke-linecap="round" stroke-linejoin="round"/>
<path d="M41.7577 87.2835C42.1581 85.8381 43.4218 84.0491 43.7001 83.6657C44.3873 82.7116 45.296 82.6207 45.7276 83.4982C46.0741 84.1996 45.4607 85.1139 45.1767 85.6251C44.7137 86.5522 44.1821 87.4435 43.5865 88.2915C43.3338 88.6153 42.9504 89.2826 42.4506 89.1605C41.593 88.9504 41.5107 88.1836 41.7577 87.2835Z" fill="white" stroke="#0600CC" stroke-linecap="round" stroke-linejoin="round"/>
<path d="M43.913 88.1893C44.214 87.1045 45.1625 85.7614 45.3726 85.4717C45.8866 84.7561 46.571 84.688 46.8947 85.3468C47.1559 85.8749 46.6931 86.5622 46.4801 86.9455C46.1314 87.6368 45.7318 88.3012 45.2846 88.9333C45.0972 89.1775 44.8075 89.6801 44.4327 89.5893C43.7909 89.4501 43.7313 88.8651 43.913 88.1893Z" fill="white" stroke="#0600CC" stroke-linecap="round" stroke-linejoin="round"/>
<path d="M40.2868 81.0219C40.2868 81.0219 38.5433 82.0385 37.4471 81.675C36.351 81.3116 35.6411 81.6154 35.1328 82.0101C34.6245 82.4048 35.1726 84.8157 35.0221 85.5001C34.8716 86.1845 35.2748 86.494 35.962 86.4201C36.6492 86.3463 37.1319 85.4745 37.1518 84.6709C37.1717 83.8673 37.1518 83.6174 37.2966 83.6373C37.4415 83.6571 38.8216 83.9212 39.2191 83.8701C39.6167 83.819 40.2868 81.0219 40.2868 81.0219Z" fill="white" stroke="#0600CC" stroke-linecap="round" stroke-linejoin="round"/>
<path d="M40.7637 84.7845C41.1641 83.342 42.4278 81.553 42.7061 81.1668C43.3905 80.2126 44.302 80.1246 44.7336 80.9992C45.0801 81.7035 44.4667 82.615 44.1827 83.1261C43.7204 84.0543 43.1878 84.9457 42.5897 85.7926C42.3398 86.1163 41.9564 86.7837 41.4538 86.6644C40.6076 86.4514 40.5139 85.6847 40.7637 84.7845Z" fill="white" stroke="#0600CC" stroke-linecap="round" stroke-linejoin="round"/>
<path d="M38.2763 84.2365C38.6767 82.7911 39.9404 81.0021 40.2186 80.6187C40.9058 79.6646 41.8145 79.5737 42.2462 80.4512C42.5926 81.1526 41.9792 82.0669 41.6953 82.5781C41.2322 83.5052 40.7007 84.3965 40.1051 85.2445C39.8523 85.5683 39.469 86.2356 38.9692 86.1135C38.1116 85.9034 38.0292 85.1366 38.2763 84.2365Z" fill="white" stroke="#0600CC" stroke-linecap="round" stroke-linejoin="round"/>
<path d="M10.2939 75.5669L15.3514 89.3962L42.4704 98.858L40.9171 85.6506L10.2939 75.5669Z" fill="#FEFF2D" stroke="#0600CC" stroke-linecap="round" stroke-linejoin="round"/>
<path d="M71.4185 67.6953H80.0369" stroke="#C1FD3A" stroke-linecap="round" stroke-linejoin="round"/>
<path d="M65.2617 67.6953H68.2718" stroke="#C1FD3A" stroke-linecap="round" stroke-linejoin="round"/>
<path d="M78.5317 69.2656H80.0368" stroke="#C1FD3A" stroke-linecap="round" stroke-linejoin="round"/>
<path d="M74.292 69.2656H77.2992" stroke="#C1FD3A" stroke-linecap="round" stroke-linejoin="round"/>
<path d="M65.2617 69.2656H72.2388" stroke="#C1FD3A" stroke-linecap="round" stroke-linejoin="round"/>
<path d="M72.375 70.8388H80.0365" stroke="#C1FD3A" stroke-linecap="round" stroke-linejoin="round"/>
<path d="M65.2617 70.8388H70.7338" stroke="#C1FD3A" stroke-linecap="round" stroke-linejoin="round"/>
<path d="M76.7539 72.4092H80.0366" stroke="#C1FD3A" stroke-linecap="round" stroke-linejoin="round"/>
<path d="M68.5444 72.4092H75.3852" stroke="#C1FD3A" stroke-linecap="round" stroke-linejoin="round"/>
<path d="M65.2617 72.4092H67.0422" stroke="#C1FD3A" stroke-linecap="round" stroke-linejoin="round"/>
<path d="M71.4185 73.7836H80.0369" stroke="#C1FD3A" stroke-linecap="round" stroke-linejoin="round"/>
<path d="M65.2617 73.7836H68.2718" stroke="#C1FD3A" stroke-linecap="round" stroke-linejoin="round"/>
<path d="M78.5317 75.3568H80.0368" stroke="#C1FD3A" stroke-linecap="round" stroke-linejoin="round"/>
<path d="M74.292 75.3568H77.2992" stroke="#C1FD3A" stroke-linecap="round" stroke-linejoin="round"/>
<path d="M65.2617 75.3568H72.2388" stroke="#C1FD3A" stroke-linecap="round" stroke-linejoin="round"/>
<path d="M72.375 76.9271H80.0365" stroke="#C1FD3A" stroke-linecap="round" stroke-linejoin="round"/>
<path d="M65.2617 76.9271H70.7338" stroke="#C1FD3A" stroke-linecap="round" stroke-linejoin="round"/>
<path d="M78.5317 79.8804H80.0368" stroke="#C1FD3A" stroke-linecap="round" stroke-linejoin="round"/>
<path d="M74.292 79.8804H77.2992" stroke="#C1FD3A" stroke-linecap="round" stroke-linejoin="round"/>
<path d="M65.2617 79.8804H72.2388" stroke="#C1FD3A" stroke-linecap="round" stroke-linejoin="round"/>
<path d="M72.375 81.4507H80.0365" stroke="#C1FD3A" stroke-linecap="round" stroke-linejoin="round"/>
<path d="M65.2617 81.4507H70.7338" stroke="#C1FD3A" stroke-linecap="round" stroke-linejoin="round"/>
<path d="M76.7539 83.0239H80.0366" stroke="#C1FD3A" stroke-linecap="round" stroke-linejoin="round"/>
<path d="M68.5444 83.0239H75.3852" stroke="#C1FD3A" stroke-linecap="round" stroke-linejoin="round"/>
<path d="M65.2617 83.0239H67.0422" stroke="#C1FD3A" stroke-linecap="round" stroke-linejoin="round"/>
<path d="M71.4185 84.3983H80.0369" stroke="#C1FD3A" stroke-linecap="round" stroke-linejoin="round"/>
<path d="M65.2617 84.3983H68.2718" stroke="#C1FD3A" stroke-linecap="round" stroke-linejoin="round"/>
<path d="M78.5317 85.9715H80.0368" stroke="#C1FD3A" stroke-linecap="round" stroke-linejoin="round"/>
<path d="M74.292 85.9715H77.2992" stroke="#C1FD3A" stroke-linecap="round" stroke-linejoin="round"/>
<path d="M65.2617 85.9715H72.2388" stroke="#C1FD3A" stroke-linecap="round" stroke-linejoin="round"/>
<path d="M81.8315 88.8367L82.9419 83.8446L84.0522 86.9881L85.5288 73.4939L87.562 83.8446L89.9672 65.9148L92.5542 86.619L93.6645 84.5857L94.2183 88.6522" stroke="#0600CC" stroke-linecap="round" stroke-linejoin="round"/>
<path d="M66.4233 64.6568L72.7814 58.3016L77.4584 62.4987L81.4169 58.9008L87.295 63.3392L93.6531 56.6234" stroke="#0600CC" stroke-linecap="round" stroke-linejoin="round"/>
<path d="M73.6218 58.3016C73.6218 58.1331 73.5718 57.9684 73.4782 57.8283C73.3846 57.6882 73.2516 57.579 73.0959 57.5146C72.9402 57.4501 72.7689 57.4332 72.6037 57.4661C72.4384 57.4989 72.2866 57.5801 72.1675 57.6992C72.0483 57.8184 71.9672 57.9702 71.9343 58.1354C71.9015 58.3007 71.9183 58.472 71.9828 58.6276C72.0473 58.7833 72.1565 58.9163 72.2966 59.0099C72.4367 59.1036 72.6014 59.1535 72.7699 59.1535C72.9958 59.1535 73.2125 59.0638 73.3723 58.904C73.532 58.7442 73.6218 58.5276 73.6218 58.3016Z" fill="#FEFF2D" stroke="#0600CC" stroke-linecap="round" stroke-linejoin="round"/>
<path d="M82.2575 58.9007C82.2575 58.7322 82.2076 58.5675 82.114 58.4274C82.0203 58.2873 81.8873 58.1782 81.7316 58.1137C81.576 58.0492 81.4047 58.0323 81.2394 58.0652C81.0742 58.0981 80.9224 58.1792 80.8032 58.2983C80.6841 58.4175 80.6029 58.5693 80.5701 58.7345C80.5372 58.8998 80.5541 59.0711 80.6186 59.2267C80.683 59.3824 80.7922 59.5155 80.9323 59.6091C81.0724 59.7027 81.2371 59.7526 81.4056 59.7526C81.6316 59.7526 81.8482 59.6629 82.008 59.5031C82.1678 59.3434 82.2575 59.1267 82.2575 58.9007Z" fill="#FEFF2D" stroke="#0600CC" stroke-linecap="round" stroke-linejoin="round"/>
<path d="M87.2951 64.1798C87.7594 64.1798 88.1357 63.8034 88.1357 63.3392C88.1357 62.875 87.7594 62.4987 87.2951 62.4987C86.8309 62.4987 86.4546 62.875 86.4546 63.3392C86.4546 63.8034 86.8309 64.1798 87.2951 64.1798Z" fill="#FEFF2D" stroke="#0600CC" stroke-linecap="round" stroke-linejoin="round"/>
<path d="M94.3717 56.6233C94.3745 56.4542 94.3269 56.2882 94.2351 56.1462C94.1432 56.0043 94.0111 55.8929 93.8557 55.8262C93.7003 55.7595 93.5286 55.7406 93.3624 55.7719C93.1963 55.8031 93.0431 55.8831 92.9226 56.0017C92.802 56.1202 92.7194 56.272 92.6854 56.4376C92.6514 56.6032 92.6674 56.7753 92.7314 56.9318C92.7955 57.0883 92.9046 57.2221 93.045 57.3164C93.1854 57.4107 93.3507 57.461 93.5198 57.461C93.7433 57.461 93.9578 57.3732 94.1172 57.2165C94.2765 57.0598 94.3679 56.8468 94.3717 56.6233Z" fill="#FEFF2D" stroke="#0600CC" stroke-linecap="round" stroke-linejoin="round"/>
<path d="M66.4231 65.5002C66.8873 65.5002 67.2636 65.1239 67.2636 64.6596C67.2636 64.1954 66.8873 63.8191 66.4231 63.8191C65.9588 63.8191 65.5825 64.1954 65.5825 64.6596C65.5825 65.1239 65.9588 65.5002 66.4231 65.5002Z" fill="#FEFF2D" stroke="#0600CC" stroke-linecap="round" stroke-linejoin="round"/>
<path d="M77.4582 63.1007C77.9224 63.1007 78.2988 62.7243 78.2988 62.2601C78.2988 61.7959 77.9224 61.4196 77.4582 61.4196C76.994 61.4196 76.6177 61.7959 76.6177 62.2601C76.6177 62.7243 76.994 63.1007 77.4582 63.1007Z" fill="#FEFF2D" stroke="#0600CC" stroke-linecap="round" stroke-linejoin="round"/>
<path d="M20.8804 37.2112L23.3481 35.7857" stroke="#0600CC" stroke-linecap="round" stroke-linejoin="round"/>
<path d="M8.83154 35.7857V44.1685L16.0898 48.357L23.348 44.1685V35.7857L16.0898 31.5944L8.83154 35.7857Z" stroke="#0600CC" stroke-linecap="round" stroke-linejoin="round"/>
<path d="M11.3022 37.2112V42.7429L16.09 45.506L20.8805 42.7429V37.2112L16.09 34.4454L11.3022 37.2112Z" stroke="#0600CC" stroke-linecap="round" stroke-linejoin="round"/>
<path d="M16.0898 31.5943V25.3698" stroke="#0600CC" stroke-linecap="round" stroke-linejoin="round"/>
<path d="M16.0896 26.2841C16.7656 26.2841 17.3135 25.7362 17.3135 25.0602C17.3135 24.3843 16.7656 23.8363 16.0896 23.8363C15.4137 23.8363 14.8657 24.3843 14.8657 25.0602C14.8657 25.7362 15.4137 26.2841 16.0896 26.2841Z" fill="#FEFF2D" stroke="#0600CC" stroke-linecap="round" stroke-linejoin="round"/>
<path d="M16.0898 48.181V54.4056" stroke="#0600CC" stroke-linecap="round" stroke-linejoin="round"/>
<path d="M14.8657 54.7151C14.8657 54.9571 14.9375 55.1938 15.072 55.395C15.2065 55.5963 15.3976 55.7532 15.6213 55.8458C15.8449 55.9384 16.091 55.9627 16.3284 55.9154C16.5658 55.8682 16.7839 55.7517 16.9551 55.5805C17.1262 55.4093 17.2428 55.1912 17.29 54.9538C17.3372 54.7164 17.313 54.4703 17.2204 54.2467C17.1277 54.0231 16.9709 53.8319 16.7696 53.6974C16.5683 53.5629 16.3317 53.4911 16.0896 53.4911C15.765 53.4911 15.4537 53.6201 15.2242 53.8496C14.9947 54.0792 14.8657 54.3905 14.8657 54.7151Z" fill="#FEFF2D" stroke="#0600CC" stroke-linecap="round" stroke-linejoin="round"/>
<path d="M11.3021 37.2112L8.83154 35.7857" stroke="#0600CC" stroke-linecap="round" stroke-linejoin="round"/>
<path d="M11.5093 42.7827L16.2998 40.0168L20.8802 42.7429" stroke="#0600CC" stroke-linecap="round" stroke-linejoin="round"/>
<path d="M16.2998 40.0168V34.4454" stroke="#0600CC" stroke-linecap="round" stroke-linejoin="round"/>
<path d="M31.0068 12.8751H34.2895" stroke="#C1FD3A" stroke-linecap="round" stroke-linejoin="round"/>
<path d="M22.7998 12.8751H29.6378" stroke="#C1FD3A" stroke-linecap="round" stroke-linejoin="round"/>
<path d="M19.5146 12.8751H21.2951" stroke="#C1FD3A" stroke-linecap="round" stroke-linejoin="round"/>
<path d="M25.6709 14.2524H34.2893" stroke="#C1FD3A" stroke-linecap="round" stroke-linejoin="round"/>
<path d="M19.5146 14.2524H22.5247" stroke="#C1FD3A" stroke-linecap="round" stroke-linejoin="round"/>
<path d="M32.7842 15.8227H34.2892" stroke="#C1FD3A" stroke-linecap="round" stroke-linejoin="round"/>
<path d="M28.5444 15.8227H31.5517" stroke="#C1FD3A" stroke-linecap="round" stroke-linejoin="round"/>
<path d="M19.5146 15.8227H26.4918" stroke="#C1FD3A" stroke-linecap="round" stroke-linejoin="round"/>
<path d="M26.6279 17.3959H34.2894" stroke="#C1FD3A" stroke-linecap="round" stroke-linejoin="round"/>
<path d="M19.5146 17.3959H24.9867" stroke="#C1FD3A" stroke-linecap="round" stroke-linejoin="round"/>
<path d="M31.0068 18.9662H34.2895" stroke="#C1FD3A" stroke-linecap="round" stroke-linejoin="round"/>
<path d="M22.7998 18.9662H29.6378" stroke="#C1FD3A" stroke-linecap="round" stroke-linejoin="round"/>
<path d="M19.5146 18.9662H21.2951" stroke="#C1FD3A" stroke-linecap="round" stroke-linejoin="round"/>
<path d="M25.6709 20.3406H34.2893" stroke="#C1FD3A" stroke-linecap="round" stroke-linejoin="round"/>
<path d="M19.5146 20.3406H22.5247" stroke="#C1FD3A" stroke-linecap="round" stroke-linejoin="round"/>
<path d="M32.7842 21.9138H34.2892" stroke="#C1FD3A" stroke-linecap="round" stroke-linejoin="round"/>
<path d="M28.5444 21.9138H31.5517" stroke="#C1FD3A" stroke-linecap="round" stroke-linejoin="round"/>
<path d="M19.5146 21.9138H26.4918" stroke="#C1FD3A" stroke-linecap="round" stroke-linejoin="round"/>
<path d="M26.6279 23.4842H34.2894" stroke="#C1FD3A" stroke-linecap="round" stroke-linejoin="round"/>
<path d="M19.5146 23.4842H24.9867" stroke="#C1FD3A" stroke-linecap="round" stroke-linejoin="round"/>
<path d="M31.0068 25.0574H34.2895" stroke="#C1FD3A" stroke-linecap="round" stroke-linejoin="round"/>
<path d="M22.7998 25.0574H29.6378" stroke="#C1FD3A" stroke-linecap="round" stroke-linejoin="round"/>
<path d="M19.5146 25.0574H21.2951" stroke="#C1FD3A" stroke-linecap="round" stroke-linejoin="round"/>
<path d="M25.6709 26.4318H34.2893" stroke="#C1FD3A" stroke-linecap="round" stroke-linejoin="round"/>
<path d="M19.5146 26.4318H22.5247" stroke="#C1FD3A" stroke-linecap="round" stroke-linejoin="round"/>
<path d="M34.2892 28.0021H32.7842" stroke="#C1FD3A" stroke-linecap="round" stroke-linejoin="round"/>
<path d="M28.5444 28.0021H31.5517" stroke="#C1FD3A" stroke-linecap="round" stroke-linejoin="round"/>
<path d="M19.5146 28.0021H26.4918" stroke="#C1FD3A" stroke-linecap="round" stroke-linejoin="round"/>
<path d="M26.6279 29.5753H34.2894" stroke="#C1FD3A" stroke-linecap="round" stroke-linejoin="round"/>
<path d="M19.5146 29.5753H24.9867" stroke="#C1FD3A" stroke-linecap="round" stroke-linejoin="round"/>
<path d="M31.0068 31.1457H34.2895" stroke="#C1FD3A" stroke-linecap="round" stroke-linejoin="round"/>
<path d="M22.7998 31.1457H29.6378" stroke="#C1FD3A" stroke-linecap="round" stroke-linejoin="round"/>
<path d="M19.5146 31.1457H21.2951" stroke="#C1FD3A" stroke-linecap="round" stroke-linejoin="round"/>
</g>
<defs>
<clipPath id="clip0_104_4256">
<rect width="94.8938" height="99" fill="white"/>
</clipPath>
</defs>
</svg>
