<svg width="100" height="98" viewBox="0 0 100 98" fill="none" xmlns="http://www.w3.org/2000/svg">
<g clip-path="url(#clip0_104_4250)">
<path d="M65.8924 4.42736C54.087 -1.02364 39.8638 -1.29644 27.6153 2.81559C15.2292 6.97266 2.43514 17.4392 1.25134 31.347C0.387892 41.5457 8.41172 47.9227 9.81576 57.4382C10.6692 63.217 7.97874 68.2 7.56328 73.7812C7.2104 78.5239 8.91227 83.0689 12.0682 86.5927C21.829 97.5448 40.8749 101.777 52.345 90.9976C56.85 86.7429 60.8544 80.9215 66.9661 78.8317C79.2521 74.6371 98.0303 73.5759 99.8773 57.1829C101.004 47.1919 94.8568 37.9342 89.6886 29.9479C83.2315 19.982 77.1023 9.60556 65.8924 4.42736Z" fill="white"/>
<path opacity="0.7" d="M65.8924 4.42736C54.087 -1.02364 39.8638 -1.29644 27.6153 2.81559C15.2292 6.97266 2.43514 17.4392 1.25134 31.347C0.387892 41.5457 8.41172 47.9227 9.81576 57.4382C10.6692 63.217 7.97874 68.2 7.56328 73.7812C7.2104 78.5239 8.91227 83.0689 12.0682 86.5927C21.829 97.5448 40.8749 101.777 52.345 90.9976C56.85 86.7429 60.8544 80.9215 66.9661 78.8317C79.2521 74.6371 98.0303 73.5759 99.8773 57.1829C101.004 47.1919 94.8568 37.9342 89.6886 29.9479C83.2315 19.982 77.1023 9.60556 65.8924 4.42736Z" fill="white"/>
<path d="M65.8924 4.42736C54.087 -1.02364 39.8638 -1.29644 27.6153 2.81559C15.2292 6.97266 2.43514 17.4392 1.25134 31.347C0.387892 41.5457 8.41172 47.9227 9.81576 57.4382C10.6692 63.217 7.97874 68.2 7.56328 73.7812C7.2104 78.5239 8.91227 83.0689 12.0682 86.5927C21.829 97.5448 40.8749 101.777 52.345 90.9976C56.85 86.7429 60.8544 80.9215 66.9661 78.8317C79.2521 74.6371 98.0303 73.5759 99.8773 57.1829C101.004 47.1919 94.8568 37.9342 89.6886 29.9479C83.2315 19.982 77.1023 9.60556 65.8924 4.42736Z" fill="white"/>
<path d="M65.8924 4.42736C54.087 -1.02364 39.8638 -1.29644 27.6153 2.81559C15.2292 6.97266 2.43514 17.4392 1.25134 31.347C0.387892 41.5457 8.41172 47.9227 9.81576 57.4382C10.6692 63.217 7.97874 68.2 7.56328 73.7812C7.2104 78.5239 8.91227 83.0689 12.0682 86.5927C21.829 97.5448 40.8749 101.777 52.345 90.9976C56.85 86.7429 60.8544 80.9215 66.9661 78.8317C79.2521 74.6371 98.0303 73.5759 99.8773 57.1829C101.004 47.1919 94.8568 37.9342 89.6886 29.9479C83.2315 19.982 77.1023 9.60556 65.8924 4.42736Z" fill="#F3F4F9"/>
<path d="M94.1459 60.8694H1.04346V61.7179H94.1459V60.8694Z" fill="#0600CC"/>
<path d="M66.5005 50.5055C66.688 50.5507 66.8812 50.5676 67.0737 50.5556C67.0737 50.5556 66.9886 50.3053 66.9811 50.2803C66.8935 50.1001 66.6182 49.7998 66.3954 49.8298C66.3581 49.8354 66.3225 49.849 66.2909 49.8695C66.2592 49.89 66.2323 49.9171 66.2119 49.9488C66.1916 49.9805 66.1782 50.0162 66.1727 50.0535C66.1673 50.0909 66.1698 50.1289 66.1802 50.1652C66.2058 50.2417 66.2477 50.3117 66.303 50.3705C66.3583 50.4293 66.4257 50.4753 66.5005 50.5055Z" fill="#0600CC"/>
<path d="M71.6936 49.1565C71.4683 49.1315 71.193 49.4393 71.1204 49.622C71.1204 49.6396 71.0303 49.8999 71.0353 49.8999L70.9002 50.06C70.8101 50.1676 70.7125 50.2903 70.6149 50.4304C70.5083 50.5811 70.4097 50.7373 70.3196 50.8984C70.2203 51.0804 70.1365 51.2705 70.0693 51.4666C70.0693 51.399 70.0693 51.2163 70.0693 51.2013C70.0418 51.0011 69.8741 50.6282 69.6538 50.5881C69.6168 50.5821 69.579 50.5839 69.5427 50.5936C69.5065 50.6032 69.4728 50.6204 69.4437 50.6441C69.4146 50.6677 69.3908 50.6973 69.374 50.7308C69.3572 50.7643 69.3476 50.8009 69.346 50.8384C69.3481 50.9195 69.3684 50.9991 69.4052 51.0714C69.442 51.1437 69.4944 51.2069 69.5587 51.2563C69.713 51.3586 69.8817 51.437 70.0593 51.4891C69.9946 51.6896 69.9444 51.8945 69.9091 52.1023C69.8891 52.2224 69.8691 52.3526 69.854 52.4677C69.854 52.4101 69.854 52.3601 69.854 52.3525C69.8265 52.1523 69.6588 51.7819 69.4386 51.7419C69.4015 51.7363 69.3637 51.7384 69.3275 51.7482C69.2913 51.758 69.2575 51.7752 69.2283 51.7987C69.1991 51.8222 69.1752 51.8516 69.1579 51.8849C69.1407 51.9182 69.1306 51.9547 69.1282 51.9922C69.1317 52.0733 69.1528 52.1526 69.1899 52.2248C69.2271 52.2969 69.2795 52.3602 69.3435 52.4101C69.4981 52.5104 69.6668 52.5872 69.844 52.6379C69.844 52.6829 69.8315 52.7305 69.8265 52.778C69.799 53.0058 69.774 53.231 69.7414 53.4513C69.7414 53.5313 69.7164 53.6064 69.7014 53.684C69.7035 53.6507 69.7035 53.6172 69.7014 53.5839C69.6764 53.3837 69.5087 53.0108 69.2859 52.9707C69.2489 52.9647 69.2111 52.9665 69.1748 52.9762C69.1386 52.9858 69.1049 53.0031 69.0758 53.0267C69.0467 53.0503 69.0229 53.0799 69.0061 53.1134C68.9893 53.1469 68.9797 53.1836 68.9781 53.221C68.9814 53.3021 69.0024 53.3816 69.0395 53.4538C69.0767 53.5259 69.1292 53.5892 69.1933 53.639C69.3392 53.7377 69.4996 53.8128 69.6688 53.8617C69.6538 53.9393 69.6363 54.0169 69.6163 54.092C69.5963 54.167 69.5938 54.1921 69.5762 54.2421C69.5587 54.2922 69.5437 54.3422 69.5262 54.3923C69.4936 54.4849 69.4586 54.58 69.4236 54.6701C69.3885 54.7602 69.376 54.7927 69.351 54.8528C69.3635 54.7752 69.3835 54.625 69.3835 54.6025C69.3825 54.4265 69.335 54.2538 69.2459 54.102C69.2483 54.082 69.2483 54.0619 69.2459 54.0419C69.2413 54.0048 69.2289 53.9692 69.2096 53.9372C69.1902 53.9052 69.1643 53.8777 69.1336 53.8565C69.1029 53.8352 69.068 53.8207 69.0313 53.8138C68.9946 53.8069 68.9568 53.8079 68.9205 53.8167C68.7028 53.8742 68.5626 54.2571 68.5526 54.4574C68.5526 54.4699 68.5526 54.6 68.5651 54.6801C68.5651 54.6351 68.5451 54.5875 68.5326 54.54C68.5101 54.4423 68.485 54.3472 68.4575 54.2446L68.4125 54.0945C68.3974 54.0444 68.3774 53.9919 68.3599 53.9418C68.3174 53.8242 68.2673 53.7065 68.2147 53.5889C68.3903 53.5528 68.5592 53.4894 68.7153 53.4012C68.7835 53.3566 68.8412 53.2976 68.8844 53.2285C68.9276 53.1593 68.9553 53.0817 68.9656 53.0008C68.9667 52.9632 68.96 52.9258 68.9458 52.8911C68.9315 52.8563 68.9102 52.8249 68.883 52.799C68.8559 52.773 68.8236 52.753 68.7882 52.7404C68.7528 52.7277 68.7152 52.7226 68.6778 52.7255C68.4525 52.7505 68.2573 53.1084 68.2172 53.3061C68.2172 53.3186 68.2022 53.4638 68.1947 53.5414C68.1622 53.4713 68.1322 53.4012 68.0971 53.3311C67.997 53.1309 67.8894 52.9282 67.7818 52.728L67.6842 52.5428C67.867 52.5045 68.0433 52.4396 68.2072 52.35C68.2758 52.3051 68.3336 52.2458 68.3769 52.1762C68.4201 52.1066 68.4476 52.0284 68.4575 51.9471C68.4583 51.9095 68.4513 51.8722 68.4367 51.8376C68.4222 51.8029 68.4005 51.7717 68.3732 51.746C68.3458 51.7203 68.3133 51.7006 68.2778 51.6882C68.2423 51.6759 68.2046 51.6711 68.1672 51.6743C67.9444 51.6993 67.7492 52.0572 67.7092 52.2549C67.7092 52.2549 67.6867 52.4777 67.6842 52.5302C67.6141 52.3951 67.544 52.2574 67.4814 52.1198C67.3957 51.9354 67.3221 51.7456 67.2612 51.5517C67.4451 51.5143 67.6223 51.4493 67.7868 51.359C67.8553 51.314 67.9132 51.2547 67.9564 51.1851C67.9996 51.1155 68.0272 51.0373 68.037 50.956C68.0379 50.9185 68.0308 50.8811 68.0163 50.8465C68.0017 50.8118 67.9801 50.7806 67.9527 50.7549C67.9253 50.7292 67.8928 50.7095 67.8573 50.6971C67.8219 50.6848 67.7842 50.68 67.7467 50.6832C67.524 50.7082 67.3288 51.0661 67.2887 51.2639C67.2887 51.2789 67.2637 51.5141 67.2637 51.5442C67.2607 51.5321 67.2565 51.5204 67.2512 51.5091C67.1953 51.3128 67.1576 51.1117 67.1386 50.9085C67.126 50.7958 67.1185 50.6882 67.116 50.5831C67.2988 50.5672 67.4779 50.5224 67.6466 50.4505C67.7183 50.4129 67.7811 50.3604 67.8307 50.2965C67.8804 50.2326 67.9158 50.1588 67.9344 50.0801C67.9393 50.0434 67.9366 50.0061 67.9265 49.9705C67.9163 49.9349 67.899 49.9017 67.8755 49.8731C67.8521 49.8445 67.823 49.821 67.7901 49.804C67.7571 49.7871 67.7211 49.7771 67.6842 49.7747C67.4589 49.7747 67.2262 50.1101 67.1636 50.3003L67.121 50.5005V50.3604C67.121 50.1877 67.121 50.0325 67.1411 49.8948C67.1411 49.8148 67.1561 49.7447 67.1636 49.6771C67.3174 49.5788 67.455 49.4572 67.5715 49.3167C67.6183 49.2503 67.65 49.1744 67.6642 49.0944C67.6785 49.0144 67.6751 48.9322 67.6541 48.8537C67.6417 48.8182 67.6219 48.7858 67.596 48.7586C67.5701 48.7314 67.5388 48.71 67.504 48.6958C67.4692 48.6816 67.4318 48.6749 67.3943 48.6763C67.3567 48.6776 67.3199 48.6869 67.2862 48.7035C67.086 48.8062 67.0359 49.2041 67.066 49.4093C67.066 49.4268 67.1461 49.6896 67.1486 49.6871C67.1486 49.7522 67.1311 49.8198 67.1235 49.8948C67.1085 50.0325 67.0935 50.1902 67.091 50.3604C67.0842 50.5456 67.0884 50.7312 67.1035 50.916C67.1192 51.1222 67.1535 51.3266 67.2061 51.5266C67.1711 51.4691 67.066 51.3164 67.056 51.3064C66.9233 51.1537 66.5804 50.936 66.3727 51.0261C66.3385 51.0413 66.3079 51.0636 66.2829 51.0916C66.2579 51.1195 66.2391 51.1524 66.2278 51.1881C66.2165 51.2238 66.2128 51.2615 66.2171 51.2987C66.2213 51.3359 66.2334 51.3718 66.2526 51.404C66.3001 51.47 66.3615 51.5247 66.4324 51.5645C66.5033 51.6043 66.582 51.6281 66.663 51.6343C66.8498 51.6334 67.0354 51.6047 67.2136 51.5492C67.2709 51.7518 67.3429 51.9501 67.4289 52.1423C67.4764 52.2549 67.529 52.3676 67.5841 52.4777L67.5165 52.3826C67.3838 52.2324 67.041 52.0147 66.8332 52.1023C66.7989 52.1178 66.7683 52.1403 66.7433 52.1685C66.7183 52.1966 66.6995 52.2298 66.6882 52.2656C66.6768 52.3015 66.6732 52.3394 66.6775 52.3768C66.6818 52.4142 66.6939 52.4503 66.7131 52.4827C66.761 52.5483 66.8224 52.6028 66.8932 52.6425C66.9641 52.6823 67.0426 52.7063 67.1235 52.7129C67.3053 52.7131 67.4859 52.6852 67.6591 52.6304C67.6792 52.6729 67.6992 52.7155 67.7217 52.758C67.8243 52.9632 67.9269 53.1659 68.022 53.3687C68.0546 53.4387 68.0846 53.5113 68.1171 53.5814L68.0596 53.4988C67.9269 53.3461 67.5816 53.1309 67.3738 53.2185C67.3397 53.2342 67.3093 53.257 67.2846 53.2852C67.2599 53.3135 67.2414 53.3466 67.2303 53.3825C67.2192 53.4184 67.2157 53.4562 67.2202 53.4935C67.2247 53.5308 67.2369 53.5667 67.2562 53.5989C67.3042 53.6644 67.3656 53.7188 67.4365 53.7585C67.5073 53.7983 67.5857 53.8223 67.6666 53.8292C67.843 53.829 68.0184 53.8029 68.1872 53.7516C68.2147 53.8242 68.2448 53.8993 68.2698 53.9718C68.2948 54.0444 68.3048 54.0694 68.3174 54.1195C68.3299 54.1696 68.3449 54.2221 68.3599 54.2697C68.3824 54.3673 68.4075 54.4674 68.4275 54.5625C68.4475 54.6576 68.455 54.6901 68.4675 54.7527L68.3624 54.5324C68.2548 54.3623 67.9469 54.0945 67.7267 54.152C67.6906 54.1619 67.6571 54.1794 67.6283 54.2033C67.5995 54.2272 67.5762 54.257 67.5599 54.2906C67.5435 54.3242 67.5345 54.361 67.5335 54.3984C67.5325 54.4358 67.5395 54.4729 67.554 54.5074C67.5901 54.58 67.6418 54.6437 67.7054 54.6939C67.769 54.7441 67.843 54.7796 67.9219 54.7977C68.1061 54.8259 68.2934 54.8259 68.4775 54.7977C68.4976 54.9004 68.5176 55.003 68.5326 55.1006C68.5927 55.4359 68.6302 55.7163 68.6527 55.914C68.6527 55.949 68.6527 55.9815 68.6527 56.0091H67.972L68.2223 60.8519H69.3785L69.6288 56.0091H68.9956L69.0106 55.9815C69.0982 55.8013 69.2183 55.5411 69.3485 55.2307L69.4736 54.9129C69.655 54.9534 69.8413 54.9677 70.0267 54.9554C70.1068 54.942 70.1831 54.9117 70.2504 54.8663C70.3178 54.821 70.3746 54.7618 70.4172 54.6926C70.4339 54.6591 70.4433 54.6224 70.4448 54.585C70.4463 54.5476 70.4398 54.5103 70.4259 54.4755C70.412 54.4408 70.3908 54.4094 70.3639 54.3834C70.3369 54.3574 70.3047 54.3374 70.2695 54.3247C70.0543 54.2521 69.7289 54.4949 69.6088 54.6576C69.6088 54.6576 69.5362 54.7802 69.4962 54.8503L69.5487 54.7126C69.5813 54.62 69.6138 54.5274 69.6463 54.4248L69.6914 54.2772C69.7074 54.2253 69.7207 54.1727 69.7314 54.1195C69.7614 53.9969 69.784 53.8692 69.8065 53.7466C69.9737 53.8133 70.1501 53.8538 70.3296 53.8667C70.4108 53.8666 70.4911 53.8487 70.5646 53.8141C70.6382 53.7795 70.7032 53.7291 70.755 53.6665C70.7766 53.6357 70.7914 53.6008 70.7985 53.5639C70.8056 53.527 70.8049 53.489 70.7964 53.4525C70.7879 53.4159 70.7718 53.3815 70.7492 53.3515C70.7265 53.3216 70.6978 53.2967 70.6649 53.2786C70.4647 53.176 70.1043 53.3662 69.9617 53.5088C69.9617 53.5088 69.8616 53.6315 69.814 53.694C69.8265 53.6189 69.8365 53.5414 69.8465 53.4638C69.8741 53.241 69.8966 53.0133 69.9191 52.7855C69.9191 52.718 69.9316 52.6479 69.9391 52.5778C70.1124 52.6484 70.2957 52.6915 70.4822 52.7054C70.5635 52.7054 70.6438 52.6874 70.7173 52.6528C70.7908 52.6182 70.8559 52.5678 70.9077 52.5052C70.9292 52.4746 70.944 52.4399 70.9511 52.4032C70.9582 52.3665 70.9575 52.3287 70.949 52.2923C70.9404 52.2559 70.9243 52.2218 70.9017 52.192C70.8791 52.1623 70.8504 52.1377 70.8176 52.1198C70.6174 52.0147 70.257 52.2074 70.1143 52.3475C70.1143 52.3601 69.9717 52.5227 69.9416 52.5653C69.9567 52.4126 69.9742 52.2625 69.9992 52.1123C70.0278 51.9108 70.0713 51.7117 70.1293 51.5166C70.3029 51.5862 70.486 51.6292 70.6724 51.6443C70.7538 51.6446 70.8342 51.6267 70.9077 51.5921C70.9813 51.5575 71.0463 51.5069 71.0979 51.4441C71.1194 51.4135 71.1342 51.3787 71.1413 51.342C71.1484 51.3053 71.1477 51.2676 71.1392 51.2312C71.1307 51.1948 71.1146 51.1606 71.0919 51.1309C71.0693 51.1011 71.0406 51.0765 71.0078 51.0586C70.8076 50.9535 70.4472 51.1462 70.3045 51.2864C70.3045 51.2989 70.1544 51.4741 70.1293 51.5091C70.1302 51.4975 70.1302 51.4857 70.1293 51.4741C70.1916 51.2792 70.2703 51.09 70.3646 50.9085C70.4172 50.8084 70.4722 50.7157 70.5273 50.6257C70.6888 50.7126 70.8626 50.7742 71.0429 50.8084C71.1237 50.8162 71.2053 50.8067 71.2822 50.7803C71.359 50.754 71.4293 50.7115 71.4883 50.6557C71.5127 50.6272 71.5309 50.5941 71.5418 50.5582C71.5526 50.5224 71.5559 50.4847 71.5515 50.4475C71.547 50.4103 71.5349 50.3745 71.5158 50.3423C71.4968 50.31 71.4712 50.2821 71.4408 50.2603C71.2531 50.1376 70.8752 50.2878 70.7175 50.4129C70.7175 50.4129 70.6274 50.498 70.5723 50.5556L70.6474 50.4379C70.7425 50.2953 70.8376 50.1702 70.9227 50.06L71.0604 49.8923C71.2425 49.8955 71.4241 49.8701 71.5985 49.8173C71.6741 49.7875 71.7424 49.7417 71.7986 49.6829C71.8548 49.6241 71.8975 49.5538 71.9238 49.4769C71.9318 49.4405 71.932 49.4029 71.9244 49.3665C71.9169 49.3301 71.9018 49.2956 71.8801 49.2654C71.8584 49.2352 71.8305 49.2099 71.7984 49.1911C71.7663 49.1724 71.7306 49.1606 71.6936 49.1565ZM69.2083 55.1882C69.0707 55.4985 68.9581 55.7538 68.858 55.939L68.8079 56.0341H68.7929C68.7929 56.0007 68.7879 55.9632 68.7779 55.9215C68.7503 55.7213 68.7078 55.4384 68.6402 55.1006C68.6202 54.9955 68.5952 54.8803 68.5676 54.7652C68.6738 54.7228 68.7774 54.6743 68.878 54.62C69.0141 54.737 69.1657 54.8347 69.3285 54.9104C69.2859 55.0005 69.2459 55.0981 69.2083 55.1882Z" fill="#0600CC"/>
<path d="M70.5101 50.5906C70.5101 50.5906 70.5826 50.3403 70.5851 50.3103C70.6127 50.1126 70.5501 49.7096 70.3349 49.612C70.3008 49.5964 70.2638 49.5883 70.2263 49.588C70.1888 49.5878 70.1517 49.5955 70.1174 49.6106C70.0832 49.6257 70.0525 49.648 70.0274 49.6758C70.0023 49.7037 69.9834 49.7365 69.972 49.7722C69.9535 49.8514 69.9527 49.9337 69.9696 50.0133C69.9865 50.0929 70.0206 50.1678 70.0696 50.2327C70.1976 50.3735 70.3461 50.4941 70.5101 50.5906Z" fill="#0600CC"/>
<path d="M12.7864 51.0136C12.9594 51.0597 13.1382 51.0799 13.317 51.0737C13.317 51.0737 13.2344 50.8234 13.2294 50.8234C13.1468 50.6507 12.8841 50.3654 12.6713 50.3954C12.636 50.4008 12.6023 50.4136 12.5723 50.4331C12.5424 50.4526 12.517 50.4782 12.4978 50.5083C12.4786 50.5384 12.466 50.5723 12.461 50.6076C12.456 50.643 12.4586 50.679 12.4686 50.7133C12.4969 50.7832 12.54 50.8463 12.5948 50.8981C12.6497 50.9499 12.715 50.9893 12.7864 51.0136Z" fill="#0600CC"/>
<path d="M17.7216 49.7322C17.5089 49.7097 17.2536 50 17.176 50.1752C17.176 50.1927 17.0909 50.4405 17.0959 50.4405C17.0534 50.4855 17.0108 50.5356 16.9658 50.5906C16.8832 50.6932 16.7881 50.8109 16.6955 50.9435C16.6029 51.0762 16.5053 51.2263 16.4152 51.389C16.3173 51.5613 16.2335 51.7412 16.1649 51.9271C16.1649 51.8645 16.1649 51.6893 16.1649 51.6768C16.1399 51.4866 15.9797 51.1337 15.7695 51.0962C15.7343 51.0901 15.6982 51.0916 15.6636 51.1006C15.629 51.1096 15.5968 51.126 15.569 51.1485C15.5413 51.171 15.5187 51.1992 15.5027 51.2312C15.4868 51.2632 15.4779 51.2982 15.4767 51.3339C15.4797 51.411 15.4993 51.4865 15.5343 51.5552C15.5693 51.6239 15.6188 51.6842 15.6794 51.7319C15.8282 51.8296 15.9911 51.9039 16.1624 51.9521C16.1017 52.143 16.054 52.3379 16.0198 52.5353C15.9997 52.6504 15.9822 52.7655 15.9672 52.8832C15.9672 52.8281 15.9672 52.7805 15.9672 52.773C15.9422 52.5828 15.782 52.2299 15.5718 52.1924C15.5365 52.1863 15.5004 52.1878 15.4659 52.1968C15.4313 52.2059 15.399 52.2222 15.3713 52.2447C15.3436 52.2672 15.321 52.2954 15.305 52.3274C15.2891 52.3594 15.2802 52.3944 15.2789 52.4302C15.2819 52.5072 15.3016 52.5827 15.3366 52.6514C15.3716 52.7201 15.4211 52.7804 15.4817 52.8281C15.6254 52.9239 15.7833 52.9966 15.9497 53.0433C15.9497 53.0884 15.9372 53.1334 15.9322 53.1785C15.9071 53.3937 15.8821 53.6089 15.8521 53.8192L15.8145 54.0394C15.8145 53.9894 15.8145 53.9493 15.8145 53.9443C15.7895 53.7541 15.6293 53.4012 15.4191 53.3612C15.3829 53.3549 15.3457 53.3567 15.3102 53.3665C15.2747 53.3762 15.2419 53.3937 15.2139 53.4176C15.186 53.4414 15.1636 53.4712 15.1485 53.5047C15.1333 53.5382 15.1257 53.5747 15.1263 53.6115C15.1293 53.6885 15.149 53.764 15.184 53.8327C15.219 53.9014 15.2684 53.9617 15.329 54.0094C15.4684 54.1027 15.6211 54.1744 15.782 54.2221C15.767 54.2947 15.752 54.3698 15.7319 54.4399C15.7119 54.5099 15.7094 54.535 15.6919 54.5825L15.6468 54.7252C15.6143 54.8128 15.5818 54.9054 15.5492 54.9905C15.5167 55.0756 15.5017 55.1081 15.4792 55.1632C15.4792 55.0906 15.5117 54.9454 15.5117 54.9329C15.509 54.7648 15.4634 54.6003 15.379 54.4549C15.3803 54.4357 15.3803 54.4165 15.379 54.3973C15.3751 54.3617 15.3636 54.3274 15.3453 54.2966C15.327 54.2659 15.3023 54.2394 15.2729 54.219C15.2435 54.1986 15.21 54.1848 15.1748 54.1784C15.1396 54.172 15.1034 54.1733 15.0687 54.1821C14.861 54.2371 14.7283 54.6025 14.7183 54.7928C14.7183 54.7928 14.7183 54.9279 14.7308 55.0055L14.7008 54.8703C14.6783 54.7777 14.6532 54.6876 14.6282 54.59C14.6132 54.5425 14.6007 54.4949 14.5857 54.4474C14.5707 54.3998 14.5506 54.3498 14.5356 54.3022C14.4931 54.1896 14.448 54.077 14.398 53.9668C14.5654 53.9311 14.7266 53.8704 14.876 53.7866C14.9397 53.7436 14.9935 53.6873 15.0336 53.6217C15.0738 53.5561 15.0994 53.4826 15.1088 53.4062C15.1089 53.3711 15.1017 53.3364 15.0876 53.3043C15.0735 53.2722 15.0528 53.2434 15.0268 53.2198C15.0009 53.1962 14.9702 53.1783 14.9369 53.1673C14.9036 53.1563 14.8684 53.1524 14.8334 53.156C14.6207 53.1785 14.4355 53.5188 14.398 53.7066C14.398 53.7066 14.3804 53.8567 14.3754 53.9318C14.3454 53.8642 14.3154 53.7992 14.2828 53.7316C14.1877 53.5389 14.0851 53.3487 13.9825 53.156C13.9525 53.0984 13.9224 53.0383 13.8899 52.9808C14.0649 52.9451 14.2336 52.8835 14.3905 52.7981C14.4545 52.7547 14.5084 52.6981 14.5486 52.632C14.5888 52.5659 14.6142 52.4919 14.6232 52.4151C14.6234 52.3801 14.6162 52.3453 14.6021 52.3132C14.588 52.2811 14.5673 52.2523 14.5413 52.2287C14.5153 52.2051 14.4847 52.1872 14.4514 52.1762C14.4181 52.1652 14.3828 52.1614 14.3479 52.1649C14.1352 52.1899 13.95 52.5303 13.9099 52.718C13.9099 52.7305 13.8899 52.9282 13.8874 52.9808C13.8198 52.8506 13.7548 52.7305 13.6947 52.5903C13.6135 52.4149 13.5441 52.2343 13.487 52.0497C13.6621 52.0133 13.8308 51.9508 13.9875 51.8645C14.0521 51.8223 14.1064 51.7663 14.1467 51.7005C14.187 51.6347 14.2121 51.5608 14.2203 51.4841C14.2204 51.449 14.2132 51.4143 14.1991 51.3822C14.185 51.3501 14.1643 51.3213 14.1384 51.2977C14.1124 51.2741 14.0818 51.2562 14.0484 51.2452C14.0151 51.2342 13.9799 51.2303 13.945 51.2338C13.7322 51.2564 13.547 51.5967 13.5095 51.7844C13.5095 51.7995 13.487 52.0122 13.487 52.0522C13.4859 52.0414 13.4859 52.0305 13.487 52.0197C13.4339 51.8331 13.3979 51.6421 13.3793 51.4491C13.3793 51.3415 13.3618 51.2388 13.3568 51.1387C13.529 51.1222 13.6977 51.08 13.8574 51.0136C13.926 50.9778 13.986 50.9275 14.0331 50.8661C14.0803 50.8047 14.1134 50.7338 14.1302 50.6582C14.1356 50.6223 14.1332 50.5857 14.1231 50.5509C14.113 50.516 14.0954 50.4838 14.0716 50.4564C14.0478 50.429 14.0183 50.4072 13.9852 50.3923C13.9521 50.3775 13.9162 50.37 13.8799 50.3704C13.6647 50.3704 13.4419 50.6882 13.3793 50.8709C13.3793 50.8709 13.3543 50.9836 13.3393 51.0611C13.3393 51.0161 13.3393 50.9685 13.3393 50.926C13.3393 50.7633 13.3393 50.6157 13.3593 50.483C13.3593 50.4079 13.3743 50.3404 13.3819 50.2778C13.5294 50.1728 13.6588 50.0443 13.7648 49.8974C13.8097 49.8344 13.8402 49.7622 13.8541 49.6861C13.8679 49.6099 13.8648 49.5317 13.8449 49.4569C13.834 49.4246 13.8167 49.3948 13.7939 49.3695C13.7712 49.3441 13.7435 49.3236 13.7126 49.3093C13.6817 49.295 13.6481 49.2872 13.6141 49.2863C13.58 49.2855 13.5461 49.2915 13.5145 49.3042C13.3218 49.4018 13.2642 49.7872 13.3043 49.975C13.3043 49.9925 13.3793 50.2427 13.3819 50.2402C13.3819 50.3003 13.3643 50.3654 13.3568 50.438C13.3443 50.5681 13.3293 50.7183 13.3268 50.881C13.32 51.0562 13.3241 51.2318 13.3393 51.4065C13.3531 51.6028 13.3858 51.7972 13.4369 51.9872L13.2892 51.807C13.1641 51.6618 12.8363 51.4541 12.6385 51.5392C12.6058 51.5535 12.5765 51.5748 12.5526 51.6014C12.5287 51.6281 12.5108 51.6596 12.5002 51.6937C12.4895 51.7279 12.4863 51.7639 12.4907 51.7994C12.4951 51.8349 12.5072 51.8691 12.5259 51.8996C12.5708 51.9619 12.6288 52.0137 12.6958 52.0513C12.7628 52.0889 12.8372 52.1114 12.9138 52.1173C13.0913 52.1177 13.2677 52.0907 13.4369 52.0372C13.4931 52.2292 13.5616 52.4173 13.6421 52.6003C13.6872 52.708 13.7372 52.8131 13.7898 52.9207L13.7272 52.8306C13.6021 52.6854 13.2742 52.4777 13.0765 52.5628C13.0437 52.5772 13.0144 52.5984 12.9906 52.6251C12.9667 52.6517 12.9488 52.6832 12.9381 52.7174C12.9275 52.7515 12.9242 52.7876 12.9287 52.8231C12.9331 52.8586 12.9451 52.8927 12.9639 52.9232C13.0087 52.9859 13.0666 53.038 13.1336 53.0761C13.2006 53.1141 13.275 53.1371 13.3518 53.1434C13.5215 53.142 13.6902 53.1158 13.8524 53.0659C13.8749 53.1059 13.8924 53.1459 13.9124 53.186C14.01 53.3812 14.1102 53.5739 14.2003 53.7666L14.2904 53.9693L14.2353 53.8918C14.1102 53.7466 13.7823 53.5389 13.5846 53.624C13.5518 53.6383 13.5225 53.6596 13.4986 53.6862C13.4748 53.7129 13.4569 53.7444 13.4462 53.7785C13.4355 53.8127 13.4323 53.8487 13.4367 53.8842C13.4412 53.9197 13.4532 53.9539 13.472 53.9844C13.5167 54.047 13.5747 54.0992 13.6416 54.1372C13.7086 54.1753 13.7831 54.1983 13.8599 54.2046C14.0296 54.2059 14.1985 54.1806 14.3604 54.1295C14.388 54.1996 14.4155 54.2697 14.4405 54.3398C14.4655 54.4098 14.4731 54.4324 14.4856 54.4824C14.4981 54.5325 14.5131 54.5775 14.5256 54.6251C14.5481 54.7152 14.5707 54.8103 14.5907 54.9004L14.6282 55.0831C14.5982 55.0155 14.5331 54.8829 14.5281 54.8728C14.4255 54.7102 14.1327 54.4574 13.9249 54.5099C13.8901 54.519 13.8575 54.5354 13.8296 54.5581C13.8017 54.5808 13.7789 54.6093 13.763 54.6417C13.7471 54.674 13.7383 54.7093 13.7374 54.7454C13.7364 54.7814 13.7432 54.8172 13.7573 54.8503C13.7926 54.919 13.8425 54.9793 13.9034 55.0268C13.9644 55.0743 14.0349 55.1081 14.1102 55.1256C14.2843 55.1526 14.4616 55.1526 14.6357 55.1256C14.6558 55.2232 14.6758 55.3208 14.6908 55.4134C14.7484 55.7313 14.7809 55.9991 14.8034 56.1868C14.8034 56.2218 14.8034 56.2494 14.8034 56.2794H14.1702L14.4055 60.8819H15.5167L15.752 56.2794H15.1413V56.2519C15.2239 56.0792 15.339 55.8314 15.4616 55.5286C15.5017 55.4335 15.5417 55.3308 15.5818 55.2232C15.7536 55.265 15.931 55.2794 16.1073 55.2658C16.1836 55.2537 16.2563 55.225 16.3203 55.1818C16.3843 55.1385 16.4381 55.0818 16.4778 55.0155C16.4941 54.9837 16.5034 54.9487 16.505 54.913C16.5067 54.8773 16.5007 54.8416 16.4874 54.8084C16.4741 54.7752 16.4539 54.7452 16.428 54.7205C16.4022 54.6958 16.3714 54.6769 16.3376 54.6651C16.1349 54.5975 15.8371 54.8278 15.7094 54.983L15.6043 55.1657C15.6193 55.1231 15.6368 55.0806 15.6518 55.0355C15.6844 54.9479 15.7144 54.8578 15.747 54.7627C15.762 54.7152 15.7745 54.6676 15.7895 54.6201C15.8045 54.5725 15.8145 54.5225 15.827 54.4724C15.8546 54.3548 15.8771 54.2371 15.8971 54.117C16.0573 54.1796 16.2261 54.2176 16.3977 54.2296C16.4748 54.2292 16.5508 54.2122 16.6208 54.1798C16.6907 54.1475 16.7529 54.1004 16.8031 54.0419C16.8246 54.0129 16.8395 53.9796 16.8469 53.9442C16.8542 53.9089 16.8538 53.8723 16.8458 53.8372C16.8377 53.802 16.8221 53.7689 16.8 53.7404C16.778 53.7118 16.75 53.6883 16.718 53.6715C16.5278 53.5739 16.1849 53.7566 16.0498 53.8918C16.0498 53.8918 15.9547 54.0069 15.9071 54.067C15.9071 53.9944 15.9297 53.9218 15.9397 53.8492C15.9672 53.6365 15.9872 53.4187 16.0072 53.2035C16.0072 53.1384 16.0072 53.0709 16.0273 53.0058C16.192 53.0717 16.3659 53.1122 16.5428 53.1259C16.6199 53.1255 16.696 53.1085 16.766 53.0761C16.8359 53.0438 16.8981 52.9967 16.9483 52.9382C16.9693 52.9092 16.9838 52.8761 16.991 52.841C16.9981 52.8059 16.9976 52.7698 16.9895 52.7349C16.9814 52.7 16.966 52.6673 16.9442 52.6389C16.9224 52.6105 16.8948 52.5871 16.8632 52.5703C16.6705 52.4702 16.3301 52.6529 16.1924 52.788C16.1924 52.788 16.0598 52.9532 16.0298 52.9933C16.0448 52.8481 16.0598 52.7055 16.0823 52.5628C16.1117 52.3717 16.1535 52.1828 16.2075 51.9972C16.373 52.0634 16.5477 52.1039 16.7255 52.1173C16.8022 52.1169 16.878 52.0999 16.9475 52.0675C17.017 52.0351 17.0788 51.988 17.1285 51.9296C17.1499 51.9006 17.1648 51.8672 17.1722 51.8319C17.1796 51.7965 17.1792 51.76 17.1711 51.7248C17.163 51.6896 17.1474 51.6566 17.1254 51.628C17.1033 51.5994 17.0754 51.576 17.0434 51.5592C16.8532 51.4616 16.5103 51.6443 16.3751 51.7794C16.3751 51.7794 16.23 51.9571 16.21 51.9897V51.9546C16.2693 51.7699 16.3447 51.5907 16.4352 51.419C16.4828 51.3239 16.5353 51.2338 16.5879 51.1487C16.744 51.2336 16.9132 51.292 17.0884 51.3214C17.1651 51.3305 17.2428 51.3224 17.316 51.2977C17.3891 51.2731 17.4559 51.2324 17.5114 51.1788C17.5355 51.1522 17.5536 51.1208 17.5645 51.0866C17.5754 51.0525 17.5788 51.0164 17.5745 50.9808C17.5703 50.9452 17.5584 50.9109 17.5397 50.8803C17.5211 50.8497 17.496 50.8235 17.4663 50.8034C17.2886 50.6832 16.9283 50.8259 16.7781 50.946L16.6404 51.0837C16.6655 51.0461 16.688 51.0061 16.713 50.971C16.8031 50.8334 16.8932 50.7208 16.9633 50.6132C17.0108 50.5531 17.0534 50.5005 17.0959 50.453C17.2655 50.4536 17.4341 50.4291 17.5965 50.3804C17.6736 50.355 17.7441 50.3126 17.8025 50.2563C17.861 50.1999 17.9061 50.1312 17.9344 50.055C17.9453 50.0197 17.9483 49.9824 17.943 49.9458C17.9378 49.9092 17.9246 49.8742 17.9043 49.8434C17.8839 49.8125 17.857 49.7865 17.8254 49.7673C17.7938 49.7481 17.7584 49.7361 17.7216 49.7322ZM15.359 55.466C15.2289 55.7638 15.1088 56.0066 15.0262 56.1743C15.0086 56.2093 14.9911 56.2393 14.9786 56.2669H14.9636C14.9636 56.2318 14.9636 56.1968 14.9486 56.1568C14.9235 55.9665 14.8835 55.6988 14.8184 55.3784C14.7984 55.2758 14.7759 55.1682 14.7509 55.058C14.8511 55.0179 14.9489 54.972 15.0437 54.9204C15.1736 55.0307 15.3175 55.1232 15.4716 55.1957C15.4349 55.2908 15.3974 55.3809 15.359 55.466Z" fill="#0600CC"/>
<path d="M16.5983 51.0962C16.5983 51.0962 16.6659 50.8459 16.6684 50.8309C16.6934 50.6407 16.6334 50.2578 16.4407 50.1652C16.4083 50.15 16.373 50.1419 16.3372 50.1415C16.3014 50.1411 16.2659 50.1484 16.2332 50.1628C16.2005 50.1773 16.1712 50.1986 16.1474 50.2254C16.1236 50.2521 16.1059 50.2836 16.0953 50.3178C16.0775 50.393 16.0764 50.4711 16.0919 50.5468C16.1075 50.6224 16.1394 50.6938 16.1854 50.7558C16.3052 50.8893 16.4444 51.004 16.5983 51.0962Z" fill="#0600CC"/>
<path d="M72.4546 61.37V14.3583" stroke="#0600CC" stroke-linecap="round" stroke-linejoin="round"/>
<path d="M30.4082 61.37V14.6511" stroke="#0600CC" stroke-linecap="round" stroke-linejoin="round"/>
<path d="M3.56641 38.2921H90.7848" stroke="#0600CC" stroke-linecap="round" stroke-linejoin="round"/>
<path d="M42.6819 29.6576L41.5957 30.3258" stroke="#0600CC" stroke-width="0.5" stroke-linecap="round" stroke-linejoin="round"/>
<path d="M61.0171 18.3577L44.1436 28.7566" stroke="#0600CC" stroke-width="0.5" stroke-linecap="round" stroke-linejoin="round"/>
<path d="M63.2445 19.061L49.7246 27.3901" stroke="#0600CC" stroke-width="0.5" stroke-linecap="round" stroke-linejoin="round"/>
<path d="M69.1485 15.4219L65.064 17.9372" stroke="#0600CC" stroke-width="0.5" stroke-linecap="round" stroke-linejoin="round"/>
<path d="M30.1578 31.7449C33.8899 31.7449 36.9153 28.7195 36.9153 24.9875C36.9153 21.2554 33.8899 18.23 30.1578 18.23C26.4258 18.23 23.4004 21.2554 23.4004 24.9875C23.4004 28.7195 26.4258 31.7449 30.1578 31.7449Z" fill="#0600CC"/>
<path d="M30.1578 30.8489C33.395 30.8489 36.0193 28.2247 36.0193 24.9875C36.0193 21.7503 33.395 19.126 30.1578 19.126C26.9206 19.126 24.2964 21.7503 24.2964 24.9875C24.2964 28.2247 26.9206 30.8489 30.1578 30.8489Z" fill="white"/>
<path d="M26.3564 26.0662L30.1581 24.9875V19.6691" stroke="#0600CC" stroke-width="2" stroke-miterlimit="10"/>
<path d="M91.0625 79.9855H92.7268" stroke="#0600CC" stroke-linecap="round" stroke-linejoin="round"/>
<path d="M0.125 79.9855H88.805" stroke="#0600CC" stroke-linecap="round" stroke-linejoin="round"/>
<path d="M19.3411 77.653H11.082C11.082 77.653 11.082 79.8704 12.2483 82.7711C12.2483 83.3267 13.5823 83.7722 15.2291 83.7722C16.8759 83.7722 18.2074 83.3242 18.2074 82.7711C18.2098 82.7436 18.2098 82.716 18.2074 82.6885C19.3286 79.8379 19.3411 77.653 19.3411 77.653Z" fill="#FEFF2D" stroke="#0600CC" stroke-linecap="round" stroke-linejoin="round"/>
<path d="M15.2393 78.8567C17.5297 78.8567 19.3864 78.3178 19.3864 77.6529C19.3864 76.9881 17.5297 76.4491 15.2393 76.4491C12.949 76.4491 11.0923 76.9881 11.0923 77.6529C11.0923 78.3178 12.949 78.8567 15.2393 78.8567Z" fill="white" stroke="#0600CC" stroke-linecap="round" stroke-linejoin="round"/>
<path d="M15.2392 78.6591C17.2946 78.6591 18.9608 78.2086 18.9608 77.653C18.9608 77.0973 17.2946 76.6469 15.2392 76.6469C13.1838 76.6469 11.5176 77.0973 11.5176 77.653C11.5176 78.2086 13.1838 78.6591 15.2392 78.6591Z" fill="white" stroke="#0600CC" stroke-linecap="round" stroke-linejoin="round"/>
<path d="M11.8677 78.0859C12.4633 78.4288 13.7472 78.6641 15.2389 78.6641C16.7305 78.6641 18.0194 78.4213 18.6101 78.0859C18.0144 77.7456 16.7305 77.5078 15.2389 77.5078C13.7472 77.5078 12.4633 77.7381 11.8677 78.0859Z" fill="#0600CC" stroke="#0600CC" stroke-linecap="round" stroke-linejoin="round"/>
<path d="M13.5149 78.1735C13.5149 78.1735 12.4363 75.4806 12.7516 74.7623C13.067 74.044 14.0981 74.1341 14.4585 74.8524C14.8189 75.5706 14.9966 78.2636 14.9966 78.2636C14.9966 78.2636 13.9079 78.624 13.5149 78.1735Z" fill="#FEFF2D" stroke="#0600CC" stroke-linecap="round" stroke-linejoin="round"/>
<path d="M14.4481 78.4438C14.4481 78.4438 13.5946 73.6886 13.8174 72.7876C14.0401 71.8866 15.1663 71.5738 15.9747 72.247C16.7831 72.9202 16.4753 76.334 16.4753 76.827C16.4753 77.3201 16.4302 78.3537 16.4302 78.3537C15.7895 78.561 15.1049 78.5921 14.4481 78.4438Z" fill="#FEFF2D" stroke="#0600CC" stroke-linecap="round" stroke-linejoin="round"/>
<path d="M16.1975 78.3537C16.1975 78.3537 15.5242 76.5117 15.9297 75.7934C16.3351 75.0751 17.141 75.3454 17.141 75.9285C17.141 76.5117 17.1861 77.9057 17.096 78.2186C17.0059 78.5314 16.5178 78.624 16.1975 78.3537Z" fill="#FEFF2D" stroke="#0600CC" stroke-linecap="round" stroke-linejoin="round"/>
<path d="M15.2115 78.3087C14.0878 74.054 15.0313 71.9341 15.0313 71.9341C15.0313 71.9341 16.3778 74.2692 15.6595 78.3087" stroke="#0600CC" stroke-linecap="round" stroke-linejoin="round"/>
<path d="M13.3696 74.6722C13.3696 74.6722 12.3385 74.7172 14.0429 78.2636" stroke="#0600CC" stroke-linecap="round" stroke-linejoin="round"/>
<path d="M48.9086 62.2109C48.9086 62.2109 32.7859 61.6628 31.134 65.3218C29.4822 68.9808 31.134 79.9804 31.134 79.9804H56.2367C56.2367 79.9804 59.8331 66.3604 57.8159 64.5284C55.7987 62.6964 48.9086 62.2109 48.9086 62.2109Z" fill="#C1FD3A" stroke="#0600CC" stroke-miterlimit="10"/>
<path d="M50.873 35.8094C50.873 35.8094 49.9945 35.4039 49.484 35.9195C48.9734 36.4351 48.5504 36.7029 48.155 36.7254C47.7596 36.7479 46.806 36.4626 46.5332 37.1909C46.2604 37.9192 45.7449 37.8641 45.407 37.9567C45.0691 38.0493 43.9879 38.3772 43.9429 38.8127C43.8978 39.2482 43.9704 39.8138 43.5675 39.9064C43.1645 39.999 42.1859 39.9539 42.0508 40.6322C41.995 40.9233 41.8702 41.1969 41.6868 41.4298C41.5035 41.6628 41.267 41.8484 40.9971 41.9712C40.5892 42.1188 39.7458 41.9712 39.6757 42.722C39.6056 43.4728 39.5881 44.2236 39.5881 44.2236L39.1226 44.9294C39.1226 44.9294 38.3717 45.3549 38.5419 46.1282C38.7121 46.9016 39.4604 47.4171 38.6045 48.0854C37.7486 48.7536 37.193 49.074 37.5884 49.6796C37.9838 50.2853 38.642 50.2903 38.5069 50.9685C38.3717 51.6468 37.4332 52.4952 38.4468 52.8481C39.4604 53.201 39.7383 53.0433 39.6106 53.659C39.483 54.2747 40.2038 54.9104 40.5291 54.9479C40.8545 54.9855 40.7093 55.0931 40.9596 55.8714C41.0434 56.1369 41.202 56.3726 41.4164 56.5502C41.6309 56.7278 41.892 56.8397 42.1684 56.8725C42.4187 56.9001 42.7641 56.8075 43.1695 57.2905C43.575 57.7735 47.5644 61.1347 51.9292 61.5152C54.6185 61.7937 57.3337 61.3542 59.7978 60.2413C60.6863 59.8909 61.6048 59.2402 61.5973 58.6645C61.5898 58.0889 62.7711 58.0914 63.2116 57.6334C63.6521 57.1754 63.7346 56.9952 63.7346 56.367C63.7346 55.7388 63.7947 55.1156 64.035 54.6977C64.2752 54.2797 64.5581 54.0595 64.493 53.4238C64.4279 52.7881 64.9034 51.9571 65.2013 51.6093C65.4991 51.2614 65.8094 50.7909 65.2488 49.8573C64.6882 48.9238 64.4479 48.7061 64.6557 47.9728C64.8634 47.2394 65.1963 46.5187 64.7358 45.9055C64.3538 45.4063 64.1823 44.7775 64.2577 44.1536C64.3078 43.653 64.6707 43.3151 63.9299 42.8621C63.189 42.4091 63.1941 41.7184 63.0964 41.393C62.9988 41.0677 63.1715 40.6422 62.3006 40.1792C61.6935 39.8634 61.2318 39.3255 61.0117 38.6775C60.8565 38.2846 60.406 37.5463 59.6401 37.3436C58.8743 37.1408 58.4789 37.1609 57.9583 36.4801C57.4377 35.7994 56.9697 35.2463 56.2539 35.1737C55.5381 35.1011 55.5982 35.1737 54.542 35.2513C53.9462 35.3234 53.3419 35.2371 52.7901 35.001C52.5373 34.9084 51.7565 34.2001 50.873 35.8094Z" fill="#C1FD3A" stroke="#0600CC" stroke-linecap="round" stroke-linejoin="round"/>
<path d="M39.4834 48.3031C40.014 47.9252 39.2556 46.4836 39.7111 45.5751C40.1667 44.6666 40.2417 44.7417 40.6197 43.8232C40.9976 42.9047 40.8474 42.6844 41.6057 42.5343C42.3641 42.3841 42.8947 41.7008 43.7281 40.7148C44.5615 39.7287 45.1672 40.4119 45.8504 39.3508C46.5337 38.2896 46.1532 38.0618 47.0617 37.9092C47.9702 37.7565 49.109 37.5313 49.7147 37.0758C50.2413 36.6855 50.8787 36.4733 51.5342 36.4701C51.8434 36.4725 52.1507 36.4217 52.4427 36.3199C52.859 36.0803 53.3289 35.9495 53.8092 35.9395C54.56 35.9395 54.56 36.2423 55.8539 35.9395M52.4427 37.3035C52.4427 37.3035 50.3979 38.3647 50.1702 39.0554C49.9424 39.7462 48.8062 39.0554 47.9727 39.9639C47.1393 40.8724 47.4422 41.8585 46.5312 42.2389C45.6202 42.6194 43.7281 42.6169 43.653 43.8307C43.5779 45.0445 43.5003 45.8004 42.9022 46.406C42.304 47.0117 41.5382 47.1569 42.0687 47.9978C42.5993 48.8387 42.9022 49.2867 42.1438 50.2728C41.3855 51.2589 40.0966 51.5592 41.2353 52.6204C42.3741 53.6815 43.1299 53.7591 42.6744 54.5149C42.2189 55.2708 43.3552 55.6537 43.6605 55.8039" stroke="#0600CC" stroke-miterlimit="10"/>
<path d="M44.7988 48.3757C44.7988 48.3757 46.4657 48.3757 46.9962 47.9202C47.5268 47.4647 48.0574 46.784 48.7482 47.1694C49.4389 47.5548 50.1122 47.3971 50.5001 46.4861C50.888 45.5751 49.8944 45.1997 51.2509 45.1997C52.6074 45.1997 52.69 44.8969 53.2982 43.8357C53.9063 42.7745 53.1455 42.7745 54.965 42.697C56.7845 42.6194 56.9347 41.408 57.6179 41.4856C58.3012 41.5632 58.6015 41.7134 57.9208 43.1525C57.24 44.5915 56.6318 44.7442 57.5403 45.5025C58.4488 46.2609 59.3598 46.0331 58.8293 47.775C58.2987 49.517 58.7542 49.6696 58.9819 50.3529C59.2097 51.0361 59.5125 51.2614 58.5264 52.1724C57.5403 53.0834 57.2375 53.0058 57.4653 54.067C57.693 55.1281 57.9208 55.5811 57.0873 55.9616C56.2539 56.342 55.5707 56.8701 55.9486 57.2505C56.3265 57.6309 56.4792 57.7035 56.2539 58.0013" stroke="#0600CC" stroke-miterlimit="10"/>
<path d="M47.6771 55.5836C47.6771 55.5836 43.1721 56.2093 39.7934 56.7099C36.4147 57.2104 34.0371 57.7735 33.9745 58.8998C33.9119 60.026 29.0316 71.9141 28.4684 72.2895C28.0998 72.5332 27.7904 72.8564 27.563 73.2354C27.3356 73.6143 27.196 74.0394 27.1545 74.4794C27.0468 75.2547 26.8364 76.0121 26.5288 76.7319C26.5288 76.7319 28.7187 76.4816 29.6572 77.2324C30.5958 77.9833 31.1589 78.4212 31.1589 78.4212C31.1589 78.4212 33.7868 76.7319 34.1622 75.8559C34.5376 74.98 33.3488 73.1029 33.7242 72.4772C34.0996 71.8515 35.6013 69.7867 35.6013 69.7867C35.6013 69.7867 37.6035 76.0436 37.8538 77.3576C37.9897 78.2365 37.9255 79.1348 37.6661 79.9855H55.2479V74.7922C55.2479 73.8537 55.9362 70.913 55.9362 70.913C55.9362 70.913 57.6255 75.7934 58.0635 77.1073C58.3643 78.0528 58.615 79.0135 58.8143 79.9855H64.8209C64.8209 79.9855 62.7562 73.7911 62.0053 71.8515C61.2545 69.9119 60.3785 62.1533 60.0031 61.2148C59.6277 60.2763 54.3094 57.3355 51.6815 56.7099C50.3282 56.4035 48.9916 56.0276 47.6771 55.5836Z" fill="#FEFF2D"/>
<path d="M47.6771 55.5836C47.6771 55.5836 43.1721 56.2093 39.7934 56.7099C36.4147 57.2104 34.0371 57.7735 33.9745 58.8998C33.9119 60.026 29.0316 71.9141 28.4684 72.2895C28.0998 72.5332 27.7904 72.8564 27.563 73.2354C27.3356 73.6143 27.196 74.0394 27.1545 74.4794C27.0468 75.2547 26.8364 76.0121 26.5288 76.7319C26.5288 76.7319 28.7187 76.4816 29.6573 77.2324C30.5958 77.9833 31.1589 78.4212 31.1589 78.4212C31.1589 78.4212 33.7868 76.7319 34.1622 75.8559C34.5376 74.98 33.3488 73.1029 33.7242 72.4772C34.0996 71.8515 35.6013 69.7867 35.6013 69.7867C35.6013 69.7867 37.6035 76.0436 37.8538 77.3576C37.9897 78.2365 37.9255 79.1348 37.6661 79.9855H55.2479V74.7922C55.2479 73.8537 55.9362 70.913 55.9362 70.913C55.9362 70.913 57.6255 75.7933 58.0635 77.1073C58.3643 78.0528 58.615 79.0135 58.8143 79.9855H64.8209C64.8209 79.9855 62.7562 73.7911 62.0053 71.8515C61.2545 69.9119 60.3785 62.1533 60.0031 61.2148C59.6277 60.2763 54.3094 57.3355 51.6815 56.7099C50.3282 56.4035 48.9916 56.0276 47.6771 55.5836Z" stroke="#0600CC" stroke-linecap="round" stroke-linejoin="round"/>
<path d="M48.9287 66.2203C48.9287 66.2203 49.4794 71.809 49.2466 74.129C49.0138 76.4491 48.203 78.191 48.5508 79.8153" stroke="#0600CC" stroke-linecap="round" stroke-linejoin="round"/>
<path d="M56.437 67.0337L57.4381 64.9064" stroke="#0600CC" stroke-linecap="round" stroke-linejoin="round"/>
<path d="M47.1141 55.0831C47.1141 55.0831 46.4259 55.5211 46.3007 55.959C46.1756 56.397 45.1745 57.5858 44.7365 59.3378C44.2985 61.0897 44.5488 64.2807 44.8616 63.5299C45.1745 62.779 45.9879 61.1522 46.3007 60.7768C46.6136 60.4014 46.6761 60.902 46.9264 61.9656C47.1767 63.0293 48.9286 66.2203 48.9286 66.2203C48.9286 66.2203 50.2426 63.2796 50.9934 62.8416C51.7442 62.4036 52.0571 60.9645 52.0571 60.9645C52.0571 60.9645 52.8079 64.7187 53.2459 64.7187C53.6838 64.7187 53.8716 61.8405 53.6838 60.0886C53.4961 58.3367 52.6827 56.2093 52.1822 55.5211C51.6816 54.8328 49.5543 52.5178 47.1141 55.0831Z" fill="white" stroke="#0600CC" stroke-linecap="round" stroke-linejoin="round"/>
<path d="M47.1764 54.7076C47.1764 54.7076 46.9262 59.588 47.3016 61.7153C47.677 63.8427 48.6155 66.9711 48.9284 66.2203C49.2412 65.4695 51.2434 61.7779 51.5563 60.0886C51.8121 58.8855 52.1895 57.7115 52.6825 56.5847C52.6825 56.5847 48.9284 57.0227 47.1764 54.7076Z" fill="white" stroke="#0600CC" stroke-linecap="round" stroke-linejoin="round"/>
<path d="M56.2814 43.658C56.2814 43.658 55.1902 43.9709 54.9174 44.579C54.6446 45.1872 54.4169 45.2348 53.7261 45.8705C53.0354 46.5062 52.8226 46.4136 52.277 46.9241C51.7314 47.4347 51.311 47.3896 50.6678 47.4647C50.0246 47.5398 49.4639 47.4847 49.1661 47.6649C48.8793 47.8198 48.5825 47.9552 48.2776 48.0704C48.2776 48.0704 47.8772 47.8201 47.5694 48.7736C47.2615 49.7272 46.8911 51.9546 47.1189 53.1785C47.3466 54.4023 48.2526 57.3205 49.6642 58.0313C51.0757 58.7421 54.4845 56.4721 55.3604 55.5036C56.2364 54.535 58.0434 49.9825 58.1135 49.2141C58.1835 48.4458 56.9972 46.9817 56.777 46.3935C56.5567 45.8054 56.8696 45.485 56.4291 44.9444C55.9886 44.4038 56.2814 43.658 56.2814 43.658Z" fill="white" stroke="#0600CC" stroke-linecap="round" stroke-linejoin="round"/>
<path d="M52.7701 53.3336C52.7701 53.3336 52.5699 53.6815 51.8791 53.6115C51.1883 53.5414 50.9105 53.0183 50.9931 52.6104" stroke="#0600CC" stroke-linecap="round" stroke-linejoin="round"/>
<path d="M50.085 53.8417C50.7355 54.4045 51.5626 54.7215 52.4225 54.7377" stroke="#0600CC" stroke-linecap="round" stroke-linejoin="round"/>
<path d="M51.4088 49.7372L51.1435 50.3279C51.1435 50.3279 50.2375 50.7283 49.4141 49.5345" stroke="#0600CC" stroke-linecap="round" stroke-linejoin="round"/>
<path d="M55.5608 51.354L55.3405 51.9071C55.3405 51.9071 54.2043 52.1573 53.8389 51.2213" stroke="#0600CC" stroke-linecap="round" stroke-linejoin="round"/>
<path d="M54.3218 49.4169C54.3218 49.4169 56.2038 48.7036 56.7269 50.4455" stroke="#0600CC" stroke-linecap="round" stroke-linejoin="round"/>
<path d="M52.2571 48.6735C52.2571 48.6735 51.5939 47.1243 49.7544 47.8" stroke="#0600CC" stroke-linecap="round" stroke-linejoin="round"/>
<path d="M51.1437 50.3278C51.1437 50.3278 50.8008 50.458 50.085 50.2202C49.8747 50.1496 49.6821 50.0347 49.5202 49.8831C49.3582 49.7315 49.2308 49.5469 49.1465 49.3417C49.1465 49.3417 49.1415 50.9885 51.1437 50.3278Z" fill="#0600CC"/>
<path d="M55.5783 52.0147C55.5783 52.0147 55.2354 52.1449 54.5196 51.9071C54.3093 51.8365 54.1167 51.7216 53.9547 51.57C53.7928 51.4184 53.6654 51.2338 53.5811 51.0286C53.5811 51.0286 53.5786 52.6754 55.5783 52.0147Z" fill="#0600CC"/>
<path d="M35.6016 69.7867C35.6016 69.7867 37.7289 66.3454 38.8551 63.9678L35.6016 69.7867Z" fill="white"/>
<path d="M35.6016 69.7867C35.6016 69.7867 37.7289 66.3454 38.8551 63.9678" stroke="#0600CC" stroke-linecap="round" stroke-linejoin="round"/>
<path d="M37.228 67.284C38.1906 66.6556 39.0025 65.8224 39.6056 64.8438" stroke="#0600CC" stroke-linecap="round" stroke-linejoin="round"/>
<path d="M23.9009 82.0502H36.8326L43.8804 86.848H29.0315L23.9009 82.0502Z" fill="white" stroke="#0600CC" stroke-linecap="round" stroke-linejoin="round"/>
<path d="M40.5441 85.8044H30.1577" stroke="#FEFF2D" stroke-linecap="round" stroke-linejoin="round"/>
<path d="M39.5432 84.8033H29.1567" stroke="#FEFF2D" stroke-linecap="round" stroke-linejoin="round"/>
<path d="M38.5422 83.8022H28.1558" stroke="#FEFF2D" stroke-linecap="round" stroke-linejoin="round"/>
<path d="M14.8911 85.0535H27.8228L34.8706 89.8513H20.0218L14.8911 85.0535Z" fill="white" stroke="#0600CC" stroke-linecap="round" stroke-linejoin="round"/>
<path d="M31.5344 88.8077H21.1479" stroke="#FEFF2D" stroke-linecap="round" stroke-linejoin="round"/>
<path d="M30.5334 87.8066H20.147" stroke="#FEFF2D" stroke-linecap="round" stroke-linejoin="round"/>
<path d="M29.5324 86.8055H19.146" stroke="#FEFF2D" stroke-linecap="round" stroke-linejoin="round"/>
<path d="M33.0786 79.6301C33.0786 79.6301 31.9099 77.8781 31.2016 76.7944C30.4933 75.7107 28.9491 74.9599 27.5726 75.2928C26.1961 75.6256 25.5278 76.877 25.5278 78.2135C25.5278 79.55 25.653 80.6312 27.1121 81.4245C28.5712 82.2179 31.8273 82.6334 31.8273 82.6334C31.8273 82.6334 34.2875 83.5519 33.0786 79.6301Z" fill="white" stroke="#0600CC" stroke-linecap="round" stroke-linejoin="round"/>
<path d="M31.8646 79.2371C31.8646 79.2371 30.2628 79.7377 30.1527 80.3383C30.0425 80.939 29.8774 82.2705 29.9875 82.8761C30.0976 83.4818 31.5317 83.4292 32.5253 83.4292C33.5189 83.4292 34.0144 82.4281 33.7942 82.1053C33.5739 81.7824 32.6905 81.6047 32.3601 80.8364C32.1471 80.3193 31.9813 79.784 31.8646 79.2371Z" fill="white" stroke="#0600CC" stroke-linecap="round" stroke-linejoin="round"/>
<path d="M33.1961 79.7602C32.9609 79.2321 32.663 78.7366 32.5304 78.4488C32.1725 77.6779 31.3916 77.6454 31.3491 78.6215C31.3241 79.1746 32.3502 82.4056 33.2437 81.6623C33.7242 81.2619 33.5165 80.4785 33.1961 79.7602Z" fill="white" stroke="#0600CC" stroke-linecap="round" stroke-linejoin="round"/>
<path d="M30.208 80.5611C30.208 80.5611 30.2631 81.2218 31.587 81.9952C32.911 82.7685 33.2989 82.4957 33.7394 82.4957" fill="white"/>
<path d="M30.208 80.5611C30.208 80.5611 30.2631 81.2218 31.587 81.9952C32.911 82.7685 33.2989 82.4957 33.7394 82.4957" stroke="#0600CC" stroke-linecap="round" stroke-linejoin="round"/>
<path d="M29.9878 81.8851C29.9878 81.8851 30.1505 82.9713 33.1838 83.1915L29.9878 81.8851Z" fill="white"/>
<path d="M29.9878 81.8851C29.9878 81.8851 30.1505 82.9713 33.1838 83.1915" stroke="#0600CC" stroke-linecap="round" stroke-linejoin="round"/>
<path d="M34.1021 82.5583L31.4893 75.0325C31.4573 74.9382 31.4638 74.8351 31.5074 74.7456C31.551 74.6561 31.6281 74.5874 31.722 74.5545C31.7687 74.5383 31.8181 74.5315 31.8674 74.5344C31.9167 74.5374 31.9649 74.55 32.0093 74.5716C32.0538 74.5933 32.0935 74.6234 32.1262 74.6604C32.1589 74.6974 32.184 74.7405 32.2001 74.7872L34.8104 82.313L34.1021 82.5583Z" fill="#0600CC"/>
<path d="M34.1021 82.5583L34.8078 83.4618L34.8103 82.313L34.1021 82.5583Z" fill="white"/>
<path d="M34.5503 83.1339L34.8006 83.4618V83.0463C34.7139 83.0654 34.6299 83.0948 34.5503 83.1339Z" fill="#0600CC"/>
<path d="M32.1999 74.7872C32.1835 74.7406 32.158 74.6976 32.125 74.6607C32.092 74.6239 32.052 74.594 32.0074 74.5726C31.9627 74.5512 31.9143 74.5388 31.8649 74.5361C31.8155 74.5335 31.7661 74.5405 31.7194 74.557C31.6727 74.5734 31.6298 74.5989 31.5929 74.6319C31.5561 74.665 31.5261 74.7049 31.5048 74.7496C31.4834 74.7942 31.471 74.8426 31.4683 74.892C31.4656 74.9414 31.4727 74.9908 31.4892 75.0375L31.7394 75.7883L32.4402 75.5205L32.1999 74.7872Z" fill="white"/>
<path d="M33.1611 77.753C33.1611 77.753 33.912 77.4627 34.2874 77.753C34.6628 78.0433 34.8705 78.7966 34.8705 79.6726C34.8705 80.5486 35.2885 81.6748 34.5376 81.6323C33.7868 81.5897 33.1611 77.753 33.1611 77.753Z" fill="white" stroke="#0600CC" stroke-linecap="round" stroke-linejoin="round"/>
<path d="M49.7046 84.4704L44.0059 80.8815H65.7798L73.8962 84.4704H49.7046Z" fill="white" stroke="#0600CC" stroke-linecap="round" stroke-linejoin="round"/>
<path d="M73.8962 84.4704H49.7046L52.4927 67.2014H76.6843L73.8962 84.4704Z" fill="#F3F4F9" stroke="#0600CC" stroke-linecap="round" stroke-linejoin="round"/>
<path opacity="0.2" d="M73.8962 84.4704H49.7046L52.4927 67.2014H76.6843L73.8962 84.4704Z" fill="#0600CC" stroke="#0600CC" stroke-linecap="round" stroke-linejoin="round"/>
<path d="M75.2627 76.0086C71.1657 76.9396 67.6318 76.0086 60.6191 77.1474C53.749 78.2536 50.971 81.3845 49.8573 83.5144L49.7046 84.4704H73.8962L75.2627 76.0086Z" fill="#0600CC" stroke="#0600CC" stroke-miterlimit="10"/>
<path d="M75.2877 78.1359C75.2877 78.1359 73.9161 78.3111 73.4231 78.8742C72.9301 79.4374 73.318 79.6501 73.741 79.6501C74.1639 79.6501 75.5705 79.6501 76.2037 78.8993C76.7167 78.3086 76.3789 78.0659 75.2877 78.1359Z" fill="white" stroke="#0600CC" stroke-linecap="round" stroke-linejoin="round"/>
<path d="M74.8321 82.1478C74.8321 82.1478 73.4606 82.323 72.9675 82.8861C72.4745 83.4493 72.8624 83.6595 73.2854 83.6595C73.7084 83.6595 75.1149 83.6595 75.7481 82.9212C76.2612 82.3205 75.9208 82.0903 74.8321 82.1478Z" fill="white" stroke="#0600CC" stroke-linecap="round" stroke-linejoin="round"/>
<path d="M74.9722 81.0892C74.9722 81.0892 73.5982 81.2644 73.1077 81.8275C72.6172 82.3906 73.0001 82.6033 73.423 82.6033C73.846 82.6033 75.2526 82.6033 75.8858 81.8525C76.4013 81.2644 76.0634 81.0216 74.9722 81.0892Z" fill="white" stroke="#0600CC" stroke-linecap="round" stroke-linejoin="round"/>
<path d="M75.0074 79.8954C75.0074 79.8954 73.6334 80.0706 73.1429 80.6337C72.6523 81.1968 73.0352 81.4096 73.4582 81.4096C73.8812 81.4096 75.2877 81.4096 75.9209 80.6587C76.4365 80.0681 76.0986 79.8378 75.0074 79.8954Z" fill="white" stroke="#0600CC" stroke-linecap="round" stroke-linejoin="round"/>
</g>
<defs>
<clipPath id="clip0_104_4250">
<rect width="100" height="97.2595" fill="white"/>
</clipPath>
</defs>
</svg>
