<svg width="100" height="96" viewBox="0 0 100 96" fill="none" xmlns="http://www.w3.org/2000/svg">
<g clip-path="url(#clip0_104_4244)">
<path d="M5.27463 37.1406C5.27463 37.1406 1.3815 53.7747 12.2237 68.2649C23.0659 82.7551 41.9644 88.3891 57.1547 93.3542C72.345 98.3193 86.5755 92.5877 91.9125 79.8217C97.2495 67.0558 86.4675 60.1774 84.0909 43.5038C81.7143 26.8302 83.611 22.0209 72.5237 9.33187C61.4363 -3.35718 38.68 -3.06218 23.2965 9.97172C7.91299 23.0056 5.27463 37.1406 5.27463 37.1406Z" fill="white"/>
<path d="M5.27463 37.1406C5.27463 37.1406 1.3815 53.7747 12.2237 68.2649C23.0659 82.7551 41.9644 88.3891 57.1547 93.3542C72.345 98.3193 86.5755 92.5877 91.9125 79.8217C97.2495 67.0558 86.4675 60.1774 84.0909 43.5038C81.7143 26.8302 83.611 22.0209 72.5237 9.33187C61.4363 -3.35718 38.68 -3.06218 23.2965 9.97172C7.91299 23.0056 5.27463 37.1406 5.27463 37.1406Z" fill="#F3F4F9"/>
<path d="M78.4298 26.6744C78.2433 26.5842 78.0476 26.5146 77.846 26.4667C76.6681 26.1883 75.2908 25.966 75.2908 25.966C75.2908 25.966 77.3558 23.8885 76.5705 22.9703C75.7852 22.0521 74.412 23.4751 74.412 23.4751C74.412 23.4751 75.7852 19.6983 73.8241 19.1395C71.863 18.5807 69.7025 22.7771 69.7025 22.7771C69.7025 22.7771 69.6048 21.1671 68.6222 21.3769C67.6396 21.5867 67.4463 23.4751 67.4463 23.4751C67.4463 23.4751 65.9734 22.6442 65.5766 23.4066C65.1799 24.169 66.0628 25.7042 66.0628 25.7042C66.0628 25.7042 64.4008 24.7258 64.1931 25.6336C64.1174 25.9743 64.0908 26.3241 64.1141 26.6723L78.4298 26.6744Z" stroke="#0600CC" stroke-width="0.5" stroke-linecap="round" stroke-linejoin="round"/>
<path d="M92.031 26.6744L88.2085 26.1758C87.2085 25.4073 86.002 24.9545 84.7433 24.8753L84.3112 24.8483C84.3112 24.8483 85.3499 23.6018 84.7267 20.9012C84.1034 18.2005 80.5718 20.4857 80.5718 20.4857C80.5718 20.4857 83.1603 18.0135 82.7448 15.7283C82.3293 13.4431 78.7021 15.2817 78.7021 15.2817C78.7021 15.2817 79.1176 9.11789 74.5472 9.32563C69.9768 9.53338 69.1458 16.7359 69.1458 16.7359C69.1458 16.7359 65.9278 12.822 63.7444 17.7746C63.4216 18.5071 63.1825 19.2737 63.0319 20.0598L62.9405 19.9684C62.9405 19.9684 61.2287 17.8909 59.8887 19.3722C58.5488 20.8534 58.6963 23.095 58.6963 23.095C58.6963 23.095 56.6188 22.3512 56.0911 23.2445C55.5635 24.1378 56.7621 25.1807 56.7621 25.1807C56.7621 25.1807 55.6445 24.6593 54.826 25.403C54.3108 25.8704 53.7706 26.3649 53.4382 26.6702L92.031 26.6744Z" stroke="#0600CC" stroke-width="0.5" stroke-linecap="round" stroke-linejoin="round"/>
<path d="M43.8342 50.3435L40.0117 49.8449C39.0117 49.0764 37.8052 48.6237 36.5465 48.5444L36.1144 48.5174C36.1144 48.5174 37.1531 47.271 36.5299 44.5703C35.9067 41.8696 32.375 44.1548 32.375 44.1548C32.375 44.1548 34.9635 41.693 34.548 39.4078C34.1325 37.1226 30.5053 38.9612 30.5053 38.9612C30.5053 38.9612 30.9208 32.7974 26.3504 33.0051C21.78 33.2129 20.949 40.4154 20.949 40.4154C20.949 40.4154 17.7311 36.5015 15.5477 41.4541C15.2248 42.1866 14.9858 42.9532 14.8351 43.7393L14.7437 43.6479C14.7437 43.6479 13.0319 41.5705 11.6919 43.0517C10.352 44.5329 10.4995 46.7745 10.4995 46.7745C10.4995 46.7745 8.42203 46.0307 7.89436 46.924C7.36668 47.8173 8.56537 48.8602 8.56537 48.8602C8.56537 48.8602 7.4477 48.3388 6.62919 49.0825C6.11398 49.5499 5.57385 50.0444 5.24146 50.3497L43.8342 50.3435Z" stroke="#0600CC" stroke-width="0.5" stroke-linecap="round" stroke-linejoin="round"/>
<path d="M90.8571 71.915C89.0973 71.9122 87.3928 72.5302 86.0436 73.66C85.1159 72.635 83.8247 72.0126 82.4449 71.9253C81.0651 71.838 79.7058 72.2927 78.6562 73.1926C77.951 72.594 77.1223 72.1586 76.2292 71.9177C75.3361 71.6768 74.4008 71.6363 73.4902 71.7991C72.5796 71.9618 71.7163 72.3239 70.962 72.8593C70.2077 73.3947 69.5811 74.0902 69.127 74.8961C68.7427 74.6913 68.312 74.5895 67.8768 74.6005C67.4415 74.6116 67.0165 74.7351 66.6432 74.9591C66.2698 75.1832 65.9608 75.5 65.7463 75.8789C65.5317 76.2577 65.4188 76.6857 65.4187 77.1211C65.4197 77.2197 65.426 77.3181 65.4374 77.4161C65.2809 77.3976 65.1234 77.3886 64.9659 77.3891C63.9974 77.3906 63.061 77.7359 62.3233 78.3634C61.6939 77.8257 60.8929 77.5309 60.0652 77.5324C59.955 77.5324 59.847 77.5324 59.7411 77.5511V43.3771C59.912 43.0623 60.1213 42.7699 60.3643 42.5066C60.6721 42.2328 60.8894 41.872 60.9874 41.4718C61.0854 41.0717 61.0594 40.6512 60.913 40.2662C60.7665 39.8812 60.5064 39.5497 60.1673 39.3159C59.8281 39.082 59.4259 38.9568 59.014 38.9568C58.602 38.9568 58.1998 39.082 57.8606 39.3159C57.5215 39.5497 57.2614 39.8812 57.115 40.2662C56.9685 40.6512 56.9425 41.0717 57.0405 41.4718C57.1385 41.872 57.3558 42.2328 57.6636 42.5066C57.8926 42.7592 58.0907 43.0382 58.2536 43.3376V78.0518C57.9782 78.2243 57.7279 78.434 57.5099 78.675C56.724 78.0185 55.7523 77.6244 54.7311 77.548C53.7099 77.4716 52.6904 77.7168 51.8156 78.2491C51.5759 78.1042 51.3243 77.9798 51.0636 77.8773V46.3001C51.396 44.983 52.4409 43.8944 52.4409 43.8944C52.9272 43.4614 53.2704 42.8909 53.4251 42.2585C53.5798 41.626 53.5386 40.9615 53.3069 40.353C53.0753 39.7445 52.6642 39.2208 52.1282 38.8512C51.5921 38.4817 50.9564 38.2838 50.3053 38.2838C49.6542 38.2838 49.0185 38.4817 48.4824 38.8512C47.9464 39.2208 47.5353 39.7445 47.3037 40.353C47.072 40.9615 47.0308 41.626 47.1855 42.2585C47.3402 42.8909 47.6834 43.4614 48.1697 43.8944V43.9048C48.1697 43.9048 49.2728 45.0557 49.574 46.4226V77.5386C49.4743 77.5386 49.3767 77.5282 49.277 77.5282C48.1272 77.5273 47.0137 77.9311 46.1317 78.6688C45.6441 78.1285 44.9985 77.756 44.2867 77.6042C43.575 77.4524 42.8335 77.529 42.1679 77.8232V43.3771C42.3389 43.0623 42.5482 42.7699 42.7912 42.5066C43.099 42.2328 43.3163 41.872 43.4143 41.4718C43.5123 41.0717 43.4863 40.6512 43.3398 40.2662C43.1934 39.8812 42.9333 39.5497 42.5942 39.3159C42.255 39.082 41.8528 38.9568 41.4408 38.9568C41.0289 38.9568 40.6267 39.082 40.2875 39.3159C39.9484 39.5497 39.6883 39.8812 39.5418 40.2662C39.3954 40.6512 39.3694 41.0717 39.4674 41.4718C39.5654 41.872 39.7827 42.2328 40.0905 42.5066C40.3195 42.7592 40.5175 43.0382 40.6805 43.3376V77.9209C39.9351 77.4979 39.0755 77.3202 38.2235 77.4131C37.3715 77.5059 36.5703 77.8646 35.9335 78.4382C35.9503 78.3582 35.9586 78.2768 35.9585 78.1951C35.9585 77.8678 35.8284 77.554 35.597 77.3225C35.3656 77.0911 35.0517 76.9611 34.7244 76.9611C34.6299 76.9604 34.5357 76.9716 34.444 76.9943C34.3847 76.445 34.1212 75.9381 33.7056 75.574C33.29 75.21 32.7527 75.0155 32.2003 75.0291C31.8559 75.0284 31.5163 75.1095 31.2094 75.2659C30.7948 74.3994 30.1869 73.6397 29.4325 73.0451C28.6781 72.4505 27.7973 72.0369 26.8579 71.8363C25.9186 71.6356 24.9457 71.6531 24.0142 71.8876C23.0826 72.122 22.2173 72.567 21.4849 73.1885C20.4348 72.2889 19.0752 71.8345 17.6952 71.9218C16.3153 72.0091 15.0238 72.6312 14.0954 73.6559C12.9987 72.7401 11.6635 72.1562 10.2466 71.9727C8.82968 71.7892 7.3898 72.0137 6.09599 72.6198C4.80217 73.2259 3.7081 74.1885 2.94219 75.3946C2.17629 76.6008 1.77033 78.0004 1.77198 79.4291C1.7723 79.7529 1.79382 80.0763 1.83638 80.3972H98.3047C98.3472 80.0769 98.3687 79.7543 98.3691 79.4312C98.3697 78.4443 98.1758 77.4671 97.7985 76.5552C97.4212 75.6433 96.868 74.8147 96.1704 74.1167C95.4728 73.4187 94.6444 72.865 93.7328 72.4872C92.8211 72.1094 91.8439 71.915 90.8571 71.915Z" fill="#FEFF2D"/>
<path d="M42.2406 40.585C42.2406 40.1176 41.8604 39.3759 41.393 39.3759C40.9256 39.3759 40.5454 40.1176 40.5454 40.585C40.5454 41.0524 41.2642 41.9893 41.393 41.9893C41.5218 41.9893 42.2406 41.0545 42.2406 40.585Z" fill="#FEFF2D"/>
<path d="M59.8429 40.585C59.8429 40.1176 59.4627 39.3759 58.9953 39.3759C58.5279 39.3759 58.1477 40.1176 58.1477 40.585C58.1477 41.0524 58.8665 41.9893 58.9953 41.9893C59.1241 41.9893 59.8429 41.0545 59.8429 40.585Z" fill="#FEFF2D"/>
<path d="M41.4885 35.007L47.4674 29.7469V34.2093L41.8874 36.8414L41.4885 35.007Z" fill="#0600CC" stroke="#0600CC" stroke-miterlimit="10"/>
<path d="M42.6936 39.3365H40.0947L39.5463 29.157C39.538 29.0831 39.538 29.0086 39.5463 28.9347C39.6377 28.0933 40.4292 25.3345 41.391 25.3345C42.355 25.3345 43.1465 28.0933 43.2379 28.9347C43.2462 29.0086 43.2462 29.0831 43.2379 29.157L42.6936 39.3365Z" fill="white" stroke="#0600CC" stroke-width="0.5" stroke-miterlimit="10"/>
<path d="M39.9097 27.4535H42.8825C42.5439 26.4314 42.0037 25.3282 41.395 25.3282C40.7863 25.3282 40.2483 26.4314 39.9097 27.4535Z" fill="#0600CC" stroke="#0600CC" stroke-width="0.5" stroke-miterlimit="10"/>
<path d="M39.9824 37.1884L40.0988 39.3364H42.6935L42.8098 37.1884H39.9824Z" fill="#0600CC" stroke="#0600CC" stroke-width="0.5" stroke-miterlimit="10"/>
<path d="M58.9994 35.007L53.0205 29.7469V34.2093L58.6005 36.8414L58.9994 35.007Z" fill="#0600CC" stroke="#0600CC" stroke-miterlimit="10"/>
<path d="M57.8027 39.3365H60.3975L60.9459 29.157C60.9542 29.0831 60.9542 29.0086 60.9459 28.9347C60.8545 28.0933 60.063 25.3345 59.1011 25.3345C58.1372 25.3345 57.3457 28.0933 57.2543 28.9347C57.246 29.0086 57.246 29.0831 57.2543 29.157L57.8027 39.3365Z" fill="white" stroke="#0600CC" stroke-width="0.5" stroke-miterlimit="10"/>
<path d="M60.5139 37.1884L60.3976 39.3364H57.8029L57.6865 37.1884H60.5139Z" fill="#0600CC" stroke="#0600CC" stroke-width="0.5" stroke-miterlimit="10"/>
<path d="M57.6138 27.4535H60.5866C60.248 26.4314 59.7078 25.3282 59.1012 25.3282C58.4946 25.3282 57.9607 26.4314 57.6138 27.4535Z" fill="#0600CC" stroke="#0600CC" stroke-width="0.5" stroke-miterlimit="10"/>
<path d="M51.6181 40.8406C51.6181 40.4852 51.477 40.1444 51.2257 39.8931C50.9744 39.6418 50.6336 39.5006 50.2782 39.5006C49.9228 39.5006 49.582 39.6418 49.3307 39.8931C49.0794 40.1444 48.9382 40.4852 48.9382 40.8406C48.9382 41.5801 50.0767 43.0593 50.2782 43.0593C50.4361 43.0593 51.6181 41.5801 51.6181 40.8406Z" fill="#FEFF2D"/>
<path opacity="0.2" d="M53.6874 35.7508H46.8879L45.4503 13.6987C45.4316 13.506 45.4316 13.3119 45.4503 13.1191C45.6892 10.9149 47.7625 3.69165 50.2824 3.69165C52.8045 3.69165 54.8778 10.9149 55.1167 13.1191C55.1364 13.3118 55.1364 13.506 55.1167 13.6987L53.6874 35.7508Z" fill="#0600CC" stroke="#0600CC" stroke-width="0.5" stroke-miterlimit="10"/>
<path d="M50.2969 30.3079C49.9068 30.3079 49.5205 30.231 49.1601 30.0818C48.7996 29.9325 48.4721 29.7136 48.1963 29.4378C47.9204 29.1619 47.7016 28.8344 47.5523 28.474C47.403 28.1136 47.3262 27.7273 47.3262 27.3371V14.9576C47.3262 14.5676 47.403 14.1814 47.5523 13.8211C47.7017 13.4608 47.9205 13.1334 48.1964 12.8577C48.4723 12.582 48.7998 12.3634 49.1602 12.2143C49.5206 12.0653 49.9069 11.9887 50.2969 11.989C51.0845 11.989 51.8398 12.3017 52.3968 12.8583C52.9539 13.415 53.2671 14.1701 53.2677 14.9576V27.3351C53.2679 27.7254 53.1913 28.1119 53.0421 28.4726C52.893 28.8332 52.6742 29.161 52.3983 29.437C52.1224 29.7131 51.7948 29.9321 51.4343 30.0816C51.0737 30.231 50.6872 30.3079 50.2969 30.3079Z" fill="#FEFF2D" stroke="#0600CC" stroke-miterlimit="10"/>
<path d="M52.6716 38.9147H47.8934L46.8879 35.6074H53.6874L52.6716 38.9147Z" fill="#0600CC" stroke="#0600CC" stroke-width="0.5" stroke-miterlimit="10"/>
<path d="M51.0534 17.3306C52.1183 16.9066 52.6378 15.6996 52.2139 14.6347C51.7899 13.5698 50.5829 13.0503 49.518 13.4742C48.4531 13.8982 47.9336 15.1052 48.3575 16.1701C48.7815 17.235 49.9885 17.7546 51.0534 17.3306Z" fill="#0600CC"/>
<path d="M52.3396 15.9815C52.5201 14.8496 51.7488 13.7857 50.6169 13.6052C49.485 13.4247 48.4211 14.1959 48.2406 15.3278C48.0601 16.4597 48.8314 17.5236 49.9633 17.7041C51.0952 17.8846 52.1591 17.1134 52.3396 15.9815Z" fill="#FEFF2D" stroke="#0600CC" stroke-miterlimit="10"/>
<path d="M50.2867 13.8607C50.7896 13.8609 51.2729 14.0556 51.6353 14.4041C51.9978 14.7527 52.2114 15.228 52.2312 15.7304C52.2312 15.7055 52.2312 15.6785 52.2312 15.6536C52.2397 15.3924 52.1957 15.1323 52.1016 14.8885C52.0076 14.6448 51.8655 14.4224 51.6838 14.2347C51.5021 14.047 51.2845 13.8977 51.044 13.7958C50.8034 13.6938 50.5449 13.6413 50.2836 13.6413C50.0224 13.6413 49.7638 13.6938 49.5232 13.7958C49.2827 13.8977 49.0651 14.047 48.8834 14.2347C48.7017 14.4224 48.5596 14.6448 48.4656 14.8885C48.3715 15.1323 48.3275 15.3924 48.336 15.6536C48.336 15.6785 48.336 15.7055 48.336 15.7304C48.3559 15.2269 48.5703 14.7507 48.9341 14.402C49.2979 14.0533 49.7828 13.8593 50.2867 13.8607Z" fill="#0600CC"/>
<path d="M51.8184 15.9024C51.9559 15.0575 51.3824 14.2613 50.5376 14.1238C49.6928 13.9864 48.8965 14.5599 48.7591 15.4047C48.6217 16.2495 49.1951 17.0457 50.0399 17.1832C50.8847 17.3206 51.681 16.7472 51.8184 15.9024Z" fill="white" stroke="#0600CC" stroke-width="0.5" stroke-miterlimit="10"/>
<path d="M50.2867 17.0579C50.6849 17.0578 51.0677 16.9043 51.3555 16.6292C51.6434 16.3541 51.8142 15.9786 51.8323 15.5809C51.8323 15.6058 51.8323 15.6287 51.8323 15.6536C51.8177 16.0545 51.6481 16.4341 51.3592 16.7126C51.0704 16.991 50.6848 17.1466 50.2836 17.1466C49.8824 17.1466 49.4968 16.991 49.208 16.7126C48.9191 16.4341 48.7495 16.0545 48.7349 15.6536C48.7349 15.6287 48.7349 15.6058 48.7349 15.5809C48.7536 15.9795 48.9254 16.3556 49.2145 16.6307C49.5035 16.9059 49.8876 17.0589 50.2867 17.0579Z" fill="#0600CC"/>
<path d="M50.2865 22.6047C51.4327 22.6047 52.3619 21.6755 52.3619 20.5293C52.3619 19.3832 51.4327 18.454 50.2865 18.454C49.1404 18.454 48.2112 19.3832 48.2112 20.5293C48.2112 21.6755 49.1404 22.6047 50.2865 22.6047Z" fill="#0600CC"/>
<path d="M50.2865 22.854C51.4327 22.854 52.3619 21.9248 52.3619 20.7786C52.3619 19.6324 51.4327 18.7032 50.2865 18.7032C49.1404 18.7032 48.2112 19.6324 48.2112 20.7786C48.2112 21.9248 49.1404 22.854 50.2865 22.854Z" fill="#FEFF2D" stroke="#0600CC" stroke-miterlimit="10"/>
<path d="M50.2867 18.9858C50.7896 18.9859 51.2729 19.1807 51.6353 19.5292C51.9978 19.8777 52.2114 20.353 52.2312 20.8555C52.2312 20.8285 52.2312 20.8036 52.2312 20.7765C52.2397 20.5154 52.1957 20.2553 52.1016 20.0115C52.0076 19.7678 51.8655 19.5454 51.6838 19.3577C51.5021 19.17 51.2845 19.0207 51.044 18.9188C50.8034 18.8168 50.5449 18.7643 50.2836 18.7643C50.0224 18.7643 49.7638 18.8168 49.5232 18.9188C49.2827 19.0207 49.0651 19.17 48.8834 19.3577C48.7017 19.5454 48.5596 19.7678 48.4656 20.0115C48.3715 20.2553 48.3275 20.5154 48.336 20.7765C48.336 20.8036 48.336 20.8285 48.336 20.8555C48.3564 20.3521 48.571 19.8762 48.9347 19.5276C49.2984 19.179 49.7829 18.9848 50.2867 18.9858Z" fill="#0600CC"/>
<path d="M50.2866 22.3284C51.1425 22.3284 51.8364 21.6345 51.8364 20.7786C51.8364 19.9227 51.1425 19.2288 50.2866 19.2288C49.4307 19.2288 48.7368 19.9227 48.7368 20.7786C48.7368 21.6345 49.4307 22.3284 50.2866 22.3284Z" fill="white" stroke="#0600CC" stroke-width="0.5" stroke-miterlimit="10"/>
<path d="M50.2865 22.183C50.6847 22.1829 51.0675 22.0293 51.3554 21.7542C51.6432 21.4791 51.814 21.1037 51.8322 20.7059C51.8322 20.7309 51.8322 20.7537 51.8322 20.7786C51.8398 20.9868 51.8054 21.1944 51.731 21.3889C51.6566 21.5835 51.5437 21.761 51.3992 21.911C51.2546 22.0609 51.0813 22.1802 50.8896 22.2617C50.6979 22.3432 50.4917 22.3852 50.2834 22.3852C50.0751 22.3852 49.869 22.3432 49.6773 22.2617C49.4856 22.1802 49.3123 22.0609 49.1677 21.911C49.0231 21.761 48.9103 21.5835 48.8359 21.3889C48.7615 21.1944 48.7271 20.9868 48.7347 20.7786C48.7347 20.7537 48.7347 20.7309 48.7347 20.7059C48.7529 21.1048 48.9245 21.4811 49.2137 21.7564C49.5029 22.0316 49.8873 22.1845 50.2865 22.183Z" fill="#0600CC"/>
<path d="M51.0544 27.5826C52.1193 27.1587 52.6388 25.9517 52.2148 24.8868C51.7908 23.8219 50.5839 23.3023 49.519 23.7263C48.4541 24.1503 47.9345 25.3573 48.3585 26.4222C48.7825 27.4871 49.9895 28.0066 51.0544 27.5826Z" fill="#0600CC"/>
<path d="M52.3384 26.2339C52.5188 25.102 51.7476 24.0381 50.6157 23.8576C49.4838 23.6771 48.4199 24.4484 48.2394 25.5803C48.0589 26.7122 48.8302 27.7761 49.9621 27.9566C51.094 28.1371 52.1579 27.3658 52.3384 26.2339Z" fill="#FEFF2D" stroke="#0600CC" stroke-miterlimit="10"/>
<path d="M50.2867 24.1129C50.7896 24.1131 51.2729 24.3078 51.6353 24.6563C51.9978 25.0049 52.2114 25.4802 52.2312 25.9826C52.2312 25.9577 52.2312 25.9307 52.2312 25.9058C52.2397 25.6446 52.1957 25.3845 52.1016 25.1407C52.0076 24.897 51.8655 24.6746 51.6838 24.4869C51.5021 24.2992 51.2845 24.1499 51.044 24.048C50.8034 23.946 50.5449 23.8935 50.2836 23.8935C50.0224 23.8935 49.7638 23.946 49.5232 24.048C49.2827 24.1499 49.0651 24.2992 48.8834 24.4869C48.7017 24.6746 48.5596 24.897 48.4656 25.1407C48.3715 25.3845 48.3275 25.6446 48.336 25.9058C48.336 25.9307 48.336 25.9577 48.336 25.9826C48.3559 25.4791 48.5703 25.0029 48.9341 24.6542C49.2979 24.3055 49.7828 24.1115 50.2867 24.1129Z" fill="#0600CC"/>
<path d="M51.8182 26.1555C51.9556 25.3107 51.3822 24.5144 50.5374 24.377C49.6926 24.2395 48.8963 24.813 48.7589 25.6578C48.6214 26.5026 49.1949 27.2989 50.0397 27.4363C50.8845 27.5737 51.6808 27.0003 51.8182 26.1555Z" fill="white" stroke="#0600CC" stroke-width="0.5" stroke-miterlimit="10"/>
<path d="M50.2867 27.3101C50.6849 27.31 51.0677 27.1564 51.3555 26.8814C51.6434 26.6063 51.8142 26.2308 51.8323 25.8331C51.8323 25.8559 51.8323 25.8808 51.8323 25.9058C51.8177 26.3067 51.6481 26.6863 51.3592 26.9648C51.0704 27.2432 50.6848 27.3988 50.2836 27.3988C49.8824 27.3988 49.4968 27.2432 49.208 26.9648C48.9191 26.6863 48.7495 26.3067 48.7349 25.9058C48.7349 25.8808 48.7349 25.8559 48.7349 25.8331C48.7536 26.2317 48.9254 26.6078 49.2145 26.8829C49.5035 27.1581 49.8876 27.3111 50.2867 27.3101Z" fill="#0600CC"/>
<path d="M46.8484 8.00233H53.7268C52.8584 5.69428 51.639 3.54828 50.2866 3.54828C48.9362 3.54828 47.7168 5.69428 46.8484 8.00233Z" fill="#0600CC" stroke="#0600CC" stroke-width="0.5" stroke-miterlimit="10"/>
<path opacity="0.2" d="M77.6593 69.0626H27.6697V79.0842H77.6593V69.0626Z" fill="#0600CC" stroke="#0600CC" stroke-linecap="round" stroke-linejoin="round"/>
<path d="M46.0551 60.4516H28.8809V73.6081H46.0551V60.4516Z" fill="white" stroke="#0600CC" stroke-linecap="round" stroke-linejoin="round"/>
<path opacity="0.2" d="M45.3633 61.2431H29.5747V72.8186H45.3633V61.2431Z" fill="#0600CC" stroke="#0600CC" stroke-linecap="round" stroke-linejoin="round"/>
<path d="M33.9393 71.2377L33.1582 71.9295" stroke="#0600CC" stroke-linecap="round" stroke-linejoin="round"/>
<path d="M44.7815 61.6316L35.0591 70.2447" stroke="#0600CC" stroke-linecap="round" stroke-linejoin="round"/>
<path d="M76.5561 60.4516H59.3818V73.6081H76.5561V60.4516Z" fill="white" stroke="#0600CC" stroke-linecap="round" stroke-linejoin="round"/>
<path opacity="0.2" d="M75.8643 61.2431H60.0757V72.8186H75.8643V61.2431Z" fill="#0600CC" stroke="#0600CC" stroke-linecap="round" stroke-linejoin="round"/>
<path d="M64.4403 71.2377L63.6592 71.9295" stroke="#0600CC" stroke-linecap="round" stroke-linejoin="round"/>
<path d="M75.2825 61.6316L65.5601 70.2447" stroke="#0600CC" stroke-linecap="round" stroke-linejoin="round"/>
<path d="M60.2564 77.1086L59.3818 75.7437L60.7488 76.234L60.5847 74.9231L61.2952 76.0158L61.3492 74.0485L61.7314 75.3594L62.606 72.9017L62.7141 75.4695L63.7528 74.8691L63.1524 76.0158L63.9169 75.5235L63.8608 76.3441L64.8455 75.8517L64.1891 77.0525L60.2564 77.1086Z" fill="#FEFF2D"/>
<path d="M65.9923 77.1086L65.1177 75.7437L66.4826 76.234L66.3205 74.9231L67.0289 76.0158L67.085 74.0485L67.4673 75.3594L68.3398 72.9017L68.4499 75.4695L69.4886 74.8691L68.8882 76.0158L69.6527 75.5235L69.5967 76.3441L70.5814 75.8517L69.9249 77.0525L65.9923 77.1086Z" fill="#FEFF2D"/>
<path d="M71.6721 77.1086L70.7996 75.7437L72.1644 76.234L72.0003 74.9231L72.7108 76.0158L72.7648 74.0485L73.1471 75.3594L74.0217 72.9017L74.1318 75.4695L75.1684 74.8691L74.5681 76.0158L75.3326 75.5235L75.2785 76.3441L76.2612 75.8517L75.6068 77.0525L71.6721 77.1086Z" fill="#FEFF2D"/>
<path d="M29.3939 77.1086L28.5193 75.7437L29.8842 76.234L29.7201 74.9231L30.4305 76.0158L30.4866 74.0485L30.8689 75.3594L31.7414 72.9017L31.8515 75.4695L32.8882 74.8691L32.2878 76.0158L33.0523 75.5235L32.9983 76.3441L33.9809 75.8517L33.3265 77.0525L29.3939 77.1086Z" fill="#FEFF2D"/>
<path d="M35.1297 77.1086L34.2551 75.7437L35.62 76.234L35.4559 74.9231L36.1664 76.0158L36.2204 74.0485L36.6026 75.3594L37.4772 72.9017L37.5874 75.4695L38.624 74.8691L38.0236 76.0158L38.7881 75.5235L38.7341 76.3441L39.7167 75.8517L39.0623 77.0525L35.1297 77.1086Z" fill="#FEFF2D"/>
<path d="M40.8095 77.1086L39.937 75.7437L41.3019 76.234L41.1378 74.9231L41.8483 76.0158L41.9023 74.0485L42.2845 75.3594L43.1591 72.9017L43.2672 75.4695L44.3059 74.8691L43.7055 76.0158L44.47 75.5235L44.416 76.3441L45.3986 75.8517L44.7421 77.0525L40.8095 77.1086Z" fill="#FEFF2D"/>
<path d="M77.6593 76.7679H27.6697V79.0842H77.6593V76.7679Z" fill="white" stroke="#0600CC" stroke-linecap="round" stroke-linejoin="round"/>
<path d="M58.0148 59.3298H47.1768V79.0842H58.0148V59.3298Z" fill="white" stroke="#0600CC" stroke-linecap="round" stroke-linejoin="round"/>
<path opacity="0.2" d="M57.1568 70.5791H47.8623V60.2896H57.1568V70.5791ZM57.1568 71.676H47.8623V77.9873H57.1568V71.676Z" fill="white" stroke="#0600CC" stroke-linecap="round" stroke-linejoin="round"/>
<path d="M57.7053 68.1589H57.3667V71.7675H57.7053V68.1589Z" fill="#0600CC" stroke="#0600CC" stroke-linecap="round" stroke-linejoin="round"/>
<path d="M49.2978 68.4893L48.7598 68.965" stroke="#0600CC" stroke-linecap="round" stroke-linejoin="round"/>
<path d="M56.7726 61.8663L50.0708 67.8037" stroke="#0600CC" stroke-linecap="round" stroke-linejoin="round"/>
<path d="M51.0244 76.9445L50.6089 77.3122" stroke="#0600CC" stroke-linecap="round" stroke-linejoin="round"/>
<path d="M56.7726 71.8506L51.6184 76.4189" stroke="#0600CC" stroke-linecap="round" stroke-linejoin="round"/>
<path d="M55.5988 73.5707L52.6509 76.1841" stroke="#0600CC" stroke-linecap="round" stroke-linejoin="round"/>
<path opacity="0.3" d="M77.6592 54.3564H27.7776V61.0686H77.6592V54.3564Z" fill="black"/>
<path d="M78.405 50.4799H26.9612V60.0548H78.405V50.4799Z" fill="white" stroke="#0600CC" stroke-linecap="round" stroke-linejoin="round"/>
<path d="M32.0758 50.4799H29.7075V60.0548H32.0758V50.4799Z" fill="white" stroke="#0600CC" stroke-linecap="round" stroke-linejoin="round"/>
<path d="M37.0971 50.4799H34.7288V60.0548H37.0971V50.4799Z" fill="white" stroke="#0600CC" stroke-linecap="round" stroke-linejoin="round"/>
<path d="M42.1161 50.4799H39.7478V60.0548H42.1161V50.4799Z" fill="white" stroke="#0600CC" stroke-linecap="round" stroke-linejoin="round"/>
<path d="M46.8922 50.4799H44.5239V60.0548H46.8922V50.4799Z" fill="white" stroke="#0600CC" stroke-linecap="round" stroke-linejoin="round"/>
<path d="M51.6683 50.4799H49.3V60.0548H51.6683V50.4799Z" fill="white" stroke="#0600CC" stroke-linecap="round" stroke-linejoin="round"/>
<path d="M56.4442 50.4799H54.0759V60.0548H56.4442V50.4799Z" fill="white" stroke="#0600CC" stroke-linecap="round" stroke-linejoin="round"/>
<path d="M61.2203 50.4799H58.8521V60.0548H61.2203V50.4799Z" fill="white" stroke="#0600CC" stroke-linecap="round" stroke-linejoin="round"/>
<path d="M65.9965 50.4799H63.6282V60.0548H65.9965V50.4799Z" fill="white" stroke="#0600CC" stroke-linecap="round" stroke-linejoin="round"/>
<path d="M70.7726 50.4799H68.4043V60.0548H70.7726V50.4799Z" fill="white" stroke="#0600CC" stroke-linecap="round" stroke-linejoin="round"/>
<path d="M75.5485 50.4799H73.1802V60.0548H75.5485V50.4799Z" fill="white" stroke="#0600CC" stroke-linecap="round" stroke-linejoin="round"/>
<path d="M84.1866 56.1596C84.1866 56.1596 83.2247 54.4083 80.6861 53.3592C78.1475 52.3101 72.8957 50.8205 72.9829 49.5076C73.0702 48.1947 77.1856 49.7714 77.1856 49.7714C77.1856 49.7714 70.3591 46.4475 69.4824 44.3451C68.6057 42.2428 75.7854 44.5196 75.7854 44.5196C75.7854 44.5196 72.5467 38.3933 73.4213 36.9931C74.2959 35.5929 77.4474 38.225 77.4474 38.225C77.4474 38.225 76.3089 30.6984 81.8245 29.9152C87.3402 29.132 87.4336 34.9011 87.4336 34.9011C87.4336 34.9011 89.3594 31.4857 91.547 32.2752C93.7345 33.0646 91.3725 37.4376 91.3725 37.4376C91.3725 37.4376 94.6091 34.9883 95.4858 38.6633C96.3625 42.3383 91.6342 46.4538 91.6342 46.4538C91.6342 46.4538 94.873 45.4026 95.0475 47.2411C95.222 49.0796 92.9472 50.3033 92.9472 50.3033C92.9472 50.3033 94.873 50.6544 94.1729 51.6162C93.4728 52.5781 84.7994 54.8446 84.1866 56.1596Z" fill="#C1FD3A"/>
<path d="M89.3905 47.239C89.3905 47.239 86.158 48.0056 84.494 50.6336L84.4317 47.0084C84.6872 46.5805 86.5091 43.6845 89.3905 42.8099C89.3905 42.8099 86.0666 43.7136 84.4213 46.3935L84.2696 37.4272L84.2218 48.3276C82.5931 45.8077 79.5808 45.0681 79.5808 45.0681C82.2815 45.9261 83.9164 48.5333 84.2197 49.0547L84.2031 52.6383C82.5703 50.1454 79.5808 49.4079 79.5808 49.4079C82.2399 50.2513 83.8562 52.7796 84.2011 53.355L84.0951 78.3218H84.9676L84.5833 55.6527C84.8845 55.15 86.5735 52.5178 89.3947 51.6557C89.3947 51.6557 86.2556 52.4015 84.5708 54.9381L84.5085 51.3274C84.8264 50.806 86.5777 48.097 89.3905 47.239Z" fill="#0600CC"/>
<path d="M87.7641 77.6778H80.8669V79.2608H87.7641V77.6778Z" fill="white" stroke="#0600CC" stroke-linecap="round" stroke-linejoin="round"/>
<path d="M89.3677 79.0656H16.8564V80.3951H89.3677V79.0656Z" fill="white" stroke="#0600CC" stroke-linecap="round" stroke-linejoin="round"/>
<path d="M0 80.3951H100" stroke="#0600CC" stroke-width="0.5" stroke-miterlimit="10"/>
<path d="M19.8499 94.1104C27.5945 94.1104 33.8727 92.7357 33.8727 91.0399C33.8727 89.3442 27.5945 87.9695 19.8499 87.9695C12.1054 87.9695 5.82715 89.3442 5.82715 91.0399C5.82715 92.7357 12.1054 94.1104 19.8499 94.1104Z" fill="#FEFF2D"/>
<path opacity="0.5" d="M19.8499 94.1104C27.5945 94.1104 33.8727 92.7357 33.8727 91.0399C33.8727 89.3442 27.5945 87.9695 19.8499 87.9695C12.1054 87.9695 5.82715 89.3442 5.82715 91.0399C5.82715 92.7357 12.1054 94.1104 19.8499 94.1104Z" fill="white"/>
<path d="M17.4504 59.6227C17.4504 59.6227 15.963 64.1931 15.6326 66.5116C15.3023 68.83 14.6417 75.2722 14.6417 75.2722C13.4714 76.73 12.7017 78.4678 12.4084 80.3141C11.993 83.262 12.1342 87.2299 12.1342 87.2299C12.1342 87.2299 11.8039 87.7264 11.8039 87.9737C11.8039 88.2209 11.8579 88.7735 11.8579 88.7735C11.2513 89.2456 10.6714 89.7512 10.1212 90.2879C9.51664 90.9216 9.62675 92.0247 9.62675 92.328C9.62675 92.6313 9.9716 93.08 10.1793 93.08C10.3871 93.08 11.6938 92.8307 12.3565 92.2802C13.0192 91.7297 13.0441 90.5996 13.2103 90.103C13.3765 89.6065 14.5046 88.1191 14.5046 88.1191C14.6737 88.1023 14.8319 88.0275 14.9522 87.9075C15.0726 87.7875 15.1479 87.6296 15.1652 87.4605C15.2192 86.8539 15.3563 85.7799 15.4124 85.5597C15.4685 85.3395 17.7807 81.5917 18.3042 79.3273C18.8278 77.0629 20.4544 73.6788 21.0319 72.1913C21.6095 70.7038 22.8518 67.677 22.8518 67.677L23.099 67.5939C23.099 67.5939 22.6316 74.1503 22.4924 76.2174C22.3532 78.2845 22.3283 78.808 22.3283 81.5357C22.3283 84.2633 23.4023 88.7548 23.4023 88.7548V90.1612C23.4023 90.2443 23.6225 90.3253 24.0255 90.3544C24.4286 90.3835 25.6563 90.3877 25.9596 90.5788C26.2629 90.7699 27.5011 90.9112 28.7683 90.8551C30.0356 90.799 30.6983 90.5788 30.5612 90.3316C30.4241 90.0844 28.2448 89.2305 27.8875 89.0103C27.5302 88.7901 26.6971 88.2333 26.6971 88.2333C26.6971 88.2333 26.7532 87.5166 26.56 87.1946C26.3668 86.8726 26.2858 86.8913 26.2858 86.5319C26.2858 86.1725 27.0835 81.49 27.3037 79.2609C27.524 77.0317 28.7102 73.8595 28.7912 71.4912C28.8722 69.1229 28.6541 67.3031 28.4609 64.6024C28.3483 62.9859 28.0628 61.3861 27.6091 59.8305L17.4504 59.6227Z" fill="#0600CC" stroke="#0600CC" stroke-linecap="round" stroke-linejoin="round"/>
<path d="M26.398 59.8014L22.5671 59.7287V60.6511H26.398V59.8014Z" fill="#595959" stroke="#0600CC" stroke-linecap="round" stroke-linejoin="round"/>
<path d="M26.8655 60.6614H27.8377C27.7089 60.1379 27.6113 59.8305 27.6113 59.8305L26.8676 59.8159L26.8655 60.6614Z" fill="#595959" stroke="#0600CC" stroke-linecap="round" stroke-linejoin="round"/>
<path d="M19.2891 60.6511H21.6303V59.71L19.2891 59.6664V60.6511Z" fill="#595959" stroke="#0600CC" stroke-linecap="round" stroke-linejoin="round"/>
<path d="M18.7926 59.656L17.4506 59.6227C17.4506 59.6227 17.3134 60.0382 17.1223 60.6615H18.7843L18.7926 59.656Z" fill="#595959" stroke="#0600CC" stroke-linecap="round" stroke-linejoin="round"/>
<path d="M25.4051 59.7681H23.8616V60.622H25.4051V59.7681Z" fill="white" stroke="#0600CC" stroke-linecap="round" stroke-linejoin="round"/>
<path d="M31.2468 63.3787C31.2468 63.3787 31.7434 65.4998 31.6042 66.794C31.5522 67.2885 30.8875 68.724 30.7503 68.8071C30.6153 68.8506 30.4699 68.8506 30.3349 68.8071C30.4358 68.536 30.5184 68.2583 30.5821 67.9761C30.6112 67.7559 30.6382 67.1451 30.6382 67.1451C30.4796 67.4974 30.2956 67.8376 30.0876 68.1631C29.9013 68.3507 29.6877 68.509 29.454 68.6326C29.405 68.6293 29.3572 68.6154 29.3142 68.5917C29.2711 68.568 29.2337 68.5351 29.2047 68.4955C29.1507 68.4124 29.4249 68.2192 29.5641 67.9159C29.7033 67.6126 29.9214 67.035 29.9214 67.035C29.7205 67.291 29.4996 67.5307 29.2608 67.7518C29.0433 67.9097 28.8011 68.0305 28.5441 68.1091C28.461 68.1091 28.2969 67.8058 28.3779 67.7788C28.4589 67.7518 29.1507 67.3633 29.2338 67.2282C29.3082 67.1117 29.3908 67.0006 29.481 66.8958C29.158 67.0274 28.8271 67.1384 28.4901 67.2282C28.3509 67.2282 28.2969 67.006 28.2969 67.006L29.2047 66.5385L29.4249 65.988C29.3148 65.5629 29.3148 65.1168 29.4249 64.6917C29.6181 64.058 29.7012 63.6176 29.7012 63.6176L31.2468 63.3787Z" fill="white" stroke="#0600CC" stroke-width="0.5" stroke-linecap="round" stroke-linejoin="round"/>
<path d="M30.283 64.2866C30.283 64.2866 30.31 65.1965 30.4741 65.3897C30.6382 65.5829 30.9436 65.8052 30.9436 65.9964C30.9436 66.1875 30.6403 67.2906 30.7234 67.3737C30.7486 67.4061 30.7825 67.4308 30.8211 67.4448C30.8597 67.4589 30.9015 67.4617 30.9417 67.453C30.9818 67.4443 31.0187 67.4245 31.0481 67.3957C31.0775 67.367 31.0981 67.3306 31.1077 67.2906C31.2837 66.6873 31.404 66.0691 31.4671 65.4438" fill="white"/>
<path d="M30.283 64.2866C30.283 64.2866 30.31 65.1965 30.4741 65.3897C30.6382 65.5829 30.9436 65.8052 30.9436 65.9964C30.9436 66.1875 30.6403 67.2906 30.7234 67.3737C30.7486 67.4061 30.7825 67.4308 30.8211 67.4448C30.8597 67.4589 30.9015 67.4617 30.9417 67.453C30.9818 67.4443 31.0187 67.4245 31.0481 67.3957C31.0775 67.367 31.0981 67.3306 31.1077 67.2906C31.2837 66.6873 31.404 66.0691 31.4671 65.4438" stroke="#0600CC" stroke-linecap="round" stroke-linejoin="round"/>
<path d="M28.9034 48.2798C28.9034 48.2798 29.6492 52.7713 29.7344 54.1216C29.8196 55.472 29.8175 56.4899 29.8175 56.4899L31.2509 63.3787L29.7074 63.6259C29.7074 63.6259 27.8896 59.9073 27.5302 59.4711C27.1708 59.0348 26.9797 58.2017 27.1147 57.0176C27.2498 55.8334 27.1438 49.358 27.418 48.5873C27.4686 48.4432 27.5555 48.3147 27.6704 48.2141C27.7853 48.1136 27.9243 48.0445 28.0738 48.0135C28.2233 47.9826 28.3783 47.9909 28.5236 48.0375C28.669 48.0842 28.7998 48.1677 28.9034 48.2798Z" fill="white" stroke="#0600CC" stroke-width="0.5" stroke-linecap="round" stroke-linejoin="round"/>
<path d="M29.51 63.1856L31.0536 62.7722" stroke="#0600CC" stroke-width="0.5" stroke-linecap="round" stroke-linejoin="round"/>
<path d="M20.0889 43.7614C20.0889 43.7614 14.0643 46.2544 13.7776 46.3748C13.491 46.4953 13.3081 46.3748 13.171 46.9254C13.0339 47.4759 10.7487 57.3126 10.8588 58.0875C10.9689 58.8624 12.6496 65.6099 12.6496 65.6099L14.5421 65.2796L14.7707 57.1506L15.7886 54.5621C15.7886 54.5621 17.139 57.9608 17.112 58.2267C17.0849 58.4926 16.7546 59.1345 16.9478 59.4939C17.0445 59.6904 17.187 59.8606 17.3633 59.9904H27.8586C27.8586 59.9904 28.5192 59.7681 28.5462 59.4669C28.5239 59.0223 28.4683 58.5799 28.38 58.1436C28.38 58.1436 29.317 54.452 29.317 51.8884C29.317 49.3248 29.0157 47.2058 28.6023 46.5992C28.1889 45.9926 26.6994 45.386 25.3511 44.9186C24.0028 44.4511 22.8706 44.0086 21.6574 43.8985C20.4442 43.7884 20.0889 43.7614 20.0889 43.7614Z" fill="#FEFF2D" stroke="#0600CC" stroke-width="0.5" stroke-linecap="round" stroke-linejoin="round"/>
<path d="M24.6614 45.8285C24.6614 45.8285 25.5962 50.027 25.5962 52.3911C25.5962 54.7553 25.6586 57.5661 25.7874 58.0127C25.9162 58.4594 26.1073 59.2259 25.6586 59.737" stroke="#0600CC" stroke-width="0.5" stroke-linecap="round" stroke-linejoin="round"/>
<path d="M15.7905 54.562L17.4712 50.484" stroke="#0600CC" stroke-width="0.5" stroke-linecap="round" stroke-linejoin="round"/>
<path d="M16.6445 52.6882L18.2151 50.7042" stroke="#0600CC" stroke-width="0.5" stroke-linecap="round" stroke-linejoin="round"/>
<path d="M12.4563 64.7561L14.5504 64.5359" stroke="#0600CC" stroke-width="0.5" stroke-linecap="round" stroke-linejoin="round"/>
<path d="M25.8185 44.5322L26.4521 45.8825L25.0208 45.0827L25.8185 44.5322Z" fill="white" stroke="#0600CC" stroke-width="0.5" stroke-linecap="round" stroke-linejoin="round"/>
<path d="M24.6614 45.8285L25.8185 44.5322L24.6884 43.9816L24.6614 45.8285Z" fill="white" stroke="#0600CC" stroke-width="0.5" stroke-linecap="round" stroke-linejoin="round"/>
<path d="M24.8544 35.3581C24.8544 35.3581 25.5981 36.1891 25.5981 36.4322C25.5919 36.6353 25.5732 36.8379 25.5421 37.0388C25.5421 37.0388 26.7885 37.6454 26.6452 37.8926C26.5018 38.1398 26.3149 38.6093 26.3149 38.6093C26.3149 38.6093 27.3349 40.8405 27.1957 41.0607C27.0565 41.2809 25.6542 42.6313 25.4049 43.2919C25.1557 43.9525 24.6612 45.8285 24.6612 45.8285L19.9226 43.2109C19.9226 43.2109 20.5001 42.2739 20.5292 41.6403C20.5583 41.0067 20.6393 40.5102 20.5292 40.1238C20.4191 39.7374 19.8395 38.7464 19.7854 37.7825C19.7314 36.8186 20.7764 35.6884 22.1537 35.0278C23.5311 34.3672 24.8544 35.3581 24.8544 35.3581Z" fill="white" stroke="#0600CC" stroke-width="0.5" stroke-linecap="round" stroke-linejoin="round"/>
<path d="M24.1938 39.243C24.3548 39.4253 24.5705 39.5508 24.8086 39.6006C25.0467 39.6504 25.2945 39.6218 25.5151 39.5193" stroke="#0600CC" stroke-width="0.5" stroke-linecap="round" stroke-linejoin="round"/>
<path d="M24.8088 37.4896C24.8815 37.6495 24.8565 37.8157 24.7527 37.8635C24.6488 37.9113 24.5055 37.8199 24.4327 37.6558C24.36 37.4917 24.385 37.3296 24.4888 37.2818C24.5927 37.2341 24.7361 37.3317 24.8088 37.4896Z" fill="#0600CC"/>
<path d="M23.6704 37.3691C23.6704 37.3691 23.9446 36.6524 24.6884 36.7625" stroke="#0600CC" stroke-width="0.5" stroke-linecap="round" stroke-linejoin="round"/>
<path d="M21.5763 39.9306C21.5763 39.9306 22.2909 39.9306 22.2909 39.5463C22.2909 39.1619 21.7404 38.3891 21.8754 38.0027C22.0105 37.6163 22.6732 37.3421 22.4259 36.9287C22.1787 36.5153 21.6822 36.5132 21.9564 36.239C22.2307 35.9648 24.2707 36.3221 24.9604 35.5784C25.6501 34.8346 25.9244 33.7086 25.4279 33.4843C24.9314 33.2599 24.2998 33.8146 24.2998 33.8146C24.2998 33.8146 23.9695 33.0439 22.9765 33.3181C21.9835 33.5923 20.6061 34.6684 19.8354 35.7445C19.0646 36.8207 18.7966 37.1988 19.0916 37.9196C19.3866 38.6405 20.3859 39.9867 20.7723 40.2048C21.1587 40.423 21.5763 39.9306 21.5763 39.9306Z" fill="#0600CC" stroke="#0600CC" stroke-width="0.5" stroke-linecap="round" stroke-linejoin="round"/>
<path d="M22.021 40.29C22.021 40.29 21.2502 39.1869 20.5875 39.326C19.9248 39.4652 20.0931 40.4271 20.5335 40.8675C20.9739 41.3079 21.7447 41.0067 21.9109 40.8966C21.9109 40.8966 22.5175 42.3508 23.122 42.4111C23.7266 42.4713 25.4363 41.7234 25.4363 41.7234" fill="white"/>
<path d="M22.021 40.29C22.021 40.29 21.2502 39.1869 20.5875 39.326C19.9248 39.4652 20.0931 40.4271 20.5335 40.8675C20.9739 41.3079 21.7447 41.0067 21.9109 40.8966C21.9109 40.8966 22.5175 42.3508 23.122 42.4111C23.7266 42.4713 25.4363 41.7234 25.4363 41.7234" stroke="#0600CC" stroke-width="0.5" stroke-linecap="round" stroke-linejoin="round"/>
<path d="M23.8074 44.341L24.6612 45.8285L23.0076 45.0016L23.8074 44.341Z" fill="white" stroke="#0600CC" stroke-width="0.5" stroke-linecap="round" stroke-linejoin="round"/>
<path d="M20.0058 42.5212L23.8075 44.341L22.9267 46.4891L19.3992 43.8445L20.0058 42.5212Z" fill="white" stroke="#0600CC" stroke-width="0.5" stroke-linecap="round" stroke-linejoin="round"/>
<path d="M15.3939 68.749H11.4467C11.3657 68.749 11.2881 68.7811 11.2308 68.8384C11.1735 68.8957 11.1414 68.9734 11.1414 69.0543V70.6664C11.1414 70.7474 11.1735 70.8251 11.2308 70.8824C11.2881 70.9397 11.3657 70.9718 11.4467 70.9718H11.9038C11.8635 70.9721 11.8236 70.9644 11.7863 70.9492C11.749 70.934 11.7151 70.9115 11.6865 70.8831C11.6579 70.8547 11.6352 70.821 11.6198 70.7838C11.6043 70.7466 11.5963 70.7067 11.5963 70.6664V69.6132C11.5963 69.5729 11.6043 69.533 11.6198 69.4958C11.6352 69.4586 11.6579 69.4249 11.6865 69.3965C11.7151 69.3681 11.749 69.3457 11.7863 69.3304C11.8236 69.3152 11.8635 69.3075 11.9038 69.3078H14.9285C15.0095 69.3078 15.0872 69.34 15.1445 69.3972C15.2018 69.4545 15.2339 69.5322 15.2339 69.6132V70.6664C15.2339 70.7474 15.2018 70.8251 15.1445 70.8824C15.0872 70.9397 15.0095 70.9718 14.9285 70.9718H15.3939C15.4749 70.9718 15.5526 70.9397 15.6098 70.8824C15.6671 70.8251 15.6993 70.7474 15.6993 70.6664V69.0543C15.6993 68.9734 15.6671 68.8957 15.6098 68.8384C15.5526 68.7811 15.4749 68.749 15.3939 68.749Z" fill="#0600CC" stroke="#0600CC" stroke-width="0.5" stroke-linecap="round" stroke-linejoin="round"/>
<path d="M12.6495 65.6099C12.6495 65.6099 12.0678 67.8681 12.1779 68.2545C12.288 68.6409 12.5934 68.8611 12.6204 68.9442C12.642 69.0036 12.6428 69.0686 12.6228 69.1285C12.6029 69.1885 12.5632 69.2399 12.5103 69.2745L12.3732 69.3576C12.3732 69.3576 12.2631 69.3576 12.3462 69.5217C12.3785 69.6135 12.4398 69.6922 12.5207 69.7461C12.7035 69.8375 12.8136 69.6526 12.9777 69.6277C13.1419 69.6028 13.2437 69.7835 13.3932 69.7731C13.5428 69.7627 13.6321 69.6069 13.7817 69.6194C13.9313 69.6319 14.031 69.9061 14.2491 69.8084C14.3447 69.7669 14.4112 69.6713 14.5047 69.6235C14.6439 69.5529 14.8433 69.5716 14.9679 69.4657C15.0681 69.3609 15.1303 69.2256 15.1445 69.0813C15.1923 68.7967 14.5441 65.2796 14.5441 65.2796L12.6495 65.6099Z" fill="white" stroke="#0600CC" stroke-width="0.5" stroke-linecap="round" stroke-linejoin="round"/>
<path d="M19.0543 70.2697H7.25029C6.7925 70.2697 6.42139 70.6408 6.42139 71.0986V78.6314C6.42139 79.0892 6.7925 79.4603 7.25029 79.4603H19.0543C19.5121 79.4603 19.8832 79.0892 19.8832 78.6314V71.0986C19.8832 70.6408 19.5121 70.2697 19.0543 70.2697Z" fill="#FEFF2D" stroke="#0600CC" stroke-width="0.5" stroke-linecap="round" stroke-linejoin="round"/>
<path d="M6.45044 71.1193L12.822 75.6191C12.9945 75.7421 13.2011 75.8082 13.413 75.8082C13.6249 75.8082 13.8315 75.7421 14.004 75.6191L19.8541 71.3624" stroke="#0600CC" stroke-width="0.5" stroke-linecap="round" stroke-linejoin="round"/>
<path d="M13.9417 75.0104H12.8594V76.5331H13.9417V75.0104Z" fill="white" stroke="#0600CC" stroke-width="0.5" stroke-linecap="round" stroke-linejoin="round"/>
</g>
<defs>
<clipPath id="clip0_104_4244">
<rect width="100" height="95.1325" fill="white"/>
</clipPath>
</defs>
</svg>
