<svg width="71" height="97" viewBox="0 0 71 97" fill="none" xmlns="http://www.w3.org/2000/svg">
<ellipse cx="68.2509" cy="2.46255" rx="2.46255" ry="2.59044" transform="rotate(90 68.2509 2.46255)" fill="#0B50FF"/>
<ellipse cx="25.038" cy="2.46255" rx="2.46255" ry="2.59044" transform="rotate(90 25.038 2.46255)" fill="#0B50FF"/>
<ellipse cx="68.2509" cy="39.2925" rx="2.46255" ry="2.59044" transform="rotate(90 68.2509 39.2925)" fill="#0B50FF"/>
<ellipse cx="25.038" cy="39.2925" rx="2.46255" ry="2.59044" transform="rotate(90 25.038 39.2925)" fill="#0B50FF"/>
<ellipse cx="68.2509" cy="76.1225" rx="2.46255" ry="2.59044" transform="rotate(90 68.2509 76.1225)" fill="#0B50FF"/>
<ellipse cx="25.038" cy="76.1225" rx="2.46255" ry="2.59044" transform="rotate(90 25.038 76.1225)" fill="#0B50FF"/>
<ellipse cx="46.6444" cy="2.46255" rx="2.46255" ry="2.59044" transform="rotate(90 46.6444 2.46255)" fill="#0B50FF"/>
<ellipse cx="3.43154" cy="2.46255" rx="2.46255" ry="2.59044" transform="rotate(90 3.43154 2.46255)" fill="#0B50FF"/>
<ellipse cx="46.6444" cy="39.2925" rx="2.46255" ry="2.59044" transform="rotate(90 46.6444 39.2925)" fill="#0B50FF"/>
<ellipse cx="3.43154" cy="39.2925" rx="2.46255" ry="2.59044" transform="rotate(90 3.43154 39.2925)" fill="#0B50FF"/>
<ellipse cx="46.6444" cy="76.1225" rx="2.46255" ry="2.59044" transform="rotate(90 46.6444 76.1225)" fill="#0B50FF"/>
<ellipse cx="3.43154" cy="76.1225" rx="2.46255" ry="2.59044" transform="rotate(90 3.43154 76.1225)" fill="#0B50FF"/>
<ellipse cx="68.2509" cy="20.8775" rx="2.46255" ry="2.59044" transform="rotate(90 68.2509 20.8775)" fill="#0B50FF"/>
<ellipse cx="25.038" cy="20.8775" rx="2.46255" ry="2.59044" transform="rotate(90 25.038 20.8775)" fill="#0B50FF"/>
<ellipse cx="68.2509" cy="57.7075" rx="2.46255" ry="2.59044" transform="rotate(90 68.2509 57.7075)" fill="#0B50FF"/>
<ellipse cx="25.038" cy="57.7075" rx="2.46255" ry="2.59044" transform="rotate(90 25.038 57.7075)" fill="#0B50FF"/>
<ellipse cx="68.2509" cy="94.5374" rx="2.46255" ry="2.59044" transform="rotate(90 68.2509 94.5374)" fill="#0B50FF"/>
<ellipse cx="25.038" cy="94.5374" rx="2.46255" ry="2.59044" transform="rotate(90 25.038 94.5374)" fill="#0B50FF"/>
<ellipse cx="46.6444" cy="20.8775" rx="2.46255" ry="2.59044" transform="rotate(90 46.6444 20.8775)" fill="#0B50FF"/>
<ellipse cx="3.43154" cy="20.8775" rx="2.46255" ry="2.59044" transform="rotate(90 3.43154 20.8775)" fill="#0B50FF"/>
<ellipse cx="46.6444" cy="57.7075" rx="2.46255" ry="2.59044" transform="rotate(90 46.6444 57.7075)" fill="#0B50FF"/>
<ellipse cx="3.43154" cy="57.7075" rx="2.46255" ry="2.59044" transform="rotate(90 3.43154 57.7075)" fill="#0B50FF"/>
<ellipse cx="46.6444" cy="94.5374" rx="2.46255" ry="2.59044" transform="rotate(90 46.6444 94.5374)" fill="#0B50FF"/>
<ellipse cx="3.43154" cy="94.5374" rx="2.46255" ry="2.59044" transform="rotate(90 3.43154 94.5374)" fill="#0B50FF"/>
</svg>
