   <svg width="30" height="30" viewBox="0 0 30 30" fill="none" xmlns="http://www.w3.org/2000/svg">
    <g clip-path="url(#clip0_86_7498)">
        <path d="M15 29.5C23.0081 29.5 29.5 23.0081 29.5 15C29.5 6.99187 23.0081 0.5 15 0.5C6.99187 0.5 0.5 6.99187 0.5 15C0.5 23.0081 6.99187 29.5 15 29.5Z" fill="#F0F0F0" stroke="white" />
        <path d="M3.89395 6.47651C2.79424 7.9073 1.96501 9.5564 1.48218 11.3479H8.76535L3.89395 6.47651Z" fill="#0600CC" />
        <path d="M28.5177 11.3479C28.0348 9.55645 27.2056 7.90735 26.1059 6.47656L21.2346 11.3479H28.5177Z" fill="#0600CC" />
        <path d="M1.48218 18.6522C1.96507 20.4437 2.79429 22.0928 3.89395 23.5235L8.76519 18.6522H1.48218Z" fill="#0600CC" />
        <path d="M23.5234 3.89411C22.0927 2.7944 20.4436 1.96518 18.6521 1.48228V8.7654L23.5234 3.89411Z" fill="#0600CC" />
        <path d="M6.47632 26.1059C7.90711 27.2056 9.55621 28.0348 11.3477 28.5177V21.2346L6.47632 26.1059Z" fill="#0600CC" />
        <path d="M11.3476 1.48228C9.55615 1.96518 7.90705 2.7944 6.47632 3.89406L11.3476 8.76535V1.48228Z" fill="#0600CC" />
        <path d="M18.6521 28.5177C20.4436 28.0348 22.0927 27.2056 23.5234 26.1059L18.6521 21.2346V28.5177Z" fill="#0600CC" />
        <path d="M21.2346 18.6522L26.1059 23.5236C27.2056 22.0929 28.0348 20.4437 28.5177 18.6522H21.2346Z" fill="#0600CC" />
        <path d="M28.8815 13.1739H16.8262H16.8261V1.11851C16.2283 1.04069 15.6189 1 15 1C14.381 1 13.7717 1.04069 13.1739 1.11851V13.1738V13.1739H1.11851C1.04069 13.7717 1 14.3811 1 15C1 15.619 1.04069 16.2283 1.11851 16.8261H13.1738H13.1739V28.8815C13.7717 28.9593 14.381 29 15 29C15.6189 29 16.2283 28.9594 16.8261 28.8815V16.8262V16.8261H28.8815C28.9593 16.2283 29 15.619 29 15C29 14.3811 28.9593 13.7717 28.8815 13.1739Z" fill="#D80027" />
        <path d="M18.6521 18.6522L24.8994 24.8995C25.1867 24.6123 25.4608 24.312 25.7223 24.0007L20.3738 18.6522H18.6521V18.6522Z" fill="#D80027" />
        <path d="M11.3479 18.6523H11.3478L5.10059 24.8995C5.3878 25.1868 5.68809 25.4609 5.99937 25.7224L11.3479 20.3738V18.6523Z" fill="#D80027" />
        <path d="M11.3478 11.3479V11.3478L5.10053 5.10047C4.8132 5.38769 4.5391 5.68798 4.27759 5.99926L9.62619 11.3479L11.3478 11.3479Z" fill="#D80027" />
        <path d="M18.6521 11.3479L24.8994 5.10052C24.6122 4.81319 24.3119 4.53909 24.0006 4.27763L18.6521 9.62624V11.3479Z" fill="#D80027" />
    </g>
    <defs>
        <clipPath id="clip0_86_7498">
        <rect width="30" height="30" fill="white" />
        </clipPath>
    </defs>
</svg>