<svg width="50" height="50" viewBox="0 0 50 50" fill="none" xmlns="http://www.w3.org/2000/svg">
<circle cx="25" cy="25" r="25" fill="white"/>
<g clip-path="url(#clip0_104_3535)">
<path d="M36 28.0339C36 33.5376 31.2969 38.0001 25.5 38.0001C19.7031 38.0001 15 33.5376 15 28.0339C15 22.1583 21.9037 13.2989 24.5156 10.162C24.5707 10.0856 24.649 10.0291 24.7389 10.0007C24.8287 9.97239 24.9253 9.97382 25.0143 10.0048C25.1032 10.0357 25.1798 10.0946 25.2327 10.1726C25.2855 10.2506 25.3117 10.3435 25.3075 10.4376C25.0844 13.0626 25.2375 18.6801 29.9362 21.4801C30.0302 21.5438 30.1453 21.5685 30.2572 21.5489C30.369 21.5293 30.4689 21.467 30.5356 21.3751C31.1245 20.5076 31.465 19.4954 31.52 18.4483C31.5251 18.3521 31.5618 18.2603 31.6244 18.1871C31.6871 18.1139 31.7721 18.0635 31.8663 18.0435C31.9605 18.0236 32.0587 18.0353 32.1456 18.0768C32.2325 18.1184 32.3032 18.1874 32.3469 18.2733C34.3463 21.5633 36 25.1551 36 28.0339Z" fill="#FF7F00"/>
<path d="M18.9375 31.77C18.9375 35.2132 21.8775 38 25.5 38C29.1225 38 32.0625 35.2132 32.0625 31.77C32.0625 28.3269 28.2606 23.2344 26.445 21.0032C26.3906 20.9247 26.312 20.8662 26.2213 20.8366C26.1305 20.8069 26.0326 20.8078 25.9423 20.839C25.8521 20.8702 25.7746 20.9301 25.7216 21.0095C25.6686 21.0889 25.643 21.1835 25.6488 21.2788C25.7144 23.0288 25.4081 25.9907 22.8706 27.6007C22.8213 27.6333 22.7659 27.6556 22.7078 27.6663C22.6496 27.6769 22.5899 27.6756 22.5323 27.6625C22.4746 27.6495 22.4202 27.6248 22.3723 27.5901C22.3245 27.5554 22.2841 27.5114 22.2537 27.4607C22.0332 27.083 21.8849 26.6676 21.8162 26.2357C21.8063 26.1406 21.7654 26.0514 21.7 25.9818C21.6345 25.9121 21.5481 25.8658 21.4538 25.8499C21.3595 25.8341 21.2627 25.8495 21.178 25.8939C21.0934 25.9382 21.0256 26.0091 20.985 26.0957C19.8344 28.0338 18.9375 30.0944 18.9375 31.77Z" fill="#FFDA00"/>
<path d="M29.1094 34.5746C29.0998 35.0372 28.9985 35.4934 28.8114 35.9167C28.6244 36.34 28.3552 36.722 28.0195 37.0406C27.6839 37.3592 27.2884 37.608 26.8559 37.7727C26.4234 37.9374 25.9626 38.0148 25.5 38.0002C25.0374 38.0148 24.5766 37.9374 24.1441 37.7727C23.7116 37.608 23.3161 37.3592 22.9805 37.0406C22.6448 36.722 22.3756 36.34 22.1886 35.9167C22.0015 35.4934 21.9002 35.0372 21.8906 34.5746C21.8906 32.8814 23.5531 30.4752 24.625 29.1014C24.6773 29.0262 24.7519 28.9694 24.8383 28.9388C24.9247 28.9083 25.0185 28.9057 25.1064 28.9313C25.1944 28.9569 25.2721 29.0095 25.3286 29.0816C25.3851 29.1537 25.4175 29.2418 25.4212 29.3333C25.4229 29.8662 25.5413 30.3922 25.7681 30.8744C25.9948 31.3567 26.3244 31.7834 26.7337 32.1246C26.7872 32.1706 26.8511 32.203 26.9198 32.2191C26.9885 32.2351 27.0601 32.2343 27.1284 32.2167C27.1968 32.199 27.2598 32.1651 27.3122 32.1179C27.3646 32.0706 27.4048 32.0114 27.4294 31.9452C27.4555 31.8628 27.5055 31.79 27.5729 31.7359C27.6404 31.6819 27.7224 31.649 27.8085 31.6416C27.8946 31.6341 27.9811 31.6523 28.0568 31.6938C28.1326 31.7354 28.1944 31.7985 28.2344 31.8752C28.7323 32.6946 29.0319 33.6189 29.1094 34.5746Z" fill="white"/>
</g>
<defs>
<clipPath id="clip0_104_3535">
<rect width="21" height="28" fill="white" transform="translate(15 11)"/>
</clipPath>
</defs>
</svg>
