<svg width="58" height="68" viewBox="0 0 58 68" fill="none" xmlns="http://www.w3.org/2000/svg">
<g filter="url(#filter0_f_2091_4047)">
<path d="M29.51 56.523C29.5041 56.6516 29.4488 56.7729 29.3557 56.8618C29.2625 56.9506 29.1387 57.0001 29.01 57C28.72 57 28.5 56.79 28.49 56.523C28.345 53.355 26.734 51.306 23.658 50.376C13.53 47.968 6 38.863 6 28C6 15.297 16.297 5 29 5C41.703 5 52 15.297 52 28C52 38.863 44.47 47.968 34.342 50.376C31.266 51.306 29.655 53.356 29.512 56.523H29.51Z" fill="#FF0000"/>
</g>
<path d="M29.51 56.523C29.5041 56.6516 29.4488 56.7729 29.3557 56.8618C29.2625 56.9506 29.1387 57.0001 29.01 57C28.72 57 28.5 56.79 28.49 56.523C28.345 53.355 26.734 51.306 23.658 50.376C13.53 47.968 6 38.863 6 28C6 15.297 16.297 5 29 5C41.703 5 52 15.297 52 28C52 38.863 44.47 47.968 34.342 50.376C31.266 51.306 29.655 53.356 29.512 56.523H29.51Z" fill="#FF0000"/>
<path d="M29 68C26.79 68 25 66.21 25 64C25 61.79 26.79 60 29 60C31.21 60 33 61.79 33 64C33 66.21 31.21 68 29 68Z" fill="white"/>
<path fill-rule="evenodd" clip-rule="evenodd" d="M28.9997 66C29.266 66.006 29.5309 65.9588 29.7787 65.861C30.0266 65.7633 30.2524 65.617 30.4429 65.4308C30.6334 65.2446 30.7848 65.0222 30.8882 64.7766C30.9916 64.5311 31.0449 64.2674 31.0449 64.001C31.045 63.7346 30.9918 63.4708 30.8886 63.2253C30.7853 62.9797 30.634 62.7572 30.4436 62.5709C30.2532 62.3846 30.0274 62.2382 29.7797 62.1403C29.5319 62.0425 29.267 61.9951 29.0007 62.001C28.4781 62.0125 27.9809 62.2282 27.6153 62.6018C27.2498 62.9754 27.0451 63.4773 27.0449 64C27.0448 64.5227 27.2493 65.0246 27.6146 65.3984C27.98 65.7722 28.4772 65.9882 28.9997 66Z" fill="#FF0000"/>
<path fill-rule="evenodd" clip-rule="evenodd" d="M27 33.2V38H38.4C38.4788 38 38.5568 37.9845 38.6296 37.9543C38.7024 37.9242 38.7685 37.88 38.8243 37.8243C38.88 37.7685 38.9242 37.7024 38.9543 37.6296C38.9845 37.5568 39 37.4788 39 37.4V23.6C39 23.5212 38.9845 23.4432 38.9543 23.3704C38.9242 23.2976 38.88 23.2315 38.8243 23.1757C38.7685 23.12 38.7024 23.0758 38.6296 23.0457C38.5568 23.0155 38.4788 23 38.4 23H33.446L33.288 25H37V26H33.21L33.051 28H37V29H32.972L32.599 33.715C32.5966 33.7549 32.5863 33.7939 32.5687 33.8299C32.5512 33.8658 32.5267 33.8978 32.4966 33.9242C32.4666 33.9506 32.4317 33.9708 32.3938 33.9837C32.3559 33.9965 32.3159 34.0017 32.276 33.999C32.1996 33.9915 32.1289 33.9555 32.0778 33.8983C32.0266 33.8411 31.9989 33.7667 32 33.69V17.4C32 17.2939 31.9579 17.1922 31.8828 17.1172C31.8078 17.0421 31.7061 17 31.6 17H31V16.4C31 16.2939 30.9579 16.1922 30.8828 16.1172C30.8078 16.0421 30.7061 16 30.6 16H20.4C20.2939 16 20.1922 16.0421 20.1172 16.1172C20.0421 16.1922 20 16.2939 20 16.4V17H19.4C19.2939 17 19.1922 17.0421 19.1172 17.1172C19.0421 17.1922 19 17.2939 19 17.4V37.4C19 37.5591 19.0632 37.7117 19.1757 37.8243C19.2883 37.9368 19.4409 38 19.6 38H24V33.2C24 33.09 24.09 33 24.2 33H26.8C26.91 33 27 33.09 27 33.2ZM22.5 30V24H24.5V30H22.5ZM26.5 24V30H28.5V24H26.5ZM22.5 22V19H24.5V22H22.5ZM26.5 19V22H28.5V19H26.5ZM34 32V31H37V32H34Z" fill="white"/>
<path d="M33.5264 22L33.6054 21H36.6004C36.8204 21 37.0004 21.18 37.0004 21.4V22H33.5264Z" fill="white"/>
<defs>
<filter id="filter0_f_2091_4047" x="0" y="-1" width="58" height="64" filterUnits="userSpaceOnUse" color-interpolation-filters="sRGB">
<feFlood flood-opacity="0" result="BackgroundImageFix"/>
<feBlend mode="normal" in="SourceGraphic" in2="BackgroundImageFix" result="shape"/>
<feGaussianBlur stdDeviation="3" result="effect1_foregroundBlur_2091_4047"/>
</filter>
</defs>
</svg>
