<svg width="24" height="25" viewBox="0 0 24 25" fill="none" xmlns="http://www.w3.org/2000/svg">
  <mask id="mask0_55_3177" style="mask-type:alpha" maskUnits="userSpaceOnUse" x="0" y="0" width="24" height="25">
    <rect x="6.10352e-05" y="0.5" width="24" height="24" fill="#D9D9D9" />
  </mask>
  <g mask="url(#mask0_55_3177)">
    <path d="M4.00006 20.5C3.45006 20.5 2.97923 20.3042 2.58756 19.9125C2.19589 19.5208 2.00006 19.05 2.00006 18.5V6.5C2.00006 5.95 2.19589 5.47917 2.58756 5.0875C2.97923 4.69583 3.45006 4.5 4.00006 4.5H20.0001C20.5501 4.5 21.0209 4.69583 21.4126 5.0875C21.8042 5.47917 22.0001 5.95 22.0001 6.5V18.5C22.0001 19.05 21.8042 19.5208 21.4126 19.9125C21.0209 20.3042 20.5501 20.5 20.0001 20.5H4.00006ZM12.0001 13.5L20.0001 8.5V6.5L12.0001 11.5L4.00006 6.5V8.5L12.0001 13.5Z" fill="#0600CC" />
  </g>
</svg>