<svg width="30" height="30" viewBox="0 0 30 30" fill="none" xmlns="http://www.w3.org/2000/svg">
  <mask id="mask0_88_8701" style="mask-type:alpha" maskUnits="userSpaceOnUse" x="0" y="0" width="30" height="30">
    <rect width="30" height="30" fill="#D9D9D9" />
  </mask>
  <g mask="url(#mask0_88_8701)">
    <path d="M13.8571 16.1429H8.14286C7.51167 16.1429 7 15.6312 7 15C7 14.3688 7.51167 13.8571 8.14286 13.8571H13.8571V8.14286C13.8571 7.51167 14.3688 7 15 7C15.6312 7 16.1429 7.51167 16.1429 8.14286V13.8571H21.8571C22.4883 13.8571 23 14.3688 23 15C23 15.6312 22.4883 16.1429 21.8571 16.1429H16.1429V21.8571C16.1429 22.4883 15.6312 23 15 23C14.3688 23 13.8571 22.4883 13.8571 21.8571V16.1429Z" fill="#0600CC" />
  </g>
</svg>