<svg width="121" height="121" viewBox="0 0 121 121" fill="none" xmlns="http://www.w3.org/2000/svg">
<circle cx="35" cy="48" r="35" fill="#FEFF2D"/>
<g clip-path="url(#clip0_2064_4038)">
<path d="M24.1273 49.3442C24.1273 49.3442 19.6664 59.5547 20.3373 60.1732C21.0081 60.7917 26.1643 70.8353 27.0065 70.8697C27.8487 70.904 27.5549 68.2582 27.5549 68.2582L32.5446 63.5309L24.1273 49.3442Z" fill="#0600CC"/>
<path d="M43.8853 43.1589C43.8853 43.1589 53.5757 48.6274 53.4141 49.5405C53.2525 50.4535 55.1524 61.5721 54.4963 62.1072C53.8401 62.6423 52.4935 60.3498 52.4935 60.3498L45.6725 59.5693L43.8853 43.1589Z" fill="#0600CC"/>
<path d="M46.1621 58.3472C46.1621 58.3472 43.2486 27.4212 40.8541 18.8405C38.4597 10.2598 25.5962 -1.82098 20.9542 0.230931C16.3122 2.28284 14.3339 18.5558 15.5042 26.9991C16.6745 35.4423 29.7486 63.5751 33.8568 66.2701C37.9651 68.9651 45.8144 69.7652 46.1621 58.3472Z" fill="white"/>
<path d="M46.162 58.3471C46.162 58.3471 46.162 58.1458 46.1081 57.7678C43.0134 67.9341 36.1679 66.27 31.6875 63.8156C32.2716 64.7473 33.0044 65.5765 33.8567 66.27C37.965 68.9601 45.8143 69.7651 46.162 58.3471Z" fill="#0600CC"/>
<path d="M20.9542 0.230889C16.6255 2.14535 14.6277 16.4155 15.3132 25.1827C16.9241 26.534 18.7963 27.5368 20.8122 28.1281C28.6958 30.4352 37.0641 26.0172 40.6338 18.163C37.7741 9.62158 25.4689 -1.76702 20.9542 0.230889Z" fill="#0600CC"/>
<path d="M30.7476 7.36353C34.0651 10.7403 36.8698 14.5874 39.0718 18.7816" stroke="white" stroke-linecap="round" stroke-linejoin="round"/>
<path d="M26.4336 3.32349C26.4336 3.32349 27.2758 3.99109 28.5685 5.19868" stroke="white" stroke-linecap="round" stroke-linejoin="round"/>
<path d="M44.605 56.5847L44.7959 58.0328" stroke="#0600CC" stroke-linecap="round" stroke-linejoin="round"/>
<path d="M44.0225 52.1619L44.4534 55.4361" stroke="#0600CC" stroke-linecap="round" stroke-linejoin="round"/>
<path d="M40.668 26.7634L43.6402 49.2706" stroke="#0600CC" stroke-linecap="round" stroke-linejoin="round"/>
<path d="M40.0264 21.9282L40.2957 23.9507" stroke="#0600CC" stroke-linecap="round" stroke-linejoin="round"/>
<path d="M19.6763 35.884L25.1997 48.387" stroke="#0600CC" stroke-linecap="round" stroke-linejoin="round"/>
<path d="M25.7725 49.9185L26.9036 52.4613" stroke="#0600CC" stroke-linecap="round" stroke-linejoin="round"/>
<path d="M39.1906 39.8949C40.3272 35.9883 38.2643 31.9487 34.5829 30.8723C30.9015 29.7959 26.9958 32.0902 25.8592 35.9968C24.7226 39.9034 26.7856 43.9429 30.467 45.0193C34.1483 46.0957 38.054 43.8014 39.1906 39.8949Z" fill="#0600CC"/>
<path d="M37.0054 39.8946C36.715 40.7143 36.1915 41.4308 35.4995 41.9556C34.8075 42.4804 33.9773 42.7905 33.1114 42.8475C32.2456 42.9046 31.3821 42.7061 30.6275 42.2766C29.8729 41.8472 29.2603 41.2055 28.8655 40.4309C28.4706 39.6564 28.3107 38.7828 28.4055 37.9181C28.5004 37.0535 28.8458 36.2356 29.3991 35.5655C29.9524 34.8955 30.6894 34.4026 31.5191 34.1477C32.3487 33.8929 33.2346 33.8873 34.0674 34.1316C35.218 34.5071 36.1732 35.3245 36.7239 36.4047C37.2745 37.4848 37.3758 38.7398 37.0054 39.8946Z" fill="#C1FD3A"/>
<path d="M37.3924 56.9972L42.6906 70.6881C42.7148 70.7653 42.7549 70.8365 42.8083 70.8972C42.8617 70.9578 42.9272 71.0066 43.0005 71.0404C43.0739 71.0741 43.1535 71.0921 43.2342 71.0932C43.3149 71.0942 43.3949 71.0783 43.4691 71.0464C43.6241 70.9744 43.7463 70.8466 43.8117 70.6883C43.877 70.5301 43.8805 70.353 43.8217 70.1923L39.307 56.1627C39.2593 56.0316 39.1842 55.9121 39.0868 55.8124C38.9894 55.7126 38.8719 55.6348 38.7422 55.5842C38.6124 55.5336 38.4734 55.5113 38.3344 55.5187C38.1953 55.5262 38.0595 55.5634 37.9359 55.6276C37.6995 55.7558 37.5155 55.9631 37.4161 56.2135C37.3168 56.4639 37.3084 56.7413 37.3924 56.9972Z" fill="#0600CC"/>
</g>
<g filter="url(#filter0_d_2064_4038)">
<circle cx="85.5" cy="82.5" r="15.5" fill="#0600CC"/>
</g>
<defs>
<filter id="filter0_d_2064_4038" x="50" y="50" width="71" height="71" filterUnits="userSpaceOnUse" color-interpolation-filters="sRGB">
<feFlood flood-opacity="0" result="BackgroundImageFix"/>
<feColorMatrix in="SourceAlpha" type="matrix" values="0 0 0 0 0 0 0 0 0 0 0 0 0 0 0 0 0 0 127 0" result="hardAlpha"/>
<feOffset dy="3"/>
<feGaussianBlur stdDeviation="10"/>
<feComposite in2="hardAlpha" operator="out"/>
<feColorMatrix type="matrix" values="0 0 0 0 0 0 0 0 0 0 0 0 0 0 0 0 0 0 0.05 0"/>
<feBlend mode="normal" in2="BackgroundImageFix" result="effect1_dropShadow_2064_4038"/>
<feBlend mode="normal" in="SourceGraphic" in2="effect1_dropShadow_2064_4038" result="shape"/>
</filter>
<clipPath id="clip0_2064_4038">
<rect width="40" height="72" fill="white" transform="translate(15)"/>
</clipPath>
</defs>
</svg>
