 <svg width="29" height="28" viewBox="0 0 29 28" fill="none" xmlns="http://www.w3.org/2000/svg">
    <g clip-path="url(#clip0_2001_2889)">
        <path
            d="M14.8413 28C22.5733 28 28.8413 21.732 28.8413 14C28.8413 6.26801 22.5733 0 14.8413 0C7.10932 0 0.841309 6.26801 0.841309 14C0.841309 21.732 7.10932 28 14.8413 28Z"
            fill="#F0F0F0" />
        <path
            d="M27.9705 18.8695C28.5333 17.3529 28.8413 15.7125 28.8413 14C28.8413 12.2875 28.5333 10.6471 27.9705 9.13046H1.7121C1.14936 10.6471 0.841309 12.2875 0.841309 14C0.841309 15.7125 1.14936 17.3529 1.7121 18.8695L14.8413 20.0869L27.9705 18.8695Z"
            fill="#0600CC" />
        <path
            d="M14.8414 28C20.8609 28 25.9925 24.2007 27.9706 18.8695H1.71216C3.69026 24.2007 8.82186 28 14.8414 28Z"
            fill="#D80027" />
    </g>
    <defs>
        <clipPath id="clip0_2001_2889">
            <rect width="28" height="28" fill="white" transform="translate(0.841309)" />
        </clipPath>
    </defs>
</svg>