<svg width="171" height="176" viewBox="0 0 171 176" fill="none" xmlns="http://www.w3.org/2000/svg">
<path d="M15 179.17C19.3333 153.337 21.5 118.67 85.5 95.67C146.5 73.7482 186 52.17 186 3.17004" stroke="#FEFF2D" stroke-width="30"/>
<path d="M12.1502 168.343C12.8397 168.692 13.4438 168.999 13.9626 169.267C14.4709 169.532 14.9064 169.78 15.2689 170.011C15.6315 170.243 15.9275 170.485 16.1569 170.738C16.3775 170.978 16.5386 171.253 16.6403 171.561C16.7315 171.867 16.7696 172.235 16.7545 172.665L16.8493 172.68C16.9731 172.246 17.1324 171.894 17.3272 171.623C17.5133 171.339 17.761 171.109 18.0703 170.932C18.3709 170.743 18.7514 170.593 19.212 170.483C19.6637 170.362 20.2111 170.25 20.8541 170.148C21.4866 170.044 22.2347 169.927 23.0985 169.796L22.692 172.323C21.7073 172.467 20.8882 172.59 20.2347 172.69C19.5812 172.79 19.0593 172.911 18.669 173.054C18.2683 173.195 17.9669 173.389 17.7649 173.638C17.5629 173.886 17.4271 174.226 17.3577 174.658L15.6807 174.405C15.7467 173.994 15.7175 173.638 15.593 173.337C15.458 173.034 15.2329 172.755 14.9175 172.499C14.5916 172.242 14.1684 171.984 13.6479 171.728C13.1185 171.459 12.4872 171.152 11.754 170.807L12.1502 168.343ZM11.1849 174.346L14.2654 174.841C14.6234 174.899 14.9773 174.983 15.3269 175.093C15.6765 175.203 16.0052 175.343 16.313 175.511C16.6531 175.479 17.0019 175.46 17.3596 175.452C17.7085 175.433 18.0303 175.447 18.3252 175.494L22.0849 176.099L21.6988 178.5L10.7988 176.747L11.1849 174.346ZM15.7925 173.709L17.4669 173.979L17.1519 175.938L15.4775 175.668L15.7925 173.709Z" fill="#0600CC"/>
<path d="M16.1522 163.025C16.3513 162.053 16.6467 161.302 17.0383 160.773C17.4194 160.241 17.9335 159.911 18.5805 159.782C19.2296 159.643 20.0558 159.676 21.0589 159.882C22.0412 160.083 22.8034 160.375 23.3455 160.758C23.8897 161.131 24.2325 161.637 24.3739 162.276C24.5152 162.914 24.4863 163.72 24.2872 164.691C24.0881 165.663 23.798 166.415 23.4169 166.947C23.0357 167.478 22.5206 167.814 21.8714 167.953C21.2223 168.092 20.4066 168.061 19.4243 167.86C18.4212 167.654 17.6485 167.36 17.1064 166.977C16.5643 166.593 16.2226 166.082 16.0812 165.444C15.9294 164.803 15.9531 163.996 16.1522 163.025ZM17.8451 163.371C17.7637 163.769 17.7674 164.096 17.8561 164.354C17.9449 164.611 18.152 164.823 18.4776 164.987C18.8032 165.152 19.2847 165.3 19.9221 165.43C20.5491 165.559 21.0446 165.611 21.4087 165.588C21.7728 165.564 22.0463 165.452 22.2293 165.25C22.4018 165.045 22.5287 164.745 22.6101 164.348C22.6914 163.951 22.693 163.624 22.6147 163.369C22.5259 163.111 22.3177 162.905 21.99 162.751C21.6644 162.586 21.1881 162.439 20.5612 162.311C19.9237 162.18 19.423 162.127 19.0589 162.15C18.6969 162.163 18.4245 162.271 18.2415 162.473C18.0586 162.675 17.9264 162.974 17.8451 163.371Z" fill="#0600CC"/>
<path d="M19.013 151.981C19.3036 151.021 19.8579 150.443 20.6758 150.245C21.4936 150.046 22.5508 150.144 23.8473 150.536C24.858 150.843 25.6167 151.189 26.1234 151.577C26.6302 151.964 26.936 152.408 27.041 152.908C27.1388 153.395 27.0918 153.954 26.9001 154.587C26.7393 155.118 26.5066 155.611 26.202 156.064C25.9004 156.508 25.5154 156.859 25.0467 157.119L24.0778 156.675C24.285 156.359 24.4712 156.075 24.6364 155.824C24.7913 155.57 24.9229 155.265 25.0311 154.907C25.1301 154.581 25.1528 154.303 25.0992 154.075C25.0457 153.847 24.8679 153.643 24.566 153.462C24.2569 153.269 23.7859 153.076 23.153 152.884C22.5303 152.695 22.0432 152.592 21.6918 152.575C21.3302 152.555 21.0603 152.618 20.8821 152.765C20.6968 152.898 20.5594 153.113 20.4697 153.409C20.3677 153.746 20.3412 154.072 20.3905 154.388C20.4295 154.701 20.5138 155.066 20.6435 155.484L19.5141 155.46C19.3003 155.172 19.1341 154.838 19.0156 154.456C18.9002 154.065 18.84 153.656 18.835 153.231C18.8299 152.806 18.8893 152.389 19.013 151.981ZM18.2459 155.176L19.6937 155.364L19.9836 155.234L24.8991 156.723L25.0597 156.855C25.3752 156.917 25.6979 156.993 26.0277 157.082C26.3707 157.163 26.7041 157.259 27.0276 157.368L28.8499 157.92L28.1681 160.171L17.694 156.998L18.2459 155.176Z" fill="#0600CC"/>
<path d="M23.9816 140.179L31.1932 143.414L30.2436 145.531L23.032 142.296L23.9816 140.179ZM21.8205 144.996L29.0321 148.232L28.0891 150.334L20.8775 147.099L21.8205 144.996ZM23.0975 142.15L24.5946 142.839L23.2848 145.759L21.7812 145.084L23.0975 142.15Z" fill="#0600CC"/>
<path d="M26.9951 134.721C27.5239 133.882 28.0647 133.284 28.6178 132.926C29.1618 132.563 29.7592 132.435 30.4101 132.542C31.0667 132.641 31.8282 132.963 32.6946 133.509C33.543 134.043 34.1533 134.585 34.5256 135.135C34.9036 135.675 35.0462 136.27 34.9535 136.917C34.8607 137.565 34.55 138.308 34.0213 139.147C33.4925 139.987 32.9561 140.588 32.4121 140.951C31.8681 141.315 31.2678 141.447 30.6113 141.349C29.9547 141.25 29.2022 140.934 28.3538 140.399C27.4874 139.854 26.8681 139.306 26.4958 138.756C26.1235 138.206 25.9837 137.608 26.0764 136.96C26.1602 136.307 26.4664 135.561 26.9951 134.721ZM28.4572 135.642C28.2412 135.985 28.1293 136.293 28.1215 136.566C28.1138 136.838 28.2332 137.109 28.4799 137.378C28.7266 137.646 29.1252 137.954 29.6757 138.301C30.2172 138.642 30.6625 138.866 31.0115 138.972C31.3605 139.079 31.6562 139.07 31.8986 138.945C32.132 138.815 32.3567 138.578 32.5727 138.235C32.7887 137.892 32.9052 137.587 32.9219 137.32C32.9297 137.048 32.8074 136.782 32.555 136.522C32.3084 136.253 31.9143 135.948 31.3728 135.607C30.8222 135.26 30.3725 135.034 30.0235 134.927C29.6801 134.812 29.3873 134.816 29.1449 134.941C28.9025 135.066 28.6733 135.299 28.4572 135.642Z" fill="#0600CC"/>
<path d="M34.0506 125.371C34.7011 124.608 35.4408 124.3 36.2695 124.446C37.0983 124.592 38.0281 125.104 39.0589 125.983C39.8624 126.668 40.4188 127.29 40.728 127.848C41.0372 128.406 41.1398 128.935 41.0358 129.435C40.9306 129.92 40.6635 130.414 40.2344 130.918C39.8745 131.34 39.4641 131.698 39.0032 131.992C38.5493 132.277 38.0557 132.445 37.5224 132.495L36.8123 131.7C37.1288 131.494 37.4129 131.308 37.6647 131.145C37.9084 130.974 38.1514 130.747 38.3936 130.462C38.6151 130.203 38.7469 129.958 38.7891 129.727C38.8314 129.497 38.7503 129.239 38.5459 128.952C38.3404 128.651 37.986 128.286 37.4827 127.856C36.9876 127.434 36.5825 127.145 36.2674 126.988C35.9442 126.825 35.6716 126.775 35.4496 126.838C35.2265 126.886 35.0145 127.027 34.8138 127.263C34.5854 127.531 34.4306 127.819 34.3492 128.128C34.2597 128.43 34.1907 128.799 34.1421 129.234L33.1169 128.76C33.0362 128.41 33.0179 128.037 33.062 127.64C33.113 127.235 33.2213 126.837 33.3869 126.446C33.5525 126.054 33.7737 125.696 34.0506 125.371ZM32.0685 127.992L33.3199 128.744L33.6375 128.741L37.5457 132.073L37.6398 132.259C37.9041 132.442 38.1696 132.64 38.4362 132.854C38.7179 133.066 38.9852 133.287 39.238 133.516L40.6868 134.752L39.1607 136.542L30.8331 129.441L32.0685 127.992Z" fill="#0600CC"/>
<path d="M40.8925 118.544C41.3904 118.093 41.8662 117.784 42.32 117.617C42.7744 117.436 43.2318 117.424 43.6923 117.583C44.1534 117.726 44.6311 118.07 45.1254 118.616L48.6286 122.48L47.2297 123.748L45.831 122.706L45.5631 122.624L43.3602 120.194C43.1016 119.925 42.8478 119.788 42.5988 119.783C42.3578 119.771 42.0594 119.927 41.7038 120.249C41.3955 120.528 41.0269 120.884 40.598 121.316C40.1618 121.74 39.721 122.183 39.2755 122.645L38.0564 121.633C38.2908 121.32 38.5758 120.975 38.9114 120.599C39.247 120.223 39.5898 119.855 39.9398 119.494C40.2825 119.126 40.6001 118.809 40.8925 118.544ZM44.6387 119.532L45.5188 120.527L42.9334 122.892C42.72 123.085 42.6125 123.276 42.6107 123.465C42.609 123.654 42.687 123.835 42.8446 124.009L43.1025 124.293C43.2816 124.491 43.4766 124.595 43.6875 124.605C43.8992 124.601 44.1236 124.491 44.3607 124.276C44.5662 124.09 44.748 123.846 44.9063 123.544C45.0725 123.235 45.2025 122.894 45.2963 122.521C45.3902 122.148 45.4312 121.772 45.4196 121.394L46.1073 122.153C46.1515 122.329 46.1849 122.572 46.2074 122.883C46.2307 123.178 46.2144 123.51 46.1586 123.877C46.0957 124.236 45.9718 124.608 45.7868 124.992C45.6098 125.368 45.3395 125.721 44.9759 126.051C44.6203 126.373 44.2429 126.6 43.8438 126.731C43.4446 126.863 43.0511 126.881 42.663 126.787C42.275 126.692 41.9162 126.463 41.5867 126.099L41.0386 125.495C40.616 125.029 40.4445 124.522 40.5242 123.974C40.6039 123.427 40.9204 122.903 41.4736 122.401L44.6387 119.532Z" fill="#0600CC"/>
<path d="M49.0378 112.352L53.709 118.728L51.7988 120.128L47.1275 113.752L49.0378 112.352ZM51.1545 110.801L52.2324 112.273L46.0759 116.783L44.9979 115.312L51.1545 110.801Z" fill="#0600CC"/>
<path d="M59.0263 105.974L63.1292 112.729L61.3187 113.848L59.1676 110.306C59.0569 110.123 58.9534 109.943 58.8574 109.764C58.7704 109.58 58.6797 109.379 58.5852 109.162L58.5305 109.195C58.5755 109.392 58.6059 109.617 58.6219 109.87C58.6324 110.113 58.6336 110.331 58.6254 110.523L58.2608 115.686L56.4966 116.758L52.3937 110.002L54.1989 108.906L56.4081 112.543C56.5078 112.707 56.6029 112.874 56.6935 113.044C56.7785 113.204 56.8627 113.384 56.9461 113.583L56.9871 113.558C56.9548 113.341 56.9354 113.134 56.9289 112.938C56.9259 112.728 56.9285 112.527 56.9366 112.335L57.2759 107.037L59.0263 105.974Z" fill="#0600CC"/>
<path d="M64.8977 102.816C65.6681 102.425 66.3033 102.168 66.8034 102.046C67.3036 101.923 67.7235 101.949 68.0633 102.124C68.3983 102.288 68.6913 102.618 68.9425 103.113C69.1985 103.617 69.2728 104.058 69.1655 104.435C69.0581 104.813 68.7407 105.165 68.2132 105.493L68.2422 105.55C68.9273 105.25 69.4851 105.194 69.9156 105.382C70.3508 105.556 70.7108 105.923 70.9958 106.484C71.2422 106.969 71.3307 107.403 71.2616 107.785C71.1971 108.153 70.9727 108.5 70.5883 108.827C70.2135 109.149 69.6742 109.488 68.9704 109.846C68.4093 110.131 67.9123 110.377 67.4795 110.585C67.0516 110.802 66.6473 110.996 66.2667 111.165C65.9005 111.339 65.5224 111.513 65.1323 111.688L64.6295 110.238C64.8435 110.141 65.243 109.95 65.828 109.665C66.4176 109.366 67.1119 109.013 67.9108 108.607C68.2056 108.458 68.4313 108.313 68.5878 108.174C68.7444 108.035 68.8293 107.884 68.8426 107.722C68.8511 107.55 68.7973 107.35 68.6814 107.121C68.5075 106.779 68.2965 106.599 68.0483 106.582C67.8049 106.55 67.4501 106.652 66.9841 106.889L63.7458 108.533L63.1517 107.364L66.39 105.719C66.6753 105.574 66.8891 105.442 67.0315 105.321C67.169 105.192 67.2421 105.053 67.2507 104.905C67.2593 104.757 67.2129 104.583 67.1115 104.384C67.01 104.184 66.8947 104.051 66.7655 103.985C66.6363 103.919 66.4717 103.913 66.2717 103.967C66.0763 104.006 65.8217 104.105 65.5079 104.265C65.0275 104.497 64.6019 104.707 64.231 104.895C63.8601 105.084 63.5272 105.253 63.2324 105.403C62.9376 105.552 62.6643 105.709 62.4125 105.873L61.546 104.626C61.8739 104.424 62.1971 104.236 62.5156 104.062C62.8436 103.883 63.1979 103.697 63.5783 103.504C63.9539 103.301 64.3937 103.072 64.8977 102.816ZM63.5289 103.619L67.1152 110.68L65.1323 111.688L61.546 104.626L63.5289 103.619Z" fill="#0600CC"/>
<path d="M72.4397 99.3472L75.5655 106.607L73.4199 107.531L70.2941 100.271L72.4397 99.3472ZM76.5074 100.784L77.1464 102.268L74.1485 103.559L73.5094 102.074L76.5074 100.784ZM77.3627 97.2274L80.4885 104.487L78.343 105.411L75.2172 98.1513L77.3627 97.2274Z" fill="#0600CC"/>
<path d="M84.4831 97.4848C85.3464 97.1746 86.046 97.0081 86.5819 96.9856C87.1243 96.9493 87.5658 97.074 87.9065 97.3596C88.2436 97.6352 88.5257 98.0892 88.753 98.7216C88.9839 99.3641 89.0588 99.9038 88.9779 100.341C88.8934 100.768 88.6573 101.136 88.2697 101.446C87.8786 101.745 87.3316 102.021 86.629 102.273C86.0869 102.468 85.6083 102.634 85.1931 102.772C84.7916 102.917 84.4166 103.04 84.0681 103.143C83.7332 103.252 83.3815 103.361 83.0129 103.471L82.6482 101.936C82.8526 101.874 83.2276 101.75 83.7733 101.565C84.329 101.377 84.9732 101.151 85.706 100.888C86.0072 100.78 86.229 100.671 86.3716 100.564C86.5142 100.456 86.5935 100.314 86.6097 100.138C86.6258 99.9621 86.5834 99.7337 86.4824 99.4526C86.3381 99.0511 86.1654 98.8071 85.9643 98.7207C85.7633 98.6343 85.4319 98.674 84.9701 98.84L81.9135 99.9384L81.4265 98.5833L84.4831 97.4848ZM82.4177 95.2857L85.0908 102.724L82.9376 103.498L80.2645 96.0595L82.4177 95.2857ZM90.1571 92.5044L92.8302 99.9427L90.6017 100.744L87.9286 93.3053L90.1571 92.5044Z" fill="#0600CC"/>
<path d="M99.239 89.0939L102.024 96.4909L100.038 97.2557L98.578 93.3775C98.5028 93.1779 98.4345 92.9813 98.3731 92.7879C98.3216 92.5907 98.2695 92.3767 98.2168 92.1458L98.1569 92.1683C98.1646 92.3706 98.1531 92.5972 98.1222 92.8482C98.0876 93.0892 98.0485 93.3033 98.0051 93.4906L96.6934 98.498L94.7617 99.2253L91.9767 91.8282L93.9532 91.084L95.4529 95.067C95.5205 95.2467 95.5832 95.4283 95.6408 95.6117C95.6948 95.7852 95.7443 95.9774 95.7896 96.1883L95.8345 96.1714C95.8429 95.9517 95.862 95.745 95.8917 95.5515C95.9276 95.3442 95.9673 95.1469 96.0108 94.9596L97.3223 89.8155L99.239 89.0939ZM95.3895 86.8162L96.827 86.275C97.041 86.6617 97.1189 87.0655 97.0608 87.4863C97.0127 87.9033 96.8353 88.2949 96.5287 88.6611C96.232 89.0236 95.8092 89.3081 95.2601 89.5149C94.7111 89.7216 94.2006 89.7884 93.7286 89.7154C93.2565 89.6424 92.8599 89.4669 92.5387 89.1889C92.2175 88.9109 92.0048 88.5579 91.9006 88.1298L93.3531 87.5829C93.4885 88.0334 93.6836 88.3247 93.9385 88.4567C94.1996 88.5749 94.5048 88.5683 94.8542 88.4368C95.1936 88.309 95.4174 88.1164 95.5257 87.8591C95.6302 87.5918 95.5848 87.2441 95.3895 86.8162Z" fill="#0600CC"/>
<path d="M108.852 85.0562C109.109 84.9518 109.402 84.8502 109.73 84.7513C110.064 84.6386 110.404 84.5526 110.748 84.4933C111.098 84.4201 111.431 84.3886 111.746 84.3988L112.069 85.8737C111.66 86.0284 111.275 86.1731 110.915 86.3078C110.556 86.4424 110.232 86.568 109.946 86.6844C109.501 86.8651 109.169 87.0689 108.951 87.2959C108.742 87.5189 108.646 87.8056 108.661 88.1561C108.673 88.4968 108.787 88.9339 109.004 89.4675C109.225 90.011 109.452 90.4139 109.685 90.6761C109.918 90.9383 110.187 91.0765 110.493 91.0907C110.808 91.1008 111.187 91.0156 111.632 90.8349C111.79 90.7707 111.991 90.6834 112.234 90.5732C112.477 90.4629 112.74 90.3446 113.022 90.2183C113.301 90.0821 113.57 89.938 113.831 89.7861L114.605 91.0952C114.282 91.4337 113.884 91.7448 113.412 92.0286C112.94 92.3124 112.457 92.5547 111.963 92.7555C111.054 93.1249 110.278 93.2964 109.634 93.2702C108.996 93.2301 108.444 92.9765 107.978 92.5096C107.512 92.0427 107.088 91.3398 106.706 90.401C106.325 89.4622 106.139 88.663 106.147 88.0033C106.155 87.3437 106.381 86.7799 106.824 86.312C107.267 85.8442 107.943 85.4255 108.852 85.0562Z" fill="#0600CC"/>
<path d="M117.647 81.3376C118.263 81.0692 118.813 80.9286 119.296 80.916C119.785 80.8892 120.222 81.0246 120.607 81.322C120.998 81.6054 121.341 82.0844 121.635 82.7592L123.718 87.5411L121.987 88.2952L120.995 86.8598L120.768 86.6973L119.458 83.6903C119.299 83.3523 119.102 83.1413 118.868 83.0573C118.643 82.969 118.311 83.0207 117.871 83.2124C117.489 83.3786 117.026 83.5977 116.482 83.8699C115.933 84.1323 115.373 84.4109 114.804 84.7056L113.972 83.3576C114.294 83.1358 114.675 82.9003 115.113 82.6512C115.551 82.402 115.994 82.1627 116.441 81.9331C116.883 81.6937 117.285 81.4952 117.647 81.3376ZM120.881 83.4717L121.396 84.6956L118.19 86.1098C117.926 86.2248 117.763 86.3715 117.701 86.5497C117.639 86.728 117.655 86.9247 117.749 87.1398L117.902 87.4918C118.009 87.7363 118.161 87.8972 118.357 87.9744C118.559 88.0377 118.807 88.0054 119.1 87.8775C119.354 87.7668 119.605 87.5937 119.851 87.3583C120.108 87.1187 120.34 86.8372 120.548 86.5138C120.756 86.1904 120.915 85.8477 121.025 85.4857L121.434 86.4244C121.42 86.6052 121.374 86.8464 121.296 87.148C121.223 87.4355 121.102 87.7444 120.931 88.0746C120.757 88.395 120.521 88.7073 120.223 89.0116C119.934 89.3117 119.565 89.5597 119.116 89.7557C118.676 89.9474 118.245 90.0417 117.825 90.0386C117.405 90.0355 117.026 89.9272 116.689 89.7135C116.351 89.4998 116.085 89.1681 115.889 88.7182L115.563 87.9701C115.311 87.3932 115.311 86.8582 115.562 86.365C115.812 85.8719 116.28 85.4762 116.964 85.178L120.881 83.4717Z" fill="#0600CC"/>
<path d="M129.427 76.1191L132.825 83.2552L130.911 84.1846L129.129 80.4432C129.037 80.2506 128.952 80.0605 128.875 79.873C128.807 79.6808 128.737 79.4719 128.665 79.2463L128.607 79.2738C128.632 79.4747 128.64 79.7015 128.63 79.9542C128.616 80.1972 128.595 80.4139 128.568 80.6042L127.682 85.7043L125.819 86.5918L122.42 79.4557L124.327 78.5476L126.157 82.3901C126.24 82.5634 126.317 82.7391 126.39 82.917C126.459 83.0853 126.524 83.2726 126.587 83.479L126.631 83.4584C126.62 83.2387 126.622 83.0312 126.635 82.8358C126.654 82.6262 126.677 82.4263 126.704 82.236L127.577 76.9997L129.427 76.1191ZM125.399 74.1739L126.786 73.5135C127.031 73.8808 127.143 74.2766 127.121 74.7008C127.108 75.1204 126.964 75.5256 126.689 75.9163C126.424 76.3024 126.027 76.6216 125.497 76.8739C124.968 77.1261 124.465 77.2358 123.988 77.2028C123.512 77.1698 123.102 77.0283 122.758 76.7784C122.415 76.5285 122.173 76.1946 122.033 75.7768L123.434 75.1095C123.607 75.547 123.826 75.8208 124.091 75.9308C124.361 76.0267 124.665 75.9943 125.002 75.8338C125.329 75.6779 125.536 75.4672 125.622 75.2016C125.704 74.9265 125.63 74.5839 125.399 74.1739Z" fill="#0600CC"/>
<path d="M135.71 72.8544L139.399 79.8445L137.305 80.9498L133.616 73.9598L135.71 72.8544ZM138.03 71.6296L138.882 73.2427L132.132 76.8052L131.281 75.1921L138.03 71.6296Z" fill="#0600CC"/>
<path d="M155.246 56.6101C155.49 57.343 155.702 57.987 155.883 58.542C156.057 59.0883 156.191 59.5712 156.286 59.9907C156.38 60.4101 156.42 60.7904 156.405 61.1316C156.392 61.4578 156.313 61.7661 156.169 62.0565C156.018 62.3382 155.785 62.6264 155.472 62.9209L155.529 62.9984C155.922 62.7775 156.283 62.6394 156.613 62.5841C156.944 62.5138 157.282 62.5247 157.627 62.6168C157.974 62.694 158.349 62.8558 158.753 63.1023C159.16 63.3339 159.627 63.6399 160.156 64.0203C160.678 64.3921 161.291 64.8355 161.997 65.3506L159.929 66.8591C159.128 66.2681 158.46 65.7781 157.926 65.389C157.391 65 156.935 64.7187 156.558 64.5451C156.174 64.3629 155.823 64.2889 155.505 64.323C155.186 64.3572 154.85 64.5031 154.497 64.7608L153.485 63.4C153.821 63.1549 154.051 62.8816 154.174 62.5803C154.291 62.2704 154.328 61.9135 154.285 61.5097C154.235 61.0973 154.115 60.6167 153.926 60.068C153.739 59.5044 153.507 58.842 153.229 58.0809L155.246 56.6101ZM150.334 60.1929L152.172 62.7136C152.386 63.0066 152.578 63.3154 152.749 63.6398C152.919 63.9642 153.055 64.2946 153.155 64.6309C153.419 64.8478 153.68 65.0796 153.939 65.3262C154.201 65.558 154.419 65.7946 154.595 66.0359L156.839 69.1125L154.874 70.5456L148.369 61.626L150.334 60.1929ZM154.054 62.9852L155.053 64.3554L153.45 65.5245L152.451 64.1543L154.054 62.9852Z" fill="#0600CC"/>
<path d="M161.074 55.3623C161.813 54.7011 162.498 54.2749 163.128 54.0835C163.751 53.8842 164.361 53.9259 164.957 54.2086C165.561 54.4841 166.204 55.0036 166.887 55.767C167.555 56.5146 167.992 57.2038 168.199 57.8348C168.413 58.4587 168.386 59.0691 168.119 59.666C167.851 60.263 167.348 60.892 166.608 61.5531C165.869 62.2143 165.187 62.6445 164.564 62.8438C163.941 63.0431 163.328 63.005 162.724 62.7294C162.12 62.4538 161.483 61.9423 160.815 61.1948C160.133 60.4314 159.688 59.7342 159.482 59.1031C159.275 58.4721 159.306 57.8582 159.574 57.2613C159.834 56.6564 160.334 56.0234 161.074 55.3623ZM162.225 56.6505C161.923 56.9207 161.731 57.1856 161.648 57.4454C161.566 57.7052 161.606 57.9983 161.769 58.3247C161.932 58.6511 162.23 59.0569 162.664 59.5419C163.091 60.0191 163.457 60.3569 163.763 60.5553C164.069 60.7538 164.356 60.8265 164.623 60.7735C164.884 60.7125 165.165 60.5469 165.467 60.2768C165.769 60.0066 165.965 59.7457 166.055 59.4938C166.137 59.234 166.093 58.9445 165.922 58.6252C165.759 58.2988 165.464 57.897 165.038 57.4199C164.604 56.9348 164.234 56.593 163.928 56.3946C163.63 56.189 163.347 56.1128 163.08 56.1658C162.812 56.2188 162.528 56.3804 162.225 56.6505Z" fill="#0600CC"/>
<path d="M168.719 47.5919C169.382 46.8404 170.127 46.5448 170.953 46.7052C171.78 46.8656 172.7 47.3942 173.716 48.2909C174.507 48.99 175.053 49.6212 175.352 50.1845C175.651 50.7478 175.745 51.2786 175.632 51.7768C175.518 52.2599 175.243 52.7493 174.805 53.245C174.438 53.6607 174.021 54.0115 173.555 54.2973C173.096 54.5752 172.6 54.7344 172.066 54.7751L171.37 53.9681C171.69 53.7669 171.977 53.5866 172.232 53.4272C172.478 53.2608 172.725 53.0377 172.972 52.7578C173.198 52.502 173.334 52.2593 173.381 52.0297C173.427 51.8002 173.35 51.5404 173.151 51.2505C172.951 50.9455 172.603 50.5741 172.107 50.1363C171.619 49.7056 171.219 49.4092 170.907 49.2472C170.587 49.0782 170.315 49.0232 170.092 49.0824C169.868 49.1265 169.654 49.2645 169.449 49.4963C169.216 49.7602 169.056 50.0459 168.969 50.3535C168.875 50.6541 168.799 51.0216 168.743 51.4558L167.726 50.9634C167.652 50.6128 167.64 50.2395 167.691 49.8434C167.749 49.4393 167.864 49.0429 168.036 48.6544C168.209 48.2659 168.436 47.9117 168.719 47.5919ZM166.691 50.1774L167.929 50.9508L168.247 50.9538L172.096 54.3538L172.187 54.5408C172.448 54.7287 172.71 54.9316 172.973 55.1496C173.251 55.3666 173.515 55.5921 173.763 55.826L175.19 57.0865L173.633 58.8493L165.431 51.6045L166.691 50.1774Z" fill="#0600CC"/>
<path d="M176.178 37.5287L182.789 41.8608L181.517 43.8013L174.906 39.4692L176.178 37.5287ZM173.284 41.945L179.895 46.2771L178.632 48.2042L172.021 43.8722L173.284 41.945ZM174.994 39.3354L176.363 40.252L174.61 42.9286L173.231 42.0253L174.994 39.3354Z" fill="#0600CC"/>
<path d="M178.665 31.8946C179.073 30.9904 179.527 30.3232 180.025 29.8929C180.514 29.4582 181.088 29.2493 181.748 29.2661C182.412 29.2733 183.21 29.4875 184.144 29.9088C185.057 30.3214 185.737 30.7743 186.181 31.2675C186.63 31.751 186.853 32.3198 186.85 32.974C186.847 33.6281 186.642 34.4073 186.234 35.3114C185.826 36.2155 185.377 36.8849 184.888 37.3196C184.399 37.7543 183.823 37.9681 183.159 37.961C182.495 37.9539 181.706 37.744 180.793 37.3315C179.859 36.9101 179.17 36.4529 178.726 35.9596C178.282 35.4664 178.061 34.8927 178.064 34.2386C178.057 33.5801 178.257 32.7987 178.665 31.8946ZM180.24 32.6056C180.073 32.975 180.005 33.2952 180.035 33.5661C180.065 33.8371 180.22 34.0887 180.502 34.3211C180.783 34.5534 181.22 34.8034 181.813 35.0711C182.396 35.3345 182.868 35.4948 183.229 35.5522C183.589 35.6095 183.88 35.5597 184.103 35.4029C184.317 35.2417 184.507 34.9764 184.673 34.607C184.84 34.2375 184.914 33.9195 184.893 33.653C184.864 33.382 184.706 33.1353 184.42 32.9127C184.139 32.6803 183.706 32.4325 183.123 32.1692C182.53 31.9014 182.053 31.7389 181.693 31.6816C181.337 31.6145 181.048 31.6594 180.825 31.8162C180.602 31.973 180.407 32.2362 180.24 32.6056Z" fill="#0600CC"/>
<path d="M182.263 21.5658C182.53 20.5994 183.07 20.0072 183.883 19.7893C184.695 19.5713 185.755 19.6428 187.06 20.0038C188.078 20.2852 188.845 20.6134 189.361 20.9885C189.877 21.3635 190.194 21.7997 190.311 22.2968C190.421 22.7809 190.387 23.3416 190.211 23.9791C190.063 24.5137 189.843 25.0115 189.549 25.4727C189.258 25.9235 188.882 26.2843 188.42 26.5549L187.44 26.1347C187.64 25.8136 187.819 25.5256 187.978 25.2708C188.127 25.0131 188.251 24.7043 188.35 24.3445C188.441 24.0155 188.457 23.7377 188.398 23.5111C188.339 23.2845 188.156 23.0846 187.85 22.9114C187.537 22.725 187.061 22.5438 186.424 22.3675C185.796 22.1942 185.307 22.1031 184.955 22.0944C184.593 22.0829 184.325 22.1526 184.15 22.3035C183.968 22.4413 183.836 22.6593 183.754 22.9575C183.66 23.2968 183.642 23.6237 183.698 23.9382C183.745 24.2499 183.838 24.6132 183.978 25.0281L182.848 25.0312C182.628 24.7489 182.453 24.4185 182.326 24.0401C182.201 23.6514 182.131 23.2447 182.115 22.8199C182.1 22.3951 182.149 21.9771 182.263 21.5658ZM181.574 24.7784L183.026 24.9308L183.312 24.7943L188.263 26.1628L188.426 26.2911C188.743 26.3455 189.068 26.4131 189.4 26.4938C189.745 26.567 190.08 26.6542 190.406 26.7555L192.241 27.2628L191.615 29.5298L181.066 26.6136L181.574 24.7784Z" fill="#0600CC"/>
<path d="M183.886 12.4087C183.97 11.742 184.131 11.1979 184.367 10.7764C184.594 10.3429 184.934 10.0367 185.387 9.85766C185.831 9.66674 186.418 9.61768 187.148 9.71049L192.322 10.3682L192.084 12.2411L190.343 12.3586L190.087 12.4711L186.833 12.0576C186.462 12.0211 186.18 12.082 185.988 12.2404C185.797 12.3882 185.671 12.7001 185.611 13.1763C185.558 13.589 185.509 14.0989 185.464 14.7061C185.409 15.3119 185.362 15.935 185.324 16.5753L183.74 16.5998C183.714 16.2094 183.707 15.7622 183.717 15.2582C183.727 14.7541 183.748 14.2514 183.78 13.75C183.8 13.2473 183.836 12.8002 183.886 12.4087ZM187.374 10.7231L188.689 10.9064L188.263 14.3845C188.227 14.6702 188.27 14.8852 188.391 15.0297C188.512 15.1742 188.69 15.2612 188.922 15.2908L189.303 15.3392C189.568 15.3728 189.784 15.325 189.951 15.1957C190.108 15.0544 190.207 14.8251 190.248 14.5076C190.283 14.2325 190.262 13.9288 190.186 13.5966C190.111 13.2538 189.988 12.9102 189.817 12.5658C189.646 12.2215 189.433 11.9095 189.178 11.6298L190.194 11.7589C190.342 11.8637 190.525 12.0269 190.745 12.2483C190.954 12.4577 191.158 12.7201 191.354 13.0354C191.54 13.3494 191.687 13.7122 191.796 14.1239C191.907 14.525 191.931 14.9689 191.869 15.4557C191.809 15.9318 191.669 16.3496 191.452 16.709C191.234 17.0684 190.947 17.3384 190.591 17.5189C190.234 17.6994 189.813 17.7588 189.326 17.6969L188.517 17.594C187.892 17.5147 187.433 17.2412 187.137 16.7735C186.842 16.3059 186.741 15.7017 186.835 14.961L187.374 10.7231Z" fill="#0600CC"/>
<path d="M184.608 2.62382L192.511 2.71542L192.484 5.08326L184.58 4.99167L184.608 2.62382ZM184.638 0L186.462 0.021138L186.374 7.65263L184.55 7.63149L184.638 0Z" fill="#0600CC"/>
</svg>
