<svg width="171" height="173" viewBox="0 0 171 173" fill="none" xmlns="http://www.w3.org/2000/svg">
<path d="M15 176C19.3333 150.167 21.5 115.5 85.5 92.5C146.5 70.5781 186 49 186 0" stroke="#FEFF2D" stroke-width="30"/>
<path d="M12.2388 164.643L23.1377 166.402L22.7655 168.708L16.2893 167.663C16.0471 167.624 15.8066 167.574 15.5678 167.514C15.3185 167.452 15.0761 167.381 14.8407 167.299L14.8254 167.394C15.0645 167.519 15.2967 167.654 15.5219 167.798C15.7366 167.941 15.9504 168.089 16.1634 168.242L22.0669 173.036L21.687 175.39L10.7881 173.631L11.1603 171.324L17.5101 172.349C17.7523 172.388 18.0025 172.445 18.2607 172.519C18.51 172.581 18.7637 172.649 19.0219 172.723L19.0347 172.644C18.7972 172.509 18.5659 172.369 18.3407 172.224C18.1172 172.069 17.9051 171.911 17.7043 171.749L11.8589 166.996L12.2388 164.643Z" fill="#0600CC"/>
<path d="M16.2325 160.468L23.9635 162.112L23.4774 164.397L15.7464 162.753L16.2325 160.468ZM19.7556 157.978L21.3362 158.315L20.657 161.507L19.0764 161.171L19.7556 157.978ZM17.3478 155.225L25.0788 156.87L24.5927 159.155L16.8617 157.51L17.3478 155.225Z" fill="#0600CC"/>
<path d="M19.4247 148.164L26.9722 150.511L26.269 152.772L18.7215 150.425L19.4247 148.164ZM20.2039 145.658L21.9456 146.2L19.6793 153.487L17.9375 152.946L20.2039 145.658Z" fill="#0600CC"/>
<path d="M22.4183 139.986C22.9684 138.76 23.5706 137.978 24.2248 137.64C24.8693 137.298 25.6025 137.305 26.4244 137.662C27.0906 137.949 27.5127 138.338 27.6908 138.827C27.8591 139.311 27.7556 139.972 27.3801 140.809L25.5661 144.853L24.3544 144.309L25.8999 140.864C26.044 140.543 26.0698 140.303 25.9772 140.145C25.8748 139.982 25.695 139.849 25.4376 139.745C25.097 139.592 24.8197 139.585 24.6059 139.722C24.3867 139.846 24.1745 140.137 23.9693 140.594C23.7903 140.993 23.7041 141.329 23.7107 141.601C23.7217 141.863 23.8584 142.105 24.1209 142.328C24.3833 142.551 24.8016 142.791 25.3758 143.049C25.9792 143.32 26.4703 143.476 26.8492 143.517C27.2184 143.554 27.523 143.474 27.7631 143.278C28.0075 143.072 28.2301 142.745 28.4309 142.298C28.5837 141.957 28.7596 141.539 28.9584 141.044C29.1518 140.534 29.3307 140.018 29.495 139.496L30.9086 139.902C30.9226 140.235 30.8877 140.6 30.8041 140.995C30.7204 141.39 30.608 141.784 30.4669 142.176C30.3356 142.573 30.1891 142.952 30.0276 143.312C29.6216 144.217 29.1606 144.893 28.6446 145.34C28.1232 145.772 27.5284 145.99 26.8602 145.995C26.1963 145.989 25.4312 145.792 24.5651 145.403C23.621 144.98 22.9284 144.517 22.4872 144.015C22.046 143.513 21.8259 142.935 21.8271 142.281C21.8283 141.627 22.0254 140.862 22.4183 139.986Z" fill="#0600CC"/>
<path d="M27.685 130.487C28.2194 129.638 28.9072 129.227 29.7483 129.252C30.5895 129.278 31.5831 129.652 32.7293 130.374C33.6228 130.937 34.2626 131.472 34.6486 131.98C35.0346 132.488 35.212 132.997 35.1808 133.507C35.1463 134.002 34.9528 134.529 34.6003 135.089C34.3046 135.558 33.9498 135.971 33.5359 136.328C33.1276 136.676 32.6632 136.913 32.1426 137.039L31.3259 136.354C31.6094 136.104 31.8641 135.88 32.0898 135.682C32.3065 135.478 32.5143 135.218 32.7133 134.902C32.8952 134.613 32.9906 134.352 32.9993 134.118C33.008 133.884 32.8908 133.64 32.6474 133.386C32.4008 133.117 31.9977 132.806 31.4381 132.454C30.8876 132.107 30.4451 131.879 30.1108 131.769C29.7675 131.653 29.4906 131.643 29.2799 131.737C29.0659 131.817 28.8765 131.987 28.7116 132.249C28.524 132.547 28.4121 132.854 28.3759 133.172C28.3307 133.484 28.3153 133.859 28.3296 134.296L27.247 133.974C27.117 133.64 27.0454 133.273 27.0321 132.874C27.0245 132.466 27.0745 132.056 27.1823 131.645C27.29 131.234 27.4576 130.848 27.685 130.487ZM26.0992 133.364L27.4455 133.929L27.7595 133.881L32.1051 136.618L32.2249 136.788C32.5127 136.932 32.8039 137.09 33.0984 137.263C33.4076 137.432 33.7038 137.612 33.9869 137.803L35.5979 138.818L34.3443 140.808L25.0844 134.975L26.0992 133.364Z" fill="#0600CC"/>
<path d="M32.3082 124.541L38.3226 129.669L36.8069 131.447L30.7925 126.318L32.3082 124.541ZM36.5917 124.03L37.8214 125.079L35.7036 127.562L34.4739 126.514L36.5917 124.03ZM35.786 120.462L41.8004 125.591L40.2847 127.368L34.2703 122.24L35.786 120.462Z" fill="#0600CC"/>
<path d="M40.6535 115.591C41.6493 114.688 42.5145 114.214 43.2494 114.166C43.977 114.112 44.6456 114.412 45.2553 115.069C45.7504 115.599 45.9814 116.124 45.9483 116.644C45.9081 117.155 45.5482 117.719 44.8685 118.335L41.5848 121.312L40.6929 120.328L43.4906 117.792C43.7514 117.555 43.8712 117.346 43.8499 117.164C43.8215 116.974 43.7102 116.779 43.516 116.581C43.2653 116.304 43.0143 116.186 42.7631 116.227C42.5127 116.252 42.2017 116.433 41.8303 116.77C41.5063 117.064 41.2928 117.337 41.1898 117.588C41.0948 117.833 41.1227 118.11 41.2737 118.419C41.4246 118.729 41.7114 119.117 42.1341 119.583C42.5782 120.073 42.9656 120.413 43.2961 120.603C43.6194 120.785 43.9304 120.834 44.229 120.75C44.5355 120.66 44.8705 120.45 45.2341 120.12C45.5107 119.869 45.8394 119.557 46.2202 119.183C46.6018 118.794 46.9726 118.393 47.3327 117.98L48.4646 118.919C48.3436 119.231 48.1656 119.55 47.9305 119.879C47.6954 120.207 47.4345 120.523 47.1477 120.826C46.8682 121.137 46.5822 121.425 46.2898 121.69C45.5548 122.356 44.8614 122.79 44.2096 122.992C43.5586 123.179 42.9261 123.141 42.3123 122.877C41.7064 122.605 41.0847 122.118 40.4471 121.414C39.7522 120.648 39.3033 119.946 39.1004 119.309C38.8976 118.673 38.9279 118.055 39.1914 117.456C39.4548 116.857 39.9422 116.236 40.6535 115.591Z" fill="#0600CC"/>
<path d="M49.038 109.182L53.7093 115.558L51.799 116.957L47.1278 110.581L49.038 109.182ZM51.1547 107.631L52.2327 109.103L46.0762 113.613L44.9982 112.142L51.1547 107.631Z" fill="#0600CC"/>
<path d="M58.2138 106.866L59.0104 108.142L54.9659 110.667L54.1694 109.391L58.2138 106.866Z" fill="#0600CC"/>
<path d="M66.9246 98.6622C67.3974 98.4154 67.7668 98.5354 68.033 99.0221L71.5325 105.173L69.6177 106.172L66.5686 100.815L66.37 100.919L67.2363 105.448C67.3071 105.676 67.3059 105.881 67.2327 106.064C67.1596 106.246 67.0095 106.397 66.7826 106.515L65.733 107.063C65.506 107.182 65.2968 107.219 65.1052 107.174C64.9135 107.13 64.7398 107.016 64.5839 106.833L61.3631 103.533L61.1646 103.636L63.8449 109.186L61.9301 110.185L58.8703 103.805C58.6231 103.309 58.7453 102.932 59.237 102.675L61.0809 101.713C61.2984 101.599 61.5029 101.565 61.6945 101.609C61.8861 101.653 62.0576 101.774 62.209 101.972L64.745 104.583C64.8906 104.723 65.022 104.871 65.1392 105.027C65.2564 105.182 65.3714 105.345 65.4841 105.515L65.6401 105.433C65.5792 105.224 65.5163 105.035 65.4513 104.864C65.3908 104.679 65.3398 104.489 65.2982 104.294L64.5919 100.728C64.445 100.239 64.5937 99.8789 65.0382 99.6469L66.9246 98.6622Z" fill="#0600CC"/>
<path d="M74.5066 95.0608C75.1238 94.795 75.674 94.6568 76.1572 94.6462C76.6459 94.6216 77.0825 94.7588 77.4667 95.0579C77.8566 95.3429 78.197 95.8235 78.4881 96.4995L80.5509 101.29L78.8168 102.037L77.8311 100.597L77.604 100.434L76.3068 97.4213C76.1494 97.0826 75.9536 96.8707 75.7196 96.7857C75.4953 96.6964 75.1628 96.7467 74.7219 96.9365C74.3398 97.101 73.8759 97.3182 73.3301 97.5881C72.7801 97.8481 72.2196 98.1243 71.6487 98.4165L70.8229 97.065C71.146 96.8445 71.5273 96.6107 71.9667 96.3634C72.406 96.1162 72.8496 95.8787 73.2974 95.6511C73.741 95.4136 74.1441 95.2169 74.5066 95.0608ZM77.7309 97.2088L78.2414 98.4348L75.0293 99.8353C74.7648 99.9492 74.6012 100.095 74.5385 100.273C74.4757 100.451 74.4908 100.648 74.5836 100.863L74.7354 101.216C74.8409 101.461 74.9917 101.622 75.188 101.701C75.3898 101.765 75.6376 101.733 75.9315 101.607C76.1862 101.497 76.4374 101.325 76.6849 101.091C76.9422 100.852 77.1756 100.572 77.3852 100.249C77.5947 99.9269 77.7552 99.5848 77.8666 99.2233L78.2716 100.164C78.2565 100.345 78.2093 100.586 78.13 100.887C78.0562 101.174 77.9335 101.482 77.7618 101.812C77.5858 102.131 77.3482 102.443 77.049 102.746C76.7596 103.045 76.3896 103.291 75.9389 103.485C75.498 103.675 75.0675 103.767 74.6473 103.762C74.2271 103.758 73.8488 103.648 73.5123 103.432C73.1757 103.217 72.9105 102.884 72.7164 102.434L72.3937 101.684C72.1448 101.106 72.1467 100.571 72.3994 100.079C72.6521 99.5872 73.1213 99.1935 73.8071 98.8982L77.7309 97.2088Z" fill="#0600CC"/>
<path d="M81.0095 92.5793C81.6781 92.3269 82.3705 92.077 83.0866 91.8296C83.7989 91.5721 84.4633 91.3841 85.0798 91.2654L85.5718 92.8412L82.6528 93.9428C82.4033 94.037 82.2444 94.1597 82.1761 94.3109C82.104 94.4521 82.1131 94.6425 82.2035 94.882L84.1131 99.9416L81.9275 100.766L79.7863 95.0931C79.5566 94.4843 79.5418 93.9769 79.7419 93.5707C79.9483 93.1508 80.3708 92.8203 81.0095 92.5793Z" fill="#0600CC"/>
<path d="M91.7819 88.4965C92.4125 88.2642 92.9693 88.1558 93.4524 88.1711C93.9418 88.1728 94.3703 88.3332 94.7379 88.6525C95.1119 88.9581 95.4261 89.4562 95.6804 90.1468L97.483 95.0415L95.7114 95.6939L94.8044 94.2035L94.5863 94.0281L93.4528 90.9502C93.3138 90.6035 93.1297 90.3815 92.9006 90.284C92.6814 90.1828 92.3466 90.2152 91.8962 90.3811C91.5059 90.5248 91.0309 90.7168 90.4715 90.9569C89.9083 91.1871 89.3338 91.4327 88.748 91.694L87.9959 90.3C88.3304 90.0972 88.7237 89.8842 89.1757 89.6609C89.6277 89.4376 90.0834 89.2243 90.5428 89.021C90.9985 88.8077 91.4115 88.6328 91.7819 88.4965ZM94.8862 90.8145L95.3302 92.0662L92.0476 93.2921C91.7773 93.3916 91.6061 93.5286 91.5339 93.7029C91.4617 93.8773 91.4662 94.0746 91.5473 94.2948L91.68 94.6551C91.7721 94.9054 91.9141 95.0748 92.1058 95.1633C92.3039 95.2381 92.5531 95.2202 92.8533 95.1096C93.1136 95.0138 93.3736 94.8555 93.6333 94.6348C93.9031 94.4105 94.1512 94.1429 94.3778 93.8321C94.6043 93.5213 94.7829 93.1884 94.9136 92.8334L95.2675 93.7943C95.2427 93.9739 95.1826 94.212 95.0873 94.5086C94.9982 94.7915 94.8591 95.0928 94.6699 95.4125C94.4771 95.7222 94.2231 96.0204 93.9081 96.3069C93.603 96.5897 93.2203 96.8159 92.7599 96.9855C92.3094 97.1514 91.8746 97.2206 91.4552 97.1932C91.0359 97.1657 90.664 97.0356 90.3396 96.8027C90.0151 96.5698 89.7681 96.2231 89.5985 95.7627L89.3165 94.997C89.099 94.4064 89.1296 93.8723 89.4083 93.3945C89.6871 92.9167 90.1768 92.5488 90.8774 92.2908L94.8862 90.8145Z" fill="#0600CC"/>
<path d="M99.2387 85.723C100.105 85.3895 100.821 85.171 101.387 85.0675C101.963 84.96 102.425 85.0047 102.776 85.2014C103.132 85.3843 103.419 85.7595 103.637 86.3269C103.852 86.8843 103.887 87.3453 103.741 87.7099C103.606 88.0706 103.259 88.387 102.701 88.6591L102.724 88.7188C103.416 88.498 103.963 88.4932 104.364 88.7045C104.776 88.9119 105.098 89.3192 105.332 89.9264C105.554 90.5038 105.596 90.9847 105.459 91.3692C105.327 91.7399 105.027 92.0727 104.557 92.3677C104.098 92.6589 103.48 92.9539 102.704 93.2529C102.176 93.456 101.626 93.645 101.053 93.8198C100.48 93.9946 99.8971 94.1276 99.3036 94.219L98.8781 92.6683C99.385 92.5303 99.908 92.3747 100.447 92.2014C100.982 92.0182 101.474 91.8404 101.922 91.6679C102.43 91.4724 102.754 91.2904 102.895 91.1219C103.036 90.9534 103.043 90.7049 102.916 90.3764C102.832 90.1574 102.731 90.0134 102.613 89.9446C102.501 89.8619 102.343 89.8371 102.138 89.87C101.93 89.8931 101.657 89.9698 101.318 90.1001L99.1716 90.8923L98.6542 89.5484L100.757 88.6873C101.056 88.5723 101.277 88.4643 101.421 88.3632C101.575 88.2582 101.663 88.1444 101.684 88.0219C101.712 87.8856 101.689 87.7228 101.616 87.5337C101.536 87.3247 101.436 87.1857 101.318 87.1168C101.2 87.0479 101.036 87.0369 100.826 87.0837C100.621 87.1167 100.34 87.2021 99.9814 87.3401C99.5334 87.5126 99.0862 87.7019 98.6398 87.908C98.2034 88.1104 97.8136 88.3004 97.4706 88.4782L96.7464 87.0425C97.1744 86.7292 97.6147 86.4625 98.0672 86.2426C98.5297 86.0188 98.9202 85.8456 99.2387 85.723Z" fill="#0600CC"/>
<path d="M112.022 80.819L115.004 88.1388L113.039 88.9565L111.476 85.1188C111.395 84.9213 111.322 84.7266 111.255 84.5349C111.198 84.3392 111.141 84.1266 111.082 83.8972L111.022 83.9214C111.036 84.1233 111.03 84.3502 111.006 84.6019C110.978 84.8437 110.944 85.0588 110.906 85.2473L109.729 90.288L107.817 91.0667L104.835 83.7469L106.791 82.9501L108.397 86.8915C108.469 87.0693 108.537 87.2491 108.599 87.4309C108.658 87.6029 108.713 87.7937 108.764 88.0033L108.808 87.9852C108.811 87.7653 108.824 87.5583 108.849 87.364C108.879 87.1558 108.913 86.9575 108.952 86.7691L110.125 81.5917L112.022 80.819Z" fill="#0600CC"/>
<path d="M116.172 79.0404L119.347 86.2789L117.208 87.2171L114.033 79.9787L116.172 79.0404ZM120.25 80.4495L120.899 81.9294L117.91 83.2404L117.261 81.7605L120.25 80.4495ZM121.081 76.8877L124.256 84.1261L122.116 85.0644L118.942 77.8259L121.081 76.8877Z" fill="#0600CC"/>
<path d="M144.099 61.2705L149.692 70.7893L147.678 71.9726L144.355 66.3165C144.23 66.1049 144.115 65.888 144.009 65.6657C143.898 65.4341 143.799 65.2018 143.711 64.9687L143.628 65.0173C143.685 65.2812 143.729 65.546 143.761 65.8116C143.788 66.0679 143.81 66.327 143.828 66.5888L143.898 74.1933L141.842 75.4009L136.25 65.8821L138.264 64.6988L141.522 70.2445C141.646 70.4561 141.762 70.6849 141.87 70.931C141.981 71.1626 142.09 71.4014 142.198 71.6475L142.267 71.607C142.22 71.3376 142.18 71.0702 142.148 70.8046C142.125 70.5337 142.112 70.2692 142.109 70.0112L142.044 62.4781L144.099 61.2705Z" fill="#0600CC"/>
<path d="M149.735 61.2642L154.251 67.7508L152.334 69.0856L147.818 62.599L149.735 61.2642ZM154.008 61.857L154.931 63.1832L152.252 65.0482L151.329 63.722L154.008 61.857ZM154.133 58.2015L158.65 64.6882L156.733 66.0229L152.216 59.5363L154.133 58.2015Z" fill="#0600CC"/>
<path d="M159.595 53.7792L164.646 59.8589L162.824 61.3721L157.774 55.2924L159.595 53.7792ZM161.613 52.1024L162.779 53.5054L156.909 58.3824L155.743 56.9794L161.613 52.1024Z" fill="#0600CC"/>
<path d="M165.493 47.9384C166.432 46.9769 167.267 46.4503 167.997 46.3586C168.72 46.2595 169.406 46.5192 170.055 47.1376C170.581 47.6367 170.844 48.1465 170.842 48.667C170.833 49.18 170.508 49.7647 169.867 50.421L166.771 53.5918L165.821 52.664L168.459 49.9625C168.705 49.7107 168.812 49.4944 168.779 49.3138C168.739 49.1257 168.616 48.9385 168.411 48.7524C168.143 48.4916 167.886 48.389 167.637 48.4448C167.389 48.4854 167.09 48.6851 166.739 49.0438C166.434 49.3567 166.237 49.6419 166.15 49.8994C166.07 50.1492 166.115 50.424 166.284 50.7237C166.454 51.0234 166.764 51.3931 167.214 51.8328C167.687 52.2949 168.094 52.6106 168.436 52.7801C168.769 52.9421 169.083 52.9723 169.376 52.8708C169.676 52.7616 169.998 52.5315 170.341 52.1804C170.602 51.9133 170.911 51.5816 171.268 51.1851C171.625 50.7735 171.971 50.3508 172.305 49.9169L173.492 50.7853C173.39 51.1033 173.232 51.4333 173.017 51.7753C172.803 52.1173 172.562 52.4483 172.294 52.7683C172.034 53.0957 171.766 53.4006 171.49 53.683C170.797 54.3927 170.131 54.8682 169.493 55.1096C168.854 55.336 168.221 55.3359 167.592 55.1096C166.971 54.8755 166.321 54.4269 165.641 53.7636C164.901 53.0407 164.41 52.3677 164.169 51.7445C163.928 51.1213 163.921 50.5028 164.147 49.8892C164.374 49.2755 164.822 48.6253 165.493 47.9384Z" fill="#0600CC"/>
<path d="M172.354 39.7725C172.953 38.9689 173.672 38.613 174.508 38.7049C175.345 38.7968 176.306 39.2478 177.391 40.058C178.238 40.6895 178.833 41.2737 179.178 41.8105C179.523 42.3473 179.659 42.8685 179.588 43.3743C179.515 43.8652 179.28 44.3756 178.885 44.9056C178.553 45.3501 178.167 45.734 177.726 46.0572C177.291 46.3718 176.81 46.5714 176.281 46.6559L175.521 45.9089C175.823 45.682 176.094 45.4787 176.335 45.2989C176.567 45.1128 176.795 44.8701 177.018 44.5709C177.222 44.2973 177.338 44.0443 177.365 43.8117C177.392 43.5791 177.295 43.3265 177.072 43.054C176.847 42.7665 176.47 42.425 175.94 42.0295C175.419 41.6403 174.996 41.3779 174.671 41.2421C174.338 41.1 174.063 41.0676 173.845 41.1449C173.626 41.2073 173.423 41.3625 173.238 41.6104C173.028 41.8925 172.892 42.1904 172.831 42.5041C172.761 42.8115 172.716 43.1839 172.696 43.6213L171.642 43.2142C171.539 42.871 171.496 42.4999 171.515 42.1009C171.539 41.6934 171.621 41.2889 171.761 40.8875C171.901 40.4861 172.099 40.1144 172.354 39.7725ZM170.546 42.516L171.844 43.1849L172.16 43.1618L176.277 46.2335L176.383 46.4124C176.658 46.5782 176.936 46.7588 177.216 46.9544C177.511 47.1478 177.792 47.3509 178.059 47.5636L179.585 48.7023L178.178 50.5873L169.407 44.042L170.546 42.516Z" fill="#0600CC"/>
<path d="M176.277 33.9708L183.254 37.6855L182.156 39.7474L175.179 36.0327L176.277 33.9708ZM180.35 32.5505L181.777 33.31L180.243 36.1911L178.816 35.4316L180.35 32.5505ZM178.796 29.2396L185.773 32.9543L184.675 35.0162L177.698 31.3016L178.796 29.2396Z" fill="#0600CC"/>
<path d="M180.91 22.9409C181.345 21.6695 181.874 20.8357 182.494 20.4396C183.105 20.0399 183.836 19.9804 184.687 20.2608C185.376 20.4859 185.832 20.8338 186.054 21.3046C186.266 21.7719 186.223 22.4394 185.926 23.3072L184.489 27.4997L183.233 27.0691L184.457 23.4971C184.571 23.1642 184.575 22.923 184.468 22.7737C184.351 22.6209 184.16 22.5046 183.894 22.4247C183.541 22.3037 183.264 22.3216 183.064 22.4784C182.857 22.6217 182.672 22.9305 182.51 23.4047C182.368 23.8184 182.313 24.1604 182.344 24.4305C182.379 24.6905 182.537 24.9195 182.819 25.1176C183.101 25.3156 183.539 25.5167 184.134 25.7207C184.76 25.9352 185.263 26.0457 185.645 26.0523C186.016 26.0554 186.312 25.9483 186.533 25.7309C186.757 25.5035 186.949 25.1576 187.108 24.6935C187.229 24.3403 187.366 23.908 187.519 23.3966C187.665 22.8716 187.796 22.3414 187.912 21.8061L189.357 22.0814C189.401 22.4124 189.4 22.7784 189.352 23.1794C189.305 23.5804 189.229 23.9828 189.125 24.3867C189.03 24.7941 188.919 25.1844 188.791 25.5578C188.469 26.4962 188.072 27.2113 187.599 27.7032C187.119 28.1815 186.547 28.4532 185.882 28.5184C185.22 28.5735 184.44 28.4472 183.542 28.1394C182.563 27.8039 181.831 27.4064 181.346 26.9469C180.861 26.4874 180.589 25.9319 180.531 25.2803C180.472 24.6288 180.598 23.849 180.91 22.9409Z" fill="#0600CC"/>
<path d="M183.514 13.3908L191.273 14.9015L190.82 17.2258L183.062 15.7152L183.514 13.3908ZM184.016 10.8152L185.806 11.1638L184.347 18.6551L182.557 18.3065L184.016 10.8152Z" fill="#0600CC"/>
<path d="M187.582 4.74487L189.081 4.8712L188.681 9.62235L187.182 9.49602L187.582 4.74487Z" fill="#0600CC"/>
</svg>
