<svg width="171" height="175" viewBox="0 0 171 175" fill="none" xmlns="http://www.w3.org/2000/svg">
<path d="M15 178.33C19.3333 152.497 21.5 117.83 85.5 94.8301C146.5 72.9083 186 51.3301 186 2.33014" stroke="#C1FD3A" stroke-width="30"/>
<path d="M11.1288 173.861L19.2807 175.169C19.544 175.211 19.7559 175.169 19.9165 175.044C20.077 174.918 20.1793 174.719 20.2232 174.445L20.8337 170.637L22.6683 170.818C22.6326 171.579 22.5542 172.372 22.433 173.195C22.324 174.009 22.2045 174.822 22.0744 175.633C21.9477 176.423 21.6408 176.989 21.1537 177.333C20.6577 177.664 20.0779 177.776 19.4144 177.669L10.7412 176.279L11.1288 173.861Z" fill="#0600CC"/>
<path d="M15.9274 163.282C16.0523 162.633 16.2471 162.1 16.5118 161.684C16.766 161.265 17.1247 160.981 17.5881 160.831C18.0429 160.669 18.6317 160.657 19.3545 160.796L24.4766 161.781L24.12 163.636L22.3754 163.642L22.1095 163.754L18.8885 163.135C18.5219 163.064 18.2377 163.102 18.0358 163.248C17.836 163.383 17.6898 163.691 17.5971 164.173C17.5206 164.571 17.4406 165.072 17.3572 165.675C17.2633 166.276 17.1769 166.895 17.0979 167.531L15.5158 167.455C15.515 167.064 15.5358 166.617 15.5781 166.115C15.6204 165.613 15.6732 165.112 15.7364 164.614C15.7892 164.113 15.8529 163.67 15.9274 163.282ZM19.5158 161.821L20.8169 162.088L20.1678 165.548C20.1135 165.83 20.1423 166.048 20.2543 166.2C20.3683 166.341 20.5405 166.434 20.7709 166.478L21.148 166.551C21.4099 166.601 21.6283 166.567 21.8031 166.449C21.9675 166.328 22.0809 166.106 22.1433 165.781C22.1957 165.508 22.1945 165.204 22.1397 164.868C22.0869 164.521 21.986 164.17 21.837 163.816C21.6879 163.461 21.4951 163.136 21.2586 162.841L22.2642 163.034C22.4032 163.159 22.575 163.338 22.7797 163.573C22.9759 163.796 23.162 164.07 23.3381 164.398C23.5036 164.723 23.6287 165.089 23.7133 165.496C23.7979 165.903 23.7939 166.348 23.7012 166.83C23.6106 167.301 23.4452 167.709 23.2051 168.054C22.965 168.399 22.6614 168.65 22.2944 168.808C21.9274 168.965 21.503 168.998 21.0211 168.905L20.2198 168.751C19.6018 168.632 19.1602 168.33 18.8952 167.845C18.6301 167.359 18.568 166.75 18.709 166.016L19.5158 161.821Z" fill="#0600CC"/>
<path d="M18.4964 152.734C18.899 151.296 19.8038 150.774 21.2111 151.168L26.912 152.763L26.2736 155.044L21.2815 153.646C20.9426 153.551 20.6942 153.548 20.5364 153.637C20.3684 153.723 20.2427 153.915 20.1593 154.213C20.0673 154.542 20.0392 154.899 20.0749 155.286C20.1004 155.67 20.1748 156.156 20.2982 156.744L18.9891 156.494C18.6793 155.82 18.4802 155.166 18.3918 154.532C18.3063 153.888 18.3411 153.288 18.4964 152.734ZM17.7263 156.257L19.3096 156.417L19.5616 156.289L25.4628 157.94L24.8245 160.221L17.2131 158.09L17.7263 156.257Z" fill="#0600CC"/>
<path d="M20.9612 145.702C21.1739 145.19 21.4523 144.728 21.7964 144.316C22.1446 143.895 22.5618 143.572 23.0481 143.346L23.9916 143.911C23.754 144.205 23.5406 144.469 23.3513 144.702C23.1621 144.935 22.9938 145.229 22.8466 145.584C22.7198 145.889 22.6717 146.158 22.7024 146.39C22.733 146.622 22.8875 146.848 23.166 147.068C23.4444 147.287 23.8939 147.526 24.5146 147.784C25.0958 148.025 25.5554 148.17 25.8936 148.218C26.2259 148.252 26.488 148.205 26.6798 148.076C26.8659 147.934 27.0183 147.72 27.1369 147.435C27.2432 147.179 27.3106 146.947 27.3391 146.739C27.3577 146.527 27.3517 146.305 27.3211 146.073C27.2806 145.837 27.2257 145.566 27.1564 145.26L28.3026 145.545C28.5936 146.013 28.7838 146.542 28.8731 147.133C28.9526 147.721 28.8492 148.359 28.5629 149.049C28.1743 149.985 27.5612 150.516 26.7236 150.641C25.8901 150.757 24.8478 150.555 23.5967 150.036C22.6215 149.631 21.9038 149.218 21.4438 148.796C20.978 148.36 20.7178 147.888 20.663 147.38C20.6082 146.872 20.7076 146.313 20.9612 145.702ZM19.9929 139.981L30.3367 144.276L29.6188 146.005L28.1821 145.668L27.9214 145.837L23.1337 143.849L22.9784 143.681C22.6607 143.584 22.3451 143.482 22.0315 143.375C21.7122 143.253 21.39 143.125 21.0649 142.99L19.0848 142.168L19.9929 139.981Z" fill="#0600CC"/>
<path d="M25.4743 136.789L32.4169 140.567L31.2926 142.633L24.35 138.855L25.4743 136.789ZM22.097 135.698C22.3214 135.286 22.6443 135.194 23.0659 135.424L23.8108 135.829C24.2324 136.059 24.331 136.38 24.1067 136.792L23.6172 137.691C23.3929 138.103 23.0699 138.195 22.6483 137.965L21.9034 137.56C21.4818 137.331 21.3832 137.01 21.6075 136.598L22.097 135.698Z" fill="#0600CC"/>
<path d="M29.6102 130.002C30.4606 128.774 31.4865 128.577 32.6877 129.409L37.5538 132.78L36.2053 134.727L31.9441 131.775C31.6547 131.574 31.421 131.49 31.2429 131.522C31.056 131.549 30.8745 131.689 30.6983 131.943C30.5039 132.224 30.3605 132.553 30.2679 132.93C30.1666 133.301 30.078 133.784 30.0023 134.381L28.8469 133.716C28.7743 132.978 28.7998 132.295 28.9235 131.667C29.0533 131.031 29.2821 130.475 29.6102 130.002ZM27.7309 133.08L29.1747 133.749L29.455 133.71L34.4922 137.199L33.1436 139.146L26.6466 134.645L27.7309 133.08Z" fill="#0600CC"/>
<path d="M35.2406 123.221C35.8638 122.548 36.4191 122.074 36.9067 121.798C37.4015 121.515 37.8617 121.41 38.2872 121.485C38.72 121.551 39.1595 121.791 39.6057 122.204C40.0362 122.602 40.3087 123.014 40.4233 123.44C40.53 123.859 40.4575 124.33 40.206 124.853C39.9617 125.368 39.5279 125.962 38.9047 126.635C38.2815 127.308 37.7189 127.79 37.2169 128.081C36.7221 128.365 36.2583 128.473 35.8255 128.407C35.3999 128.333 34.968 128.093 34.5296 127.687C34.0913 127.281 33.8188 126.869 33.7121 126.45C33.6048 126.017 33.6769 125.538 33.9285 125.015C34.18 124.492 34.6174 123.894 35.2406 123.221ZM36.2982 124.222C35.8996 124.652 35.683 125.004 35.6482 125.277C35.6056 125.543 35.7291 125.81 36.0188 126.078C36.3084 126.346 36.588 126.453 36.8576 126.397C37.1271 126.341 37.4612 126.098 37.8598 125.668C38.2583 125.237 38.4713 124.889 38.4988 124.624C38.5264 124.359 38.3953 124.092 38.1057 123.824C37.8161 123.556 37.544 123.449 37.2895 123.504C37.0272 123.552 36.6967 123.791 36.2982 124.222ZM38.5345 119.969L39.1872 120.748L37.9521 122.483L36.6215 122.036L38.5345 119.969ZM36.9329 128.058L37.8899 127.331C37.8511 127.498 37.8765 127.667 37.966 127.837C38.0629 128 38.199 128.104 38.3744 128.15C38.5498 128.196 38.747 128.124 38.9661 127.935L41.191 126.026C41.8188 125.473 42.3895 125.202 42.9032 125.213C43.409 125.216 43.9281 125.464 44.4604 125.957C44.9613 126.42 45.2507 126.877 45.3284 127.327C45.4139 127.784 45.3011 128.283 44.9898 128.823C44.6785 129.364 44.1787 130.006 43.4903 130.749C42.9251 131.36 42.4264 131.836 41.9942 132.177C41.5771 132.518 41.1933 132.744 40.8428 132.855C40.4996 132.959 40.175 132.957 39.8688 132.848C39.5778 132.738 39.2718 132.535 38.9509 132.238C38.7082 132.013 38.5407 131.778 38.4482 131.532C38.3478 131.28 38.3214 130.986 38.3689 130.652C38.4237 130.311 38.5663 129.897 38.7967 129.413L39.2849 128.273L40.1075 127.879L39.978 128.632C39.9378 128.958 39.9106 129.23 39.8964 129.45C39.8816 129.654 39.8958 129.827 39.939 129.969C39.9895 130.103 40.093 130.242 40.2495 130.387C40.4296 130.554 40.6028 130.642 40.7692 130.65C40.9434 130.666 41.1403 130.587 41.3601 130.412C41.5948 130.237 41.8789 129.97 42.2122 129.61C42.5601 129.234 42.8122 128.922 42.9687 128.675C43.1331 128.434 43.2045 128.232 43.1831 128.066C43.1688 127.893 43.0756 127.727 42.9034 127.568C42.7547 127.43 42.6161 127.36 42.4877 127.357C42.3665 127.347 42.2251 127.398 42.0633 127.51C41.901 127.606 41.6919 127.762 41.4359 127.975L39.5516 129.61C39.2377 129.887 38.9345 130.049 38.642 130.098C38.3495 130.147 38.0767 130.12 37.8236 130.017C37.57 129.898 37.3598 129.733 37.1931 129.52C37.0264 129.308 36.9155 129.074 36.8604 128.82C36.8125 128.557 36.8367 128.304 36.9329 128.058Z" fill="#0600CC"/>
<path d="M46.6864 112.993C47.4705 112.386 48.2534 112.238 49.0349 112.55C49.8165 112.862 50.6222 113.553 51.452 114.624C52.0989 115.458 52.5168 116.18 52.7056 116.79C52.9029 117.393 52.8996 117.928 52.6958 118.397C52.4939 118.85 52.1315 119.279 51.6088 119.684C51.162 120.031 50.6872 120.297 50.1845 120.485C49.6818 120.672 49.1601 120.739 48.6195 120.685L48.0991 119.753C48.4426 119.621 48.7544 119.501 49.0343 119.392C49.3161 119.268 49.6045 119.092 49.8996 118.863C50.1694 118.654 50.3485 118.441 50.4368 118.224C50.5251 118.007 50.4985 117.738 50.3568 117.416C50.2171 117.079 49.9446 116.649 49.5395 116.126C49.1409 115.612 48.8034 115.246 48.5268 115.028C48.2438 114.802 47.9871 114.698 47.757 114.714C47.5203 114.722 47.2797 114.821 47.0352 115.01C46.7654 115.22 46.5591 115.467 46.4164 115.753C46.2672 116.031 46.1244 116.378 45.988 116.794L45.0813 116.12C45.0735 115.762 45.1316 115.393 45.2558 115.013C45.3884 114.627 45.5756 114.259 45.8176 113.91C46.0596 113.56 46.3492 113.255 46.6864 112.993ZM44.2115 115.154L45.2706 116.155L45.5947 116.208L48.7409 120.267L48.7953 120.468C49.0166 120.701 49.236 120.95 49.4535 121.213C49.686 121.478 49.9026 121.749 50.1032 122.025L51.2696 123.53L49.3979 124.981L42.6939 116.33L44.2115 115.154Z" fill="#0600CC"/>
<path d="M54.3793 107.72C54.938 107.366 55.4597 107.144 55.9442 107.051C56.4231 106.95 56.8757 107.017 57.3022 107.252C57.732 107.472 58.1437 107.894 58.5374 108.515L61.3273 112.923L59.732 113.932L58.5325 112.666L58.2689 112.548L56.5145 109.777C56.3148 109.462 56.0927 109.28 55.8482 109.233C55.6128 109.18 55.2877 109.285 54.8731 109.547C54.5307 109.764 54.1111 110.049 53.6145 110.401C53.1122 110.744 52.6021 111.105 52.0841 111.483L51.0562 110.278C51.3407 110.01 51.6805 109.719 52.0756 109.406C52.4707 109.093 52.8714 108.788 53.2779 108.493C53.6787 108.189 54.0458 107.931 54.3793 107.72ZM57.901 109.335L58.5978 110.466L55.6322 112.362C55.3889 112.516 55.2502 112.686 55.2162 112.871C55.1912 113.051 55.2415 113.24 55.367 113.439L55.5724 113.763C55.7151 113.988 55.8894 114.124 56.0954 114.17C56.2958 114.208 56.5357 114.138 56.8151 113.961C57.0494 113.813 57.2704 113.603 57.478 113.333C57.6946 113.057 57.8811 112.743 58.0373 112.392C58.1936 112.041 58.2984 111.678 58.3516 111.303L58.8993 112.168C58.9038 112.355 58.8905 112.603 58.8595 112.913C58.8318 113.208 58.7591 113.532 58.6412 113.884C58.5177 114.228 58.3365 114.57 58.0976 114.91C57.8587 115.251 57.532 115.552 57.1174 115.815C56.7119 116.072 56.3012 116.231 55.8855 116.292C55.4697 116.353 55.0788 116.304 54.7127 116.144C54.3465 115.985 54.0323 115.697 53.7698 115.283L53.3334 114.593C52.9967 114.062 52.9146 113.533 53.0868 113.007C53.259 112.482 53.6606 112.019 54.2915 111.62L57.901 109.335Z" fill="#0600CC"/>
<path d="M62.6754 102.977C63.4874 102.55 64.1692 102.288 64.7207 102.191C65.2816 102.089 65.7503 102.144 66.1268 102.356C66.5126 102.562 66.847 102.935 67.1299 103.473C67.4029 103.992 67.5223 104.472 67.4883 104.912C67.4493 105.342 67.224 105.761 66.8125 106.171C66.4103 106.575 65.8033 106.99 64.9913 107.417C64.1793 107.844 63.4881 108.111 62.9177 108.218C62.3568 108.32 61.8833 108.267 61.4974 108.06C61.121 107.849 60.7938 107.478 60.5159 106.95C60.238 106.421 60.1185 105.941 60.1575 105.511C60.201 105.067 60.4285 104.64 60.8401 104.231C61.2516 103.821 61.8634 103.403 62.6754 102.977ZM63.3387 104.273C62.8194 104.546 62.4978 104.805 62.374 105.051C62.2452 105.288 62.2726 105.58 62.4562 105.93C62.6398 106.279 62.868 106.472 63.1407 106.51C63.4134 106.547 63.8094 106.43 64.3287 106.157C64.848 105.884 65.1649 105.627 65.2793 105.386C65.3937 105.145 65.3591 104.85 65.1754 104.5C64.9918 104.151 64.7709 103.96 64.5125 103.927C64.2493 103.885 63.858 104 63.3387 104.273ZM66.8652 101.009L67.2209 101.961L65.478 103.185L64.3726 102.32L66.8652 101.009ZM62.6577 108.101L63.8025 107.735C63.71 107.88 63.6776 108.047 63.7054 108.238C63.7425 108.423 63.8361 108.567 63.9861 108.668C64.136 108.77 64.3459 108.768 64.6157 108.663L67.3497 107.605C68.1259 107.294 68.7544 107.229 69.2352 107.41C69.711 107.581 70.1176 107.988 70.4551 108.63C70.7727 109.235 70.8932 109.762 70.8164 110.212C70.7446 110.671 70.4719 111.104 69.9982 111.509C69.5245 111.915 68.8392 112.354 67.9422 112.825C67.2058 113.212 66.5769 113.494 66.0557 113.672C65.5488 113.854 65.1116 113.939 64.744 113.928C64.3858 113.911 64.0806 113.8 63.8283 113.596C63.5905 113.395 63.3698 113.102 63.1663 112.714C63.0125 112.422 62.9329 112.144 62.9276 111.882C62.9173 111.61 62.9902 111.325 63.1464 111.026C63.312 110.722 63.5842 110.38 63.963 110L64.8033 109.088L65.7103 108.991L65.3373 109.657C65.1906 109.951 65.0739 110.199 64.9874 110.402C64.9053 110.589 64.861 110.757 64.8545 110.905C64.8574 111.048 64.9084 111.214 65.0077 111.403C65.1218 111.62 65.2559 111.761 65.4099 111.824C65.5688 111.897 65.7809 111.888 66.0463 111.797C66.326 111.71 66.6831 111.553 67.1174 111.325C67.5706 111.086 67.9123 110.877 68.1424 110.695C68.3775 110.524 68.5124 110.356 68.5473 110.193C68.5916 110.025 68.5592 109.838 68.45 109.63C68.3557 109.451 68.2484 109.338 68.1282 109.293C68.0175 109.243 67.8672 109.243 67.6774 109.295C67.4921 109.332 67.2431 109.409 66.9306 109.525L64.6088 110.438C64.2207 110.594 63.8806 110.646 63.5885 110.595C63.2965 110.543 63.0484 110.427 62.8443 110.245C62.6447 110.048 62.5017 109.822 62.4154 109.566C62.3291 109.31 62.3024 109.053 62.3354 108.795C62.3778 108.532 62.4852 108.3 62.6577 108.101Z" fill="#0600CC"/>
<path d="M72.0565 98.4548C73.2743 97.912 74.2397 97.7329 74.9525 97.9174C75.6707 98.0877 76.2122 98.5821 76.577 99.4005C76.882 100.059 76.9378 100.629 76.7444 101.113C76.5467 101.586 76.0289 102.01 75.191 102.383L71.1575 104.181L70.6169 102.968L74.0513 101.437C74.3825 101.289 74.5616 101.128 74.5885 100.952C74.6208 100.763 74.5805 100.541 74.4676 100.288C74.3059 99.9514 74.0993 99.7632 73.848 99.7234C73.6021 99.6695 73.2551 99.7424 72.8069 99.9421C72.4075 100.12 72.1196 100.313 71.9433 100.52C71.7669 100.727 71.7022 101.001 71.7492 101.342C71.7961 101.683 71.9476 102.141 72.2038 102.716C72.473 103.32 72.735 103.764 72.9898 104.047C73.2403 104.321 73.5204 104.465 73.8302 104.478C74.1497 104.488 74.5384 104.391 74.9963 104.186C75.3276 104.039 75.7324 103.847 76.2109 103.61C76.6948 103.359 77.1721 103.094 77.6429 102.814L78.4402 104.053C78.2185 104.315 77.9447 104.566 77.619 104.804C77.2932 105.043 76.9469 105.262 76.5799 105.46C76.2173 105.668 75.8607 105.851 75.5099 106.007C74.5941 106.415 73.795 106.614 73.1127 106.603C72.4358 106.577 71.8469 106.343 71.3461 105.901C70.855 105.454 70.4162 104.797 70.0298 103.93C69.6086 102.985 69.4009 102.178 69.4067 101.51C69.4125 100.842 69.634 100.264 70.071 99.7776C70.5081 99.2909 71.1699 98.85 72.0565 98.4548Z" fill="#0600CC"/>
<path d="M94.2473 86.7831L97.1618 94.5075C97.256 94.757 97.3974 94.9203 97.586 94.9973C97.7747 95.0743 97.9988 95.0639 98.2583 94.966L101.866 93.6047L102.62 95.2867C101.942 95.6339 101.215 95.9594 100.441 96.2631C99.6798 96.573 98.9151 96.8729 98.1466 97.1628C97.3981 97.4453 96.754 97.4603 96.2141 97.208C95.6805 96.9419 95.2951 96.4945 95.0578 95.8657L91.9569 87.6473L94.2473 86.7831Z" fill="#0600CC"/>
<path d="M105.787 85.4553C106.401 85.211 106.955 85.0883 107.448 85.0873C107.938 85.0765 108.37 85.2259 108.746 85.5357C109.128 85.8316 109.454 86.3216 109.726 87.0055L111.653 91.8524L109.899 92.55L108.954 91.0833L108.717 90.9193L107.505 87.8714C107.367 87.5245 107.182 87.3053 106.951 87.2137C106.729 87.1181 106.39 87.161 105.934 87.3423C105.558 87.492 105.093 87.6941 104.54 87.9485C103.983 88.1929 103.415 88.4532 102.836 88.7293L102.048 87.355C102.377 87.1438 102.765 86.9207 103.211 86.6859C103.657 86.4512 104.108 86.2263 104.562 86.0113C105.012 85.7865 105.42 85.6011 105.787 85.4553ZM108.949 87.6932L109.425 88.9331L106.16 90.2485C105.893 90.3549 105.725 90.4962 105.657 90.6723C105.599 90.8445 105.614 91.0397 105.701 91.2577L105.842 91.6146C105.941 91.8624 106.087 92.0281 106.281 92.1117C106.471 92.1853 106.72 92.1611 107.027 92.0389C107.285 91.9365 107.541 91.7716 107.795 91.5443C108.058 91.3131 108.3 91.0393 108.518 90.7228C108.737 90.4064 108.907 90.069 109.028 89.7107L109.407 90.6623C109.377 90.8464 109.318 91.088 109.23 91.3869C109.148 91.6719 109.017 91.9767 108.836 92.3012C108.651 92.6157 108.41 92.9183 108.112 93.2088C107.814 93.4994 107.437 93.7353 106.982 93.9166C106.535 94.0939 106.103 94.1742 105.683 94.1575C105.263 94.1408 104.888 94.0202 104.557 93.7957C104.227 93.5712 103.971 93.2309 103.79 92.775L103.488 92.0167C103.256 91.4319 103.273 90.8972 103.539 90.4124C103.806 89.9277 104.286 89.5474 104.98 89.2715L108.949 87.6932Z" fill="#0600CC"/>
<path d="M115.943 81.2435C117.317 80.6583 118.291 81.0379 118.863 82.3823L121.183 87.8287L119.005 88.7568L116.973 83.9875C116.835 83.6636 116.682 83.4679 116.514 83.4003C116.342 83.3229 116.114 83.3448 115.829 83.466C115.515 83.5998 115.219 83.8016 114.939 84.0713C114.656 84.3312 114.323 84.6932 113.941 85.1574L113.318 83.9795C113.65 83.3163 114.035 82.752 114.475 82.2866C114.924 81.817 115.414 81.4693 115.943 81.2435ZM112.713 82.8458L113.578 84.1817L113.836 84.2979L116.238 89.9356L114.059 90.8637L110.961 83.592L112.713 82.8458Z" fill="#0600CC"/>
<path d="M121.995 78.5531C122.498 78.3204 123.016 78.1692 123.548 78.0997C124.09 78.0256 124.616 78.0704 125.126 78.2341L125.437 79.2888C125.063 79.3441 124.728 79.3935 124.43 79.4368C124.133 79.4802 123.81 79.5824 123.462 79.7435C123.162 79.8823 122.944 80.0474 122.809 80.2389C122.675 80.4305 122.635 80.7013 122.691 81.0514C122.747 81.4015 122.916 81.8816 123.198 82.4916C123.462 83.0629 123.702 83.4807 123.919 83.745C124.14 83.9952 124.365 84.1381 124.593 84.1738C124.826 84.1953 125.083 84.1411 125.364 84.0113C125.615 83.895 125.822 83.7701 125.984 83.6367C126.141 83.4935 126.287 83.3262 126.421 83.1347C126.552 82.9335 126.695 82.6969 126.851 82.4249L127.501 83.4113C127.399 83.9522 127.18 84.4704 126.845 84.966C126.505 85.4519 125.997 85.8515 125.319 86.1648C124.399 86.5899 123.589 86.565 122.887 86.09C122.196 85.6106 121.566 84.7561 120.997 83.5264C120.554 82.5678 120.307 81.7775 120.254 81.1555C120.207 80.5193 120.335 79.9959 120.639 79.5852C120.943 79.1746 121.395 78.8305 121.995 78.5531ZM125.158 73.6892L129.857 83.8559L128.158 84.6413L127.329 83.4203L127.023 83.3679L124.848 78.6622L124.848 78.4331C124.68 78.1464 124.517 77.8574 124.359 77.5662C124.206 77.2608 124.056 76.9484 123.908 76.6289L123.009 74.6827L125.158 73.6892Z" fill="#0600CC"/>
<path d="M131.365 74.2801L134.897 81.3511L132.793 82.4021L129.261 75.331L131.365 74.2801ZM129.22 71.4528C129.64 71.243 129.957 71.3529 130.172 71.7823L130.55 72.541C130.765 72.9704 130.662 73.2899 130.242 73.4996L129.326 73.9572C128.906 74.1669 128.589 74.0571 128.375 73.6277L127.996 72.869C127.781 72.4396 127.884 72.12 128.304 71.9103L129.22 71.4528Z" fill="#0600CC"/>
<path d="M138.181 70.4298C139.493 69.7156 140.498 70.0002 141.197 71.2835L144.028 76.4825L141.949 77.6151L139.469 73.0624C139.301 72.7533 139.13 72.5732 138.956 72.522C138.778 72.4614 138.552 72.5051 138.281 72.653C137.981 72.8163 137.705 73.0455 137.453 73.3408C137.196 73.6266 136.899 74.0189 136.563 74.5175L135.83 73.4049C136.097 72.7129 136.427 72.1143 136.819 71.6088C137.221 71.0983 137.675 70.7053 138.181 70.4298ZM135.119 72.3343L136.108 73.5813L136.376 73.6721L139.307 79.0537L137.228 80.1863L133.447 73.245L135.119 72.3343Z" fill="#0600CC"/>
<path d="M145.32 66.2108C146.098 65.725 146.758 65.4132 147.301 65.2756C147.853 65.1323 148.324 65.1523 148.715 65.3356C149.116 65.5133 149.477 65.8601 149.799 66.3758C150.109 66.8735 150.264 67.3428 150.263 67.7837C150.256 68.2156 150.062 68.6508 149.682 69.0894C149.311 69.5222 148.736 69.9816 147.958 70.4673C147.18 70.9531 146.511 71.2705 145.95 71.4195C145.398 71.5628 144.922 71.5456 144.522 71.3679C144.131 71.1845 143.777 70.8395 143.461 70.3328C143.144 69.8261 142.99 69.3568 142.997 68.9249C143.007 68.4783 143.202 68.0357 143.582 67.5972C143.962 67.1587 144.542 66.6966 145.32 66.2108ZM146.077 67.4543C145.58 67.765 145.278 68.0475 145.173 68.3019C145.062 68.5472 145.111 68.8372 145.32 69.172C145.529 69.5068 145.771 69.6827 146.046 69.6998C146.32 69.7169 146.706 69.5701 147.204 69.2594C147.702 68.9487 147.999 68.669 148.095 68.4203C148.191 68.1716 148.135 67.8799 147.926 67.5451C147.717 67.2104 147.482 67.0361 147.222 67.0224C146.956 66.9997 146.575 67.1436 146.077 67.4543ZM149.352 63.9385L149.777 64.8613L148.13 66.2105L146.963 65.4297L149.352 63.9385ZM145.682 71.3227L146.796 70.8721C146.715 71.0236 146.695 71.1932 146.737 71.3809C146.787 71.5629 146.891 71.6992 147.049 71.7898C147.206 71.8803 147.415 71.8629 147.676 71.7375L150.324 70.4804C151.075 70.1122 151.697 70.0005 152.19 70.1455C152.677 70.2814 153.113 70.657 153.497 71.2723C153.858 71.8514 154.018 72.3682 153.974 72.8227C153.937 73.2862 153.697 73.7378 153.255 74.1774C152.812 74.617 152.161 75.1052 151.302 75.6418C150.596 76.0824 149.99 76.4106 149.483 76.6263C148.991 76.8454 148.562 76.9627 148.194 76.9784C147.836 76.9884 147.523 76.9006 147.256 76.715C147.004 76.5329 146.762 76.2563 146.531 75.8853C146.356 75.6049 146.256 75.334 146.231 75.0728C146.201 74.8026 146.252 74.5126 146.386 74.2028C146.528 73.8875 146.775 73.5263 147.124 73.1195L147.895 72.148L148.792 71.984L148.469 72.6758C148.345 72.9799 148.247 73.2359 148.176 73.4439C148.108 73.6372 148.076 73.808 148.08 73.9561C148.094 74.0985 148.157 74.2603 148.27 74.4412C148.4 74.6493 148.544 74.7794 148.702 74.8315C148.866 74.8926 149.077 74.8679 149.335 74.7572C149.607 74.6499 149.952 74.4664 150.368 74.2065C150.802 73.9354 151.128 73.7009 151.344 73.5032C151.565 73.3145 151.688 73.1376 151.71 72.9725C151.742 72.8018 151.696 72.6169 151.571 72.4178C151.464 72.2459 151.349 72.1419 151.226 72.1056C151.111 72.0637 150.962 72.0755 150.776 72.141C150.594 72.1918 150.352 72.2866 150.048 72.4256L147.801 73.5082C147.425 73.6923 147.09 73.7696 146.795 73.74C146.5 73.7105 146.244 73.6126 146.027 73.4463C145.813 73.2652 145.654 73.0503 145.549 72.8015C145.444 72.5527 145.398 72.2983 145.412 72.0383C145.434 71.7726 145.524 71.534 145.682 71.3227Z" fill="#0600CC"/>
<path d="M157.456 57.6402C158.235 57.0256 159.016 56.8707 159.8 57.1757C160.585 57.4806 161.396 58.1647 162.236 59.228C162.89 60.0568 163.314 60.7751 163.509 61.3827C163.711 61.9838 163.713 62.5194 163.513 62.9895C163.316 63.4447 162.957 63.8772 162.438 64.2869C161.994 64.6372 161.522 64.9082 161.021 65.0999C160.52 65.2915 159.999 65.3631 159.458 65.3146L158.929 64.3866C159.271 64.2523 159.582 64.1293 159.861 64.0179C160.142 63.8914 160.428 63.7125 160.721 63.4812C160.989 63.2697 161.167 63.0551 161.253 62.8374C161.339 62.6198 161.31 62.3505 161.166 62.0297C161.023 61.694 160.747 61.2665 160.337 60.7475C159.934 60.2368 159.593 59.8739 159.314 59.6588C159.029 59.4354 158.772 59.333 158.542 59.3515C158.305 59.3616 158.065 59.4625 157.823 59.6542C157.555 59.8657 157.351 60.1151 157.211 60.4024C157.064 60.6813 156.924 61.0294 156.792 61.4466L155.879 60.781C155.868 60.4228 155.923 60.0533 156.043 59.6726C156.172 59.2853 156.356 58.9158 156.595 58.5642C156.834 58.2126 157.121 57.9046 157.456 57.6402ZM155 59.8233L156.068 60.8148L156.393 60.8643L159.575 64.8956L159.632 65.0959C159.855 65.3272 160.077 65.5735 160.296 65.8348C160.531 66.0979 160.75 66.3667 160.953 66.6412L162.133 68.1357L160.274 69.6029L153.493 61.013L155 59.8233Z" fill="#0600CC"/>
<path d="M164.542 51.2437C165.014 50.7808 165.478 50.4537 165.932 50.2622C166.379 50.0632 166.836 50.0339 167.302 50.1745C167.769 50.2999 168.259 50.6255 168.774 51.1513L172.425 54.8771L171.076 56.1984L169.638 55.2106L169.356 55.1512L167.06 52.8082C166.799 52.5415 166.544 52.4107 166.295 52.4157C166.054 52.4132 165.758 52.5837 165.407 52.927C165.118 53.2107 164.767 53.5767 164.355 54.0251C163.936 54.4658 163.512 54.9253 163.085 55.4037L161.828 54.4404C162.05 54.1183 162.321 53.7628 162.642 53.3739C162.963 52.985 163.291 52.6036 163.627 52.2299C163.955 51.8486 164.26 51.5198 164.542 51.2437ZM168.324 52.0857L169.241 53.0455L166.738 55.5203C166.533 55.7219 166.432 55.917 166.438 56.1056C166.451 56.2868 166.54 56.4612 166.704 56.6288L166.973 56.9031C167.16 57.0936 167.359 57.1899 167.57 57.1921C167.773 57.1866 167.993 57.0682 168.23 56.8368C168.428 56.6427 168.6 56.3918 168.746 56.084C168.901 55.7688 169.017 55.423 169.096 55.0467C169.176 54.6704 169.202 54.2935 169.176 53.9161L169.893 54.6475C169.936 54.829 169.975 55.0746 170.009 55.3842C170.044 55.6787 170.041 56.0105 169.999 56.3797C169.95 56.7413 169.845 57.1136 169.682 57.4966C169.52 57.8796 169.264 58.2428 168.913 58.5862C168.57 58.9221 168.202 59.1635 167.808 59.3103C167.414 59.4571 167.022 59.4908 166.63 59.4114C166.239 59.3319 165.872 59.117 165.528 58.7665L164.957 58.1836C164.517 57.734 164.326 57.2342 164.384 56.6842C164.443 56.1342 164.739 55.5979 165.272 55.0754L168.324 52.0857Z" fill="#0600CC"/>
<path d="M170.534 44.4841C171.101 43.763 171.616 43.2457 172.08 42.9319C172.551 42.6099 173.001 42.4687 173.431 42.5084C173.868 42.5398 174.325 42.7434 174.803 43.1193C175.264 43.4819 175.569 43.8709 175.717 44.2862C175.857 44.6948 175.823 45.1699 175.614 45.7114C175.412 46.2445 175.027 46.8715 174.46 47.5926C173.893 48.3136 173.371 48.8394 172.894 49.1699C172.424 49.492 171.97 49.6373 171.533 49.606C171.103 49.5662 170.653 49.3617 170.184 48.9924C169.714 48.6232 169.409 48.2342 169.269 47.8255C169.128 47.4019 169.161 46.9193 169.37 46.3779C169.579 45.8364 169.967 45.2051 170.534 44.4841ZM171.668 45.3967C171.306 45.8579 171.118 46.2259 171.105 46.5009C171.084 46.7693 171.229 47.0255 171.539 47.2695C171.849 47.5135 172.136 47.5969 172.401 47.5197C172.665 47.4426 172.978 47.1734 173.341 46.7123C173.704 46.2511 173.888 45.8873 173.894 45.6207C173.9 45.3541 173.748 45.0988 173.438 44.8548C173.128 44.6108 172.848 44.5265 172.599 44.6019C172.341 44.6707 172.031 44.9356 171.668 45.3967ZM173.556 40.9781L174.269 41.7018L173.177 43.5301L171.815 43.1915L173.556 40.9781ZM172.609 49.1697L173.505 48.3677C173.479 48.5378 173.518 48.7041 173.621 48.8665C173.731 49.0205 173.875 49.1134 174.053 49.1453C174.232 49.1771 174.423 49.0897 174.626 48.8831L176.69 46.8019C177.272 46.2007 177.819 45.8847 178.332 45.8538C178.836 45.8163 179.373 46.0217 179.943 46.4701C180.48 46.8921 180.805 47.3242 180.919 47.7664C181.041 48.2152 180.968 48.7214 180.701 49.285C180.435 49.8487 179.988 50.5287 179.361 51.3252C178.847 51.9792 178.388 52.4936 177.985 52.8685C177.596 53.2415 177.232 53.4977 176.892 53.6372C176.558 53.7682 176.234 53.7917 175.92 53.7077C175.621 53.6219 175.3 53.4438 174.956 53.1734C174.696 52.969 174.51 52.7482 174.399 52.5109C174.278 52.267 174.228 51.9767 174.249 51.64C174.276 51.2949 174.385 50.8717 174.576 50.3704L174.971 49.1951L175.759 48.7363L175.69 49.4965C175.676 49.8248 175.671 50.0989 175.675 50.3188C175.676 50.5237 175.705 50.695 175.759 50.8328C175.82 50.9623 175.934 51.0929 176.102 51.2248C176.295 51.3765 176.475 51.45 176.641 51.4452C176.816 51.4471 177.006 51.3523 177.211 51.1606C177.431 50.9672 177.693 50.6777 177.996 50.292C178.312 49.8896 178.539 49.5587 178.675 49.2993C178.819 49.0466 178.874 48.8387 178.84 48.6758C178.812 48.5044 178.705 48.3462 178.521 48.2011C178.362 48.0758 178.218 48.017 178.09 48.0248C177.968 48.0241 177.831 48.0861 177.679 48.2106C177.525 48.3202 177.329 48.4917 177.091 48.7252L175.344 50.5064C175.053 50.807 174.764 50.9935 174.477 51.0659C174.189 51.1382 173.915 51.133 173.654 51.0502C173.392 50.9524 173.169 50.8043 172.986 50.6059C172.803 50.4076 172.673 50.1837 172.598 49.9345C172.529 49.6768 172.533 49.4219 172.609 49.1697Z" fill="#0600CC"/>
<path d="M176.069 36.2178C176.733 35.0617 177.408 34.3482 178.092 34.0772C178.773 33.7916 179.502 33.872 180.279 34.3184C180.913 34.6704 181.294 35.0986 181.423 35.603C181.542 36.1021 181.373 36.7493 180.916 37.5447L178.717 41.3739L177.565 40.7123L179.438 37.452C179.619 37.1376 179.668 36.9015 179.587 36.7439C179.501 36.5717 179.338 36.4165 179.097 36.2784C178.768 36.1017 178.491 36.0713 178.264 36.1872C178.034 36.2885 177.796 36.5519 177.552 36.9774C177.334 37.3566 177.215 37.6818 177.194 37.953C177.174 38.2241 177.283 38.4837 177.522 38.7317C177.761 38.9796 178.153 39.2603 178.699 39.5738C179.272 39.9033 179.746 40.1074 180.118 40.1863C180.482 40.2599 180.793 40.211 181.052 40.0396C181.315 39.859 181.572 39.5513 181.822 39.1166C182.002 38.8021 182.216 38.4083 182.463 37.9353C182.707 37.4476 182.936 36.952 183.151 36.4484L184.526 36.9795C184.501 37.3221 184.427 37.6857 184.305 38.0705C184.182 38.4552 184.031 38.8359 183.852 39.2125C183.681 39.5945 183.501 39.952 183.309 40.2849C182.81 41.1544 182.281 41.7856 181.723 42.1785C181.161 42.557 180.548 42.715 179.883 42.6526C179.223 42.581 178.481 42.3087 177.658 41.8358C176.761 41.3204 176.117 40.791 175.728 40.2477C175.339 39.7044 175.178 39.1073 175.244 38.4565C175.311 37.8057 175.586 37.0595 176.069 36.2178Z" fill="#0600CC"/>
<path d="M180.701 13.3485L188.881 14.4602C189.146 14.4961 189.357 14.4494 189.514 14.3201C189.672 14.1908 189.769 13.9887 189.806 13.7139L190.326 9.89303L192.164 10.0298C192.146 10.7917 192.087 11.5856 191.986 12.4115C191.896 13.2282 191.796 14.0435 191.685 14.8573C191.578 15.6501 191.285 16.2238 190.806 16.5786C190.318 16.9213 189.741 17.0475 189.075 16.957L180.371 15.7743L180.701 13.3485Z" fill="#0600CC"/>
<path d="M184.391 3.03247C184.404 2.37126 184.505 1.81312 184.696 1.35806C184.875 0.902788 185.18 0.561979 185.612 0.335632C186.032 0.098413 186.611 -0.0130591 187.346 0.0012153L192.561 0.102378L192.525 1.99002L190.807 2.29276L190.564 2.44807L187.284 2.38446C186.911 2.37722 186.637 2.46259 186.463 2.64058C186.289 2.8079 186.197 3.13685 186.188 3.62743C186.18 4.03268 186.186 4.53957 186.206 5.14807C186.216 5.75637 186.236 6.38088 186.266 7.02158L184.694 7.21513C184.627 6.82975 184.571 6.38593 184.528 5.88366C184.484 5.38138 184.451 4.87932 184.429 4.37746C184.396 3.87539 184.383 3.42706 184.391 3.03247ZM187.679 0.983858L189.007 1.02561L188.955 4.54526C188.949 4.83321 189.014 5.04251 189.15 5.17318C189.287 5.29318 189.472 5.35545 189.707 5.36L190.091 5.36745C190.358 5.37262 190.567 5.30201 190.719 5.1556C190.861 5.00898 190.935 4.77037 190.941 4.43977C190.946 4.16248 190.894 3.86274 190.782 3.54052C190.672 3.20764 190.513 2.87916 190.305 2.55508C190.098 2.23101 189.853 1.94353 189.57 1.69266L190.594 1.71252C190.752 1.8116 190.952 1.95951 191.193 2.15623C191.424 2.34208 191.655 2.58125 191.884 2.87375C192.102 3.16604 192.287 3.5057 192.44 3.89273C192.592 4.27976 192.664 4.71857 192.654 5.20914C192.645 5.68905 192.551 6.11931 192.373 6.49993C192.195 6.88055 191.939 7.17963 191.604 7.39718C191.269 7.61472 190.856 7.71873 190.366 7.70922L189.55 7.69339C188.92 7.68119 188.434 7.45838 188.09 7.02496C187.747 6.59155 187.582 6.00158 187.597 5.25505L187.679 0.983858Z" fill="#0600CC"/>
</svg>
