<svg width="171" height="175" viewBox="0 0 171 175" fill="none" xmlns="http://www.w3.org/2000/svg">
<path d="M15 177.703C19.3333 151.87 21.5 117.203 85.5 94.2034C146.5 72.2815 186 50.7034 186 1.70337" stroke="#F3F4F9" stroke-width="30"/>
<path d="M11.2836 172.061C11.3664 171.545 11.4524 171.11 11.5415 170.757C11.6217 170.392 11.7127 170.061 11.8144 169.764C11.916 169.467 12.0405 169.163 12.1877 168.851L13.9266 169.325C13.8497 169.669 13.7824 169.988 13.7245 170.281C13.6683 170.564 13.6132 170.874 13.5591 171.211C13.4961 171.535 13.4274 171.929 13.3531 172.393C13.2668 172.93 13.3045 173.368 13.4661 173.707C13.6294 174.036 13.9642 174.306 14.4705 174.517C14.9663 174.726 15.6723 174.904 16.5886 175.051C17.5048 175.198 18.2364 175.251 18.7833 175.209C19.3196 175.166 19.7168 175.013 19.9748 174.752C20.2344 174.481 20.4074 174.076 20.4936 173.539C20.6103 172.813 20.6978 172.2 20.7562 171.702C20.8146 171.203 20.8564 170.708 20.8815 170.215L22.6838 170.293C22.7606 170.824 22.7884 171.358 22.767 171.895C22.7562 172.433 22.6882 173.092 22.5631 173.871C22.3822 174.998 22.0577 175.875 21.5898 176.502C21.1129 177.117 20.4393 177.512 19.5688 177.685C18.6999 177.848 17.5704 177.818 16.1802 177.595C14.79 177.372 13.7079 177.047 12.9337 176.62C12.1613 176.183 11.6501 175.598 11.4002 174.867C11.1415 174.123 11.1026 173.188 11.2836 172.061Z" fill="#0600CC"/>
<path d="M16.1289 162.66C16.2601 162.001 16.4583 161.47 16.7236 161.066C16.9805 160.649 17.3411 160.368 17.8054 160.221C18.2613 160.061 18.8502 160.054 19.572 160.197L24.6876 161.215L24.3191 163.067L22.5744 163.062L22.3109 163.157L19.094 162.517C18.7258 162.454 18.4403 162.495 18.2375 162.64C18.0368 162.774 17.8896 163.076 17.7959 163.547C17.7147 163.955 17.6304 164.46 17.5431 165.063C17.4453 165.663 17.3549 166.281 17.2718 166.917L15.6903 166.831C15.692 166.44 15.7156 165.993 15.7612 165.491C15.8068 164.989 15.8628 164.489 15.9293 163.991C15.9853 163.491 16.0518 163.048 16.1289 162.66ZM19.7267 161.223L21.026 161.498L20.3577 164.938C20.3014 165.22 20.3288 165.438 20.4398 165.59C20.5508 165.743 20.7214 165.842 20.9516 165.888L21.3282 165.963C21.5897 166.015 21.8083 165.982 21.9839 165.865C22.1512 165.735 22.266 165.513 22.3285 165.2C22.3826 164.928 22.3834 164.623 22.3308 164.286C22.2803 163.939 22.1816 163.588 22.0349 163.232C21.8881 162.877 21.6974 162.551 21.4629 162.254L22.4672 162.454C22.6074 162.569 22.7791 162.744 22.9823 162.981C23.177 163.204 23.3613 163.48 23.5353 163.808C23.6987 164.135 23.8204 164.507 23.9003 164.925C23.9822 165.333 23.9753 165.778 23.8795 166.259C23.7858 166.73 23.6178 167.137 23.3755 167.48C23.1331 167.823 22.8279 168.072 22.4599 168.227C22.0919 168.383 21.6672 168.412 21.186 168.317L20.3857 168.157C19.7685 168.034 19.3289 167.729 19.067 167.242C18.805 166.755 18.7469 166.145 18.8927 165.413L19.7267 161.223Z" fill="#0600CC"/>
<path d="M19.6248 150.042L27.2111 152.261L26.6292 154.308L22.6518 153.145C22.447 153.085 22.2489 153.021 22.0574 152.954C21.8688 152.877 21.6664 152.79 21.4502 152.693L21.4322 152.755C21.5985 152.87 21.7727 153.015 21.9548 153.191C22.1266 153.363 22.2743 153.523 22.398 153.671L25.6124 157.728L25.0331 159.709L17.4468 157.49L18.0396 155.463L22.1245 156.658C22.3088 156.712 22.4916 156.771 22.6729 156.835C22.8439 156.896 23.0273 156.972 23.2231 157.062L23.2366 157.016C23.066 156.878 22.9123 156.738 22.7754 156.598C22.6313 156.445 22.4975 156.295 22.3738 156.147L19.05 152.008L19.6248 150.042ZM15.4912 151.751L15.9223 150.277C16.36 150.338 16.7296 150.518 17.031 150.818C17.3354 151.107 17.5419 151.484 17.6504 151.949C17.7618 152.404 17.7352 152.913 17.5706 153.476C17.4059 154.039 17.1526 154.487 16.8106 154.821C16.4686 155.154 16.09 155.366 15.6748 155.455C15.2596 155.545 14.8496 155.503 14.4448 155.329L14.8804 153.839C15.3219 154.002 15.672 154.021 15.9306 153.896C16.182 153.759 16.3601 153.511 16.4649 153.152C16.5667 152.804 16.5473 152.51 16.4066 152.269C16.2558 152.024 15.9506 151.852 15.4912 151.751Z" fill="#0600CC"/>
<path d="M22.2796 143.471L29.5605 146.547L28.639 148.728L21.3581 145.653L22.2796 143.471ZM23.3007 141.054L24.9809 141.764L22.0109 148.794L20.3307 148.085L23.3007 141.054Z" fill="#0600CC"/>
<path d="M29.1855 136.856L30.4964 137.594L28.1592 141.75L26.8482 141.012L29.1855 136.856Z" fill="#0600CC"/>
<path d="M30.2657 129.737C30.7785 129.042 31.2309 128.527 31.6229 128.193C32.0149 127.859 32.4018 127.694 32.7837 127.698C33.157 127.695 33.5669 127.858 34.0133 128.187C34.4683 128.522 34.7326 128.883 34.8061 129.268C34.8796 129.654 34.7542 130.112 34.4299 130.641L34.4814 130.679C34.959 130.104 35.4323 129.803 35.9014 129.778C36.3683 129.738 36.855 129.905 37.3615 130.278C37.7993 130.601 38.0731 130.949 38.1828 131.321C38.2902 131.679 38.2455 132.09 38.0487 132.554C37.8582 133.01 37.5288 133.556 37.0603 134.191C36.6868 134.698 36.3533 135.141 36.0598 135.521C35.7749 135.907 35.5004 136.261 35.2363 136.584C34.9872 136.904 34.7274 137.229 34.457 137.56L33.3571 136.49C33.505 136.307 33.7763 135.958 34.1711 135.44C34.5636 134.908 35.0257 134.281 35.5575 133.56C35.7538 133.294 35.8906 133.064 35.968 132.869C36.0453 132.674 36.0535 132.501 35.9926 132.35C35.9231 132.193 35.7853 132.038 35.5792 131.886C35.2702 131.658 35.0008 131.592 34.7712 131.688C34.5393 131.769 34.2683 132.02 33.9581 132.44L31.8024 135.363L30.7465 134.585L32.9021 131.661C33.0921 131.404 33.2237 131.19 33.2969 131.018C33.3617 130.841 33.3647 130.684 33.306 130.548C33.2472 130.412 33.1278 130.277 32.9475 130.144C32.7672 130.011 32.6045 129.944 32.4594 129.943C32.3144 129.942 32.1645 130.011 32.0099 130.149C31.853 130.272 31.6701 130.475 31.4612 130.758C31.1361 131.181 30.85 131.56 30.6031 131.894C30.3562 132.229 30.1346 132.53 29.9384 132.796C29.7421 133.062 29.5682 133.325 29.4167 133.584L28.0828 132.859C28.285 132.531 28.4894 132.218 28.6961 131.919C28.9091 131.613 29.1422 131.288 29.3954 130.944C29.6401 130.594 29.9302 130.192 30.2657 129.737ZM29.4028 131.069L35.777 135.77L34.457 137.56L28.0828 132.859L29.4028 131.069Z" fill="#0600CC"/>
<path d="M39.437 119.557L45.0967 125.074L43.6227 126.609L40.6554 123.717C40.5026 123.568 40.3574 123.419 40.2197 123.27C40.0895 123.113 39.9515 122.941 39.8058 122.754L39.7612 122.8C39.854 122.98 39.9396 123.19 40.0181 123.431C40.089 123.664 40.1444 123.874 40.1845 124.062L41.1206 129.153L39.6798 130.631L34.0201 125.114L35.4944 123.601L38.5419 126.572C38.6794 126.706 38.8132 126.844 38.9432 126.986C39.0656 127.12 39.192 127.273 39.3224 127.445L39.3559 127.41C39.2704 127.208 39.2 127.013 39.1448 126.825C39.0894 126.622 39.0417 126.426 39.0016 126.238L38.0074 121.024L39.437 119.557Z" fill="#0600CC"/>
<path d="M43.1857 116.161C43.9033 115.572 44.5144 115.14 45.0192 114.864C45.5322 114.581 45.9858 114.478 46.3799 114.555C46.7754 114.617 47.166 114.883 47.5516 115.353C47.9304 115.815 48.108 116.242 48.0844 116.633C48.0691 117.018 47.8392 117.428 47.3946 117.861L47.4352 117.911C48.0231 117.484 48.5408 117.308 48.9882 117.382C49.4438 117.45 49.8779 117.735 50.2905 118.238C50.6828 118.717 50.874 119.16 50.864 119.568C50.8554 119.962 50.6746 120.372 50.3216 120.8C49.9769 121.22 49.4829 121.694 48.8396 122.222C48.4024 122.58 47.9394 122.933 47.4505 123.278C46.9616 123.624 46.4497 123.934 45.9149 124.207L45.024 122.868C45.4619 122.578 45.9096 122.266 46.3671 121.932C46.8177 121.59 47.2286 121.267 47.5998 120.963C48.0204 120.618 48.2711 120.343 48.3519 120.139C48.4327 119.935 48.3615 119.696 48.1383 119.424C47.9895 119.243 47.8483 119.138 47.7147 119.109C47.5825 119.066 47.4246 119.092 47.2408 119.188C47.0503 119.275 46.8148 119.434 46.5344 119.664L44.745 121.09L43.8318 119.976L45.5581 118.498C45.8056 118.295 45.9817 118.123 46.0866 117.982C46.1998 117.834 46.2473 117.699 46.2291 117.576C46.2125 117.438 46.1399 117.29 46.0114 117.133C45.8693 116.96 45.7315 116.859 45.5979 116.831C45.4642 116.803 45.3048 116.844 45.1196 116.954C44.9358 117.05 44.6954 117.219 44.3985 117.463C44.0274 117.767 43.6623 118.087 43.3032 118.423C42.9523 118.752 42.642 119.055 42.3721 119.332L41.2338 118.196C41.5417 117.764 41.876 117.373 42.2366 117.022C42.6054 116.664 42.9218 116.377 43.1857 116.161Z" fill="#0600CC"/>
<path d="M54.6878 108.071L59.0834 114.64L57.3237 115.837L55.0191 112.393C54.9005 112.215 54.7893 112.039 54.6854 111.865C54.5904 111.685 54.491 111.488 54.3871 111.275L54.3339 111.311C54.3875 111.506 54.4278 111.729 54.4549 111.981C54.476 112.223 54.4867 112.441 54.487 112.633L54.3494 117.808L52.634 118.955L48.2385 112.386L49.9938 111.212L52.3606 114.749C52.4674 114.909 52.5697 115.071 52.6676 115.237C52.7596 115.393 52.8516 115.569 52.9436 115.764L52.9835 115.738C52.9417 115.522 52.9133 115.316 52.8982 115.121C52.886 114.911 52.8797 114.71 52.8794 114.517L52.9857 109.21L54.6878 108.071Z" fill="#0600CC"/>
<path d="M60.8933 104.531L64.7508 111.43L62.6839 112.585L58.8265 105.686L60.8933 104.531ZM63.1836 103.25L64.0738 104.842L57.4124 108.567L56.5222 106.975L63.1836 103.25Z" fill="#0600CC"/>
<path d="M72.167 98.9441C72.2494 99.5661 72.3171 100.095 72.37 100.53C72.4229 100.965 72.4462 101.338 72.4397 101.648C72.4383 101.944 72.3996 102.198 72.3235 102.411C72.2475 102.624 72.1169 102.822 71.9318 103.004C71.7563 103.182 71.5187 103.365 71.2189 103.555L71.2463 103.613C71.5969 103.505 71.9013 103.438 72.1595 103.41C72.4228 103.368 72.673 103.385 72.9099 103.461C73.1423 103.528 73.3877 103.66 73.646 103.856C73.9043 104.052 74.204 104.323 74.5451 104.669C74.8862 105.015 75.2993 105.451 75.7846 105.976L73.5582 107.032C73.1288 106.574 72.7669 106.197 72.4725 105.9C72.1877 105.598 71.9398 105.362 71.7287 105.19C71.5176 105.019 71.3242 104.91 71.1486 104.863C70.9827 104.812 70.811 104.811 70.6334 104.859C70.4609 104.894 70.259 104.966 70.0277 105.076L69.3065 103.629C69.5956 103.492 69.8135 103.342 69.96 103.178C70.1066 103.014 70.1968 102.806 70.2307 102.554C70.2697 102.287 70.2647 101.953 70.2159 101.551C70.1721 101.135 70.0996 100.609 69.9984 99.9723L72.167 98.9441ZM67.5551 101.131L68.4257 102.967C68.5491 103.227 68.6481 103.511 68.7228 103.818C68.8026 104.11 68.8491 104.395 68.8624 104.672C69.0543 104.853 69.2408 105.059 69.422 105.292C69.5987 105.515 69.735 105.728 69.8309 105.931L70.9414 108.273L68.8017 109.287L65.4154 102.145L67.5551 101.131ZM69.8703 103.362L70.5626 104.822L69.0012 105.563L68.3089 104.102L69.8703 103.362Z" fill="#0600CC"/>
<path d="M78.2905 96.2073C78.9134 95.9553 79.4665 95.8293 79.9498 95.8293C80.439 95.8155 80.8724 95.9624 81.25 96.2699C81.6334 96.5635 81.9632 97.0515 82.2392 97.7337L84.1955 102.569L82.4453 103.277L81.4917 101.816L81.2682 101.648L80.0381 98.607C79.8882 98.2649 79.6972 98.0488 79.465 97.9586C79.2428 97.8644 78.9092 97.9073 78.4643 98.0873C78.0786 98.2434 77.61 98.4502 77.0584 98.7079C76.5028 98.9557 75.9363 99.2194 75.3591 99.499L74.5633 98.1295C74.8913 97.9163 75.2776 97.6909 75.7224 97.4534C76.1671 97.216 76.6158 96.9884 77.0686 96.7707C77.5173 96.5431 77.9246 96.3553 78.2905 96.2073ZM81.4665 98.4261L81.9497 99.6631L78.7075 100.992C78.4405 101.1 78.2737 101.242 78.2071 101.419C78.1404 101.596 78.1511 101.793 78.2391 102.01L78.3831 102.366C78.4831 102.613 78.6304 102.778 78.8248 102.861C79.0251 102.929 79.2736 102.903 79.5703 102.783C79.8273 102.679 80.0822 102.513 80.3348 102.284C80.5974 102.051 80.8369 101.776 81.0536 101.458C81.2702 101.141 81.4382 100.802 81.5576 100.443L81.9417 101.392C81.9226 101.573 81.87 101.813 81.7841 102.112C81.704 102.398 81.5745 102.703 81.3955 103.029C81.2125 103.344 80.9681 103.65 80.6623 103.947C80.3663 104.239 79.9909 104.477 79.5361 104.661C79.0911 104.841 78.6586 104.924 78.2387 104.91C77.8187 104.896 77.4429 104.777 77.1112 104.555C76.7795 104.332 76.5217 103.994 76.3377 103.539L76.0316 102.782C75.7956 102.199 75.8093 101.664 76.0728 101.178C76.3363 100.692 76.8141 100.308 77.5063 100.028L81.4665 98.4261Z" fill="#0600CC"/>
<path d="M101.837 84.0372C102.324 83.847 102.742 83.7009 103.092 83.5987C103.447 83.4828 103.779 83.3934 104.087 83.3305C104.394 83.2676 104.719 83.2208 105.062 83.1899L105.535 84.9289C105.2 85.0371 104.891 85.1406 104.609 85.2393C104.337 85.3341 104.042 85.4437 103.724 85.5678C103.412 85.6782 103.037 85.8188 102.6 85.9895C102.093 86.1874 101.735 86.442 101.524 86.7533C101.324 87.0607 101.261 87.486 101.336 88.0294C101.406 88.5628 101.611 89.2617 101.948 90.1261C102.286 90.9905 102.611 91.6478 102.925 92.098C103.234 92.5383 103.567 92.8035 103.922 92.8935C104.288 92.9797 104.724 92.9238 105.231 92.7259C105.917 92.4581 106.489 92.2231 106.948 92.0208C107.408 91.8186 107.856 91.6033 108.294 91.3752L109.139 92.9687C108.721 93.304 108.275 93.5985 107.801 93.8521C107.331 94.1157 106.729 94.3911 105.994 94.6783C104.931 95.0935 104.01 95.2583 103.232 95.1728C102.461 95.0734 101.779 94.6925 101.189 94.0301C100.608 93.3637 100.061 92.3748 99.5489 91.0633C99.0366 89.7518 98.7682 88.6542 98.7438 87.7706C98.7292 86.883 98.9739 86.1462 99.4778 85.56C99.9878 84.96 100.774 84.4524 101.837 84.0372Z" fill="#0600CC"/>
<path d="M111.821 83.3636C112.441 83.1057 112.993 82.9744 113.477 82.9699C113.966 82.9514 114.4 83.0941 114.781 83.398C115.167 83.6879 115.502 84.1727 115.784 84.8523L117.786 89.6687L116.043 90.3935L115.076 88.9416L114.851 88.7753L113.591 85.7466C113.438 85.4059 113.245 85.1916 113.012 85.1037C112.789 85.0116 112.456 85.0577 112.013 85.2419C111.629 85.4016 111.162 85.613 110.613 85.8759C110.06 86.129 109.496 86.3981 108.921 86.6832L108.112 85.3213C108.438 85.1049 108.822 84.8759 109.265 84.6342C109.707 84.3925 110.154 84.1607 110.605 83.9387C111.051 83.7068 111.457 83.5151 111.821 83.3636ZM115.018 85.552L115.513 86.7844L112.284 88.1443C112.018 88.2549 111.852 88.3987 111.787 88.5759C111.722 88.7531 111.735 88.95 111.825 89.1667L111.972 89.5213C112.075 89.7675 112.224 89.9309 112.419 90.0115C112.62 90.0781 112.868 90.05 113.163 89.9272C113.42 89.8207 113.673 89.6519 113.923 89.4207C114.184 89.1854 114.42 88.9079 114.634 88.588C114.848 88.2682 115.012 87.9282 115.128 87.5681L115.521 88.5137C115.504 88.6942 115.454 88.9345 115.371 89.2348C115.293 89.5211 115.167 89.8278 114.991 90.1551C114.811 90.4725 114.57 90.7808 114.267 91.08C113.973 91.3752 113.6 91.617 113.147 91.8053C112.704 91.9896 112.272 92.0766 111.852 92.0664C111.432 92.0563 111.055 91.9415 110.721 91.7221C110.388 91.5028 110.127 91.1666 109.938 90.7135L109.625 89.96C109.383 89.3789 109.392 88.844 109.651 88.3551C109.91 87.8663 110.384 87.4786 111.073 87.192L115.018 85.552Z" fill="#0600CC"/>
<path d="M124.174 78.174L127.422 85.3798L125.489 86.2688L123.786 82.4909C123.698 82.2964 123.618 82.1046 123.544 81.9154C123.48 81.7219 123.415 81.5116 123.348 81.2845L123.289 81.3108C123.31 81.5121 123.313 81.739 123.298 81.9914C123.278 82.2341 123.253 82.4503 123.221 82.64L122.229 87.7204L120.348 88.5685L117.1 81.3627L119.025 80.4948L120.774 84.3749C120.853 84.5499 120.927 84.7272 120.996 84.9066C121.061 85.0763 121.123 85.265 121.181 85.4726L121.225 85.4529C121.219 85.233 121.225 85.0256 121.243 84.8306C121.266 84.6214 121.293 84.422 121.324 84.2323L122.307 79.0155L124.174 78.174ZM120.188 76.1446L121.589 75.5134C121.827 75.8858 121.93 76.2839 121.899 76.7075C121.877 77.1268 121.725 77.5288 121.442 77.9137C121.169 78.2942 120.765 78.605 120.23 78.8461C119.695 79.0871 119.19 79.1862 118.714 79.1432C118.239 79.1002 117.832 78.9501 117.494 78.693C117.155 78.436 116.921 78.0971 116.79 77.6765L118.205 77.0388C118.368 77.4798 118.582 77.7581 118.844 77.8737C119.112 77.9752 119.416 77.9492 119.757 77.7958C120.087 77.6468 120.299 77.4404 120.39 77.1768C120.478 76.9034 120.41 76.5593 120.188 76.1446Z" fill="#0600CC"/>
<path d="M130.34 75.1703L133.837 82.2584L131.714 83.3062L128.216 76.2181L130.34 75.1703ZM132.693 74.0092L133.5 75.645L126.656 79.0219L125.849 77.3862L132.693 74.0092Z" fill="#0600CC"/>
<path d="M141.021 69.3257C141.768 68.8928 142.389 68.6016 142.881 68.4519C143.374 68.3023 143.795 68.3052 144.143 68.4607C144.487 68.6069 144.798 68.92 145.076 69.4001C145.359 69.8893 145.457 70.3254 145.371 70.7082C145.284 71.0911 144.987 71.4606 144.478 71.8167L144.51 71.8721C145.178 71.5349 145.731 71.4484 146.172 71.6126C146.616 71.7623 146.995 72.1094 147.311 72.6541C147.583 73.1249 147.695 73.5529 147.647 73.9382C147.603 74.3089 147.398 74.6679 147.032 75.0153C146.676 75.3574 146.156 75.7261 145.473 76.1216C144.928 76.4369 144.445 76.7102 144.025 76.9415C143.609 77.182 143.216 77.3972 142.845 77.5872C142.489 77.781 142.121 77.9756 141.741 78.1709L141.16 76.7513C141.368 76.6429 141.757 76.4304 142.325 76.1136C142.897 75.7822 143.571 75.3921 144.347 74.9432C144.633 74.7775 144.85 74.6208 144.999 74.4731C145.148 74.3254 145.224 74.1702 145.229 74.0074C145.228 73.8354 145.163 73.6387 145.035 73.4171C144.842 73.0848 144.622 72.9167 144.373 72.9128C144.128 72.8943 143.78 73.016 143.327 73.2779L140.184 75.0977L139.527 73.9622L142.67 72.1425C142.947 71.9821 143.153 71.8381 143.289 71.7103C143.419 71.5733 143.484 71.4307 143.485 71.2825C143.485 71.1343 143.429 70.9633 143.317 70.7694C143.205 70.5756 143.082 70.4493 142.95 70.3905C142.817 70.3317 142.652 70.3346 142.456 70.3992C142.263 70.4493 142.014 70.5625 141.709 70.7388C141.242 70.9968 140.829 71.23 140.469 71.4385C140.109 71.6469 139.786 71.8339 139.5 71.9996C139.213 72.1653 138.949 72.3368 138.707 72.5141L137.773 71.3167C138.089 71.0967 138.402 70.8911 138.71 70.7002C139.028 70.5039 139.372 70.2989 139.741 70.0851C140.105 69.8621 140.531 69.609 141.021 69.3257ZM139.698 70.2025L143.666 77.0566L141.741 78.1709L137.773 71.3167L139.698 70.2025Z" fill="#0600CC"/>
<path d="M152.474 62.1139L156.888 68.6708L155.132 69.8723L152.818 66.4346C152.699 66.2576 152.587 66.0821 152.482 65.908C152.387 65.728 152.287 65.5317 152.183 65.3192L152.129 65.3549C152.184 65.5499 152.225 65.7731 152.252 66.0244C152.274 66.2669 152.285 66.4843 152.286 66.6766L152.163 71.8515L150.451 73.004L146.037 66.4471L147.789 65.2678L150.166 68.7984C150.273 68.9577 150.376 69.1199 150.474 69.2852C150.566 69.4415 150.659 69.6172 150.751 69.812L150.791 69.7852C150.749 69.5694 150.72 69.3639 150.704 69.1688C150.691 68.9588 150.685 68.7576 150.684 68.5653L150.775 63.2575L152.474 62.1139Z" fill="#0600CC"/>
<path d="M156.613 58.6998C157.337 58.1204 157.954 57.6958 158.462 57.4261C158.979 57.1497 159.433 57.0525 159.827 57.1342C160.221 57.201 160.609 57.4718 160.988 57.9467C161.361 58.4133 161.533 58.8423 161.505 59.2338C161.485 59.6186 161.25 60.025 160.8 60.4529L160.84 60.5029C161.433 60.0833 161.953 59.9136 162.399 59.9937C162.854 60.0672 163.285 60.358 163.691 60.8662C164.077 61.3495 164.263 61.7952 164.248 62.2033C164.234 62.5964 164.048 63.0045 163.69 63.4275C163.34 63.8438 162.84 64.3118 162.19 64.8313C161.749 65.1843 161.281 65.5306 160.788 65.8703C160.295 66.21 159.779 66.513 159.241 66.7793L158.367 65.4297C158.808 65.145 159.26 64.8386 159.721 64.5106C160.176 64.1742 160.591 63.8562 160.966 63.5565C161.391 63.2168 161.645 62.9454 161.729 62.7421C161.812 62.5389 161.744 62.2999 161.524 62.0249C161.377 61.8416 161.238 61.735 161.104 61.7049C160.973 61.6599 160.814 61.684 160.63 61.7772C160.438 61.8621 160.2 62.0178 159.917 62.2443L158.11 63.6479L157.211 62.5232L158.956 61.067C159.206 60.8672 159.384 60.6973 159.49 60.5574C159.605 60.4109 159.655 60.276 159.638 60.1527C159.623 60.0144 159.552 59.8661 159.426 59.7078C159.286 59.5329 159.149 59.4304 159.016 59.4003C158.883 59.3703 158.723 59.4094 158.536 59.5176C158.351 59.6108 158.109 59.7773 157.809 60.0171C157.434 60.3168 157.065 60.6324 156.702 60.9638C156.347 61.2885 156.033 61.5874 155.759 61.8605L154.635 60.7107C154.949 60.2826 155.288 59.8955 155.653 59.5491C156.026 59.196 156.346 58.913 156.613 58.6998Z" fill="#0600CC"/>
<path d="M166.813 49.6832L172.344 55.3292L170.836 56.8299L167.935 53.8697C167.786 53.7173 167.644 53.565 167.51 53.4128C167.384 53.2531 167.25 53.0782 167.108 52.8882L167.063 52.933C167.151 53.1149 167.232 53.327 167.305 53.5691C167.37 53.8036 167.421 54.0153 167.457 54.2043L168.276 59.3154L166.801 60.7598L161.27 55.1139L162.779 53.6358L165.757 56.676C165.891 56.8131 166.022 56.954 166.149 57.0986C166.268 57.2356 166.391 57.3915 166.517 57.5663L166.552 57.5327C166.471 57.3282 166.405 57.1314 166.354 56.9423C166.303 56.7381 166.26 56.5416 166.224 56.3526L165.35 51.1165L166.813 49.6832Z" fill="#0600CC"/>
<path d="M171.165 44.4074L177.337 49.3452L175.858 51.1942L169.686 46.2564L171.165 44.4074ZM172.805 42.3584L174.229 43.4979L169.461 49.4573L168.037 48.3178L172.805 42.3584Z" fill="#0600CC"/>
<path d="M177.756 34.1795C178.172 34.6493 178.524 35.0499 178.811 35.3813C179.098 35.7127 179.326 36.0087 179.493 36.2695C179.657 36.5155 179.768 36.7482 179.824 36.9674C179.88 37.1866 179.882 37.4235 179.83 37.6781C179.784 37.9235 179.689 38.2084 179.547 38.533L179.602 38.5656C179.832 38.2808 180.047 38.0547 180.246 37.8872C180.44 37.705 180.657 37.5795 180.897 37.5105C181.127 37.4361 181.404 37.4081 181.728 37.4265C182.052 37.4449 182.452 37.5023 182.928 37.5985C183.404 37.6948 183.99 37.8252 184.686 37.9898L183.429 40.1094C182.818 39.9699 182.307 39.8592 181.897 39.7773C181.492 39.6861 181.154 39.6285 180.883 39.6043C180.612 39.5801 180.391 39.5978 180.219 39.6572C180.053 39.7075 179.91 39.8024 179.79 39.9421C179.666 40.0672 179.539 40.2398 179.409 40.46L178.002 39.6635C178.165 39.3882 178.262 39.1417 178.292 38.9238C178.322 38.706 178.28 38.483 178.168 38.2549C178.051 38.0122 177.86 37.7379 177.595 37.432C177.326 37.1115 176.972 36.7155 176.532 36.244L177.756 34.1795ZM175.154 38.57L176.902 39.6062C177.149 39.7531 177.39 39.9329 177.623 40.1457C177.853 40.3439 178.051 40.5541 178.217 40.7764C178.477 40.8189 178.747 40.8861 179.027 40.9779C179.298 41.0643 179.53 41.1646 179.723 41.2788L181.953 42.6006L180.745 44.6375L173.946 40.607L175.154 38.57ZM178.32 39.1267L179.71 39.9508L178.829 41.4372L177.439 40.6132L178.32 39.1267Z" fill="#0600CC"/>
<path d="M180.042 28.1053C180.289 27.4806 180.58 26.9933 180.913 26.6436C181.241 26.28 181.646 26.0677 182.129 26.0066C182.606 25.9317 183.187 26.0298 183.871 26.3008L188.721 28.2216L188.026 29.977L186.31 29.6589L186.034 29.7044L182.984 28.4965C182.633 28.3689 182.345 28.358 182.12 28.4638C181.898 28.5596 181.699 28.8306 181.522 29.2769C181.369 29.6637 181.195 30.1456 181.001 30.7226C180.797 31.2958 180.597 31.8877 180.401 32.4984L178.861 32.1293C178.933 31.7448 179.036 31.3096 179.171 30.8239C179.306 30.3382 179.451 29.8563 179.606 29.3785C179.751 28.8966 179.896 28.4723 180.042 28.1053ZM183.839 27.3379L185.068 27.8418L183.793 31.1054C183.686 31.3732 183.674 31.5921 183.756 31.7622C183.838 31.9322 183.988 32.0605 184.206 32.1469L184.563 32.2883C184.811 32.3865 185.032 32.3937 185.226 32.3098C185.414 32.2121 185.566 32.0145 185.684 31.717C185.786 31.4592 185.842 31.1599 185.851 30.8192C185.863 30.4685 185.829 30.1052 185.749 29.7291C185.668 29.353 185.539 28.9979 185.362 28.6638L186.314 29.0409C186.431 29.1791 186.569 29.3827 186.726 29.6515C186.877 29.9065 187.009 30.2111 187.121 30.5653C187.224 30.9156 187.276 31.3036 187.28 31.7295C187.287 32.1454 187.2 32.5815 187.02 33.0377C186.843 33.4839 186.605 33.8541 186.304 34.1483C186.004 34.4425 185.659 34.6328 185.269 34.7193C184.88 34.8058 184.457 34.7587 184 34.578L183.242 34.2775C182.657 34.0457 182.279 33.6667 182.109 33.1404C181.939 32.6141 181.991 32.0038 182.266 31.3096L183.839 27.3379Z" fill="#0600CC"/>
<path d="M181.272 3.33846C181.282 2.81589 181.307 2.37362 181.346 2.01164C181.374 1.63879 181.418 1.29824 181.478 0.990003C181.537 0.681762 181.618 0.36327 181.72 0.034528L183.508 0.261246C183.48 0.612766 183.458 0.937728 183.441 1.23613C183.425 1.52387 183.414 1.83838 183.407 2.17964C183.39 2.51004 183.377 2.90986 183.368 3.37911C183.357 3.92301 183.456 4.35166 183.663 4.66507C183.87 4.96782 184.239 5.18836 184.77 5.32668C185.29 5.46479 186.014 5.54284 186.942 5.56084C187.87 5.57884 188.602 5.52902 189.137 5.41139C189.662 5.29355 190.035 5.0874 190.254 4.79292C190.473 4.48779 190.588 4.06327 190.598 3.51937C190.613 2.78351 190.614 2.16475 190.602 1.6631C190.591 1.16145 190.563 0.664815 190.519 0.173206L192.315 0C192.465 0.515007 192.567 1.03975 192.62 1.57422C192.685 2.1089 192.709 2.77084 192.694 3.56002C192.672 4.70114 192.473 5.61478 192.097 6.30095C191.71 6.97625 191.098 7.46047 190.26 7.75361C189.423 8.03608 188.3 8.16366 186.892 8.13636C185.484 8.10905 184.367 7.93802 183.541 7.62328C182.716 7.29786 182.128 6.79037 181.779 6.1008C181.419 5.40036 181.25 4.47958 181.272 3.33846Z" fill="#0600CC"/>
</svg>
