<svg width="171" height="172" viewBox="0 0 171 172" fill="none" xmlns="http://www.w3.org/2000/svg">
<path d="M15 176C19.3333 150.167 21.5 115.5 85.5 92.5C146.5 70.5781 186 49 186 0" stroke="#F3F4F9" stroke-width="30"/>
<path d="M11.3341 169.449C11.4865 168.501 11.6918 167.762 11.9501 167.231C12.1995 166.688 12.5499 166.323 13.0013 166.136C13.4527 165.949 14.0522 165.916 14.7999 166.036C15.5792 166.161 16.1497 166.41 16.5113 166.781C16.8641 167.141 17.017 167.667 16.9702 168.362L17.0649 168.377C17.2741 167.547 17.6533 167.003 18.2025 166.745C18.7411 166.486 19.4475 166.427 20.3216 166.568C21.0693 166.688 21.6274 166.913 21.9958 167.242C22.3658 167.561 22.5911 168.007 22.6715 168.582C22.7431 169.145 22.7087 169.863 22.5681 170.737C22.4546 171.443 22.3503 172.058 22.2551 172.583C22.1721 173.099 22.0845 173.576 21.9923 174.015C21.9002 174.454 21.801 174.903 21.6949 175.361L20.0585 174.855C20.1097 174.604 20.1981 174.121 20.3238 173.407C20.4512 172.682 20.5919 171.84 20.746 170.882C20.8172 170.439 20.8309 170.085 20.7873 169.819C20.7437 169.552 20.619 169.354 20.413 169.224C20.1983 169.081 19.8803 168.976 19.459 168.908C19.0062 168.835 18.6554 168.833 18.4068 168.901C18.1477 168.967 17.9495 169.125 17.8124 169.373C17.677 169.61 17.5676 169.955 17.4842 170.406L16.8492 174.355L15.3169 174.109L15.9468 170.191C15.999 169.8 16.0059 169.487 15.9678 169.254C15.9313 169.011 15.8154 168.825 15.62 168.696C15.4246 168.567 15.1374 168.473 14.7582 168.412C14.3686 168.349 14.0652 168.354 13.8482 168.427C13.6223 168.488 13.4531 168.634 13.3404 168.864C13.2277 169.095 13.1367 169.426 13.0672 169.858C12.9724 170.447 12.8886 170.969 12.8158 171.421C12.7429 171.874 12.683 172.281 12.636 172.64C12.5784 172.998 12.5356 173.332 12.5075 173.641L10.7949 173.608C10.8205 173.18 10.8594 172.771 10.9115 172.379C10.9548 171.976 11.0137 171.542 11.0882 171.079C11.1522 170.614 11.2342 170.071 11.3341 169.449ZM11.176 171.239L22.0759 172.992L21.6949 175.361L10.7949 173.608L11.176 171.239Z" fill="#0600CC"/>
<path d="M16.2284 159.488C16.4982 158.171 16.9156 157.277 17.4805 156.805C18.035 156.33 18.7522 156.178 19.6321 156.347C20.3448 156.482 20.8414 156.769 21.1217 157.208C21.3916 157.644 21.4345 158.312 21.2504 159.21L20.3608 163.552L19.0598 163.286L19.8177 159.586C19.8884 159.242 19.8613 159.002 19.7364 158.867C19.6011 158.731 19.3965 158.64 19.1226 158.595C18.7569 158.52 18.4847 158.573 18.306 158.754C18.1191 158.923 17.9753 159.252 17.8746 159.744C17.7869 160.172 17.7758 160.518 17.8415 160.782C17.9094 161.036 18.0956 161.242 18.4003 161.403C18.705 161.563 19.1656 161.707 19.7821 161.833C20.43 161.966 20.9433 162.011 21.3222 161.969C21.6905 161.925 21.9705 161.78 22.162 161.537C22.3557 161.282 22.5017 160.915 22.6002 160.434C22.6751 160.068 22.7557 159.622 22.8418 159.095C22.9197 158.556 22.9818 158.013 23.0283 157.468L24.4964 157.556C24.5828 157.879 24.6282 158.242 24.6325 158.646C24.6369 159.049 24.613 159.458 24.5609 159.872C24.5192 160.288 24.4587 160.69 24.3795 161.076C24.1804 162.048 23.8777 162.808 23.4714 163.356C23.0568 163.892 22.5238 164.235 21.8725 164.384C21.2234 164.524 20.4338 164.498 19.5038 164.307C18.4901 164.1 17.7134 163.799 17.1734 163.405C16.6334 163.012 16.2928 162.495 16.1514 161.857C16.0101 161.218 16.0358 160.428 16.2284 159.488Z" fill="#0600CC"/>
<path d="M16.0158 145.85L17.8574 146.006C17.9494 146.402 17.9882 146.77 17.9741 147.112C17.963 147.443 17.9279 147.761 17.8689 148.066C17.7996 148.368 17.7355 148.672 17.6764 148.977C17.6103 149.269 17.5716 149.581 17.5605 149.912C17.5544 150.3 17.599 150.631 17.6943 150.905C17.7896 151.179 17.9208 151.409 18.0879 151.593C18.2478 151.764 18.4308 151.914 18.6369 152.044C18.803 152.194 18.9784 152.314 19.1631 152.404C19.3376 152.49 19.507 152.575 19.6712 152.658L19.6851 152.612C19.5518 152.426 19.4368 152.236 19.3403 152.039C19.2336 151.84 19.155 151.621 19.1045 151.383C19.0571 151.134 19.0461 150.858 19.0714 150.553C19.0999 150.239 19.1728 149.888 19.2903 149.5C19.5315 148.703 19.8457 148.108 20.233 147.712C20.6202 147.317 21.1102 147.097 21.7029 147.054C22.2853 147.008 23.0053 147.114 23.8629 147.374C24.7102 147.631 25.3908 147.959 25.9047 148.36C26.4083 148.758 26.7247 149.277 26.8538 149.918C26.9859 150.549 26.9067 151.344 26.616 152.304C26.3903 153.049 26.1216 153.642 25.8098 154.082C25.5012 154.513 25.1606 154.827 24.7882 155.027C24.4189 155.216 24.0099 155.315 23.5614 155.324C23.1159 155.323 22.642 155.268 22.1396 155.161C21.6404 155.043 21.1151 154.901 20.5638 154.734C19.8084 154.505 19.1352 154.262 18.5443 154.005C17.9432 153.745 17.4322 153.445 17.0111 153.106C16.5901 152.767 16.2667 152.362 16.0412 151.893C15.8187 151.413 15.6966 150.841 15.6748 150.177C15.6708 149.785 15.6942 149.414 15.7452 149.061C15.7962 148.709 15.8559 148.365 15.9242 148.029C15.9956 147.683 16.045 147.335 16.0725 146.987C16.1031 146.629 16.0842 146.249 16.0158 145.85ZM20.5888 150.512C20.4558 150.951 20.4268 151.304 20.5017 151.572C20.5797 151.829 20.7594 152.046 21.0409 152.22C21.3153 152.381 21.7129 152.541 22.2335 152.698C22.8256 152.878 23.304 152.972 23.6687 152.982C24.0232 152.99 24.2993 152.906 24.497 152.732C24.6844 152.555 24.8353 152.277 24.9497 151.899C25.061 151.532 25.0879 151.222 25.0303 150.971C24.9626 150.716 24.7792 150.493 24.4804 150.303C24.1815 150.112 23.731 149.925 23.1287 149.743C22.5672 149.573 22.1209 149.482 21.7899 149.471C21.4589 149.46 21.2064 149.54 21.0322 149.71C20.8479 149.877 20.7001 150.144 20.5888 150.512Z" fill="#0600CC"/>
<path d="M25.4965 141.048L26.8819 141.633L25.0265 146.025L23.641 145.44L25.4965 141.048Z" fill="#0600CC"/>
<path d="M25.5568 133.915C25.6927 133.673 25.8583 133.411 26.0535 133.13C26.2446 132.833 26.4564 132.555 26.6888 132.294C26.9171 132.018 27.1577 131.786 27.4104 131.598L28.5819 132.551C28.3582 132.927 28.1476 133.279 27.9501 133.609C27.7525 133.938 27.578 134.238 27.4263 134.507C27.191 134.926 27.0586 135.292 27.029 135.606C27.0046 135.91 27.1078 136.194 27.3385 136.459C27.5599 136.718 27.9216 136.989 28.4236 137.271C28.935 137.559 29.3635 137.732 29.7093 137.792C30.055 137.852 30.3516 137.792 30.5991 137.613C30.8519 137.425 31.0959 137.122 31.3312 136.703C31.4148 136.555 31.5174 136.361 31.6388 136.124C31.7602 135.886 31.8921 135.63 32.0344 135.355C32.1675 135.075 32.2886 134.794 32.3978 134.513L33.8185 135.055C33.7767 135.521 33.6597 136.012 33.4674 136.528C33.2751 137.044 33.0482 137.534 32.7868 137.999C32.3058 138.855 31.8052 139.473 31.2852 139.853C30.7611 140.219 30.1714 140.365 29.516 140.29C28.8605 140.215 28.0912 139.929 27.208 139.433C26.3247 138.936 25.6809 138.427 25.2764 137.906C24.872 137.385 24.6973 136.803 24.7525 136.161C24.8076 135.519 25.0757 134.77 25.5568 133.915Z" fill="#0600CC"/>
<path d="M30.8538 126.05C31.6674 124.98 32.4311 124.355 33.1449 124.174C33.8502 123.987 34.5626 124.16 35.2822 124.694C35.866 125.125 36.1892 125.598 36.2519 126.115C36.306 126.625 36.0554 127.246 35.5001 127.976L32.817 131.503L31.76 130.699L34.0459 127.694C34.259 127.414 34.3384 127.186 34.2842 127.011C34.2214 126.829 34.0764 126.658 33.8492 126.499C33.5521 126.273 33.2837 126.203 33.0442 126.289C32.8027 126.36 32.5301 126.594 32.2266 126.993C31.9619 127.342 31.8019 127.649 31.7468 127.915C31.6981 128.173 31.7763 128.44 31.9814 128.717C32.1864 128.993 32.5394 129.322 33.0403 129.703C33.5667 130.103 34.0097 130.367 34.3694 130.493C34.7206 130.613 35.0353 130.604 35.3136 130.467C35.5983 130.322 35.8892 130.054 36.1863 129.664C36.4123 129.366 36.6782 128.999 36.9841 128.562C37.288 128.109 37.5791 127.647 37.8575 127.176L39.1423 127.891C39.0804 128.22 38.9639 128.567 38.7929 128.932C38.6219 129.298 38.4232 129.656 38.1968 130.007C37.9789 130.364 37.7505 130.699 37.5116 131.013C36.911 131.803 36.3089 132.357 35.7051 132.675C35.0993 132.978 34.4705 133.056 33.8187 132.908C33.1733 132.753 32.4728 132.387 31.7172 131.813C30.8937 131.186 30.3239 130.579 30.0079 129.99C29.6919 129.401 29.6086 128.788 29.7579 128.151C29.9073 127.514 30.2726 126.814 30.8538 126.05Z" fill="#0600CC"/>
<path d="M38.1619 117.916C38.8696 117.206 39.631 116.956 40.4459 117.166C41.2609 117.375 42.1481 117.958 43.1077 118.915C43.8557 119.66 44.3622 120.323 44.6272 120.903C44.8922 121.484 44.9534 122.019 44.811 122.509C44.6685 122.985 44.3638 123.457 43.897 123.925C43.5055 124.318 43.0686 124.643 42.5863 124.901C42.1115 125.15 41.6064 125.279 41.0709 125.288L40.4246 124.44C40.7561 124.259 41.0538 124.096 41.3175 123.952C41.5737 123.801 41.8335 123.593 42.0971 123.329C42.338 123.087 42.4885 122.853 42.5484 122.627C42.6084 122.4 42.5476 122.136 42.366 121.835C42.1845 121.518 41.8595 121.127 41.391 120.66C40.9301 120.201 40.5487 119.881 40.2467 119.7C39.9371 119.512 39.6692 119.441 39.443 119.487C39.2168 119.517 38.9945 119.642 38.7762 119.861C38.5277 120.111 38.3509 120.386 38.2459 120.688C38.1332 120.982 38.0358 121.345 37.9536 121.775L36.9683 121.222C36.9149 120.868 36.9256 120.494 37.0003 120.102C37.0826 119.702 37.2215 119.313 37.4169 118.936C37.6124 118.558 37.8607 118.219 38.1619 117.916ZM35.9826 120.375L37.172 121.222L37.4888 121.244L41.1268 124.869L41.2063 125.061C41.4555 125.265 41.7048 125.483 41.9541 125.716C42.2185 125.95 42.4678 126.191 42.7021 126.439L44.0507 127.783L42.3905 129.449L34.6386 121.724L35.9826 120.375Z" fill="#0600CC"/>
<path d="M45.2489 111.919C45.9264 111.383 46.498 111.005 46.9639 110.786C47.4298 110.567 47.8466 110.509 48.2142 110.613C48.5752 110.708 48.9279 110.973 49.2721 111.408C49.623 111.851 49.7833 112.268 49.753 112.66C49.7226 113.051 49.4815 113.459 49.0295 113.885L49.0692 113.935C49.6811 113.505 50.2167 113.34 50.676 113.439C51.137 113.523 51.5628 113.812 51.9534 114.305C52.2911 114.732 52.4639 115.139 52.4719 115.527C52.4816 115.9 52.3306 116.285 52.0187 116.682C51.7151 117.072 51.2539 117.512 50.635 118.002C50.1416 118.392 49.7034 118.732 49.3204 119.022C48.944 119.32 48.5861 119.589 48.2467 119.831C47.9223 120.074 47.5862 120.32 47.2384 120.568L46.4581 119.247C46.6487 119.11 47.0024 118.843 47.5192 118.448C48.0377 118.037 48.6483 117.554 49.3508 116.998C49.6101 116.793 49.8026 116.606 49.9284 116.439C50.0542 116.271 50.1075 116.106 50.0884 115.945C50.0626 115.775 49.9703 115.589 49.8114 115.389C49.573 115.087 49.3305 114.953 49.0838 114.985C48.8388 115.002 48.5114 115.173 48.1016 115.497L45.2539 117.751L44.4395 116.723L47.2873 114.468C47.5382 114.27 47.7215 114.098 47.8372 113.952C47.9463 113.797 47.9904 113.647 47.9695 113.5C47.9486 113.353 47.8686 113.192 47.7296 113.016C47.5905 112.841 47.4512 112.733 47.3114 112.694C47.1717 112.655 47.0091 112.682 46.8238 112.774C46.6401 112.852 46.4103 113 46.1343 113.218C45.7095 113.541 45.334 113.831 45.0078 114.089C44.6817 114.348 44.3889 114.579 44.1297 114.785C43.8704 114.99 43.6336 115.198 43.4193 115.408L42.3227 114.358C42.604 114.095 42.8834 113.846 43.1612 113.613C43.4473 113.373 43.7576 113.12 44.0921 112.855C44.4201 112.582 44.8056 112.27 45.2489 111.919ZM44.0665 112.978L48.9822 119.187L47.2384 120.568L42.3227 114.358L44.0665 112.978Z" fill="#0600CC"/>
<path d="M56.589 104.211L60.8584 110.863L59.0762 112.026L56.8378 108.539C56.7225 108.359 56.6147 108.181 56.5142 108.005C56.4226 107.823 56.327 107.624 56.2271 107.41L56.1733 107.444C56.2231 107.64 56.2592 107.864 56.2814 108.116C56.2979 108.359 56.3045 108.577 56.3012 108.769L56.0648 113.94L54.3279 115.055L50.0584 108.403L51.8358 107.262L54.1347 110.844C54.2384 111.006 54.3377 111.17 54.4324 111.337C54.5214 111.496 54.61 111.673 54.6983 111.87L54.7387 111.844C54.7011 111.628 54.6765 111.421 54.6651 111.226C54.6569 111.016 54.6545 110.815 54.6579 110.622L54.8654 105.318L56.589 104.211Z" fill="#0600CC"/>
<path d="M61.9444 101.031C62.1884 100.899 62.4682 100.766 62.7837 100.632C63.1035 100.484 63.4313 100.361 63.7671 100.264C64.1073 100.153 64.4344 100.086 64.7486 100.062L65.2307 101.492C64.8409 101.691 64.4745 101.877 64.1316 102.05C63.7886 102.223 63.4811 102.383 63.209 102.53C62.7866 102.758 62.4792 102.997 62.2867 103.247C62.1035 103.491 62.0389 103.787 62.0928 104.133C62.1417 104.471 62.303 104.893 62.5768 105.399C62.8557 105.916 63.1253 106.291 63.3857 106.526C63.6461 106.761 63.9287 106.869 64.2336 106.85C64.5478 106.826 64.9161 106.7 65.3384 106.472C65.4886 106.39 65.6784 106.282 65.908 106.146C66.1375 106.01 66.3858 105.863 66.6529 105.707C66.9149 105.541 67.1672 105.368 67.4097 105.189L68.3216 106.406C68.0375 106.777 67.6764 107.13 67.2383 107.464C66.8003 107.797 66.3466 108.091 65.8774 108.344C65.014 108.811 64.2609 109.066 63.618 109.111C62.9794 109.14 62.403 108.949 61.8887 108.535C61.3745 108.122 60.8766 107.47 60.3949 106.578C59.9132 105.687 59.6405 104.913 59.5768 104.256C59.513 103.599 59.6758 103.014 60.0652 102.501C60.4546 101.987 61.081 101.497 61.9444 101.031Z" fill="#0600CC"/>
<path d="M85.2171 87.6406C86.1202 87.315 86.8666 87.1366 87.4563 87.1054C88.0524 87.0606 88.5415 87.1904 88.9234 87.4949C89.3053 87.7994 89.6247 88.3079 89.8816 89.0204C90.1493 89.7629 90.2082 90.3823 90.0583 90.8786C89.9148 91.3612 89.5278 91.7502 88.8973 92.0455L88.9298 92.1358C89.7579 91.9167 90.4175 91.985 90.9087 92.3408C91.3962 92.6866 91.7901 93.276 92.0904 94.1088C92.3472 94.8213 92.4208 95.4184 92.311 95.9002C92.2113 96.3783 91.9295 96.7918 91.4656 97.1404C91.0081 97.4755 90.3629 97.7931 89.5301 98.0934C88.8578 98.3358 88.2689 98.5424 87.7636 98.7133C87.2719 98.8906 86.8117 99.0451 86.383 99.177C85.9544 99.3089 85.5138 99.4394 85.0615 99.5685L84.712 97.8916C84.9565 97.8148 85.4217 97.6584 86.1076 97.4224C86.8036 97.1828 87.6082 96.8984 88.5213 96.5692C88.9427 96.4173 89.2594 96.2577 89.4713 96.0906C89.6832 95.9235 89.7963 95.7183 89.8106 95.475C89.8314 95.2181 89.7694 94.8889 89.6247 94.4876C89.4691 94.0561 89.3013 93.7481 89.1214 93.5635C88.9379 93.3689 88.7044 93.2716 88.421 93.2718C88.1476 93.2683 87.7933 93.3393 87.3582 93.4848L83.5953 94.8415L83.0689 93.3815L86.8017 92.0357C87.1694 91.8918 87.4459 91.7467 87.6313 91.6005C87.8267 91.4507 87.9334 91.2592 87.9514 91.0259C87.9693 90.7927 87.9132 90.4954 87.7829 90.1342C87.6491 89.7629 87.4976 89.5 87.3285 89.3456C87.1659 89.1774 86.9565 89.0999 86.7004 89.1128C86.4442 89.1258 86.1105 89.2064 85.6991 89.3548C85.1371 89.5574 84.6404 89.7365 84.209 89.892C83.7775 90.0476 83.393 90.1919 83.0554 90.3249C82.7142 90.448 82.4018 90.5719 82.118 90.6969L81.317 89.1829C81.7039 88.998 82.0812 88.8336 82.4488 88.6897C82.8229 88.5322 83.2307 88.3738 83.6722 88.2146C84.1101 88.0454 84.6251 87.8541 85.2171 87.6406ZM83.5747 88.3689L87.3192 98.7544L85.0615 99.5685L81.317 89.1829L83.5747 88.3689Z" fill="#0600CC"/>
<path d="M96.0511 86.9022C97.3089 86.4287 98.2881 86.305 98.9888 86.5313C99.6857 86.7476 100.197 87.2732 100.523 88.1079C100.788 88.783 100.81 89.356 100.589 89.827C100.363 90.2879 99.8214 90.68 98.9629 91.0033L94.8151 92.5649L94.3472 91.3221L97.881 89.9916C98.2104 89.8676 98.3987 89.7169 98.4459 89.5395C98.4894 89.3522 98.4573 89.1307 98.3496 88.8749C98.218 88.5255 98.028 88.3235 97.7795 88.2689C97.5372 88.2005 97.1814 88.2547 96.7123 88.4313C96.303 88.5854 96.0042 88.7606 95.816 88.9569C95.6377 89.1494 95.5619 89.4173 95.5886 89.7605C95.6152 90.1038 95.7394 90.5699 95.9612 91.1589C96.1942 91.7778 96.4295 92.2363 96.6671 92.5344C96.901 92.8225 97.1721 92.9825 97.4805 93.0146C97.7989 93.0429 98.1877 92.9706 98.6469 92.7977C98.9963 92.6661 99.4168 92.4964 99.9084 92.2885C100.406 92.0669 100.898 91.8303 101.385 91.5787L102.093 92.868C101.866 93.113 101.583 93.345 101.243 93.5639C100.904 93.7828 100.545 93.9806 100.167 94.1571C99.7931 94.3436 99.4213 94.5064 99.0519 94.6455C98.1236 94.995 97.3191 95.144 96.6387 95.0925C95.9644 95.0272 95.3904 94.7589 94.9166 94.2876C94.4528 93.8126 94.0537 93.1309 93.7192 92.2424C93.3546 91.2741 93.195 90.4566 93.2403 89.7899C93.2856 89.1231 93.5408 88.5597 94.0058 88.0997C94.4709 87.6397 95.1526 87.2405 96.0511 86.9022Z" fill="#0600CC"/>
<path d="M106.744 78.7502L107.769 80.2884C107.517 80.6067 107.253 80.8667 106.977 81.0681C106.711 81.2656 106.44 81.4364 106.165 81.5804C105.885 81.7146 105.608 81.8536 105.332 81.9976C105.062 82.1278 104.795 82.2917 104.529 82.4892C104.221 82.7262 103.99 82.9674 103.835 83.2127C103.68 83.458 103.582 83.7034 103.542 83.9489C103.508 84.1806 103.505 84.4173 103.532 84.659C103.518 84.8828 103.533 85.0948 103.578 85.2949C103.619 85.4852 103.659 85.6704 103.696 85.8508L103.74 85.833C103.802 85.6133 103.88 85.4045 103.974 85.2066C104.063 84.9988 104.185 84.801 104.34 84.6132C104.505 84.4214 104.714 84.2406 104.968 84.0707C105.232 83.897 105.552 83.7352 105.929 83.5855C106.702 83.2781 107.364 83.1527 107.914 83.2093C108.465 83.2659 108.942 83.5125 109.345 83.9491C109.744 84.3758 110.109 85.0054 110.44 85.838C110.767 86.6607 110.934 87.3979 110.941 88.0496C110.943 88.6914 110.734 89.2624 110.313 89.7626C109.902 90.2589 109.231 90.6923 108.299 91.0628C107.576 91.3505 106.944 91.5096 106.406 91.5402C105.877 91.5668 105.418 91.4965 105.03 91.3293C104.652 91.1582 104.32 90.9 104.034 90.5548C103.757 90.2056 103.504 89.801 103.276 89.341C103.057 88.877 102.841 88.3774 102.628 87.8422C102.336 87.1087 102.107 86.4308 101.94 85.8085C101.769 85.1763 101.685 84.5898 101.688 84.0491C101.691 83.5083 101.806 83.0035 102.033 82.5345C102.27 82.0616 102.641 81.6098 103.147 81.179C103.451 80.9321 103.756 80.7188 104.063 80.5392C104.371 80.3595 104.677 80.1918 104.983 80.036C105.298 79.8762 105.6 79.6985 105.89 79.5031C106.189 79.3036 106.474 79.0527 106.744 78.7502ZM105.946 85.2315C105.52 85.401 105.226 85.5984 105.063 85.8239C104.91 86.0454 104.853 86.3206 104.892 86.6495C104.936 86.9646 105.059 87.3748 105.26 87.8803C105.489 88.4552 105.713 88.8885 105.932 89.1801C106.147 89.4618 106.385 89.6257 106.644 89.6718C106.9 89.708 107.211 89.6532 107.577 89.5074C107.934 89.3655 108.193 89.1937 108.354 88.992C108.511 88.7804 108.571 88.4983 108.534 88.1456C108.497 87.793 108.362 87.3242 108.13 86.7394C107.913 86.1943 107.706 85.7888 107.509 85.5229C107.311 85.2571 107.091 85.1091 106.85 85.0789C106.604 85.0388 106.303 85.0896 105.946 85.2315Z" fill="#0600CC"/>
<path d="M116.231 82.3641L116.814 83.7504L112.419 85.5995L111.836 84.2133L116.231 82.3641Z" fill="#0600CC"/>
<path d="M121.086 76.6356C121.339 76.5219 121.628 76.4098 121.952 76.2991C122.282 76.1744 122.618 76.0761 122.96 76.0044C123.308 75.9185 123.639 75.875 123.954 75.8738L124.33 77.336C123.927 77.5055 123.548 77.664 123.193 77.8116C122.838 77.9592 122.52 78.0964 122.238 78.2231C121.8 78.4198 121.476 78.6355 121.266 78.8703C121.065 79.1007 120.979 79.3907 121.008 79.7404C121.032 80.0804 121.162 80.5131 121.398 81.0386C121.638 81.5737 121.879 81.9681 122.122 82.2216C122.364 82.4752 122.638 82.6036 122.944 82.6067C123.259 82.6055 123.636 82.5065 124.073 82.3098C124.229 82.2399 124.426 82.1454 124.665 82.0265C124.904 81.9075 125.162 81.7797 125.44 81.6433C125.714 81.4971 125.978 81.3433 126.233 81.182L127.053 82.4622C126.743 82.8122 126.357 83.1375 125.896 83.4383C125.434 83.739 124.961 83.9986 124.474 84.2171C123.579 84.6192 122.809 84.8188 122.165 84.8159C121.526 84.7989 120.965 84.5656 120.482 84.1158C119.999 83.6661 119.551 82.979 119.135 82.0547C118.72 81.1303 118.505 80.3383 118.489 79.6788C118.474 79.0193 118.679 78.4478 119.105 77.9641C119.531 77.4805 120.191 77.0377 121.086 76.6356Z" fill="#0600CC"/>
<path d="M129.175 72.8105C130.381 72.2177 131.344 72.0001 132.063 72.1577C132.778 72.3058 133.337 72.7795 133.742 73.5789C134.072 74.2252 134.149 74.7934 133.974 75.2836C133.794 75.7641 133.292 76.2067 132.469 76.6113L128.491 78.566L127.906 77.3742L131.294 75.7088C131.61 75.5535 131.783 75.3854 131.813 75.2043C131.838 75.0137 131.785 74.7962 131.653 74.552C131.488 74.217 131.28 74.0343 131.027 74.0039C130.779 73.9593 130.431 74.0475 129.981 74.2686C129.588 74.4615 129.308 74.6647 129.139 74.8782C128.98 75.087 128.931 75.361 128.99 75.7001C129.05 76.0392 129.219 76.4911 129.496 77.056C129.788 77.6495 130.066 78.0831 130.332 78.3569C130.592 78.621 130.878 78.7542 131.188 78.7563C131.507 78.7538 131.887 78.6443 132.328 78.4279C132.663 78.2632 133.065 78.0537 133.534 77.7993C134.008 77.5307 134.475 77.2477 134.935 76.9503L135.764 78.1653C135.562 78.431 135.303 78.6892 134.986 78.9399C134.669 79.1905 134.332 79.422 133.972 79.6342C133.618 79.8559 133.263 80.0538 132.909 80.2279C132.019 80.6654 131.233 80.8914 130.55 80.9058C129.873 80.9059 129.276 80.6943 128.759 80.2709C128.251 79.8428 127.788 79.2028 127.369 78.3508C126.913 77.4222 126.675 76.6239 126.656 75.9559C126.637 75.2879 126.836 74.7026 127.255 74.1998C127.673 73.697 128.313 73.2339 129.175 72.8105Z" fill="#0600CC"/>
<path d="M138.355 68.0171C139.233 67.5341 140.034 67.5077 140.758 67.9379C141.481 68.368 142.169 69.1766 142.821 70.3638C143.33 71.2892 143.63 72.0676 143.721 72.699C143.813 73.3304 143.721 73.8615 143.447 74.2922C143.176 74.7085 142.752 75.076 142.172 75.3945C141.686 75.6617 141.175 75.851 140.64 75.9626C140.115 76.0689 139.593 76.051 139.077 75.9088L138.695 74.914C139.064 74.8328 139.395 74.7603 139.689 74.6963C139.977 74.623 140.285 74.4965 140.612 74.3167C140.911 74.1523 141.121 73.9698 141.242 73.7694C141.363 73.5689 141.379 73.2986 141.29 72.9584C141.204 72.6037 141.002 72.1365 140.684 71.557C140.37 70.9867 140.094 70.5726 139.855 70.3146C139.61 70.0472 139.373 69.9037 139.143 69.884C138.918 69.8498 138.669 69.9072 138.398 70.0562C138.09 70.2258 137.843 70.4407 137.657 70.7009C137.466 70.9518 137.271 71.2721 137.071 71.6618L136.281 70.8547C136.329 70.4995 136.444 70.1442 136.626 69.7886C136.817 69.4279 137.06 69.0939 137.353 68.7864C137.647 68.479 137.981 68.2226 138.355 68.0171ZM135.573 69.7652L136.477 70.9115L136.774 71.0217L139.248 75.5226L139.271 75.7294C139.453 75.9945 139.631 76.274 139.805 76.5679C139.993 76.8661 140.164 77.1674 140.319 77.4717L141.237 79.1402L139.175 80.2731L133.904 70.6823L135.573 69.7652Z" fill="#0600CC"/>
<path d="M146.657 63.1873C147.387 62.7246 147.995 62.4085 148.481 62.2391C148.967 62.0697 149.388 62.0556 149.743 62.1968C150.092 62.3291 150.415 62.6294 150.712 63.0978C151.015 63.5752 151.131 64.007 151.06 64.393C150.989 64.779 150.706 65.1602 150.212 65.5366L150.247 65.5907C150.9 65.2268 151.45 65.118 151.897 65.2643C152.346 65.3959 152.74 65.7274 153.077 66.2589C153.368 66.7183 153.497 67.1415 153.465 67.5284C153.436 67.9006 153.245 68.2676 152.894 68.6295C152.551 68.9856 152.047 69.3751 151.38 69.7978C150.849 70.1349 150.378 70.4275 149.966 70.6755C149.561 70.9326 149.177 71.1635 148.814 71.3683C148.466 71.5764 148.106 71.7857 147.735 71.9962L147.096 70.6012C147.3 70.4845 147.68 70.2564 148.235 69.9169C148.793 69.5628 149.451 69.1457 150.208 68.6658C150.487 68.4887 150.698 68.3234 150.84 68.1698C150.983 68.0162 151.053 67.858 151.051 67.6952C151.043 67.5234 150.971 67.3294 150.833 67.1132C150.628 66.7889 150.401 66.6299 150.152 66.6361C149.906 66.6275 149.563 66.7632 149.122 67.0431L146.054 68.9883L145.352 67.8804L148.419 65.9351C148.689 65.7638 148.889 65.6115 149.02 65.4783C149.144 65.3362 149.204 65.1911 149.198 65.043C149.193 64.8949 149.13 64.7263 149.01 64.5371C148.89 64.3479 148.763 64.2267 148.628 64.1733C148.493 64.1199 148.328 64.1295 148.134 64.202C147.944 64.2598 147.7 64.3829 147.403 64.5714C146.946 64.8481 146.543 65.0978 146.191 65.3206C145.84 65.5434 145.525 65.7433 145.246 65.9204C144.966 66.0975 144.709 66.2796 144.474 66.4666L143.493 65.3079C143.8 65.0752 144.104 64.8572 144.404 64.654C144.714 64.445 145.049 64.2263 145.409 63.9978C145.764 63.7602 146.18 63.4901 146.657 63.1873ZM145.371 64.1167L149.613 70.8051L147.735 71.9962L143.493 65.3079L145.371 64.1167Z" fill="#0600CC"/>
<path d="M157.259 55.7911L161.989 62.1235L160.294 63.4098L157.814 60.0898C157.686 59.9188 157.566 59.749 157.453 59.5802C157.349 59.4051 157.239 59.214 157.125 59.0068L157.073 59.0451C157.137 59.2372 157.189 59.4581 157.229 59.7078C157.263 59.9489 157.285 60.1655 157.295 60.3575L157.426 65.5322L155.772 66.7674L151.042 60.435L152.734 59.1711L155.281 62.5808C155.396 62.7347 155.506 62.8917 155.613 63.0519C155.713 63.2035 155.814 63.3744 155.916 63.5645L155.954 63.5357C155.901 63.3223 155.862 63.1185 155.837 62.9243C155.814 62.7152 155.797 62.5146 155.787 62.3226L155.618 57.0167L157.259 55.7911Z" fill="#0600CC"/>
<path d="M162.138 51.23C162.343 51.0438 162.583 50.8479 162.857 50.6424C163.133 50.4218 163.422 50.2246 163.725 50.0507C164.029 49.8617 164.33 49.718 164.629 49.6194L165.439 50.8939C165.108 51.1797 164.796 51.4475 164.505 51.6975C164.213 51.9475 163.953 52.1763 163.723 52.3841C163.368 52.7064 163.126 53.0117 162.999 53.3C162.879 53.581 162.887 53.8835 163.022 54.2073C163.15 54.5232 163.407 54.8945 163.794 55.3213C164.188 55.756 164.54 56.0565 164.849 56.2227C165.158 56.3889 165.458 56.4263 165.749 56.3349C166.049 56.2364 166.376 56.0259 166.732 55.7036C166.858 55.589 167.017 55.4382 167.207 55.2512C167.398 55.0642 167.604 54.8629 167.826 54.6473C168.041 54.4237 168.245 54.1959 168.437 53.9637L169.613 54.9277C169.426 55.3564 169.16 55.7851 168.814 56.2137C168.468 56.6422 168.097 57.0356 167.702 57.3937C166.975 58.0527 166.305 58.4804 165.691 58.6768C165.078 58.8581 164.472 58.8095 163.874 58.5309C163.276 58.2523 162.637 57.7376 161.957 56.9868C161.276 56.2359 160.827 55.5493 160.608 54.9269C160.389 54.3045 160.408 53.6975 160.663 53.1059C160.919 52.5143 161.41 51.8891 162.138 51.23Z" fill="#0600CC"/>
<path d="M174.572 30.2144C175.015 29.3629 175.443 28.7258 175.855 28.3032C176.263 27.8661 176.711 27.6301 177.198 27.5952C177.685 27.5602 178.265 27.7176 178.936 28.0673C179.637 28.4318 180.1 28.8473 180.326 29.3138C180.547 29.7659 180.527 30.3142 180.263 30.9587L180.348 31.0031C180.809 30.2806 181.34 29.8838 181.942 29.8125C182.535 29.7364 183.224 29.9027 184.009 30.3115C184.681 30.6613 185.14 31.0504 185.386 31.4791C185.636 31.8982 185.709 32.3932 185.605 32.964C185.495 33.5204 185.236 34.1913 184.828 34.9766C184.498 35.6105 184.205 36.1615 183.949 36.6296C183.708 37.0932 183.474 37.5188 183.248 37.9063C183.022 38.2938 182.787 38.6883 182.542 39.0899L181.148 38.0938C181.276 37.8717 181.512 37.4414 181.856 36.8029C182.206 36.155 182.605 35.4006 183.053 34.5396C183.26 34.1422 183.384 33.8103 183.427 33.5438C183.469 33.2774 183.413 33.0498 183.259 32.8612C183.1 32.6583 182.832 32.4583 182.453 32.2612C182.046 32.0494 181.714 31.9366 181.457 31.9229C181.19 31.9042 180.952 31.991 180.744 32.1832C180.541 32.3659 180.328 32.6582 180.107 33.0601L178.26 36.6081L176.883 35.8914L178.716 32.3718C178.888 32.0168 178.993 31.7228 179.031 31.4896C179.073 31.247 179.021 31.0338 178.877 30.8502C178.732 30.6665 178.489 30.486 178.148 30.3087C177.798 30.1264 177.509 30.0358 177.28 30.0368C177.046 30.0235 176.84 30.1084 176.66 30.2915C176.481 30.4746 176.29 30.7601 176.088 31.148C175.812 31.6779 175.568 32.1462 175.356 32.553C175.145 32.9599 174.96 33.3266 174.802 33.6532C174.634 33.9749 174.488 34.2778 174.365 34.5621L172.749 33.9917C172.909 33.5936 173.075 33.217 173.247 32.862C173.416 32.4927 173.608 32.0998 173.825 31.6835C174.032 31.2623 174.281 30.7726 174.572 30.2144ZM173.858 31.863L183.65 36.9611L182.542 39.0899L172.749 33.9917L173.858 31.863Z" fill="#0600CC"/>
<path d="M181.174 22.1261C181.592 20.8487 182.109 20.0076 182.724 19.6028C183.329 19.1946 184.058 19.1248 184.913 19.3933C185.606 19.6087 186.067 19.9502 186.295 20.4178C186.514 20.8821 186.48 21.5501 186.195 22.422L184.817 26.6343L183.555 26.2213L184.729 22.6325C184.838 22.298 184.839 22.0568 184.73 21.909C184.611 21.7579 184.418 21.6442 184.151 21.5681C183.796 21.452 183.52 21.4738 183.322 21.6335C183.117 21.7796 182.936 22.091 182.781 22.5675C182.645 22.9831 182.594 23.3258 182.629 23.5954C182.668 23.8549 182.829 24.0817 183.114 24.2758C183.398 24.4699 183.84 24.6647 184.438 24.8604C185.066 25.0661 185.571 25.1695 185.952 25.1708C186.323 25.1687 186.618 25.0575 186.836 24.837C187.057 24.6064 187.244 24.2579 187.397 23.7916C187.513 23.4367 187.644 23.0026 187.789 22.489C187.928 21.9621 188.052 21.4301 188.16 20.8932L189.608 21.1482C189.657 21.4785 189.661 21.8445 189.62 22.2461C189.578 22.6478 189.508 23.0512 189.409 23.4566C189.32 23.8652 189.214 24.2571 189.091 24.6322C188.783 25.575 188.396 26.2956 187.93 26.7941C187.457 27.2791 186.888 27.5588 186.224 27.6334C185.563 27.6977 184.782 27.5823 183.879 27.2871C182.896 26.9654 182.159 26.5782 181.667 26.1256C181.175 25.6729 180.896 25.1213 180.828 24.4706C180.76 23.82 180.876 23.0385 181.174 22.1261Z" fill="#0600CC"/>
<path d="M180.23 9.26253L182.077 9.19006C182.217 9.57128 182.301 9.93206 182.329 10.2724C182.359 10.6022 182.364 10.9223 182.343 11.2326C182.312 11.541 182.285 11.8504 182.265 12.1607C182.235 12.4587 182.235 12.7726 182.265 13.1024C182.307 13.4884 182.392 13.8115 182.521 14.0717C182.649 14.3318 182.808 14.543 182.997 14.7053C183.176 14.8552 183.377 14.9816 183.597 15.0844C183.781 15.2133 183.969 15.3107 184.164 15.3765C184.348 15.4406 184.526 15.5037 184.699 15.5659L184.708 15.5186C184.552 15.3513 184.415 15.1761 184.295 14.9931C184.164 14.8084 184.059 14.6009 183.979 14.3708C183.902 14.1302 183.856 13.8573 183.844 13.5521C183.833 13.2364 183.862 12.8788 183.931 12.4793C184.072 11.6593 184.31 11.0292 184.645 10.5889C184.98 10.1486 185.439 9.87032 186.022 9.75394C186.594 9.63575 187.322 9.65248 188.205 9.80412C189.078 9.95396 189.794 10.196 190.353 10.5301C190.902 10.8625 191.28 11.3387 191.488 11.9588C191.697 12.5683 191.717 13.3672 191.547 14.3554C191.415 15.1228 191.222 15.7444 190.967 16.2201C190.714 16.6853 190.415 17.0399 190.07 17.2837C189.727 17.517 189.334 17.6658 188.89 17.7303C188.447 17.7842 187.97 17.7889 187.459 17.7443C186.949 17.6892 186.41 17.6129 185.842 17.5154C185.064 17.3818 184.366 17.2241 183.748 17.0422C183.119 16.8585 182.575 16.6243 182.115 16.3397C181.655 16.0551 181.285 15.6938 181.003 15.2558C180.723 14.8072 180.531 14.2548 180.427 13.5984C180.374 13.2106 180.352 12.8387 180.359 12.4828C180.366 12.1268 180.382 11.778 180.408 11.4361C180.437 11.0838 180.443 10.7331 180.427 10.3841C180.413 10.0245 180.347 9.65065 180.23 9.26253ZM185.344 13.3227C185.267 13.7748 185.282 14.1291 185.389 14.3856C185.498 14.6317 185.704 14.8238 186.004 14.9621C186.297 15.088 186.711 15.197 187.247 15.2891C187.857 15.3938 188.343 15.4286 188.706 15.3936C189.059 15.3567 189.323 15.2397 189.497 15.0424C189.661 14.8433 189.777 14.5492 189.844 14.1602C189.909 13.7818 189.897 13.4713 189.809 13.2289C189.71 12.9847 189.5 12.7864 189.18 12.634C188.86 12.4816 188.39 12.3521 187.77 12.2456C187.191 12.1463 186.737 12.1117 186.408 12.1416C186.078 12.1716 185.837 12.2817 185.685 12.4721C185.523 12.6607 185.409 12.9443 185.344 13.3227Z" fill="#0600CC"/>
<path d="M187.667 2.69183L189.169 2.78108L188.886 7.54068L187.384 7.45143L187.667 2.69183Z" fill="#0600CC"/>
</svg>
