<svg width="171" height="174" viewBox="0 0 171 174" fill="none" xmlns="http://www.w3.org/2000/svg">
<path d="M15 177.446C19.3333 151.613 21.5 116.946 85.5 93.9465C146.5 72.0246 186 50.4465 186 1.44647" stroke="#C1FD3A" stroke-width="30"/>
<path d="M11.2836 170.804C11.3664 170.288 11.4524 169.853 11.5415 169.5C11.6217 169.135 11.7127 168.804 11.8144 168.507C11.916 168.21 12.0405 167.906 12.1877 167.594L13.9266 168.068C13.8497 168.412 13.7824 168.731 13.7245 169.024C13.6683 169.307 13.6132 169.617 13.5591 169.954C13.4961 170.278 13.4274 170.673 13.3531 171.136C13.2668 171.673 13.3045 172.111 13.4661 172.451C13.6294 172.779 13.9642 173.049 14.4705 173.26C14.9663 173.469 15.6723 173.647 16.5886 173.794C17.5048 173.942 18.2364 173.994 18.7833 173.952C19.3196 173.909 19.7168 173.757 19.9748 173.495C20.2344 173.224 20.4074 172.819 20.4936 172.282C20.6103 171.556 20.6978 170.943 20.7562 170.445C20.8146 169.946 20.8564 169.451 20.8815 168.958L22.6838 169.036C22.7606 169.567 22.7884 170.101 22.767 170.638C22.7562 171.176 22.6882 171.835 22.5631 172.615C22.3822 173.741 22.0577 174.618 21.5898 175.246C21.1129 175.86 20.4393 176.255 19.5688 176.428C18.6999 176.591 17.5704 176.561 16.1802 176.338C14.79 176.115 13.7079 175.79 12.9337 175.363C12.1613 174.926 11.6501 174.341 11.4002 173.61C11.1415 172.866 11.1026 171.931 11.2836 170.804Z" fill="#0600CC"/>
<path d="M16.1289 161.404C16.2601 160.744 16.4583 160.213 16.7236 159.809C16.9805 159.392 17.3411 159.111 17.8054 158.964C18.2613 158.804 18.8502 158.797 19.572 158.94L24.6876 159.959L24.3191 161.81L22.5744 161.806L22.3109 161.9L19.094 161.26C18.7258 161.197 18.4403 161.238 18.2375 161.383C18.0368 161.517 17.8896 161.819 17.7959 162.29C17.7147 162.698 17.6304 163.203 17.5431 163.806C17.4453 164.406 17.3549 165.025 17.2718 165.661L15.6903 165.574C15.692 165.183 15.7156 164.736 15.7612 164.234C15.8068 163.732 15.8628 163.232 15.9293 162.734C15.9853 162.234 16.0518 161.791 16.1289 161.404ZM19.7267 159.966L21.026 160.241L20.3577 163.681C20.3014 163.963 20.3288 164.181 20.4398 164.333C20.5508 164.486 20.7214 164.585 20.9516 164.631L21.3282 164.706C21.5897 164.758 21.8083 164.726 21.9839 164.608C22.1512 164.478 22.266 164.257 22.3285 163.943C22.3826 163.671 22.3834 163.366 22.3308 163.03C22.2803 162.682 22.1816 162.331 22.0349 161.976C21.8881 161.62 21.6974 161.294 21.4629 160.997L22.4672 161.197C22.6074 161.312 22.7791 161.487 22.9823 161.724C23.177 161.947 23.3613 162.223 23.5353 162.551C23.6987 162.878 23.8204 163.25 23.9003 163.668C23.9822 164.076 23.9753 164.521 23.8795 165.002C23.7858 165.473 23.6178 165.88 23.3755 166.223C23.1331 166.566 22.8279 166.815 22.4599 166.971C22.0919 167.126 21.6672 167.155 21.186 167.06L20.3857 166.9C19.7685 166.777 19.3289 166.472 19.067 165.985C18.805 165.498 18.7469 164.888 18.8927 164.156L19.7267 159.966Z" fill="#0600CC"/>
<path d="M19.6248 148.785L27.2111 151.004L26.6292 153.051L22.6518 151.888C22.447 151.828 22.2489 151.764 22.0574 151.697C21.8688 151.62 21.6664 151.533 21.4502 151.436L21.4322 151.498C21.5985 151.613 21.7727 151.758 21.9548 151.934C22.1266 152.106 22.2743 152.266 22.398 152.414L25.6124 156.471L25.0331 158.452L17.4468 156.234L18.0396 154.206L22.1245 155.401C22.3088 155.455 22.4916 155.514 22.6729 155.578C22.8439 155.639 23.0273 155.715 23.2231 155.806L23.2366 155.76C23.066 155.621 22.9123 155.481 22.7754 155.341C22.6313 155.188 22.4975 155.038 22.3738 154.89L19.05 150.751L19.6248 148.785ZM15.4912 150.494L15.9223 149.02C16.36 149.081 16.7296 149.261 17.031 149.561C17.3354 149.85 17.5419 150.227 17.6504 150.692C17.7618 151.147 17.7352 151.656 17.5706 152.219C17.4059 152.782 17.1526 153.23 16.8106 153.564C16.4686 153.897 16.09 154.109 15.6748 154.198C15.2596 154.288 14.8496 154.246 14.4448 154.072L14.8804 152.582C15.3219 152.745 15.672 152.764 15.9306 152.64C16.182 152.502 16.3601 152.254 16.4649 151.896C16.5667 151.547 16.5473 151.253 16.4066 151.012C16.2558 150.768 15.9506 150.595 15.4912 150.494Z" fill="#0600CC"/>
<path d="M22.2796 142.214L29.5605 145.29L28.639 147.471L21.3581 144.396L22.2796 142.214ZM23.3007 139.797L24.9809 140.507L22.0109 147.537L20.3307 146.828L23.3007 139.797Z" fill="#0600CC"/>
<path d="M30.8402 127.6L35.9037 134.41C36.2367 134.814 36.4884 135.214 36.6587 135.611C36.8349 135.999 36.9446 136.381 36.9878 136.757C37.0398 137.139 37.0312 137.525 36.9619 137.915C36.8981 138.412 36.7265 138.887 36.4469 139.342C36.1674 139.797 35.8332 140.228 35.4443 140.635L34.276 139.619C34.5406 139.244 34.7488 138.896 34.9007 138.574C35.0615 138.258 35.1512 137.952 35.1699 137.656C35.1766 137.417 35.1257 137.158 35.0171 136.879C34.9174 136.607 34.7821 136.349 34.6113 136.106L34.0019 135.176C33.8577 134.951 33.6721 134.711 33.4451 134.456C33.2182 134.2 33.0207 133.978 32.8526 133.788L29.4311 129.699L30.8402 127.6ZM27.3443 132.807L32.4335 134.412C32.6255 134.49 32.8176 134.567 33.0096 134.645C33.2017 134.722 33.3908 134.804 33.5769 134.891L33.8176 134.532L34.7003 136.03L34.3793 136.509C34.2723 136.668 34.1358 136.776 33.97 136.831C33.8101 136.878 33.6414 136.881 33.4641 136.839L25.9352 134.906L27.3443 132.807Z" fill="#0600CC"/>
<path d="M34.558 123.074C34.7418 122.866 34.9589 122.645 35.2091 122.411C35.4584 122.162 35.7241 121.934 36.0063 121.728C36.2875 121.507 36.5715 121.331 36.8582 121.2L37.8027 122.378C37.5048 122.698 37.2246 122.999 36.9621 123.279C36.6996 123.559 36.4658 123.816 36.2607 124.047C35.9426 124.407 35.7359 124.736 35.6409 125.037C35.5529 125.329 35.5938 125.629 35.7636 125.936C35.9254 126.236 36.222 126.577 36.6532 126.959C37.0925 127.348 37.4748 127.608 37.8002 127.739C38.1255 127.871 38.4281 127.875 38.7077 127.752C38.9945 127.621 39.2969 127.376 39.6151 127.017C39.7282 126.889 39.8692 126.722 40.038 126.515C40.2067 126.308 40.3896 126.086 40.5867 125.847C40.7758 125.601 40.9533 125.352 41.1194 125.1L42.3939 125.93C42.2549 126.376 42.037 126.832 41.7403 127.295C41.4436 127.759 41.1185 128.191 40.765 128.59C40.1145 129.325 39.495 129.824 38.9064 130.086C38.317 130.334 37.7098 130.352 37.0848 130.14C36.4599 129.929 35.7681 129.488 35.0094 128.816C34.2506 128.144 33.7285 127.511 33.4429 126.916C33.1574 126.322 33.1092 125.716 33.2984 125.1C33.4877 124.484 33.9075 123.809 34.558 123.074Z" fill="#0600CC"/>
<path d="M43.7755 114.549L44.8585 115.769L42.4647 117.893C42.2652 118.07 42.1601 118.249 42.1493 118.43C42.1314 118.602 42.199 118.799 42.352 119.02C42.6023 119.382 42.8522 119.752 43.1016 120.13C43.352 120.493 43.5877 120.847 43.8088 121.192C44.0228 121.53 44.1935 121.835 44.3208 122.107C44.6082 122.608 44.7348 123.08 44.7007 123.524C44.6675 123.952 44.5152 124.351 44.2438 124.721C43.9874 125.091 43.6425 125.425 43.209 125.724L41.8721 124.579C42.0203 124.376 42.1445 124.194 42.2447 124.034C42.345 123.874 42.3996 123.719 42.4086 123.568C42.4256 123.41 42.3908 123.234 42.3042 123.04C42.2317 122.862 42.134 122.664 42.0111 122.445C41.8811 122.218 41.733 121.979 41.5667 121.727C41.4004 121.475 41.2195 121.215 41.024 120.946C40.8285 120.678 40.633 120.409 40.4375 120.141C40.0536 119.611 39.8756 119.113 39.9035 118.647C39.9394 118.173 40.2087 117.713 40.7114 117.267L43.7755 114.549ZM43.9311 114.411L49.1764 120.323L47.4169 121.884L42.1716 115.971L43.9311 114.411Z" fill="#0600CC"/>
<path d="M52.7078 108.028L55.0431 116.187C55.2124 116.682 55.3067 117.145 55.326 117.577C55.354 118.002 55.3219 118.398 55.2297 118.765C55.1436 119.141 54.9993 119.499 54.7968 119.84C54.5619 120.282 54.2335 120.667 53.8115 120.993C53.3895 121.32 52.9247 121.606 52.4173 121.849L51.6824 120.487C52.0622 120.229 52.3799 119.977 52.6357 119.729C52.8976 119.49 53.0895 119.236 53.2113 118.965C53.3021 118.744 53.3459 118.483 53.3425 118.184C53.3453 117.894 53.3097 117.605 53.2357 117.317L52.9934 116.233C52.9379 115.971 52.849 115.681 52.7266 115.362C52.6043 115.043 52.498 114.765 52.4078 114.528L50.6489 109.495L52.7078 108.028ZM47.5996 111.667L51.7953 114.965C51.9476 115.105 52.1 115.245 52.2523 115.386C52.4047 115.526 52.5527 115.669 52.6963 115.816L53.0482 115.565L53.3455 117.279L52.8764 117.613C52.72 117.724 52.5544 117.777 52.3796 117.77C52.2134 117.758 52.0548 117.7 51.9036 117.599L45.5406 113.134L47.5996 111.667Z" fill="#0600CC"/>
<path d="M56.1857 105.883C56.7999 105.517 57.4379 105.15 58.0997 104.781C58.756 104.403 59.3773 104.102 59.9635 103.877L60.7235 105.343L58.0421 106.938C57.813 107.074 57.6779 107.223 57.6371 107.384C57.5908 107.535 57.6331 107.721 57.764 107.941L60.5289 112.589L58.5213 113.783L55.421 108.572C55.0883 108.013 54.985 107.516 55.111 107.081C55.2408 106.631 55.599 106.232 56.1857 105.883Z" fill="#0600CC"/>
<path d="M78.7626 91.4117C79.249 91.2203 79.6667 91.0731 80.0159 90.9701C80.3711 90.8532 80.7024 90.763 81.0098 90.6993C81.3172 90.6357 81.6423 90.588 81.9852 90.5562L82.4627 92.2941C82.1273 92.4031 81.8187 92.5074 81.5369 92.6068C81.265 92.7023 80.9702 92.8126 80.6526 92.9376C80.341 93.0487 79.9668 93.1902 79.5301 93.3621C79.0239 93.5613 78.6659 93.8168 78.4562 94.1286C78.2564 94.4365 78.1946 94.862 78.2708 95.4052C78.343 95.9384 78.5491 96.6368 78.8889 97.5003C79.2287 98.3639 79.5558 99.0204 79.8702 99.4698C80.1807 99.9093 80.514 100.174 80.87 100.263C81.236 100.348 81.6721 100.291 82.1783 100.092C82.8632 99.8223 83.435 99.5858 83.8937 99.3824C84.3524 99.179 84.8003 98.9626 85.2373 98.7333L86.0871 100.325C85.6692 100.661 85.2239 100.957 84.751 101.212C84.2821 101.476 83.6803 101.753 82.9458 102.042C81.8838 102.46 80.9637 102.627 80.1858 102.544C79.4138 102.446 78.7316 102.067 78.1391 101.406C77.5565 100.741 77.0074 99.7538 76.4918 98.4436C75.9762 97.1334 75.7051 96.0365 75.6783 95.1529C75.6615 94.2654 75.9043 93.528 76.4068 92.9405C76.9153 92.3392 77.7005 91.8296 78.7626 91.4117Z" fill="#0600CC"/>
<path d="M89.409 90.8154C90.0403 90.585 90.5975 90.4782 91.0805 90.495C91.5699 90.4981 91.9979 90.6599 92.3646 90.9802C92.7377 91.2869 93.0504 91.786 93.3027 92.4774L95.0907 97.3773L93.3171 98.0245L92.4146 96.5314L92.197 96.3554L91.0726 93.2741C90.9346 92.927 90.7512 92.7044 90.5224 92.6063C90.3036 92.5044 89.9687 92.5358 89.5178 92.7003C89.127 92.8429 88.6515 93.0335 88.0913 93.272C87.5274 93.5004 86.9522 93.7444 86.3656 94.0039L85.6177 92.6076C85.9528 92.4059 86.3467 92.194 86.7994 91.972C87.2521 91.7501 87.7084 91.5381 88.1684 91.3362C88.6247 91.1243 89.0383 90.9507 89.409 90.8154ZM92.5065 93.1426L92.9467 94.3956L89.6604 95.6118C89.3899 95.7105 89.2183 95.847 89.1456 96.0211C89.0729 96.1953 89.0767 96.3926 89.1572 96.613L89.2888 96.9737C89.3802 97.2243 89.5216 97.3941 89.7131 97.4832C89.911 97.5586 90.1602 97.5414 90.4608 97.4317C90.7213 97.3367 90.9818 97.1792 91.2422 96.9593C91.5126 96.7357 91.7615 96.4688 91.989 96.1587C92.2165 95.8486 92.3961 95.5163 92.5279 95.1616L92.8789 96.1236C92.8536 96.3031 92.7928 96.541 92.6965 96.8373C92.6066 97.1199 92.4666 97.4208 92.2765 97.74C92.0827 98.0492 91.8279 98.3465 91.512 98.6321C91.2061 98.9141 90.8227 99.1391 90.3617 99.3073C89.9108 99.4719 89.4757 99.5398 89.0565 99.5111C88.6373 99.4824 88.2658 99.3512 87.942 99.1173C87.6182 98.8835 87.3722 98.5361 87.204 98.0751L86.9243 97.3086C86.7086 96.7174 86.7408 96.1833 87.0209 95.7064C87.3011 95.2294 87.7919 94.863 88.4933 94.607L92.5065 93.1426Z" fill="#0600CC"/>
<path d="M102.215 86.2204L105.038 93.6031L103.056 94.3781L101.576 90.5074C101.5 90.3081 101.43 90.1119 101.368 89.9188C101.316 89.7219 101.262 89.5081 101.208 89.2775L101.149 89.3003C101.157 89.5025 101.147 89.7292 101.117 89.9803C101.084 90.2215 101.046 90.4359 101.004 90.6234L99.7175 95.6374L97.7896 96.3745L94.9668 88.9918L96.9395 88.2375L98.4595 92.2128C98.528 92.3922 98.5916 92.5734 98.6502 92.7565C98.705 92.9297 98.7556 93.1217 98.8019 93.3324L98.8467 93.3152C98.854 93.0954 98.8721 92.8887 98.9008 92.695C98.9356 92.4875 98.9743 92.29 99.0168 92.1025L100.302 86.9518L102.215 86.2204ZM98.354 83.9624L99.7887 83.4138C100.005 83.7995 100.085 84.2028 100.029 84.6239C99.9827 85.0412 99.8073 85.4337 99.5025 85.8015C99.2078 86.1654 98.7864 86.4522 98.2384 86.6617C97.6904 86.8712 97.1802 86.9407 96.7079 86.87C96.2355 86.7994 95.838 86.6259 95.5154 86.3496C95.1927 86.0733 94.9782 85.7213 94.8718 85.2938L96.3215 84.7395C96.4592 85.1893 96.6559 85.4796 96.9114 85.6103C97.1731 85.7272 97.4782 85.719 97.827 85.5857C98.1657 85.4561 98.3886 85.2624 98.4955 85.0046C98.5987 84.7367 98.5515 84.3893 98.354 83.9624Z" fill="#0600CC"/>
<path d="M108.813 83.5755L111.774 90.904L109.579 91.791L106.618 84.4626L108.813 83.5755ZM111.246 82.5925L111.93 84.2837L104.853 87.1428L104.17 85.4516L111.246 82.5925Z" fill="#0600CC"/>
<path d="M123.706 77.1454L124.378 85.6051C124.446 86.1238 124.447 86.5966 124.38 87.0234C124.323 87.4458 124.213 87.8278 124.05 88.1691C123.892 88.5202 123.679 88.8427 123.413 89.1366C123.095 89.5237 122.697 89.8356 122.219 90.0723C121.74 90.3091 121.228 90.4966 120.683 90.6349L120.232 89.1539C120.655 88.9768 121.017 88.7922 121.317 88.6001C121.621 88.4177 121.859 88.2062 122.032 87.9655C122.165 87.7661 122.26 87.5195 122.316 87.226C122.376 86.9421 122.398 86.6518 122.383 86.3551L122.36 85.2439C122.358 84.9764 122.328 84.6743 122.271 84.3376C122.214 84.0008 122.165 83.7074 122.124 83.4573L121.397 78.1752L123.706 77.1454ZM117.978 79.7004L121.437 83.7636C121.558 83.9313 121.68 84.099 121.802 84.2667C121.923 84.4344 122.04 84.6043 122.151 84.7764L122.546 84.6004L122.498 86.3387L121.972 86.5734C121.797 86.6516 121.624 86.6702 121.454 86.6293C121.293 86.584 121.149 86.4965 121.021 86.3667L115.669 80.7302L117.978 79.7004Z" fill="#0600CC"/>
<path d="M128.579 74.5508C128.828 74.4293 129.113 74.3081 129.434 74.1873C129.76 74.0522 130.093 73.9435 130.432 73.861C130.777 73.7643 131.106 73.7103 131.421 73.6992L131.843 75.1489C131.445 75.3309 131.072 75.5013 130.722 75.66C130.372 75.8187 130.058 75.9658 129.78 76.1014C129.349 76.3117 129.031 76.5375 128.829 76.7788C128.635 77.0154 128.559 77.308 128.598 77.6566C128.633 77.9957 128.776 78.4241 129.029 78.9418C129.286 79.4692 129.54 79.8557 129.79 80.1015C130.04 80.3474 130.318 80.467 130.624 80.4605C130.938 80.4494 131.312 80.3386 131.743 80.1283C131.897 80.0535 132.091 79.9529 132.326 79.8265C132.561 79.7 132.815 79.5642 133.088 79.4191C133.357 79.2643 133.616 79.1024 133.866 78.9331L134.727 80.1869C134.427 80.5464 134.052 80.8837 133.6 81.1988C133.148 81.5139 132.683 81.7883 132.204 82.022C131.322 82.4521 130.558 82.6758 129.914 82.6932C129.275 82.6963 128.707 82.4807 128.21 82.0464C127.714 81.6121 127.244 80.9395 126.8 80.0286C126.355 79.1178 126.115 78.333 126.079 77.6743C126.043 77.0156 126.23 76.4379 126.64 75.9411C127.051 75.4443 127.697 74.9809 128.579 74.5508Z" fill="#0600CC"/>
<path d="M139.978 68.8045L140.759 70.2377L137.949 71.7682C137.714 71.8958 137.572 72.0464 137.521 72.22C137.464 72.3843 137.486 72.5911 137.585 72.8406C137.748 73.2502 137.908 73.667 138.066 74.0911C138.228 74.5006 138.378 74.8987 138.516 75.2853C138.648 75.6625 138.746 75.998 138.809 76.2917C138.976 76.8443 138.993 77.333 138.86 77.7577C138.732 78.1679 138.493 78.5223 138.146 78.8209C137.813 79.1237 137.401 79.3721 136.912 79.5658L135.867 78.149C136.057 77.9849 136.219 77.836 136.352 77.7024C136.486 77.5689 136.574 77.4297 136.617 77.285C136.669 77.1352 136.675 76.9561 136.634 76.7475C136.603 76.5576 136.553 76.3422 136.482 76.1012C136.407 75.8509 136.316 75.5844 136.211 75.3017C136.106 75.019 135.988 74.7248 135.858 74.4191C135.728 74.1134 135.598 73.8077 135.468 73.502C135.213 72.9 135.151 72.3747 135.284 71.9261C135.425 71.4725 135.791 71.085 136.381 70.7636L139.978 68.8045ZM140.161 68.705L143.941 75.6464L141.876 76.7713L138.095 69.8299L140.161 68.705Z" fill="#0600CC"/>
<path d="M149.389 63.0322L151.223 71.318C151.362 71.8224 151.428 72.2905 151.421 72.7224C151.423 73.1487 151.367 73.5421 151.252 73.9027C151.144 74.2724 150.978 74.6211 150.755 74.9489C150.493 75.3762 150.142 75.7401 149.701 76.0406C149.26 76.3411 148.779 76.5976 148.257 76.8099L147.607 75.4053C148.002 75.1714 148.334 74.9387 148.604 74.707C148.88 74.4844 149.087 74.242 149.225 73.9797C149.33 73.7638 149.389 73.5066 149.404 73.2081C149.424 72.9187 149.407 72.6281 149.35 72.3364L149.174 71.239C149.135 70.9744 149.064 70.6792 148.961 70.3536C148.858 70.0279 148.769 69.744 148.693 69.502L147.244 64.3709L149.389 63.0322ZM144.068 66.3537L148.056 69.9003C148.199 70.0496 148.343 70.1989 148.486 70.3482C148.63 70.4976 148.769 70.6497 148.903 70.8047L149.27 70.5759L149.462 72.3042L148.973 72.6092C148.811 72.7109 148.642 72.7532 148.468 72.7362C148.303 72.7135 148.148 72.6467 148.003 72.5358L141.924 67.6924L144.068 66.3537Z" fill="#0600CC"/>
<path d="M152.037 61.0037C152.617 60.5858 153.22 60.1641 153.847 59.7385C154.467 59.3044 155.06 58.9496 155.624 58.6744L156.51 60.0674L153.979 61.8918C153.762 62.0478 153.641 62.2076 153.614 62.3714C153.582 62.5266 153.64 62.708 153.79 62.9156L156.952 67.3027L155.057 68.6687L151.511 63.7494C151.131 63.2216 150.984 62.7355 151.071 62.2912C151.161 61.8321 151.483 61.4029 152.037 61.0037Z" fill="#0600CC"/>
<path d="M168.598 41.0156C168.921 40.6048 169.207 40.2667 169.456 40.0014C169.704 39.7212 169.944 39.476 170.177 39.2658C170.41 39.0556 170.667 38.8502 170.947 38.6497L172.237 39.9084C172.002 40.1719 171.789 40.4177 171.596 40.6459C171.409 40.8657 171.21 41.1097 170.999 41.378C170.787 41.6313 170.535 41.9424 170.245 42.3113C169.909 42.7389 169.729 43.1402 169.705 43.5153C169.688 43.8819 169.85 44.2804 170.19 44.7107C170.522 45.1344 171.052 45.6331 171.782 46.2068C172.511 46.7805 173.125 47.1819 173.623 47.411C174.113 47.6335 174.534 47.6933 174.887 47.5904C175.246 47.4792 175.593 47.2098 175.93 46.7822C176.385 46.2036 176.759 45.7108 177.052 45.3035C177.345 44.8963 177.622 44.4833 177.884 44.0647L179.421 45.009C179.23 45.5103 178.995 45.9904 178.716 46.4492C178.445 46.9146 178.065 47.4575 177.577 48.0779C176.871 48.975 176.162 49.584 175.448 49.9047C174.733 50.2105 173.952 50.2278 173.107 49.9566C172.269 49.677 171.296 49.102 170.189 48.2316C169.082 47.3612 168.294 46.5514 167.825 45.8023C167.362 45.0449 167.199 44.2857 167.336 43.5249C167.472 42.7492 167.892 41.9127 168.598 41.0156Z" fill="#0600CC"/>
<path d="M176.223 35.0677C176.557 34.485 176.915 34.0446 177.295 33.7464C177.672 33.4337 178.103 33.2819 178.59 33.291C179.073 33.2855 179.634 33.466 180.272 33.8326L184.795 36.4309L183.854 38.068L182.202 37.5065L181.923 37.5118L179.078 35.878C178.749 35.7012 178.466 35.649 178.227 35.7212C177.994 35.7842 177.758 36.0238 177.519 36.44C177.312 36.8007 177.071 37.2526 176.796 37.7958C176.511 38.3336 176.228 38.8906 175.946 39.4668L174.475 38.88C174.602 38.5098 174.767 38.0941 174.97 37.6328C175.174 37.1715 175.387 36.7156 175.609 36.2649C175.821 35.809 176.026 35.4099 176.223 35.0677ZM180.091 34.8543L181.234 35.5297L179.503 38.576C179.359 38.8257 179.316 39.0406 179.372 39.2206C179.429 39.4007 179.559 39.5492 179.762 39.6661L180.095 39.8574C180.327 39.9902 180.544 40.0291 180.748 39.974C180.948 39.9043 181.128 39.7307 181.287 39.4533C181.425 39.2128 181.523 38.9246 181.581 38.5887C181.644 38.2435 181.662 37.879 181.637 37.4953C181.611 37.1116 181.535 36.7416 181.407 36.3854L182.295 36.8955C182.391 37.0492 182.498 37.2704 182.615 37.5591C182.728 37.8332 182.815 38.1536 182.875 38.5202C182.926 38.8815 182.922 39.2731 182.864 39.695C182.812 40.1077 182.663 40.5268 182.419 40.9522C182.18 41.3684 181.89 41.7005 181.551 41.9485C181.212 42.1964 180.843 42.3351 180.445 42.3647C180.046 42.3942 179.635 42.2867 179.209 42.0423L178.502 41.6358C177.956 41.3223 177.637 40.893 177.544 40.3476C177.451 39.8023 177.591 39.206 177.963 38.5585L180.091 34.8543Z" fill="#0600CC"/>
<path d="M181.595 23.3237L188.984 26.1306L188.244 28.1255L184.37 26.6539C184.17 26.5782 183.978 26.4993 183.792 26.4174C183.61 26.3255 183.415 26.2229 183.207 26.1096L183.184 26.1695C183.341 26.2975 183.503 26.4561 183.671 26.6453C183.829 26.8308 183.964 27.0018 184.075 27.1583L186.962 31.4553L186.229 33.3848L178.84 30.5779L179.59 28.6035L183.568 30.115C183.748 30.1831 183.925 30.2563 184.101 30.3345C184.267 30.4088 184.444 30.4988 184.632 30.6045L184.649 30.5596C184.49 30.4079 184.347 30.2569 184.222 30.1065C184.09 29.9424 183.969 29.7821 183.857 29.6255L180.868 25.2382L181.595 23.3237ZM177.34 24.7025L177.886 23.2666C178.318 23.3621 178.672 23.5709 178.949 23.8929C179.23 24.205 179.406 24.5971 179.478 25.0693C179.553 25.5316 179.486 26.0369 179.278 26.5853C179.07 27.1338 178.782 27.5608 178.415 27.8663C178.048 28.1719 177.654 28.3531 177.233 28.41C176.812 28.4668 176.406 28.3927 176.017 28.1875L176.568 26.7367C176.995 26.9333 177.343 26.9797 177.61 26.876C177.872 26.7585 178.069 26.5252 178.201 26.1762C178.33 25.8372 178.334 25.542 178.213 25.2905C178.081 25.0353 177.791 24.8393 177.34 24.7025Z" fill="#0600CC"/>
<path d="M183.182 16.6334L190.897 18.3533L190.381 20.6645L182.667 18.9446L183.182 16.6334ZM183.753 14.0723L185.533 14.4692L183.873 21.9183L182.092 21.5214L183.753 14.0723Z" fill="#0600CC"/>
<path d="M184.72 0L192.603 3.14327C193.098 3.31213 193.523 3.52091 193.876 3.76961C194.229 4.00765 194.523 4.27536 194.757 4.57275C195.002 4.87056 195.197 5.20379 195.342 5.57245C195.549 6.02888 195.652 6.52398 195.652 7.05774C195.653 7.5915 195.594 8.13362 195.476 8.6841L193.949 8.43206C193.978 7.97417 193.972 7.56831 193.933 7.21449C193.904 6.86109 193.82 6.55356 193.681 6.29191C193.561 6.08438 193.382 5.89054 193.143 5.71039C192.915 5.53066 192.665 5.38207 192.392 5.26462L191.386 4.79283C191.145 4.67664 190.861 4.56943 190.534 4.4712C190.207 4.37298 189.922 4.28709 189.679 4.21352L184.621 2.52606L184.72 0ZM184.475 6.26718L189.65 4.96494C189.854 4.93025 190.058 4.89556 190.262 4.86087C190.466 4.82617 190.67 4.79681 190.874 4.77277L190.891 4.3411L192.428 5.15396L192.406 5.72952C192.398 5.92137 192.339 6.08449 192.227 6.21887C192.115 6.34259 191.973 6.43309 191.8 6.49035L184.376 8.79324L184.475 6.26718Z" fill="#0600CC"/>
</svg>
