<svg width="30" height="30" viewBox="0 0 30 30" fill="none" xmlns="http://www.w3.org/2000/svg">
    <g clip-path="url(#clip0_104_1412)">
        <circle cx="15" cy="15" r="15" fill="white" />
        <path
            d="M22.1832 9.7319L21.2678 8.81653C20.7429 8.29361 20.0322 8 19.2914 8C18.5505 8 17.8398 8.29361 17.3149 8.81653L13.9861 12.1505L14.1898 12.1119L14.2852 12.099C14.4313 12.079 14.5786 12.0687 14.7261 12.068C14.8189 12.068 14.9143 12.068 15.0149 12.0809C15.5373 12.1279 16.0411 12.2985 16.4847 12.5786L18.7873 10.276C18.9266 10.1441 19.1111 10.0707 19.303 10.0707C19.4948 10.0707 19.6793 10.1441 19.8187 10.276L20.4607 10.918C20.5647 11.0219 20.6472 11.1453 20.7035 11.2812C20.7598 11.417 20.7888 11.5626 20.7888 11.7096C20.7888 11.8566 20.7598 12.0022 20.7035 12.1381C20.6472 12.2739 20.5647 12.3973 20.4607 12.5012L16.807 16.1446C16.7782 16.1721 16.7471 16.1971 16.7141 16.2194C16.6772 16.2439 16.6384 16.2654 16.5981 16.2839C16.4628 16.3465 16.3117 16.3664 16.1647 16.3411C16.0178 16.3158 15.8821 16.2463 15.7756 16.1421L14.8602 15.2267L14.8396 15.2009C14.8073 15.1731 14.7662 15.1575 14.7235 15.1571C14.6877 15.1584 14.6526 15.1672 14.6204 15.1829L14.5817 15.2035L14.5585 15.2215L13.2693 16.5108C13.3157 16.5649 13.3595 16.6242 13.4111 16.6732L14.3264 17.5886C14.378 17.6402 14.4322 17.6866 14.4863 17.733L14.9143 18.0347C15.4394 18.3391 16.0507 18.4606 16.6523 18.3802H16.7348C16.8364 18.365 16.9371 18.3443 17.0365 18.3183H17.0751L17.1241 18.3029C17.2259 18.2706 17.3257 18.2327 17.4232 18.1894L17.4568 18.1739C17.5716 18.1223 17.6827 18.0629 17.7894 17.996C17.9628 17.8858 18.1236 17.757 18.269 17.6118L22.1832 13.6976C22.7061 13.1728 22.9997 12.4621 22.9997 11.7212C22.9997 10.9803 22.7061 10.2696 22.1832 9.74479V9.7319Z"
            fill="#0600CC" />
        <path
            d="M16.7042 18.9089C15.9902 19.0041 15.2647 18.86 14.6414 18.4989H14.6207L14.6001 18.486L14.5279 18.4345L12.4986 20.4534C12.3947 20.5574 12.2713 20.6399 12.1355 20.6962C11.9997 20.7525 11.8541 20.7815 11.707 20.7815C11.56 20.7815 11.4144 20.7525 11.2786 20.6962C11.1428 20.6399 11.0194 20.5574 10.9154 20.4534L10.5493 20.0873C10.3399 19.8771 10.2223 19.5924 10.2223 19.2957C10.2223 18.999 10.3399 18.7143 10.5493 18.5041L12.5554 16.498L12.692 16.3613L14.1953 14.8581L14.2108 14.8426V14.8323L14.2752 14.7833C14.3076 14.7632 14.3412 14.7451 14.3758 14.7292C14.4214 14.7084 14.4689 14.692 14.5176 14.6802H14.5563C14.5954 14.6726 14.6351 14.6683 14.6749 14.6673H14.7265H14.7935H14.8373C14.9636 14.6907 15.0811 14.7477 15.1777 14.8323L15.2138 14.8632L16.1292 15.7786L16.1446 15.7992C16.1809 15.8271 16.2252 15.8425 16.271 15.8431C16.3039 15.8432 16.3365 15.8362 16.3664 15.8224L16.4051 15.8018L16.4283 15.7838L17.7175 14.4945C17.6711 14.4404 17.6273 14.3811 17.5757 14.3321L16.6861 13.4012C16.5635 13.279 16.4297 13.1685 16.2865 13.0712L16.1988 13.0144C16.012 12.8971 15.8121 12.8019 15.6032 12.7308C15.509 12.7043 15.4134 12.6828 15.3169 12.6663L15.2576 12.6535C15.1588 12.6333 15.059 12.6186 14.9585 12.6096C14.8812 12.6096 14.809 12.6096 14.7394 12.6096H14.7033C14.5869 12.6103 14.4706 12.618 14.3552 12.6328H14.2933H14.2726L14.0973 12.6663L13.9606 12.6999H13.9297C13.8091 12.7356 13.6911 12.7795 13.5765 12.8314H13.5481C13.2462 12.9691 12.9712 13.1595 12.7359 13.3935L8.81653 17.3077C8.29361 17.8325 8 18.5432 8 19.2841C8 20.025 8.29361 20.7357 8.81653 21.2605L9.7319 22.1759C10.2564 22.6994 10.9672 22.9935 11.7083 22.9935C12.4494 22.9935 13.1602 22.6994 13.6847 22.1759L17.0136 18.8548L16.7919 18.896L16.7042 18.9089Z"
            fill="#0600CC" />
    </g>
    <defs>
        <clipPath id="clip0_104_1412">
            <rect width="30" height="30" fill="white" />
        </clipPath>
    </defs>
</svg>