<svg width="30" height="30" viewBox="0 0 30 30" fill="none" xmlns="http://www.w3.org/2000/svg">
    <g clip-path="url(#clip0_104_1418)">
        <circle cx="15" cy="15" r="10" fill="#0600CC" />
        <path
            d="M14.9998 0C6.72895 0 -0.000183105 6.72913 -0.000183105 15C-0.000183105 23.2709 6.72895 30 14.9998 30C23.2713 30 29.9998 23.2709 29.9998 15C29.9998 6.72913 23.2713 0 14.9998 0ZM21.5039 17.9576C22.9629 19.2528 23.2661 19.7152 23.3157 19.7941C23.9203 20.7528 22.6453 20.8696 22.6453 20.8696H19.9583C19.9583 20.8696 19.3042 20.8767 18.7453 20.5063C17.8342 19.9096 16.88 18.7526 16.2096 18.9535C15.6468 19.1217 15.652 19.8822 15.652 20.5324C15.652 20.7652 15.4518 20.8696 14.9998 20.8696C14.5479 20.8696 14.36 20.8696 14.1598 20.8696C12.6879 20.8696 11.0907 20.3739 9.49743 18.7089C7.24351 16.3552 5.26677 11.6139 5.26677 11.6139C5.26677 11.6139 5.15003 11.3752 5.27721 11.2298C5.42134 11.0667 5.81329 11.0876 5.81329 11.0876L8.41873 11.087C8.41873 11.087 8.66395 11.1333 8.84003 11.2572C8.98547 11.3589 9.06634 11.5533 9.06634 11.5533C9.06634 11.5533 9.50395 12.9985 10.0616 13.92C11.1507 15.7187 11.6574 15.7643 12.0272 15.5707C12.5672 15.2902 12.3911 13.378 12.3911 13.378C12.3911 13.378 12.4153 12.557 12.1335 12.1911C11.9163 11.908 11.5009 11.7574 11.3196 11.7339C11.1729 11.715 11.4181 11.458 11.7305 11.3113C12.1479 11.1254 12.7159 11.0778 13.6955 11.087C14.4579 11.0941 14.6776 11.1398 14.975 11.2083C15.8744 11.4157 15.652 11.9628 15.652 13.8841C15.652 14.4998 15.5672 15.3652 16.0316 15.6522C16.2318 15.7761 16.9179 15.9274 18.1387 13.9448C18.7185 13.0043 19.1796 11.4443 19.1796 11.4443C19.1796 11.4443 19.2748 11.2728 19.4229 11.188C19.5742 11.1013 19.5696 11.1033 19.777 11.1033C19.9844 11.1033 22.0642 11.087 22.5207 11.087C22.9766 11.087 23.4044 11.0817 23.4781 11.3491C23.5837 11.7333 23.1416 13.0493 22.0211 14.4776C20.18 16.8215 19.9759 16.6024 21.5039 17.9576Z"
            fill="white" />
    </g>
    <defs>
        <clipPath id="clip0_104_1418">
            <rect width="30" height="30" fill="white" />
        </clipPath>
    </defs>
</svg>