<svg width="30" height="30" viewBox="0 0 30 30" fill="none" xmlns="http://www.w3.org/2000/svg">
    <g clip-path="url(#clip0_104_1422)">
        <circle cx="15" cy="15" r="10" fill="#0600CC" />
        <path
            d="M14.9998 0C23.2844 0 29.9998 6.71544 29.9998 15C29.9998 23.2846 23.2844 30 14.9998 30C6.71525 30 -0.000183105 23.2846 -0.000183105 15C-0.000183105 6.71544 6.71525 0 14.9998 0ZM20.1742 21.1141C20.45 20.2676 21.7426 11.8311 21.9024 10.1687C21.9507 9.66522 21.7916 9.33065 21.4798 9.1813C21.1029 9 20.5446 9.09065 19.897 9.32413C19.0087 9.64435 7.65308 14.4659 6.99699 14.745C6.37482 15.0091 5.78656 15.2974 5.78656 15.7148C5.78656 16.0083 5.96069 16.1733 6.44069 16.3448C6.94025 16.5228 8.1983 16.9043 8.94112 17.1091C9.65656 17.3067 10.4711 17.1352 10.9276 16.8515C11.4116 16.5509 16.9961 12.8139 17.3972 12.4865C17.7976 12.1591 18.1172 12.5785 17.7898 12.9065C17.4624 13.2339 13.6289 16.9546 13.1235 17.4698C12.5098 18.0952 12.9455 18.7435 13.357 19.003C13.8272 19.2991 17.2087 21.5674 17.7181 21.9313C18.2274 22.2952 18.7439 22.4602 19.2168 22.4602C19.6896 22.4602 19.9387 21.8374 20.1742 21.1141Z"
            fill="white" />
    </g>
    <defs>
        <clipPath id="clip0_104_1422">
            <rect width="30" height="30" fill="white" />
        </clipPath>
    </defs>
</svg>